<?xml version="1.0" encoding="UTF-8" standalone="no"?>
<!-- Created with Inkscape (http://www.inkscape.org/) -->

<svg
   width="127.99998mm"
   height="127.99998mm"
   viewBox="0 0 127.99998 127.99998"
   version="1.1"
   id="svg18"
   inkscape:version="1.3.2 (091e20ef0f, 2023-11-25, custom)"
   sodipodi:docname="bold.svg"
   xml:space="preserve"
   xmlns:inkscape="http://www.inkscape.org/namespaces/inkscape"
   xmlns:sodipodi="http://sodipodi.sourceforge.net/DTD/sodipodi-0.dtd"
   xmlns="http://www.w3.org/2000/svg"
   xmlns:svg="http://www.w3.org/2000/svg"
   xmlns:rdf="http://www.w3.org/1999/02/22-rdf-syntax-ns#"
   xmlns:cc="http://creativecommons.org/ns#"
   xmlns:dc="http://purl.org/dc/elements/1.1/"><defs
     id="defs12"><rect
       x="94.285713"
       y="348.57144"
       width="314.28571"
       height="308.57144"
       id="rect1" /><inkscape:path-effect
       effect="mirror_symmetry"
       start_point="-29.848996,84.251749"
       end_point="-29.848996,200.81028"
       center_point="-29.848996,142.53101"
       id="path-effect17"
       is_visible="true"
       lpeversion="1.2"
       lpesatellites=""
       mode="free"
       discard_orig_path="false"
       fuse_paths="false"
       oposite_fuse="false"
       split_items="false"
       split_open="false"
       link_styles="false" /><inkscape:path-effect
       effect="mirror_symmetry"
       start_point="60.297285,100.87223"
       end_point="60.297285,175.29533"
       center_point="60.297285,138.08378"
       id="path-effect16"
       is_visible="true"
       lpeversion="1.2"
       lpesatellites=""
       mode="free"
       discard_orig_path="false"
       fuse_paths="false"
       oposite_fuse="false"
       split_items="false"
       split_open="false"
       link_styles="false" /><inkscape:path-effect
       effect="mirror_symmetry"
       start_point="2.0180169,100.87223"
       end_point="2.0180169,175.29533"
       center_point="2.0180169,138.08378"
       id="path-effect15"
       is_visible="true"
       lpeversion="1.2"
       lpesatellites=""
       mode="free"
       discard_orig_path="false"
       fuse_paths="true"
       oposite_fuse="false"
       split_items="false"
       split_open="false"
       link_styles="false" /></defs><sodipodi:namedview
     id="base"
     pagecolor="#ffffff"
     bordercolor="#666666"
     borderopacity="1.0"
     inkscape:pageopacity="0.0"
     inkscape:pageshadow="2"
     inkscape:zoom="0.7"
     inkscape:cx="270"
     inkscape:cy="312.85714"
     inkscape:document-units="mm"
     inkscape:current-layer="layer1"
     showgrid="false"
     inkscape:pagecheckerboard="true"
     inkscape:window-width="1920"
     inkscape:window-height="1022"
     inkscape:window-x="2160"
     inkscape:window-y="1434"
     inkscape:window-maximized="1"
     inkscape:showpageshadow="2"
     inkscape:deskcolor="#d1d1d1" /><metadata
     id="metadata15"><rdf:RDF><cc:Work
         rdf:about=""><dc:format>image/svg+xml</dc:format><dc:type
           rdf:resource="http://purl.org/dc/dcmitype/StillImage" /></cc:Work></rdf:RDF></metadata><g
     inkscape:label="Layer 1"
     inkscape:groupmode="layer"
     id="layer1"
     transform="translate(150.79588,-36.57104)"><rect
       style="fill:#f9f9f9;fill-rule:evenodd;stroke:#000000;stroke-width:2.18474;stroke-dasharray:none;stroke-dashoffset:0;-inkscape-stroke:none"
       id="rect2-2"
       width="125.81524"
       height="125.81524"
       x="-149.70351"
       y="37.66341"
       ry="31.20808" /><path
       id="text1"
       style="font-weight:bold;font-size:26.6667px;line-height:1.25;font-family:Arial;-inkscape-font-specification:'Arial Bold';letter-spacing:0px;word-spacing:0px;white-space:pre;stroke-width:5.3964"
       d="m -134.94922,44.314453 c 0,37.603516 0,75.207027 0,112.810547 22.02836,-0.24162 44.080679,0.42726 66.087443,-0.83519 7.334657,-0.84761 14.685534,-3.69399 19.87901,-9.08001 9.114372,-9.03625 12.748024,-23.34901 8.574629,-35.55082 -2.201601,-6.34426 -6.737022,-11.825742 -12.488346,-15.278121 8.490065,-7.951571 11.626292,-21.226291 7.202399,-32.044691 -4.143949,-10.774467 -14.840698,-18.620424 -26.338623,-19.458339 -9.385465,-1.121511 -18.854583,-0.646411 -28.281742,-0.804273 -11.54492,-0.0088 -23.08986,-0.01293 -34.63477,-0.02473 0,0.08854 0,0.177083 0,0.265625 z m 37.685548,26.90625 c 6.629375,0.212692 13.359197,-0.438031 19.892945,0.976306 2.788282,1.162726 4.00988,4.612999 3.225702,7.413542 -0.560353,2.490531 -2.797127,4.445658 -5.323594,4.737814 -4.01856,0.881261 -8.159126,0.41313 -12.234499,0.621095 -4.1484,0.02611 -8.296843,0.04069 -12.445322,0.04617 0.006,-4.598307 0.0117,-9.196615 0.0176,-13.794922 2.28906,0 4.578126,0 6.867188,0 z m 4.820313,40.964847 c 6.099912,0.20693 12.39409,-0.24187 18.25,1.81836 3.094162,1.55645 4.507334,5.33745 3.94992,8.64229 -0.301098,3.02436 -2.650823,5.8396 -5.709342,6.30715 -3.59455,0.84946 -7.365167,0.48591 -11.049521,0.69041 -5.709771,0.0898 -11.420331,0.0371 -17.130508,0.0535 6.5e-4,-5.83724 0.001,-11.67448 0.002,-17.51172 3.89583,0 7.791667,0 11.687501,0 z" /></g></svg>
