<?xml version="1.0" encoding="UTF-8" standalone="no"?>
<!-- Created with Inkscape (http://www.inkscape.org/) -->

<svg
   width="127.99998mm"
   height="127.99998mm"
   viewBox="0 0 127.99998 127.99998"
   version="1.1"
   id="svg18"
   inkscape:version="1.3.2 (091e20ef0f, 2023-11-25, custom)"
   sodipodi:docname="fill_background.svg"
   xml:space="preserve"
   xmlns:inkscape="http://www.inkscape.org/namespaces/inkscape"
   xmlns:sodipodi="http://sodipodi.sourceforge.net/DTD/sodipodi-0.dtd"
   xmlns="http://www.w3.org/2000/svg"
   xmlns:svg="http://www.w3.org/2000/svg"
   xmlns:rdf="http://www.w3.org/1999/02/22-rdf-syntax-ns#"
   xmlns:cc="http://creativecommons.org/ns#"
   xmlns:dc="http://purl.org/dc/elements/1.1/"><defs
     id="defs12"><rect
       x="592.85714"
       y="44.285714"
       width="480"
       height="422.85714"
       id="rect7" /><rect
       x="585.71429"
       y="92.857143"
       width="482.85714"
       height="462.85714"
       id="rect6" /><rect
       x="592.85714"
       y="50"
       width="502.85714"
       height="528.57143"
       id="rect5" /><rect
       x="557.14286"
       y="102.85714"
       width="377.14286"
       height="388.57143"
       id="rect3" /><rect
       x="565.71429"
       y="107.14286"
       width="365.71429"
       height="371.42857"
       id="rect2" /><rect
       x="94.285713"
       y="348.57144"
       width="314.28571"
       height="308.57144"
       id="rect1" /><inkscape:path-effect
       effect="mirror_symmetry"
       start_point="-29.848996,84.251749"
       end_point="-29.848996,200.81028"
       center_point="-29.848996,142.53101"
       id="path-effect17"
       is_visible="true"
       lpeversion="1.2"
       lpesatellites=""
       mode="free"
       discard_orig_path="false"
       fuse_paths="false"
       oposite_fuse="false"
       split_items="false"
       split_open="false"
       link_styles="false" /><inkscape:path-effect
       effect="mirror_symmetry"
       start_point="60.297285,100.87223"
       end_point="60.297285,175.29533"
       center_point="60.297285,138.08378"
       id="path-effect16"
       is_visible="true"
       lpeversion="1.2"
       lpesatellites=""
       mode="free"
       discard_orig_path="false"
       fuse_paths="false"
       oposite_fuse="false"
       split_items="false"
       split_open="false"
       link_styles="false" /><inkscape:path-effect
       effect="mirror_symmetry"
       start_point="2.0180169,100.87223"
       end_point="2.0180169,175.29533"
       center_point="2.0180169,138.08378"
       id="path-effect15"
       is_visible="true"
       lpeversion="1.2"
       lpesatellites=""
       mode="free"
       discard_orig_path="false"
       fuse_paths="true"
       oposite_fuse="false"
       split_items="false"
       split_open="false"
       link_styles="false" /></defs><sodipodi:namedview
     id="base"
     pagecolor="#ffffff"
     bordercolor="#666666"
     borderopacity="1.0"
     inkscape:pageopacity="0.0"
     inkscape:pageshadow="2"
     inkscape:zoom="0.7"
     inkscape:cx="270"
     inkscape:cy="310"
     inkscape:document-units="mm"
     inkscape:current-layer="layer1"
     showgrid="false"
     inkscape:pagecheckerboard="true"
     inkscape:window-width="1920"
     inkscape:window-height="1022"
     inkscape:window-x="2160"
     inkscape:window-y="1434"
     inkscape:window-maximized="1"
     inkscape:showpageshadow="2"
     inkscape:deskcolor="#d1d1d1" /><metadata
     id="metadata15"><rdf:RDF><cc:Work
         rdf:about=""><dc:format>image/svg+xml</dc:format><dc:type
           rdf:resource="http://purl.org/dc/dcmitype/StillImage" /></cc:Work></rdf:RDF></metadata><g
     inkscape:label="Layer 1"
     inkscape:groupmode="layer"
     id="layer1"
     transform="translate(150.79588,-36.57104)"><rect
       style="fill:#f9f9f9;fill-rule:evenodd;stroke:#000000;stroke-width:2.18474;stroke-dasharray:none;stroke-dashoffset:0;-inkscape-stroke:none"
       id="rect2-2"
       width="125.81524"
       height="125.81524"
       x="-149.70351"
       y="37.66341"
       ry="31.20808" /><text
       xml:space="preserve"
       transform="matrix(0.26458333,0,0,0.26458333,-150.79588,36.57104)"
       id="text1"
       style="font-style:italic;font-variant:normal;font-weight:normal;font-stretch:normal;font-size:26.6667px;line-height:1.25;font-family:Arial;-inkscape-font-specification:'Arial Italic';letter-spacing:0px;word-spacing:0px;white-space:pre;shape-inside:url(#rect2);display:inline" /><g
       id="g9"
       transform="translate(-3.7630469,2.3434235)"
       style="stroke-width:4.80873736"><rect
         style="opacity:1;fill:none;fill-rule:evenodd;stroke:#0000ff;stroke-width:4.80873736;stroke-linecap:square;paint-order:markers stroke fill"
         id="rect8"
         width="103.0197"
         height="99.696487"
         x="-134.54269"
         y="48.377266"
         ry="0.016063556" /><path
         id="rect9"
         style="opacity:1;fill:#00ffff;fill-rule:evenodd;stroke:#0000ff;stroke-width:4.80873736;stroke-linecap:square;paint-order:markers stroke fill"
         d="m -134.52663,48.381885 h 55.629172 c 0.0089,0 47.3761,-0.0062 47.369689,0 L -134.52663,148.07374 c -0.007,0.007 -0.0249,3e-5 -0.016,2e-5 l 0.016,-2e-5 c 0.009,-2e-5 -0.016,-0.008 -0.016,-0.016 V 48.397947 c 0,-0.0089 0.008,-0.01607 0.016,-0.01607 z"
         sodipodi:nodetypes="cssssssssc" /></g><path
       id="text2"
       style="font-size:266.667px;line-height:1.25;font-family:'Times New Roman';-inkscape-font-specification:'Times New Roman, ';letter-spacing:0px;word-spacing:0px;white-space:pre;stroke-width:0.402429"
       d="m -117.26367,61.617188 c 0,3.013671 0,6.027343 0,9.041015 3.07561,0.284405 6.36872,-0.597897 9.25195,0.851563 1.05188,0.818672 0.63875,2.301191 0.7911,3.451913 0.24774,10.995573 0.0439,21.99445 0.12044,32.991441 -0.034,6.94464 0.0846,13.90598 -0.36466,20.83594 -0.38504,1.31506 -1.92096,1.5885 -3.10547,1.66406 -1.8194,0.14353 -3.82565,-0.37799 -5.49219,0.56446 -1.32883,0.99067 -1.37276,2.82481 -1.20117,4.32109 0,1.48347 0,2.96693 0,4.45039 12.6263,0 25.252602,0 37.878904,0 0,-3.10547 0,-6.21094 0,-9.3164 -3.126008,-0.25089 -6.47727,0.60637 -9.398437,-0.88477 -1.01834,-0.86133 -0.582013,-2.33713 -0.742268,-3.49679 -0.252198,-7.06184 -0.05161,-14.12868 -0.130779,-21.19266 4.239023,0.10502 8.549568,-0.35531 12.727585,0.51842 1.665138,0.857 2.07624,2.91067 2.026771,4.62457 0.110047,1.59991 0.135649,3.20382 0.189003,4.80623 3.071615,0 6.14323,0 9.214844,0 0,-10.47852 0,-20.957035 0,-31.435551 -2.936198,0 -5.872396,0 -8.808594,0 -0.678986,2.909661 -0.401031,6.15931 -2.154297,8.728516 -1.865102,1.395979 -4.314343,0.896718 -6.481249,1.013841 -2.23737,0.0019 -4.47474,0.0038 -6.71211,0.0057 0,-6.841797 0,-13.683593 0,-20.52539 6.066239,0.07594 12.186451,-0.375286 18.20249,0.597424 2.578392,0.769031 4.368324,3.118351 5.102194,5.589159 0.652606,1.817719 1.162324,3.682106 1.726566,5.52826 2.828776,0 5.657552,0 8.486328,0 -0.339316,-7.665234 -0.675235,-15.330647 -1.009765,-22.996093 -20.039063,0 -40.078125,0 -60.117186,0 0,0.08789 0,0.175781 0,0.263672 z" /></g></svg>
