<?xml version="1.0" encoding="UTF-8" standalone="no"?>
<!-- Created with Inkscape (http://www.inkscape.org/) -->

<svg
   width="127.99998mm"
   height="127.99998mm"
   viewBox="0 0 127.99998 127.99998"
   version="1.1"
   id="svg18"
   inkscape:version="1.3.2 (091e20ef0f, 2023-11-25, custom)"
   sodipodi:docname="fixed_pitch.svg"
   xml:space="preserve"
   xmlns:inkscape="http://www.inkscape.org/namespaces/inkscape"
   xmlns:sodipodi="http://sodipodi.sourceforge.net/DTD/sodipodi-0.dtd"
   xmlns="http://www.w3.org/2000/svg"
   xmlns:svg="http://www.w3.org/2000/svg"
   xmlns:rdf="http://www.w3.org/1999/02/22-rdf-syntax-ns#"
   xmlns:cc="http://creativecommons.org/ns#"
   xmlns:dc="http://purl.org/dc/elements/1.1/"><defs
     id="defs12"><rect
       x="597.14286"
       y="25.714286"
       width="568.57143"
       height="360"
       id="rect8" /><rect
       x="618.57143"
       y="74.285714"
       width="454.28571"
       height="394.28571"
       id="rect7" /><rect
       x="585.71429"
       y="92.857143"
       width="482.85714"
       height="462.85714"
       id="rect6" /><rect
       x="592.85714"
       y="50"
       width="502.85714"
       height="528.57143"
       id="rect5" /><rect
       x="557.14286"
       y="102.85714"
       width="377.14286"
       height="388.57143"
       id="rect3" /><rect
       x="565.71429"
       y="107.14286"
       width="365.71429"
       height="371.42857"
       id="rect2" /><rect
       x="94.285713"
       y="348.57144"
       width="314.28571"
       height="308.57144"
       id="rect1" /><inkscape:path-effect
       effect="mirror_symmetry"
       start_point="-29.848996,84.251749"
       end_point="-29.848996,200.81028"
       center_point="-29.848996,142.53101"
       id="path-effect17"
       is_visible="true"
       lpeversion="1.2"
       lpesatellites=""
       mode="free"
       discard_orig_path="false"
       fuse_paths="false"
       oposite_fuse="false"
       split_items="false"
       split_open="false"
       link_styles="false" /><inkscape:path-effect
       effect="mirror_symmetry"
       start_point="60.297285,100.87223"
       end_point="60.297285,175.29533"
       center_point="60.297285,138.08378"
       id="path-effect16"
       is_visible="true"
       lpeversion="1.2"
       lpesatellites=""
       mode="free"
       discard_orig_path="false"
       fuse_paths="false"
       oposite_fuse="false"
       split_items="false"
       split_open="false"
       link_styles="false" /><inkscape:path-effect
       effect="mirror_symmetry"
       start_point="2.0180169,100.87223"
       end_point="2.0180169,175.29533"
       center_point="2.0180169,138.08378"
       id="path-effect15"
       is_visible="true"
       lpeversion="1.2"
       lpesatellites=""
       mode="free"
       discard_orig_path="false"
       fuse_paths="true"
       oposite_fuse="false"
       split_items="false"
       split_open="false"
       link_styles="false" /></defs><sodipodi:namedview
     id="base"
     pagecolor="#ffffff"
     bordercolor="#666666"
     borderopacity="1.0"
     inkscape:pageopacity="0.0"
     inkscape:pageshadow="2"
     inkscape:zoom="1.979899"
     inkscape:cx="293.19678"
     inkscape:cy="312.13714"
     inkscape:document-units="mm"
     inkscape:current-layer="layer1"
     showgrid="false"
     inkscape:pagecheckerboard="true"
     inkscape:window-width="1920"
     inkscape:window-height="1020"
     inkscape:window-x="2160"
     inkscape:window-y="1434"
     inkscape:window-maximized="0"
     inkscape:showpageshadow="2"
     inkscape:deskcolor="#d1d1d1" /><metadata
     id="metadata15"><rdf:RDF><cc:Work
         rdf:about=""><dc:format>image/svg+xml</dc:format><dc:type
           rdf:resource="http://purl.org/dc/dcmitype/StillImage" /></cc:Work></rdf:RDF></metadata><g
     inkscape:label="Layer 1"
     inkscape:groupmode="layer"
     id="layer1"
     transform="translate(150.79588,-36.57104)"><rect
       style="fill:#f9f9f9;fill-rule:evenodd;stroke:#000000;stroke-width:2.18474;stroke-dasharray:none;stroke-dashoffset:0;-inkscape-stroke:none"
       id="rect2-2"
       width="125.81524"
       height="125.81524"
       x="-149.70351"
       y="37.66341"
       ry="31.20808" /><text
       xml:space="preserve"
       transform="matrix(0.26458333,0,0,0.26458333,-150.79588,36.57104)"
       id="text1"
       style="font-style:italic;font-variant:normal;font-weight:normal;font-stretch:normal;font-size:26.6667px;line-height:1.25;font-family:Arial;-inkscape-font-specification:'Arial Italic';letter-spacing:0px;word-spacing:0px;white-space:pre;shape-inside:url(#rect2);display:inline" /><path
       id="text7"
       style="font-size:266.667px;line-height:1.25;font-family:'Andale Mono';-inkscape-font-specification:'Andale Mono';letter-spacing:0px;word-spacing:0px;white-space:pre;stroke-width:0.348333"
       d="m -78.041016,58.949219 c 0,23.360677 0,46.721351 0,70.082031 4.588542,0 9.177084,0 13.765625,0 0,-9.57161 0,-19.14323 0,-28.71484 5.51617,0.0164 11.268231,0.28136 16.456736,-1.921085 6.160865,-2.448767 11.141772,-8.080247 12.17198,-14.712628 1.283988,-6.245072 -0.102613,-13.245389 -4.5241,-17.98925 -4.399001,-4.696114 -10.948261,-6.884545 -17.281128,-6.924499 -6.536636,-0.143689 -13.075457,-0.0071 -19.612934,-0.08194 -0.275768,0.101981 -1.128811,-0.242551 -0.976179,0.262212 z m -55.742184,0.01953 c 0,23.354167 0,46.70833 0,70.0625 4.58854,0 9.17708,0 13.76562,0 0,-10.03906 0,-20.07813 0,-30.117188 8.04297,0 16.08594,10e-7 24.128908,0 0,-4.271484 0,-8.542968 0,-12.814453 -8.042968,0 -16.085938,0 -24.128908,0 0,-4.860026 0,-9.720052 0,-14.580078 8.82943,0 17.65886,0 26.488283,0 0,-4.271484 0,-8.542969 0,-12.814453 -13.417973,0 -26.835933,0 -40.253903,0 0,0.08789 0,0.175781 0,0.263672 z m 74.757809,12.550781 c 3.287586,-0.04957 6.913827,1.250904 8.581733,4.255491 1.596618,2.939618 1.388922,6.955727 -0.919031,9.466161 -1.938026,1.817346 -4.697354,2.08759 -7.211479,2.220889 -1.905282,0.08331 -3.812538,0.02058 -5.718801,0.03793 0.0059,-5.326823 0.01172,-10.653646 0.01758,-15.980469 1.75,0 3.5,0 5.25,0 z" /><path
       style="fill:none;fill-rule:evenodd;stroke:#000000;stroke-width:7.67046982;stroke-linecap:square;paint-order:fill markers stroke"
       d="m -86.795889,120.29296 v 17.22535 h 53.742826 v -17.22535"
       id="path8" /><path
       style="fill:none;fill-rule:evenodd;stroke:#000000;stroke-width:7.67046982;stroke-linecap:square;paint-order:fill markers stroke"
       d="m -140.53871,120.29296 v 17.22535 h 53.742821 v -17.22535"
       id="path8-4" /></g></svg>
