<?xml version="1.0" encoding="UTF-8" standalone="no"?>
<!-- Created with Inkscape (http://www.inkscape.org/) -->

<svg
   width="127.99998mm"
   height="127.99998mm"
   viewBox="0 0 127.99998 127.99998"
   version="1.1"
   id="svg18"
   inkscape:version="1.3.2 (091e20ef0f, 2023-11-25, custom)"
   sodipodi:docname="kerning.svg"
   xml:space="preserve"
   xmlns:inkscape="http://www.inkscape.org/namespaces/inkscape"
   xmlns:sodipodi="http://sodipodi.sourceforge.net/DTD/sodipodi-0.dtd"
   xmlns="http://www.w3.org/2000/svg"
   xmlns:svg="http://www.w3.org/2000/svg"
   xmlns:rdf="http://www.w3.org/1999/02/22-rdf-syntax-ns#"
   xmlns:cc="http://creativecommons.org/ns#"
   xmlns:dc="http://purl.org/dc/elements/1.1/"><defs
     id="defs12"><rect
       x="541.42857"
       y="31.428571"
       width="591.42857"
       height="480"
       id="rect7" /><rect
       x="585.71429"
       y="92.857143"
       width="482.85714"
       height="462.85714"
       id="rect6" /><rect
       x="592.85714"
       y="50"
       width="502.85714"
       height="528.57143"
       id="rect5" /><rect
       x="557.14286"
       y="102.85714"
       width="377.14286"
       height="388.57143"
       id="rect3" /><rect
       x="565.71429"
       y="107.14286"
       width="365.71429"
       height="371.42857"
       id="rect2" /><rect
       x="94.285713"
       y="348.57144"
       width="314.28571"
       height="308.57144"
       id="rect1" /><inkscape:path-effect
       effect="mirror_symmetry"
       start_point="-29.848996,84.251749"
       end_point="-29.848996,200.81028"
       center_point="-29.848996,142.53101"
       id="path-effect17"
       is_visible="true"
       lpeversion="1.2"
       lpesatellites=""
       mode="free"
       discard_orig_path="false"
       fuse_paths="false"
       oposite_fuse="false"
       split_items="false"
       split_open="false"
       link_styles="false" /><inkscape:path-effect
       effect="mirror_symmetry"
       start_point="60.297285,100.87223"
       end_point="60.297285,175.29533"
       center_point="60.297285,138.08378"
       id="path-effect16"
       is_visible="true"
       lpeversion="1.2"
       lpesatellites=""
       mode="free"
       discard_orig_path="false"
       fuse_paths="false"
       oposite_fuse="false"
       split_items="false"
       split_open="false"
       link_styles="false" /><inkscape:path-effect
       effect="mirror_symmetry"
       start_point="2.0180169,100.87223"
       end_point="2.0180169,175.29533"
       center_point="2.0180169,138.08378"
       id="path-effect15"
       is_visible="true"
       lpeversion="1.2"
       lpesatellites=""
       mode="free"
       discard_orig_path="false"
       fuse_paths="true"
       oposite_fuse="false"
       split_items="false"
       split_open="false"
       link_styles="false" /></defs><sodipodi:namedview
     id="base"
     pagecolor="#ffffff"
     bordercolor="#666666"
     borderopacity="1.0"
     inkscape:pageopacity="0.0"
     inkscape:pageshadow="2"
     inkscape:zoom="0.7"
     inkscape:cx="582.85714"
     inkscape:cy="191.42857"
     inkscape:document-units="mm"
     inkscape:current-layer="layer1"
     showgrid="false"
     inkscape:pagecheckerboard="true"
     inkscape:window-width="1920"
     inkscape:window-height="1022"
     inkscape:window-x="2160"
     inkscape:window-y="1434"
     inkscape:window-maximized="1"
     inkscape:showpageshadow="2"
     inkscape:deskcolor="#d1d1d1" /><metadata
     id="metadata15"><rdf:RDF><cc:Work
         rdf:about=""><dc:format>image/svg+xml</dc:format><dc:type
           rdf:resource="http://purl.org/dc/dcmitype/StillImage" /></cc:Work></rdf:RDF></metadata><g
     inkscape:label="Layer 1"
     inkscape:groupmode="layer"
     id="layer1"
     transform="translate(150.79588,-36.57104)"><rect
       style="fill:#f9f9f9;fill-rule:evenodd;stroke:#000000;stroke-width:2.18474;stroke-dasharray:none;stroke-dashoffset:0;-inkscape-stroke:none"
       id="rect2-2"
       width="125.81524"
       height="125.81524"
       x="-149.70351"
       y="37.66341"
       ry="31.20808" /><text
       xml:space="preserve"
       transform="matrix(0.26458333,0,0,0.26458333,-150.79588,36.57104)"
       id="text1"
       style="font-style:italic;font-variant:normal;font-weight:normal;font-stretch:normal;font-size:26.6667px;line-height:1.25;font-family:Arial;-inkscape-font-specification:'Arial Italic';letter-spacing:0px;word-spacing:0px;white-space:pre;shape-inside:url(#rect2);display:inline" /><path
       id="path7"
       style="font-size:266.667px;line-height:1.25;font-family:'Andale Mono';-inkscape-font-specification:'Andale Mono';letter-spacing:0px;word-spacing:0px;white-space:pre;fill:#000000;stroke-width:0.491297"
       d="m -57.223585,75.099691 c -9.138032,0.01209 -18.169234,4.580445 -23.482616,12.034768 -4.729873,6.380933 -6.910591,14.349671 -7.18134,22.217371 -0.419104,8.13378 0.829537,16.56385 4.866162,23.7298 3.932053,6.9627 10.487919,12.45122 18.137305,14.85275 6.794942,2.20926 14.11037,2.17729 21.128157,1.22831 4.87783,-0.70549 9.664169,-2.08948 14.129926,-4.18041 0.414666,-1.14689 -0.281851,-2.28082 -0.391959,-3.41893 -0.65963,-3.05757 -1.318931,-6.11522 -1.978766,-9.17275 -6.785407,2.37178 -13.902296,4.14255 -21.155646,3.9035 -2.409714,-0.0138 -4.804417,-0.50538 -6.969364,-1.50144 -5.145799,-2.30089 -9.073146,-6.88956 -10.983823,-12.14908 -0.92017,-2.45587 -1.441549,-5.01655 -1.590447,-7.62441 15.210071,0.0481 30.420326,0.004 45.630466,0.0192 0.155042,-6.96927 0.02219,-14.15154 -2.529403,-20.736864 -3.000883,-7.995373 -9.38189,-14.874012 -17.526965,-17.710672 -3.234859,-1.123909 -6.682424,-1.580094 -10.101687,-1.491094 z m 1.197549,13.32622 c 3.347986,0.02657 6.460032,1.783017 8.718786,4.128759 2.519761,2.59881 4.139516,6.044571 4.539549,9.64132 -9.690638,0.006 -19.381271,0.0116 -29.071907,0.0174 0.778403,-4.755747 3.549135,-9.393247 7.86044,-11.808924 2.376181,-1.324307 5.165191,-1.978092 7.953132,-1.978562 z" /><path
       id="text2"
       style="font-size:266.667px;line-height:1.25;font-family:'Andale Mono';-inkscape-font-specification:'Andale Mono';letter-spacing:0px;word-spacing:0px;white-space:pre;stroke-width:0.491297"
       d="m -144.45323,53.319259 c 0,31.576086 0,63.152171 0,94.728261 5.06405,0 10.12811,0 15.19217,0 0,-11.77184 0,-23.54369 0,-35.31553 2.3069,-2.50882 4.61381,-5.01764 6.92072,-7.52646 9.84653,14.28038 19.68988,28.56299 29.538393,42.84199 6.334712,0 12.669424,0 19.004136,0 -12.638711,-18.09801 -25.276082,-36.19694 -37.914279,-54.2953 12.544397,-13.555705 25.086413,-27.113619 37.632298,-40.667945 -6.171093,0 -12.342186,0 -18.513279,0 -12.222989,13.195953 -24.445279,26.392556 -36.667989,39.588756 0,-13.196249 0,-26.392503 0,-39.588756 -5.06406,0 -10.12812,0 -15.19217,0 0,0.07833 0,0.156656 0,0.234984 z" /><path
       id="rect8"
       style="fill:none;fill-rule:evenodd;stroke:#0000ff;stroke-width:3.23563;stroke-linecap:square;paint-order:markers stroke fill"
       d="m -88.401649,53.218303 c 0,31.642809 1e-6,63.285617 0,94.928427 4.176338,0 8.352676,0 12.529014,0 0,-31.72113 0,-63.442274 0,-95.163411 -4.176338,0 -8.352676,0 -12.529014,0 0,0.07833 0,0.156656 0,0.234984 z" /></g></svg>
