<?xml version="1.0" encoding="UTF-8" standalone="no"?>
<!-- Created with Inkscape (http://www.inkscape.org/) -->

<svg
   width="127.99998mm"
   height="127.99998mm"
   viewBox="0 0 127.99998 127.99998"
   version="1.1"
   id="svg18"
   inkscape:version="1.3.2 (091e20ef0f, 2023-11-25, custom)"
   sodipodi:docname="overline.svg"
   xml:space="preserve"
   xmlns:inkscape="http://www.inkscape.org/namespaces/inkscape"
   xmlns:sodipodi="http://sodipodi.sourceforge.net/DTD/sodipodi-0.dtd"
   xmlns="http://www.w3.org/2000/svg"
   xmlns:svg="http://www.w3.org/2000/svg"
   xmlns:rdf="http://www.w3.org/1999/02/22-rdf-syntax-ns#"
   xmlns:cc="http://creativecommons.org/ns#"
   xmlns:dc="http://purl.org/dc/elements/1.1/"><defs
     id="defs12"><rect
       x="557.14286"
       y="102.85714"
       width="377.14286"
       height="388.57143"
       id="rect3" /><rect
       x="565.71429"
       y="107.14286"
       width="365.71429"
       height="371.42857"
       id="rect2" /><rect
       x="94.285713"
       y="348.57144"
       width="314.28571"
       height="308.57144"
       id="rect1" /><inkscape:path-effect
       effect="mirror_symmetry"
       start_point="-29.848996,84.251749"
       end_point="-29.848996,200.81028"
       center_point="-29.848996,142.53101"
       id="path-effect17"
       is_visible="true"
       lpeversion="1.2"
       lpesatellites=""
       mode="free"
       discard_orig_path="false"
       fuse_paths="false"
       oposite_fuse="false"
       split_items="false"
       split_open="false"
       link_styles="false" /><inkscape:path-effect
       effect="mirror_symmetry"
       start_point="60.297285,100.87223"
       end_point="60.297285,175.29533"
       center_point="60.297285,138.08378"
       id="path-effect16"
       is_visible="true"
       lpeversion="1.2"
       lpesatellites=""
       mode="free"
       discard_orig_path="false"
       fuse_paths="false"
       oposite_fuse="false"
       split_items="false"
       split_open="false"
       link_styles="false" /><inkscape:path-effect
       effect="mirror_symmetry"
       start_point="2.0180169,100.87223"
       end_point="2.0180169,175.29533"
       center_point="2.0180169,138.08378"
       id="path-effect15"
       is_visible="true"
       lpeversion="1.2"
       lpesatellites=""
       mode="free"
       discard_orig_path="false"
       fuse_paths="true"
       oposite_fuse="false"
       split_items="false"
       split_open="false"
       link_styles="false" /></defs><sodipodi:namedview
     id="base"
     pagecolor="#ffffff"
     bordercolor="#666666"
     borderopacity="1.0"
     inkscape:pageopacity="0.0"
     inkscape:pageshadow="2"
     inkscape:zoom="0.7"
     inkscape:cx="270"
     inkscape:cy="312.85714"
     inkscape:document-units="mm"
     inkscape:current-layer="layer1"
     showgrid="false"
     inkscape:pagecheckerboard="true"
     inkscape:window-width="1920"
     inkscape:window-height="1022"
     inkscape:window-x="2160"
     inkscape:window-y="1434"
     inkscape:window-maximized="1"
     inkscape:showpageshadow="2"
     inkscape:deskcolor="#d1d1d1" /><metadata
     id="metadata15"><rdf:RDF><cc:Work
         rdf:about=""><dc:format>image/svg+xml</dc:format><dc:type
           rdf:resource="http://purl.org/dc/dcmitype/StillImage" /></cc:Work></rdf:RDF></metadata><g
     inkscape:label="Layer 1"
     inkscape:groupmode="layer"
     id="layer1"
     transform="translate(150.79588,-36.57104)"><rect
       style="fill:#f9f9f9;fill-rule:evenodd;stroke:#000000;stroke-width:2.18474;stroke-dasharray:none;stroke-dashoffset:0;-inkscape-stroke:none"
       id="rect2-2"
       width="125.81524"
       height="125.81524"
       x="-149.70351"
       y="37.66341"
       ry="31.20808" /><text
       xml:space="preserve"
       transform="matrix(0.26458333,0,0,0.26458333,-150.79588,36.57104)"
       id="text1"
       style="font-style:italic;font-variant:normal;font-weight:normal;font-stretch:normal;font-size:26.6667px;line-height:1.25;font-family:Arial;-inkscape-font-specification:'Arial Italic';letter-spacing:0px;word-spacing:0px;white-space:pre;shape-inside:url(#rect2);display:inline" /><path
       id="text3"
       style="font-size:266.667px;line-height:1.25;font-family:'Liberation Serif';-inkscape-font-specification:'Liberation Serif';letter-spacing:0px;word-spacing:0px;white-space:pre;stroke-width:0.521958"
       d="m -89.816406,63.146484 c -7.663416,0.311564 -15.404344,1.697295 -22.289604,5.229244 -8.34332,4.166748 -14.4782,12.039501 -17.4041,20.804053 -1.46768,4.508307 -2.29729,9.193542 -2.77789,13.861249 -0.71725,7.66172 -0.33451,15.42011 1.07002,22.97357 1.78268,8.74484 5.73858,17.29886 12.64526,23.1312 5.87605,5.08453 13.35814,8.14877 20.993113,9.22225 9.316951,1.46368 19.000861,1.06928 28.073052,-1.47085 7.775097,-2.29135 15.09174,-6.91271 19.828284,-13.61534 5.223836,-7.17982 7.658616,-16.11041 8.388091,-24.87939 0.790259,-9.02502 0.260964,-18.23225 -2.207867,-26.947392 -2.24295,-7.540671 -6.499526,-14.698874 -12.794922,-19.49414 -6.211539,-4.8238 -13.979406,-7.471413 -21.744616,-8.349485 -3.905451,-0.461862 -7.849479,-0.593207 -11.778821,-0.464969 z m 2.99414,8.003907 c 6.204535,0.024 12.6707,1.279128 17.754946,5.023988 5.15765,3.915991 8.130841,10.080556 9.421659,16.310268 2.354606,10.438163 2.224985,21.281343 0.983082,31.859383 -0.908163,6.44946 -2.743012,13.0115 -6.81588,18.2171 -3.700535,4.60876 -9.34827,7.39735 -15.154618,8.15505 -6.29748,0.99567 -12.897744,0.53914 -18.879129,-1.73036 -5.068184,-2.08618 -9.341594,-6.09436 -11.597344,-11.10338 -3.30873,-6.8356 -4.1481,-14.51739 -4.57909,-22.0066 -0.35106,-8.23514 0.0708,-16.563466 1.95657,-24.606304 1.3955,-5.506903 3.94967,-10.993566 8.47171,-14.614719 4.32686,-3.527316 9.928702,-5.07275 15.425456,-5.373509 1.002593,-0.07376 2.007815,-0.105615 3.012638,-0.130917 z" /><path
       id="rect4"
       style="opacity:0.99;fill:#000000;fill-rule:evenodd;stroke:#000000;stroke-width:4.96773;stroke-linecap:square;paint-order:fill markers stroke"
       d="m -42.0625,50.701172 c -30.662735,0.05053 -61.32552,0.04089 -91.98828,0.04297 -1.1784,1.13097 -0.7065,2.908608 -0.77006,4.360155 -0.003,1.169011 -0.006,2.338021 -0.009,3.507032 1.20254,1.178245 3.02165,0.648272 4.52461,0.7422 30.26393,0.0013 60.527866,0.0026 90.791798,0.0039 1.167264,-1.198426 0.666583,-3.002423 0.721448,-4.498803 -0.06538,-1.205401 0.300081,-2.54797 -0.262425,-3.65351 -0.855615,-0.637663 -2.005393,-0.491131 -3.007851,-0.503937 z" /></g></svg>
