<?xml version="1.0" encoding="UTF-8" standalone="no"?>
<!-- Created with Inkscape (http://www.inkscape.org/) -->

<svg
   width="127.99998mm"
   height="127.99998mm"
   viewBox="0 0 127.99998 127.99998"
   version="1.1"
   id="svg18"
   inkscape:version="1.3.2 (091e20ef0f, 2023-11-25, custom)"
   sodipodi:docname="right.svg"
   xml:space="preserve"
   xmlns:inkscape="http://www.inkscape.org/namespaces/inkscape"
   xmlns:sodipodi="http://sodipodi.sourceforge.net/DTD/sodipodi-0.dtd"
   xmlns="http://www.w3.org/2000/svg"
   xmlns:svg="http://www.w3.org/2000/svg"
   xmlns:rdf="http://www.w3.org/1999/02/22-rdf-syntax-ns#"
   xmlns:cc="http://creativecommons.org/ns#"
   xmlns:dc="http://purl.org/dc/elements/1.1/"><defs
     id="defs12"><rect
       x="618.57143"
       y="74.285714"
       width="454.28571"
       height="394.28571"
       id="rect7" /><rect
       x="585.71429"
       y="92.857143"
       width="482.85714"
       height="462.85714"
       id="rect6" /><rect
       x="592.85714"
       y="50"
       width="502.85714"
       height="528.57143"
       id="rect5" /><rect
       x="557.14286"
       y="102.85714"
       width="377.14286"
       height="388.57143"
       id="rect3" /><rect
       x="565.71429"
       y="107.14286"
       width="365.71429"
       height="371.42857"
       id="rect2" /><rect
       x="94.285713"
       y="348.57144"
       width="314.28571"
       height="308.57144"
       id="rect1" /><inkscape:path-effect
       effect="mirror_symmetry"
       start_point="-29.848996,84.251749"
       end_point="-29.848996,200.81028"
       center_point="-29.848996,142.53101"
       id="path-effect17"
       is_visible="true"
       lpeversion="1.2"
       lpesatellites=""
       mode="free"
       discard_orig_path="false"
       fuse_paths="false"
       oposite_fuse="false"
       split_items="false"
       split_open="false"
       link_styles="false" /><inkscape:path-effect
       effect="mirror_symmetry"
       start_point="60.297285,100.87223"
       end_point="60.297285,175.29533"
       center_point="60.297285,138.08378"
       id="path-effect16"
       is_visible="true"
       lpeversion="1.2"
       lpesatellites=""
       mode="free"
       discard_orig_path="false"
       fuse_paths="false"
       oposite_fuse="false"
       split_items="false"
       split_open="false"
       link_styles="false" /><inkscape:path-effect
       effect="mirror_symmetry"
       start_point="2.0180169,100.87223"
       end_point="2.0180169,175.29533"
       center_point="2.0180169,138.08378"
       id="path-effect15"
       is_visible="true"
       lpeversion="1.2"
       lpesatellites=""
       mode="free"
       discard_orig_path="false"
       fuse_paths="true"
       oposite_fuse="false"
       split_items="false"
       split_open="false"
       link_styles="false" /></defs><sodipodi:namedview
     id="base"
     pagecolor="#ffffff"
     bordercolor="#666666"
     borderopacity="1.0"
     inkscape:pageopacity="0.0"
     inkscape:pageshadow="2"
     inkscape:zoom="1.4"
     inkscape:cx="236.42857"
     inkscape:cy="325.71429"
     inkscape:document-units="mm"
     inkscape:current-layer="layer1"
     showgrid="false"
     inkscape:pagecheckerboard="true"
     inkscape:window-width="1920"
     inkscape:window-height="1022"
     inkscape:window-x="2160"
     inkscape:window-y="1434"
     inkscape:window-maximized="1"
     inkscape:showpageshadow="2"
     inkscape:deskcolor="#d1d1d1" /><metadata
     id="metadata15"><rdf:RDF><cc:Work
         rdf:about=""><dc:format>image/svg+xml</dc:format><dc:type
           rdf:resource="http://purl.org/dc/dcmitype/StillImage" /></cc:Work></rdf:RDF></metadata><g
     inkscape:label="Layer 1"
     inkscape:groupmode="layer"
     id="layer1"
     transform="translate(150.79588,-36.57104)"><rect
       style="fill:#f9f9f9;fill-rule:evenodd;stroke:#000000;stroke-width:2.18474;stroke-dasharray:none;stroke-dashoffset:0;-inkscape-stroke:none"
       id="rect2-2"
       width="125.81524"
       height="125.81524"
       x="-149.70351"
       y="37.66341"
       ry="31.20808" /><text
       xml:space="preserve"
       transform="matrix(0.26458333,0,0,0.26458333,-150.79588,36.57104)"
       id="text1"
       style="font-style:italic;font-variant:normal;font-weight:normal;font-stretch:normal;font-size:26.6667px;line-height:1.25;font-family:Arial;-inkscape-font-specification:'Arial Italic';letter-spacing:0px;word-spacing:0px;white-space:pre;shape-inside:url(#rect2);display:inline" /><path
       id="text6"
       style="font-size:266.667px;line-height:1.25;font-family:'DejaVu Serif';-inkscape-font-specification:'DejaVu Serif';letter-spacing:0px;word-spacing:0px;white-space:pre;stroke-width:0.423405"
       d="m -48.197266,45.578125 c -15.469852,32.114028 -30.940137,64.227845 -46.410156,96.341795 -2.360677,0 -4.721354,0 -7.082028,0 0,3.27344 0,6.54688 0,9.82031 8.997393,0 17.994789,0 26.992184,0 0,-3.27343 0,-6.54687 0,-9.82031 -2.742187,0 -5.484375,0 -8.226562,0 3.230469,-6.52669 6.460937,-13.05338 9.691406,-19.58008 8.595052,0.0547 17.190104,0.10938 25.785156,0.16407 0,6.40169 0,12.80338 0,19.20507 -1.769547,0.0895 -3.538963,0.18172 -5.308593,0.26954 0,3.2539 0,6.50781 0,9.76171 7.158203,0 14.316406,0 21.474609,0 0,-3.27343 0,-6.54687 0,-9.82031 -1.964844,0 -3.929688,0 -5.894531,0 -0.584114,-31.19076 -1.172399,-62.381463 -1.753907,-93.572264 -3.055987,-0.992187 -6.1112,-1.986795 -9.167968,-2.976562 -0.0332,0.06901 -0.06641,0.138021 -0.09961,0.207031 z m 0.75,66.833985 c -7.552734,0.0104 -15.105468,0.0208 -22.658203,0.0312 C -62.552734,98.132161 -55,83.820964 -47.447266,69.509766 c 0,14.300781 0,28.601562 0,42.902344 z" /></g></svg>
