<?xml version="1.0" encoding="UTF-8" standalone="no"?>
<!-- Created with Inkscape (http://www.inkscape.org/) -->

<svg
   width="127.99998mm"
   height="127.99998mm"
   viewBox="0 0 127.99998 127.99998"
   version="1.1"
   id="svg18"
   inkscape:version="1.3.2 (091e20ef0f, 2023-11-25, custom)"
   sodipodi:docname="scale_bounds_to_text.svg"
   xml:space="preserve"
   xmlns:inkscape="http://www.inkscape.org/namespaces/inkscape"
   xmlns:sodipodi="http://sodipodi.sourceforge.net/DTD/sodipodi-0.dtd"
   xmlns="http://www.w3.org/2000/svg"
   xmlns:svg="http://www.w3.org/2000/svg"
   xmlns:rdf="http://www.w3.org/1999/02/22-rdf-syntax-ns#"
   xmlns:cc="http://creativecommons.org/ns#"
   xmlns:dc="http://purl.org/dc/elements/1.1/"><defs
     id="defs12"><marker
       style="overflow:visible"
       id="marker14"
       refX="0"
       refY="0"
       orient="auto-start-reverse"
       inkscape:stockid="Dart arrow"
       markerWidth="0.5"
       markerHeight="0.5"
       viewBox="0 0 1 1"
       inkscape:isstock="true"
       inkscape:collect="always"
       preserveAspectRatio="xMidYMid"><path
         style="fill:context-stroke;fill-rule:evenodd;stroke:none"
         d="M 0,0 5,-5 -12.5,0 5,5 Z"
         transform="scale(-0.5)"
         id="path14" /></marker><marker
       style="overflow:visible"
       id="DartArrow"
       refX="0"
       refY="0"
       orient="auto-start-reverse"
       inkscape:stockid="Dart arrow"
       markerWidth="0.5"
       markerHeight="0.5"
       viewBox="0 0 1 1"
       inkscape:isstock="true"
       inkscape:collect="always"
       preserveAspectRatio="xMidYMid"><path
         style="fill:context-stroke;fill-rule:evenodd;stroke:none"
         d="M 0,0 5,-5 -12.5,0 5,5 Z"
         transform="scale(-0.5)"
         id="path6" /></marker><rect
       x="832.3657"
       y="183.84776"
       width="630.33519"
       height="763.67532"
       id="rect9" /><rect
       x="592.85714"
       y="44.285714"
       width="480"
       height="422.85714"
       id="rect7" /><rect
       x="585.71429"
       y="92.857143"
       width="482.85714"
       height="462.85714"
       id="rect6" /><rect
       x="592.85714"
       y="50"
       width="502.85714"
       height="528.57143"
       id="rect5" /><rect
       x="557.14286"
       y="102.85714"
       width="377.14286"
       height="388.57143"
       id="rect3" /><rect
       x="565.71429"
       y="107.14286"
       width="365.71429"
       height="371.42857"
       id="rect2" /><rect
       x="94.285713"
       y="348.57144"
       width="314.28571"
       height="308.57144"
       id="rect1" /><inkscape:path-effect
       effect="mirror_symmetry"
       start_point="-29.848996,84.251749"
       end_point="-29.848996,200.81028"
       center_point="-29.848996,142.53101"
       id="path-effect17"
       is_visible="true"
       lpeversion="1.2"
       lpesatellites=""
       mode="free"
       discard_orig_path="false"
       fuse_paths="false"
       oposite_fuse="false"
       split_items="false"
       split_open="false"
       link_styles="false" /><inkscape:path-effect
       effect="mirror_symmetry"
       start_point="60.297285,100.87223"
       end_point="60.297285,175.29533"
       center_point="60.297285,138.08378"
       id="path-effect16"
       is_visible="true"
       lpeversion="1.2"
       lpesatellites=""
       mode="free"
       discard_orig_path="false"
       fuse_paths="false"
       oposite_fuse="false"
       split_items="false"
       split_open="false"
       link_styles="false" /><inkscape:path-effect
       effect="mirror_symmetry"
       start_point="2.0180169,100.87223"
       end_point="2.0180169,175.29533"
       center_point="2.0180169,138.08378"
       id="path-effect15"
       is_visible="true"
       lpeversion="1.2"
       lpesatellites=""
       mode="free"
       discard_orig_path="false"
       fuse_paths="true"
       oposite_fuse="false"
       split_items="false"
       split_open="false"
       link_styles="false" /></defs><sodipodi:namedview
     id="base"
     pagecolor="#ffffff"
     bordercolor="#666666"
     borderopacity="1.0"
     inkscape:pageopacity="0.0"
     inkscape:pageshadow="2"
     inkscape:zoom="1.2589575"
     inkscape:cx="193.01684"
     inkscape:cy="258.15009"
     inkscape:document-units="mm"
     inkscape:current-layer="layer1"
     showgrid="false"
     inkscape:pagecheckerboard="true"
     inkscape:window-width="1920"
     inkscape:window-height="1022"
     inkscape:window-x="2160"
     inkscape:window-y="1434"
     inkscape:window-maximized="1"
     inkscape:showpageshadow="2"
     inkscape:deskcolor="#d1d1d1" /><metadata
     id="metadata15"><rdf:RDF><cc:Work
         rdf:about=""><dc:format>image/svg+xml</dc:format><dc:type
           rdf:resource="http://purl.org/dc/dcmitype/StillImage" /></cc:Work></rdf:RDF></metadata><g
     inkscape:label="Layer 1"
     inkscape:groupmode="layer"
     id="layer1"
     transform="translate(150.79588,-36.57104)"><rect
       style="fill:#f9f9f9;fill-rule:evenodd;stroke:#000000;stroke-width:2.18474;stroke-dasharray:none;stroke-dashoffset:0;-inkscape-stroke:none"
       id="rect2-2"
       width="125.81524"
       height="125.81524"
       x="-149.70351"
       y="37.66341"
       ry="31.20808" /><text
       xml:space="preserve"
       transform="matrix(0.26458333,0,0,0.26458333,-150.79588,36.57104)"
       id="text1"
       style="font-style:italic;font-variant:normal;font-weight:normal;font-stretch:normal;font-size:26.6667px;line-height:1.25;font-family:Arial;-inkscape-font-specification:'Arial Italic';letter-spacing:0px;word-spacing:0px;white-space:pre;shape-inside:url(#rect2);display:inline" /><path
       id="rect4-6"
       style="fill:none;fill-rule:evenodd;stroke:#ff0000;stroke-width:5.26139;stroke-linecap:square;stroke-dasharray:21.0455, 5.26139;stroke-dashoffset:0;paint-order:markers stroke fill"
       d="m -40.734454,45.818244 c -32.201903,0.01206 -64.403806,0.02413 -96.605716,0.03619 -0.34869,2.155971 0.062,4.342594 -0.11694,6.510604 -0.001,33.156955 -0.003,66.313912 -0.004,99.470862 2.2527,0.31491 4.63646,-0.0455 6.94201,0.11076 30.29786,0.002 60.595729,0.004 90.893596,0.006 0.323448,-2.28499 -0.06823,-4.59347 0.106152,-6.88744 0.0029,-33.06044 0.0058,-66.120873 0.0087,-99.181313 -0.403229,-0.06417 -0.815346,-0.0816 -1.223405,-0.066 z" /><path
       id="text9"
       style="font-size:266.667px;line-height:1.25;font-family:'Courier New';-inkscape-font-specification:'Courier New';letter-spacing:0px;word-spacing:0px;white-space:pre;fill:#000000;stroke:none;stroke-width:4.93732"
       d="m -89.823654,52.924522 c -11.705446,0.311002 -24.068126,4.365864 -31.625826,13.728184 -7.58544,10.233465 -3.71222,26.615913 7.56607,32.476796 9.68569,5.862078 21.370497,5.561928 32.181209,7.455668 6.059334,1.00239 12.745372,2.4307 17.008143,7.20568 1.853408,2.95059 0.512879,6.89159 -2.17858,8.83134 -5.663379,5.4864 -14.080664,6.06682 -21.547574,5.96627 -7.447405,-0.0757 -15.612668,-1.59983 -20.970148,-7.28212 -2.08703,-2.93697 -0.69235,-7.10445 -3.2035,-9.87999 -2.86193,-4.06181 -9.082,-5.04811 -12.96862,-1.89275 -2.72117,1.96877 -3.96014,5.42407 -3.64347,8.69882 -0.15404,5.83352 -0.12403,11.68691 0.044,17.51306 0.4679,4.25977 3.86431,8.32923 8.36027,8.40453 2.83729,0.21635 5.80461,-0.82528 7.71956,-2.96679 13.03991,6.86273 28.611,7.31797 42.748944,4.08714 10.725194,-2.79017 20.882429,-10.40587 24.13211,-21.34459 2.901439,-9.71173 -1.03226,-20.82907 -9.12214,-26.84947 -8.593724,-6.84877 -19.869305,-8.459278 -30.454368,-9.596708 -6.342629,-0.805591 -13.019665,-1.307411 -18.800866,-4.303747 -1.89525,-1.184944 -3.03367,-4.132906 -1.06644,-5.801186 3.77557,-4.385989 9.965461,-5.240083 15.324873,-5.72459 6.849007,-0.462818 14.270907,0.384638 19.962826,4.502651 2.139704,1.693532 2.626845,4.468833 2.988358,6.996466 1.437916,5.047584 7.672421,8.146836 12.455707,5.693426 4.095034,-1.732245 6.307521,-6.483737 5.580128,-10.775168 -0.0025,-5.475674 0.511112,-11.065068 -0.583795,-16.456047 -1.761688,-5.130246 -8.515974,-7.805624 -13.195971,-4.873206 -0.839017,0.304701 -1.518234,1.884992 -2.415464,0.867348 -7.472578,-3.79956 -16.003322,-4.884138 -24.295546,-4.681017 z" /><rect
       style="opacity:1;fill:none;fill-opacity:1;fill-rule:evenodd;stroke:#ff0000;stroke-width:5.52326393;stroke-linecap:square;stroke-dasharray:5.54134, 11.0827;stroke-dashoffset:0;paint-order:markers stroke fill"
       id="rect13"
       width="43.798759"
       height="43.798759"
       x="-131.29362"
       y="51.870094"
       ry="0.016922927" /><path
       style="opacity:1;fill:#ff7f2a;fill-opacity:1;fill-rule:evenodd;stroke:#ff7f2a;stroke-width:3.70552;stroke-linecap:square;stroke-dasharray:none;stroke-dashoffset:0;marker-start:url(#DartArrow);marker-end:url(#marker14);paint-order:markers stroke fill"
       d="m -77.870133,106.55454 29.002169,34.88666"
       id="path13"
       sodipodi:nodetypes="cc" /></g></svg>
