<?xml version="1.0" encoding="UTF-8" standalone="no"?>
<!-- Created with Inkscape (http://www.inkscape.org/) -->

<svg
   width="127.99998mm"
   height="127.99998mm"
   viewBox="0 0 127.99998 127.99998"
   version="1.1"
   id="svg18"
   inkscape:version="1.3.2 (091e20ef0f, 2023-11-25, custom)"
   sodipodi:docname="scale_text_to_bounds.svg"
   xml:space="preserve"
   xmlns:inkscape="http://www.inkscape.org/namespaces/inkscape"
   xmlns:sodipodi="http://sodipodi.sourceforge.net/DTD/sodipodi-0.dtd"
   xmlns="http://www.w3.org/2000/svg"
   xmlns:svg="http://www.w3.org/2000/svg"
   xmlns:rdf="http://www.w3.org/1999/02/22-rdf-syntax-ns#"
   xmlns:cc="http://creativecommons.org/ns#"
   xmlns:dc="http://purl.org/dc/elements/1.1/"><defs
     id="defs12"><rect
       x="832.3657"
       y="183.84776"
       width="630.33519"
       height="763.67532"
       id="rect9" /><rect
       x="592.85714"
       y="44.285714"
       width="480"
       height="422.85714"
       id="rect7" /><rect
       x="585.71429"
       y="92.857143"
       width="482.85714"
       height="462.85714"
       id="rect6" /><rect
       x="592.85714"
       y="50"
       width="502.85714"
       height="528.57143"
       id="rect5" /><rect
       x="557.14286"
       y="102.85714"
       width="377.14286"
       height="388.57143"
       id="rect3" /><rect
       x="565.71429"
       y="107.14286"
       width="365.71429"
       height="371.42857"
       id="rect2" /><rect
       x="94.285713"
       y="348.57144"
       width="314.28571"
       height="308.57144"
       id="rect1" /><inkscape:path-effect
       effect="mirror_symmetry"
       start_point="-29.848996,84.251749"
       end_point="-29.848996,200.81028"
       center_point="-29.848996,142.53101"
       id="path-effect17"
       is_visible="true"
       lpeversion="1.2"
       lpesatellites=""
       mode="free"
       discard_orig_path="false"
       fuse_paths="false"
       oposite_fuse="false"
       split_items="false"
       split_open="false"
       link_styles="false" /><inkscape:path-effect
       effect="mirror_symmetry"
       start_point="60.297285,100.87223"
       end_point="60.297285,175.29533"
       center_point="60.297285,138.08378"
       id="path-effect16"
       is_visible="true"
       lpeversion="1.2"
       lpesatellites=""
       mode="free"
       discard_orig_path="false"
       fuse_paths="false"
       oposite_fuse="false"
       split_items="false"
       split_open="false"
       link_styles="false" /><inkscape:path-effect
       effect="mirror_symmetry"
       start_point="2.0180169,100.87223"
       end_point="2.0180169,175.29533"
       center_point="2.0180169,138.08378"
       id="path-effect15"
       is_visible="true"
       lpeversion="1.2"
       lpesatellites=""
       mode="free"
       discard_orig_path="false"
       fuse_paths="true"
       oposite_fuse="false"
       split_items="false"
       split_open="false"
       link_styles="false" /></defs><sodipodi:namedview
     id="base"
     pagecolor="#ffffff"
     bordercolor="#666666"
     borderopacity="1.0"
     inkscape:pageopacity="0.0"
     inkscape:pageshadow="2"
     inkscape:zoom="0.31473938"
     inkscape:cx="-549.66112"
     inkscape:cy="209.69731"
     inkscape:document-units="mm"
     inkscape:current-layer="layer1"
     showgrid="false"
     inkscape:pagecheckerboard="true"
     inkscape:window-width="1920"
     inkscape:window-height="1022"
     inkscape:window-x="2160"
     inkscape:window-y="1434"
     inkscape:window-maximized="1"
     inkscape:showpageshadow="2"
     inkscape:deskcolor="#d1d1d1" /><metadata
     id="metadata15"><rdf:RDF><cc:Work
         rdf:about=""><dc:format>image/svg+xml</dc:format><dc:type
           rdf:resource="http://purl.org/dc/dcmitype/StillImage" /></cc:Work></rdf:RDF></metadata><g
     inkscape:label="Layer 1"
     inkscape:groupmode="layer"
     id="layer1"
     transform="translate(150.79588,-36.57104)"><rect
       style="fill:#f9f9f9;fill-rule:evenodd;stroke:#000000;stroke-width:2.18474;stroke-dasharray:none;stroke-dashoffset:0;-inkscape-stroke:none"
       id="rect2-2"
       width="125.81524"
       height="125.81524"
       x="-149.70351"
       y="37.66341"
       ry="31.20808" /><text
       xml:space="preserve"
       transform="matrix(0.26458333,0,0,0.26458333,-150.79588,36.57104)"
       id="text1"
       style="font-style:italic;font-variant:normal;font-weight:normal;font-stretch:normal;font-size:26.6667px;line-height:1.25;font-family:Arial;-inkscape-font-specification:'Arial Italic';letter-spacing:0px;word-spacing:0px;white-space:pre;shape-inside:url(#rect2);display:inline" /><path
       id="rect4-6"
       style="fill:#0b0b28;fill-rule:evenodd;stroke:#000000;stroke-width:4.78605652;stroke-linecap:square;paint-order:markers stroke fill"
       d="m -43.781749,50.039378 c -22.267222,0.06231 -44.534585,0.01718 -66.801871,0.03162 -7.07734,1.41e-4 -14.15468,2.81e-4 -21.23203,4.22e-4 -1.0902,0.686814 -1.08477,2.116734 -1.00207,3.253961 0.008,32.259675 -0.005,64.519849 -0.005,96.779699 0.68945,1.09752 2.12986,1.05464 3.26684,0.98523 29.27041,0.002 58.540819,0.003 87.811224,0.005 1.094966,-0.75692 1.054548,-2.22773 0.957026,-3.40779 0.03389,-21.69823 0.007,-43.3975 0.01601,-65.096125 0,-10.513979 0,-21.027967 0,-31.541946 -0.643546,-1.000161 -1.939625,-1.082621 -3.010611,-1.009641 z" /><path
       id="text9-7"
       style="font-size:266.667px;line-height:1.25;font-family:'Courier New';-inkscape-font-specification:'Courier New';letter-spacing:0px;word-spacing:0px;white-space:pre;fill:#0099ff;fill-opacity:1;stroke:#000080;stroke-width:3.0909"
       d="m -80.435758,68.9659 c -7.70046,0.202956 -15.518408,2.159268 -21.905522,6.585534 -4.22585,2.865455 -7.40728,7.52891 -7.79751,12.695143 -0.61298,5.950336 2.18947,12.026263 6.9142,15.638783 3.662198,2.92255 8.252604,4.343 12.786361,5.20425 8.178625,1.66675 16.66389,1.67576 24.691057,4.0488 3.655641,1.1375 7.369972,2.60493 10.032339,5.46914 2.0798,2.29086 2.933704,5.70083 1.881037,8.65136 -0.947569,2.77471 -3.145382,4.97458 -5.458239,6.72957 -3.098787,2.29942 -6.879258,3.52812 -10.620561,4.10428 -4.895591,0.78909 -9.926359,0.79219 -14.865875,0.28974 -5.393076,-0.63409 -10.857315,-2.34311 -15.035071,-5.93186 -1.849868,-1.61085 -3.426408,-3.78904 -3.538818,-6.32108 -0.16285,-1.60289 -0.0833,-3.40878 -1.21698,-4.69749 -1.54242,-1.94553 -4.579,-2.72188 -6.72715,-1.32184 -1.77918,1.05232 -2.5594,3.24071 -2.42527,5.22981 -0.10854,3.91604 0.01,7.83412 -0.0458,11.75093 0.0257,1.90785 -0.0541,3.85413 0.37157,5.72342 0.74828,2.37804 3.45369,4.0094 5.89674,3.31728 1.89409,-0.46052 3.54621,-2.05299 3.83114,-4.01721 6.846754,4.58472 15.142544,6.60813 23.315117,6.80624 7.404284,0.24015 14.995289,-0.51285 21.866309,-3.42844 6.189726,-2.74399 11.580452,-7.68461 14.108025,-14.04707 2.116079,-5.41007 1.4497,-11.7657 -1.600166,-16.69158 -2.72778,-4.56578 -7.185109,-7.88456 -12.059867,-9.87642 -5.820383,-2.40175 -12.132925,-3.1399 -18.328376,-3.94692 -5.043027,-0.64217 -10.130338,-1.116117 -15.046786,-2.453364 -3.015152,-0.901756 -5.998012,-2.42442 -7.655968,-5.178985 -1.063018,-1.828625 -1.083788,-4.188491 -0.0188,-6.021051 1.19771,-2.16817 3.215116,-3.615731 5.329496,-4.825837 4.416376,-2.39338 9.500884,-3.072526 14.450511,-3.173586 5.440819,-0.04154 11.024856,0.653767 15.893437,3.224031 2.398074,1.316725 4.743939,3.156782 5.691946,5.819665 0.456153,1.11947 0.599138,2.305478 0.7199,3.529429 0.375817,2.046784 2.066204,3.876884 4.195479,4.070579 2.387814,0.330441 5.087865,-1.166033 5.589152,-3.622774 0.696271,-2.726937 0.191399,-5.557582 0.343489,-8.330934 -0.04919,-3.027884 0.237736,-6.102636 -0.361261,-9.090548 -0.747191,-2.491669 -3.662489,-4.101642 -6.156212,-3.273835 -1.532347,0.432532 -2.857795,1.616931 -3.385101,3.129382 -6.944297,-4.555109 -15.483223,-5.96165 -23.657904,-5.766542 z" /><path
       id="text9"
       style="font-size:266.667px;line-height:1.25;font-family:'Courier New';-inkscape-font-specification:'Courier New';letter-spacing:0px;word-spacing:0px;white-space:pre;fill:#00ffff;stroke:#0000ff;stroke-width:1.48087"
       d="m -117.46412,52.90816 c -3.51086,0.09328 -7.21885,1.309471 -9.48566,4.117549 -2.27513,3.069364 -1.11342,7.983017 2.26932,9.740895 2.90507,1.758237 6.40974,1.668211 9.65224,2.236208 1.8174,0.30065 3.82277,0.729051 5.10132,2.161228 0.5559,0.884983 0.15383,2.067024 -0.65343,2.648819 -1.69864,1.645558 -4.22327,1.819645 -6.46285,1.789487 -2.23373,-0.02272 -4.68277,-0.479844 -6.28966,-2.184154 -0.62597,-0.880899 -0.20766,-2.130868 -0.96084,-2.963346 -0.85839,-1.218273 -2.724,-1.514098 -3.88973,-0.5677 -0.81617,0.590502 -1.18778,1.626864 -1.0928,2.609073 -0.0462,1.749671 -0.0372,3.5053 0.0132,5.252761 0.14034,1.277651 1.15904,2.498221 2.50753,2.520804 0.851,0.06489 1.741,-0.247528 2.31536,-0.88984 3.91111,2.058364 8.58141,2.194907 12.82186,1.225871 3.21685,-0.836866 6.26335,-3.121073 7.23804,-6.401967 0.87024,-2.912878 -0.30961,-6.247347 -2.73604,-8.053069 -2.57755,-2.054179 -5.95948,-2.537225 -9.1343,-2.878379 -1.90237,-0.241624 -3.90504,-0.392137 -5.63902,-1.29084 -0.56845,-0.355405 -0.9099,-1.239599 -0.31986,-1.739973 1.13242,-1.315507 2.98898,-1.571679 4.59645,-1.716999 2.05425,-0.138815 4.28033,0.115366 5.98753,1.350498 0.64177,0.507948 0.78788,1.340355 0.89631,2.098478 0.43128,1.513942 2.30122,2.443513 3.73589,1.707652 1.22824,-0.519559 1.89184,-1.944693 1.67367,-3.231839 -7.6e-4,-1.642341 0.1533,-3.31879 -0.1751,-4.935728 -0.52839,-1.538735 -2.55423,-2.341172 -3.95792,-1.46164 -0.25165,0.09139 -0.45537,0.565373 -0.72448,0.260147 -2.24128,-1.139617 -4.79994,-1.464919 -7.28706,-1.403996 z" /><path
       style="opacity:1;fill:#2d1650;fill-opacity:1;fill-rule:evenodd;stroke:#220055;stroke-width:1.77569;stroke-linecap:square;stroke-dasharray:none;paint-order:markers stroke fill"
       d="m -105.40118,54.644856 c 0.84064,0 54.641771,16.812853 54.641771,16.812853"
       id="path9"
       sodipodi:nodetypes="cc" /><path
       style="opacity:1;fill:#dd55ff;fill-opacity:1;fill-rule:evenodd;stroke:#220055;stroke-width:1.77569;stroke-linecap:square;stroke-dasharray:none;paint-order:markers stroke fill"
       d="m -127.67821,80.494617 13.87061,65.149803"
       id="path10"
       sodipodi:nodetypes="cc" /><path
       style="opacity:1;fill:#dd55ff;fill-opacity:1;fill-rule:evenodd;stroke:#220055;stroke-width:14.3683;stroke-linecap:square;stroke-dasharray:none;paint-order:markers stroke fill"
       d="m 99.860958,166.23377 c -2.648879,0.66856 -6.371005,1.16478 -7.787941,3.74659 12.401883,61.03044 25.774173,121.87496 39.393843,182.6478 0.0919,1.10379 0.97812,4.78774 1.50216,1.85815 1.84477,-11.17884 -0.31621,-23.1984 4.046,-33.84496 5.32644,-11.14849 19.52044,-16.87903 30.96064,-11.81424 9.14056,3.18971 16.1116,11.71398 16.51339,21.52077 0.68378,9.36942 3.04633,19.22804 10.51511,25.60293 17.04923,16.05012 41.20843,22.07234 64.01557,23.37522 27.41261,0.95804 57.26556,0.82322 81.06044,-14.74021 11.46412,-7.54321 22.30459,-19.64847 21.91484,-34.16301 -1.54863,-15.45318 -16.05495,-25.01243 -29.21662,-30.40032 -29.06416,-11.89735 -61.02315,-12.44915 -91.62466,-17.66703 -25.68507,-3.87828 -53.04602,-10.21269 -71.94596,-29.33578 -17.2944,-16.81387 -25.43829,-42.42766 -20.25836,-66.08611 1.23226,-7.12658 4.18892,-14.0871 7.6301,-20.18319 -17.82993,7.04288 -38.01331,5.71605 -55.85133,-0.48869 -0.28747,-0.0521 -0.57816,-0.0255 -0.867222,-0.0279 z"
       id="path11"
       transform="matrix(0.26458333,0,0,0.26458333,-150.79588,36.57104)" /><path
       style="opacity:1;fill:#dd55ff;fill-opacity:1;fill-rule:evenodd;stroke:#220055;stroke-width:14.3683;stroke-linecap:square;stroke-dasharray:none;paint-order:markers stroke fill"
       d="m 174.72604,73.065475 c -0.66813,8.826734 1.70114,18.339612 -1.75772,26.739634 -1.77099,3.528961 -6.2737,4.631371 -8.54036,7.398541 8.32602,6.33912 15.61033,16.18424 14.5892,27.21281 0.33191,2.35884 -0.52218,5.95724 0.45301,7.7957 24.00367,-15.8021 52.33479,-24.29252 80.9795,-25.55816 31.77519,-1.67654 64.60748,3.36711 92.69004,18.84687 2.82467,-2.93298 9.14701,-6.9061 1.19448,-7.28598 C 294.54244,109.68676 234.81713,90.906509 174.85015,72.967738 Z"
       id="path12"
       transform="matrix(0.26458333,0,0,0.26458333,-150.79588,36.57104)" /><path
       style="opacity:1;fill:#dd55ff;fill-opacity:1;fill-rule:evenodd;stroke:#220055;stroke-width:14.3683;stroke-linecap:square;stroke-dasharray:none;paint-order:markers stroke fill"
       d="m 127.1172,86.145183 c -5.73544,0.286486 -13.23324,0.626129 -16.6091,5.95731 0.78411,2.900394 5.28633,2.60032 7.59557,3.597657 10.26028,2.10377 20.84163,3.010718 31.04317,5.0451 1.22019,-2.248322 -1.17852,-5.317112 -1.66308,-7.684003 -2.255,-4.046272 -7.45019,-5.52704 -11.61986,-6.705076 -2.90044,-0.344141 -5.83287,-0.229358 -8.7467,-0.210988 z"
       id="path13"
       transform="matrix(0.26458333,0,0,0.26458333,-150.79588,36.57104)" /></g></svg>
