<?xml version="1.0" encoding="UTF-8" standalone="no"?>
<!-- Created with Inkscape (http://www.inkscape.org/) -->

<svg
   width="127.99998mm"
   height="127.99998mm"
   viewBox="0 0 127.99998 127.99998"
   version="1.1"
   id="svg18"
   inkscape:version="1.3.2 (091e20ef0f, 2023-11-25, custom)"
   sodipodi:docname="strikethrough.svg"
   xml:space="preserve"
   xmlns:inkscape="http://www.inkscape.org/namespaces/inkscape"
   xmlns:sodipodi="http://sodipodi.sourceforge.net/DTD/sodipodi-0.dtd"
   xmlns="http://www.w3.org/2000/svg"
   xmlns:svg="http://www.w3.org/2000/svg"
   xmlns:rdf="http://www.w3.org/1999/02/22-rdf-syntax-ns#"
   xmlns:cc="http://creativecommons.org/ns#"
   xmlns:dc="http://purl.org/dc/elements/1.1/"><defs
     id="defs12"><rect
       x="592.85714"
       y="50"
       width="502.85714"
       height="528.57143"
       id="rect5" /><rect
       x="557.14286"
       y="102.85714"
       width="377.14286"
       height="388.57143"
       id="rect3" /><rect
       x="565.71429"
       y="107.14286"
       width="365.71429"
       height="371.42857"
       id="rect2" /><rect
       x="94.285713"
       y="348.57144"
       width="314.28571"
       height="308.57144"
       id="rect1" /><inkscape:path-effect
       effect="mirror_symmetry"
       start_point="-29.848996,84.251749"
       end_point="-29.848996,200.81028"
       center_point="-29.848996,142.53101"
       id="path-effect17"
       is_visible="true"
       lpeversion="1.2"
       lpesatellites=""
       mode="free"
       discard_orig_path="false"
       fuse_paths="false"
       oposite_fuse="false"
       split_items="false"
       split_open="false"
       link_styles="false" /><inkscape:path-effect
       effect="mirror_symmetry"
       start_point="60.297285,100.87223"
       end_point="60.297285,175.29533"
       center_point="60.297285,138.08378"
       id="path-effect16"
       is_visible="true"
       lpeversion="1.2"
       lpesatellites=""
       mode="free"
       discard_orig_path="false"
       fuse_paths="false"
       oposite_fuse="false"
       split_items="false"
       split_open="false"
       link_styles="false" /><inkscape:path-effect
       effect="mirror_symmetry"
       start_point="2.0180169,100.87223"
       end_point="2.0180169,175.29533"
       center_point="2.0180169,138.08378"
       id="path-effect15"
       is_visible="true"
       lpeversion="1.2"
       lpesatellites=""
       mode="free"
       discard_orig_path="false"
       fuse_paths="true"
       oposite_fuse="false"
       split_items="false"
       split_open="false"
       link_styles="false" /></defs><sodipodi:namedview
     id="base"
     pagecolor="#ffffff"
     bordercolor="#666666"
     borderopacity="1.0"
     inkscape:pageopacity="0.0"
     inkscape:pageshadow="2"
     inkscape:zoom="0.7"
     inkscape:cx="270"
     inkscape:cy="312.85714"
     inkscape:document-units="mm"
     inkscape:current-layer="layer1"
     showgrid="false"
     inkscape:pagecheckerboard="true"
     inkscape:window-width="1920"
     inkscape:window-height="1022"
     inkscape:window-x="2160"
     inkscape:window-y="1434"
     inkscape:window-maximized="1"
     inkscape:showpageshadow="2"
     inkscape:deskcolor="#d1d1d1" /><metadata
     id="metadata15"><rdf:RDF><cc:Work
         rdf:about=""><dc:format>image/svg+xml</dc:format><dc:type
           rdf:resource="http://purl.org/dc/dcmitype/StillImage" /></cc:Work></rdf:RDF></metadata><g
     inkscape:label="Layer 1"
     inkscape:groupmode="layer"
     id="layer1"
     transform="translate(150.79588,-36.57104)"><rect
       style="fill:#f9f9f9;fill-rule:evenodd;stroke:#000000;stroke-width:2.18474;stroke-dasharray:none;stroke-dashoffset:0;-inkscape-stroke:none"
       id="rect2-2"
       width="125.81524"
       height="125.81524"
       x="-149.70351"
       y="37.66341"
       ry="31.20808" /><text
       xml:space="preserve"
       transform="matrix(0.26458333,0,0,0.26458333,-150.79588,36.57104)"
       id="text1"
       style="font-style:italic;font-variant:normal;font-weight:normal;font-stretch:normal;font-size:26.6667px;line-height:1.25;font-family:Arial;-inkscape-font-specification:'Arial Italic';letter-spacing:0px;word-spacing:0px;white-space:pre;shape-inside:url(#rect2);display:inline" /><path
       id="rect4"
       style="opacity:1;fill:#2b0000;fill-rule:evenodd;stroke:#4d4d4d;stroke-width:1.65065;stroke-linecap:square;paint-order:fill markers stroke"
       d="m -34.552734,92.787109 c -35.690079,0.05452 -71.380206,0.03876 -107.070316,0.04102 -1.7585,0.845242 -2.17351,3.041055 -1.93359,4.804687 0.003,1.943365 0.002,3.886778 -0.0117,5.830078 1.03997,1.71489 3.27549,1.96957 5.0918,1.75977 35.94922,0.01 71.898434,0.0139 107.847654,0.0117 1.597078,-1.55599 1.437087,-3.95328 1.376953,-5.996099 -0.119988,-1.702177 0.327106,-3.509521 -0.371094,-5.126953 -1.168795,-1.488808 -3.24057,-1.355507 -4.929687,-1.324219 z" /><path
       id="text4"
       style="font-size:266.667px;line-height:1.25;font-family:'Liberation Serif';-inkscape-font-specification:'Liberation Serif';letter-spacing:0px;word-spacing:0px;white-space:pre;stroke-width:0.543257"
       d="m -87.587891,49.029297 c -7.667801,0.208401 -15.545519,1.770079 -22.048829,6.017578 -7.01253,4.444979 -11.31141,12.753609 -10.98752,21.040592 -0.14456,6.648614 1.86684,13.549768 6.47907,18.470528 4.19435,4.789146 10.05024,7.676535 15.915501,9.880895 6.835199,2.69574 14.084821,4.47866 20.484002,8.18723 3.141985,1.97538 5.923515,4.92142 6.641487,8.69199 0.654504,3.40208 0.309706,6.99459 -0.981758,10.1858 -1.213719,3.00346 -3.522244,5.48612 -6.379188,6.91401 -4.983827,2.41403 -10.822483,2.60745 -16.153332,1.54843 -4.246172,-0.88778 -8.485302,-2.4718 -11.936232,-5.0894 -0.6586,-0.51726 -1.36148,-1.07568 -1.4532,-1.97069 -0.25302,-1.54925 -0.55505,-3.08598 -0.87124,-4.62422 -0.5728,-2.96511 -1.14591,-5.93017 -1.71853,-8.89532 -3.30143,0 -6.60286,0 -9.90429,0 0,8.95117 0,17.90234 0,26.85351 12.66645,4.89882 26.511022,6.83433 40.026397,5.35632 7.088307,-0.95129 14.206718,-3.63672 19.301725,-8.80553 5.179251,-5.22812 7.861616,-12.55787 8.142618,-19.84114 0.433935,-6.67888 -0.783305,-13.7213 -4.728396,-19.25868 -3.592443,-5.264891 -9.031411,-9.062995 -14.882463,-11.41528 -7.37254,-3.310331 -15.301552,-5.190011 -22.548154,-8.785557 -3.275014,-1.761636 -6.465417,-4.402613 -7.406357,-8.159598 -1.07526,-4.025684 0.17216,-8.777949 3.716287,-11.171083 3.609919,-2.60449 8.179611,-3.276221 12.513493,-3.379245 5.255517,-0.08387 10.6771,0.8883 15.212503,3.65511 0.579969,0.18394 0.750633,0.760369 0.841797,1.333984 0.908029,3.923013 1.695395,7.871829 2.550781,11.8125 3.28711,0 6.574219,0 9.861328,0 0,-8.322916 0,-16.645833 0,-24.96875 -9.721422,-2.276431 -19.679533,-3.774004 -29.6875,-3.583984 z" /></g></svg>
