<?xml version="1.0" encoding="UTF-8" standalone="no"?>
<!-- Created with Inkscape (http://www.inkscape.org/) -->

<svg
   width="127.99998mm"
   height="127.99998mm"
   viewBox="0 0 127.99998 127.99998"
   version="1.1"
   id="svg18"
   inkscape:version="1.3.2 (091e20ef0f, 2023-11-25, custom)"
   sodipodi:docname="underline.svg"
   xml:space="preserve"
   xmlns:inkscape="http://www.inkscape.org/namespaces/inkscape"
   xmlns:sodipodi="http://sodipodi.sourceforge.net/DTD/sodipodi-0.dtd"
   xmlns="http://www.w3.org/2000/svg"
   xmlns:svg="http://www.w3.org/2000/svg"
   xmlns:rdf="http://www.w3.org/1999/02/22-rdf-syntax-ns#"
   xmlns:cc="http://creativecommons.org/ns#"
   xmlns:dc="http://purl.org/dc/elements/1.1/"><defs
     id="defs12"><rect
       x="585.71429"
       y="92.857143"
       width="482.85714"
       height="462.85714"
       id="rect6" /><rect
       x="592.85714"
       y="50"
       width="502.85714"
       height="528.57143"
       id="rect5" /><rect
       x="557.14286"
       y="102.85714"
       width="377.14286"
       height="388.57143"
       id="rect3" /><rect
       x="565.71429"
       y="107.14286"
       width="365.71429"
       height="371.42857"
       id="rect2" /><rect
       x="94.285713"
       y="348.57144"
       width="314.28571"
       height="308.57144"
       id="rect1" /><inkscape:path-effect
       effect="mirror_symmetry"
       start_point="-29.848996,84.251749"
       end_point="-29.848996,200.81028"
       center_point="-29.848996,142.53101"
       id="path-effect17"
       is_visible="true"
       lpeversion="1.2"
       lpesatellites=""
       mode="free"
       discard_orig_path="false"
       fuse_paths="false"
       oposite_fuse="false"
       split_items="false"
       split_open="false"
       link_styles="false" /><inkscape:path-effect
       effect="mirror_symmetry"
       start_point="60.297285,100.87223"
       end_point="60.297285,175.29533"
       center_point="60.297285,138.08378"
       id="path-effect16"
       is_visible="true"
       lpeversion="1.2"
       lpesatellites=""
       mode="free"
       discard_orig_path="false"
       fuse_paths="false"
       oposite_fuse="false"
       split_items="false"
       split_open="false"
       link_styles="false" /><inkscape:path-effect
       effect="mirror_symmetry"
       start_point="2.0180169,100.87223"
       end_point="2.0180169,175.29533"
       center_point="2.0180169,138.08378"
       id="path-effect15"
       is_visible="true"
       lpeversion="1.2"
       lpesatellites=""
       mode="free"
       discard_orig_path="false"
       fuse_paths="true"
       oposite_fuse="false"
       split_items="false"
       split_open="false"
       link_styles="false" /></defs><sodipodi:namedview
     id="base"
     pagecolor="#ffffff"
     bordercolor="#666666"
     borderopacity="1.0"
     inkscape:pageopacity="0.0"
     inkscape:pageshadow="2"
     inkscape:zoom="0.7"
     inkscape:cx="270"
     inkscape:cy="311.42857"
     inkscape:document-units="mm"
     inkscape:current-layer="layer1"
     showgrid="false"
     inkscape:pagecheckerboard="true"
     inkscape:window-width="1920"
     inkscape:window-height="1020"
     inkscape:window-x="2160"
     inkscape:window-y="1434"
     inkscape:window-maximized="0"
     inkscape:showpageshadow="2"
     inkscape:deskcolor="#d1d1d1" /><metadata
     id="metadata15"><rdf:RDF><cc:Work
         rdf:about=""><dc:format>image/svg+xml</dc:format><dc:type
           rdf:resource="http://purl.org/dc/dcmitype/StillImage" /></cc:Work></rdf:RDF></metadata><g
     inkscape:label="Layer 1"
     inkscape:groupmode="layer"
     id="layer1"
     transform="translate(150.79588,-36.57104)"><rect
       style="fill:#f9f9f9;fill-rule:evenodd;stroke:#000000;stroke-width:2.18474;stroke-dasharray:none;stroke-dashoffset:0;-inkscape-stroke:none"
       id="rect2-2"
       width="125.81524"
       height="125.81524"
       x="-149.70351"
       y="37.66341"
       ry="31.20808" /><text
       xml:space="preserve"
       transform="matrix(0.26458333,0,0,0.26458333,-150.79588,36.57104)"
       id="text1"
       style="font-style:italic;font-variant:normal;font-weight:normal;font-stretch:normal;font-size:26.6667px;line-height:1.25;font-family:Arial;-inkscape-font-specification:'Arial Italic';letter-spacing:0px;word-spacing:0px;white-space:pre;shape-inside:url(#rect2);display:inline" /><path
       id="rect4"
       style="opacity:1;fill:#000000;fill-rule:evenodd;stroke:#000000;stroke-width:1.52337;stroke-linecap:square;paint-order:fill markers stroke"
       d="m -65.590568,146.99192 c -22.316298,0.0117 -44.632552,0.006 -66.948912,0.006 -1.20725,1.38039 -0.49796,3.14848 -0.67362,4.70937 0.0721,1.21191 -0.22204,2.51467 0.19247,3.66682 1.40893,0.87029 3.2716,0.32301 4.89163,0.4565 29.05819,0.003 58.11637,0.006 87.174556,0.01 1.067741,-1.55667 0.386197,-3.39311 0.548633,-5.07708 -0.0533,-1.11506 0.275258,-2.274 -0.208745,-3.3534 -1.362572,-0.76345 -3.130474,-0.34619 -4.676222,-0.45414 -6.766596,0.0124 -13.533195,0.0248 -20.29979,0.0372 z" /><path
       id="text5"
       style="font-size:266.667px;line-height:1.25;font-family:Georgia;-inkscape-font-specification:Georgia;letter-spacing:0px;word-spacing:0px;white-space:pre;stroke-width:0.504323"
       d="m -135.75586,53.725778 c 3.62446,0.453246 7.53061,0.853149 10.49024,3.214844 1.66925,1.506848 1.81869,3.932714 1.69413,6.030077 0.11057,18.824613 -0.11716,37.653541 0.18707,56.475341 0.70954,7.06675 4.7934,13.74717 10.57267,17.90669 7.50226,5.29132 16.869443,7.40348 25.954328,7.1699 7.876756,-0.23304 15.799253,-2.4596 22.240505,-7.14004 6.18747,-4.48502 10.635628,-11.53563 11.424366,-19.16398 0.407193,-4.04493 0.199597,-8.1186 0.252521,-12.17684 0.0081,-9.985696 -0.03322,-19.971805 0.04031,-29.957278 0.119736,-4.571373 -0.02598,-9.184783 0.755189,-13.70637 0.367804,-1.763361 0.855896,-3.596186 1.953879,-5.049994 1.810831,-1.928346 4.574589,-2.31185 7.016616,-2.922419 1.679662,-0.326512 3.410657,-0.361263 5.066614,-0.81665 0.643558,-0.981941 0.101958,-2.204253 0.271484,-3.292187 0,-1.083594 10e-7,-2.167187 0,-3.250781 -13.399739,0 -26.799479,0 -40.199218,0 0,2.228515 0,4.457031 0,6.685547 4.384769,0.510434 8.960521,1.107054 12.767578,3.519531 2.07523,1.776474 2.455876,4.646784 2.991851,7.163242 1.058948,6.252986 0.564312,12.61969 0.715827,18.928164 -0.02394,10.674252 0.125362,21.353005 -0.160275,32.023775 -0.560251,6.57682 -4.05607,13.09548 -9.861325,16.45375 -5.095891,3.04601 -11.247629,3.56737 -17.053269,3.15858 -4.711639,-0.3383 -9.513581,-1.96233 -12.865401,-5.4114 -3.25473,-3.20422 -5.05387,-7.66721 -5.4496,-12.17741 -0.68356,-5.80282 -0.19634,-11.65649 -0.34795,-17.482087 0.002,-13.582523 -0.073,-27.167386 0.12322,-40.74819 0.16193,-1.941117 1.65904,-3.765601 3.64387,-4.007308 2.68338,-0.828849 5.49066,-1.104113 8.268911,-1.420647 0.833484,-1.12751 0.258661,-2.598609 0.420312,-3.881641 0.0018,-0.934635 0.0036,-1.869271 0.0055,-2.803906 -13.640623,0 -27.281253,0 -40.921873,0 6.5e-4,2.226562 0.001,4.453125 0.002,6.679687 z" /></g></svg>
