<?xml version="1.0" encoding="UTF-8" standalone="no"?>
<!-- Created with Inkscape (http://www.inkscape.org/) -->

<svg
   width="100.92883mm"
   height="100.92883mm"
   viewBox="0 0 100.92883 100.92882"
   version="1.1"
   id="svg18"
   inkscape:version="1.3.2 (091e20ef0f, 2023-11-25, custom)"
   sodipodi:docname="arrow_corner_rot.svg"
   xml:space="preserve"
   xmlns:inkscape="http://www.inkscape.org/namespaces/inkscape"
   xmlns:sodipodi="http://sodipodi.sourceforge.net/DTD/sodipodi-0.dtd"
   xmlns="http://www.w3.org/2000/svg"
   xmlns:svg="http://www.w3.org/2000/svg"
   xmlns:rdf="http://www.w3.org/1999/02/22-rdf-syntax-ns#"
   xmlns:cc="http://creativecommons.org/ns#"
   xmlns:dc="http://purl.org/dc/elements/1.1/"><defs
     id="defs12"><inkscape:path-effect
       effect="mirror_symmetry"
       start_point="111.21895,101.30228"
       end_point="111.21895,181.58002"
       center_point="111.21895,141.44115"
       id="path-effect2"
       is_visible="true"
       lpeversion="1.2"
       lpesatellites=""
       mode="free"
       discard_orig_path="false"
       fuse_paths="true"
       oposite_fuse="false"
       split_items="false"
       split_open="false"
       link_styles="false" /></defs><sodipodi:namedview
     id="base"
     pagecolor="#ffffff"
     bordercolor="#666666"
     borderopacity="1.0"
     inkscape:pageopacity="0.0"
     inkscape:pageshadow="2"
     inkscape:zoom="0.89351852"
     inkscape:cx="334.07254"
     inkscape:cy="179.06736"
     inkscape:document-units="mm"
     inkscape:current-layer="layer1"
     showgrid="false"
     inkscape:pagecheckerboard="true"
     inkscape:window-width="1920"
     inkscape:window-height="1004"
     inkscape:window-x="2160"
     inkscape:window-y="1434"
     inkscape:window-maximized="0"
     inkscape:showpageshadow="2"
     inkscape:deskcolor="#d1d1d1" /><metadata
     id="metadata15"><rdf:RDF><cc:Work
         rdf:about=""><dc:format>image/svg+xml</dc:format><dc:type
           rdf:resource="http://purl.org/dc/dcmitype/StillImage" /></cc:Work></rdf:RDF></metadata><g
     inkscape:label="Layer 1"
     inkscape:groupmode="layer"
     id="layer1"
     transform="translate(-77.533757,-89.825254)"><path
       id="path1-6"
       style="fill:#1a1a1a;fill-opacity:0.920474;fill-rule:evenodd;stroke:#ffffff;stroke-width:1.34;stroke-linejoin:bevel;stroke-dasharray:none;stroke-dashoffset:0"
       d="m 177.79275,90.495497 -43.92806,0.111621 10.4991,8.719882 c -0.48995,0.09703 -0.93061,0.31975 -1.3684,0.589628 -6.09169,-3.322087 -12.91904,-5.06397 -19.8577,-5.066358 -22.92283,2e-5 -41.505457,18.58265 -41.505475,41.50548 0.03584,7.11195 1.898565,14.09538 5.409489,20.28041 -0.0014,0.007 -0.0049,0.0125 -0.0062,0.0191 L 78.317172,146.15463 78.204,190.08425 119.14,189.45018 107.96601,177.40337 c 0.42739,-0.29236 0.77376,-1.07418 1.03869,-2.1332 l 0.0307,-5.13227 c 0.0534,-8.92883 -9.85041,-15.10304 -9.851822,-24.35947 -1.27e-4,-19.35852 15.693092,-35.05174 35.051612,-35.05161 12.39034,1.83903 13.53563,10.11504 25.5425,10.86673 1.36779,-0.61782 3.54346,-1.29483 6.2225,-0.74382 l 11.15847,10.58177 z"
       sodipodi:nodetypes="cccccccccccccscccccc" /></g></svg>
