<?xml version="1.0" encoding="UTF-8" standalone="no"?>
<!-- Created with Inkscape (http://www.inkscape.org/) -->

<svg
   version="1.1"
   id="svg1"
   width="31.419756"
   height="32.721573"
   viewBox="0 0 31.419757 32.721574"
   sodipodi:docname="eraser_small.svg"
   inkscape:version="1.3.2 (091e20ef0f, 2023-11-25, custom)"
   xml:space="preserve"
   xmlns:inkscape="http://www.inkscape.org/namespaces/inkscape"
   xmlns:sodipodi="http://sodipodi.sourceforge.net/DTD/sodipodi-0.dtd"
   xmlns="http://www.w3.org/2000/svg"
   xmlns:svg="http://www.w3.org/2000/svg"><defs
     id="defs1" /><sodipodi:namedview
     id="namedview1"
     pagecolor="#ffffff"
     bordercolor="#666666"
     borderopacity="1.0"
     inkscape:showpageshadow="2"
     inkscape:pageopacity="0.0"
     inkscape:pagecheckerboard="0"
     inkscape:deskcolor="#d1d1d1"
     inkscape:zoom="35.079126"
     inkscape:cx="11.75913"
     inkscape:cy="15.322503"
     inkscape:window-width="1728"
     inkscape:window-height="899"
     inkscape:window-x="2160"
     inkscape:window-y="1434"
     inkscape:window-maximized="1"
     inkscape:current-layer="g1" /><g
     inkscape:groupmode="layer"
     inkscape:label="Image"
     id="g1"
     transform="translate(-0.29117038,0.16800232)"><g
       id="g4111"
       transform="matrix(0.09213725,0,0,0.09646685,15.529295,15.611631)"><ellipse
         style="fill:#ff00ff;fill-opacity:1;fill-rule:evenodd;stroke:#000000;stroke-width:16.1777;stroke-linejoin:bevel;stroke-dasharray:none"
         id="path4107-4"
         cx="5.1193242"
         cy="-96.021118"
         rx="162.4118"
         ry="59.46574" /><path
         id="path4110"
         style="fill:#ff9f00;fill-opacity:1;fill-rule:evenodd;stroke:#000000;stroke-width:16.1777;stroke-linejoin:bevel;stroke-dasharray:none"
         d="m 167.53484,61.592277 c -0.0117,2.152766 -0.34259,4.303726 -0.99128,6.44334 -0.0222,0.08248 -0.0408,0.165346 -0.062,0.247821 l -0.12391,0.247821 c -0.65979,2.124108 -1.63163,4.233644 -2.91189,6.319431 -1.33857,2.117418 -2.9932,4.206392 -4.95642,6.257473 -0.0412,0.06186 -0.0823,0.12401 -0.1239,0.185866 -0.0615,0.06186 -0.1237,0.124011 -0.18587,0.185867 -1.95591,2.025776 -4.21026,4.011254 -6.75312,5.947698 l -0.12391,0.06195 c -2.65345,2.000387 -5.61131,3.94471 -8.85959,5.823786 C 112.70786,110.58534 60.850963,121.06431 5.0883458,121.06926 -50.56412,121.02542 -102.28018,110.55119 -131.95653,93.313334 c -0.0414,-0.04155 -0.0827,-0.08267 -0.12391,-0.123908 -2.70319,-1.567176 -5.20479,-3.179776 -7.49658,-4.832507 -0.74648,-0.553437 -1.46938,-1.111106 -2.16843,-1.672791 -1.9502,-1.500282 -3.72782,-3.029875 -5.32815,-4.584682 -0.67596,-0.697705 -1.31627,-1.400018 -1.92061,-2.106475 -1.36046,-1.489592 -2.55921,-2.998376 -3.5934,-4.522731 -0.62948,-1.006443 -1.18727,-2.018731 -1.67279,-3.035804 l -3.03581,95.101204 h 324.83105 z m -73.664705,2.60212 c -3.058043,0.731697 -6.171849,1.452165 -9.355235,2.106475 3.177962,-0.653029 6.302454,-1.37626 9.355235,-2.106475 z M 84.5149,66.300872 c -3.291795,0.676594 -6.623052,1.329258 -10.036742,1.920611 3.402353,-0.589488 6.755713,-1.246402 10.036742,-1.920611 z m -10.842159,2.04452 c -3.40719,0.581926 -6.893648,1.116083 -10.408471,1.610837 3.520961,-0.495581 6.995673,-1.027772 10.408471,-1.610837 z m -128.557019,1.301062 c 3.631287,0.532225 7.291165,1.051029 11.028026,1.486924 -3.729375,-0.436187 -7.402153,-0.954689 -11.028026,-1.486924 z m 13.93992,1.796699 c 4.446389,0.485463 8.938217,0.893465 13.50623,1.239104 -4.573152,-0.34687 -9.054468,-0.751849 -13.50623,-1.239104 z m 79.798284,1.17715 c -3.252902,0.253765 -6.545113,0.438832 -9.850875,0.61955 3.304991,-0.180417 6.598576,-0.366175 9.850875,-0.61955 z m -9.850875,0.61955 c -3.929643,0.214828 -7.841766,0.386638 -11.833442,0.495642 3.975606,-0.108788 7.91913,-0.281963 11.833442,-0.495642 z m -11.833442,0.495642 c -3.991677,0.109006 -8.0413011,0.185507 -12.0812632,0.185866 4.0520478,-3.59e-4 8.0774562,-0.07631 12.0812632,-0.185866 z M 5.0883458,73.921361 c -4.91233557,-0.0039 -9.7859873,-0.08387 -14.6214247,-0.247821 4.8376293,0.163811 9.71003442,0.243957 14.6214247,0.247821 z M -27.190307,72.682257 c 4.768972,0.357994 9.621796,0.66685 14.497516,0.867374 -4.88647,-0.201149 -9.719396,-0.507813 -14.497516,-0.867374 z" /><path
         id="rect4110"
         style="fill:#ffff00;fill-rule:evenodd;stroke-width:19.3537;stroke-linejoin:bevel"
         d="m 55.519872,118.15737 c -16.071198,1.92547 -33.049589,2.91035 -50.4315262,2.91189 -16.9296998,-0.0133 -33.5009128,-1.00938 -49.1924188,-2.84994 v 43.49256 c 0,3.20671 2.555131,5.82376 5.761832,5.82376 H 49.75804 c 3.206685,0 5.761832,-2.61705 5.761832,-5.82376 z" /><path
         id="rect4109-6-9-9"
         style="fill:#666666;fill-opacity:1;fill-rule:evenodd;stroke:#000000;stroke-width:16.1777;stroke-linejoin:bevel"
         d="m -157.29621,14.454355 v 47.165225 0 c 0.023,2.381902 0.43673,4.761127 1.23911,7.124847 0.4913,1.24575 1.0905,2.485472 1.7967,3.717312 0.48552,1.017072 1.04331,2.029354 1.67279,3.0358 1.03419,1.524355 2.23294,3.033136 3.5934,4.522728 0.60434,0.70646 1.24465,1.408764 1.92061,2.106469 1.60034,1.554807 3.37794,3.084396 5.32815,4.584682 0.69905,0.561685 1.42195,1.119341 2.16843,1.672778 2.2918,1.652731 4.79339,3.265331 7.49658,4.832507 0.0412,0.04124 0.0825,0.08247 0.1239,0.124029 C -102.28016,110.5786 -50.564177,121.05273 5.0883458,121.09656 60.851017,121.09161 112.70783,110.61265 142.443,93.340637 c 3.24829,-1.87908 6.20614,-3.8234 8.85959,-5.82379 l 0.12403,-0.06186 c 2.54286,-1.936443 4.7972,-3.921918 6.75312,-5.947698 0.0622,-0.06186 0.12434,-0.124029 0.18588,-0.185885 0.0416,-0.06186 0.0828,-0.12403 0.12403,-0.185886 1.96322,-2.051083 3.61785,-4.140051 4.95641,-6.257473 1.28026,-2.085786 2.2522,-4.195322 2.91199,-6.319431 0.0412,-0.08248 0.0825,-0.165267 0.12372,-0.247741 0.0211,-0.08248 0.0412,-0.165267 0.0634,-0.247742 0.64869,-2.139617 0.97954,-4.290574 0.99128,-6.44334 v 0 -47.165224 c -0.0116,2.152781 -0.34259,4.303713 -0.99128,6.44334 -0.0202,0.08247 -0.0412,0.165266 -0.0634,0.247741 -0.0412,0.08279 -0.0825,0.165267 -0.12372,0.247742 -0.65979,2.124105 -1.63173,4.233647 -2.91199,6.319427 -1.33863,2.117413 -2.9932,4.206381 -4.95641,6.257477 -0.0409,0.06186 -0.0825,0.124029 -0.12403,0.185885 -0.0615,0.06186 -0.12371,0.12403 -0.18588,0.185886 -1.95592,2.02577 -4.21026,4.011257 -6.75312,5.947698 l -0.12403,0.06186 c -2.65346,2.000393 -5.6113,3.94471 -8.85959,5.823789 C 112.70783,63.447429 60.851017,73.926389 5.0883458,73.931337 -50.564177,73.887562 -102.28016,63.41338 -131.95653,46.175412 c -0.0414,-0.04124 -0.0827,-0.08247 -0.12391,-0.124029 -2.70319,-1.567058 -5.20479,-3.179652 -7.49658,-4.832386 -0.74648,-0.553444 -1.46938,-1.111106 -2.16843,-1.672791 -1.95021,-1.500301 -3.72782,-3.029871 -5.32815,-4.584682 -0.67596,-0.697721 -1.31627,-1.400003 -1.92061,-2.106478 -1.36046,-1.489608 -2.5592,-2.998367 -3.5934,-4.522728 -0.62948,-1.006446 -1.18727,-2.018725 -1.67279,-3.035804 -0.7062,-1.23183 -1.3054,-2.471559 -1.7967,-3.717311 -0.80238,-2.36372 -1.21616,-4.742955 -1.23911,-7.124848 z"
         sodipodi:nodetypes="ccccccccccccccccccccccccccccccccccccccccccccccc" /><path
         id="rect4109-6-9"
         style="fill:#666666;fill-opacity:1;fill-rule:evenodd;stroke:#000000;stroke-width:16.1777;stroke-linejoin:bevel"
         d="m -157.29621,-32.710869 v 47.165224 0 c 0.023,2.381903 0.43673,4.761128 1.23911,7.124848 0.4913,1.245749 1.0905,2.485472 1.7967,3.717311 0.48552,1.017072 1.04331,2.029355 1.67279,3.035801 1.03419,1.524355 2.23294,3.033135 3.5934,4.522728 0.60434,0.706459 1.24465,1.408763 1.92061,2.106468 1.60034,1.554808 3.37794,3.084397 5.32815,4.584683 0.69905,0.561684 1.42195,1.11934 2.16843,1.672778 2.2918,1.65273 4.79339,3.26533 7.49658,4.832506 0.0412,0.04124 0.0825,0.08247 0.1239,0.124029 29.67638,17.237873 81.392363,27.711995 137.0448858,27.75583 C 60.851017,73.926389 112.70783,63.447429 142.443,46.175412 c 3.24829,-1.879079 6.20614,-3.823399 8.85959,-5.823789 l 0.12403,-0.06186 c 2.54286,-1.936444 4.7972,-3.921919 6.75312,-5.947698 0.0622,-0.06186 0.12434,-0.12403 0.18588,-0.185886 0.0416,-0.06186 0.0828,-0.124029 0.12403,-0.185885 1.96322,-2.051084 3.61785,-4.140052 4.95641,-6.257474 1.28026,-2.085786 2.2522,-4.195322 2.91199,-6.31943 0.0412,-0.08248 0.0825,-0.165267 0.12372,-0.247742 0.0211,-0.08247 0.0412,-0.165267 0.0634,-0.247741 0.64869,-2.139617 0.97954,-4.290575 0.99128,-6.44334 v 0 -47.165225 c -0.0116,2.152782 -0.34259,4.303714 -0.99128,6.44334 -0.0202,0.08247 -0.0412,0.165267 -0.0634,0.247742 -0.0412,0.08279 -0.0825,0.165266 -0.12372,0.247741 -0.65979,2.124106 -1.63173,4.233648 -2.91199,6.319428 -1.33863,2.117412 -2.9932,4.20638 -4.95641,6.257476 -0.0409,0.06186 -0.0825,0.12403 -0.12403,0.185886 -0.0615,0.06186 -0.12371,0.124029 -0.18588,0.185885 -1.95592,2.02577 -4.21026,4.0112579 -6.75312,5.9476983 l -0.12403,0.061856 c -2.65346,2.0003933 -5.6113,3.9447101 -8.85959,5.82378941 C 112.70783,16.282205 60.851017,26.761164 5.0883458,26.766113 -50.564177,26.722338 -102.28016,16.248156 -131.95653,-0.98981219 c -0.0414,-0.0412374 -0.0827,-0.0824747 -0.12391,-0.12402931 -2.70319,-1.5670583 -5.20479,-3.1796522 -7.49658,-4.8323859 -0.74648,-0.5534436 -1.46938,-1.1111061 -2.16843,-1.6727909 -1.95021,-1.5003013 -3.72782,-3.0298717 -5.32815,-4.5846827 -0.67596,-0.69772 -1.31627,-1.400002 -1.92061,-2.106478 -1.36046,-1.489608 -2.5592,-2.998366 -3.5934,-4.522728 -0.62948,-1.006445 -1.18727,-2.018725 -1.67279,-3.035803 -0.7062,-1.23183 -1.3054,-2.471559 -1.7967,-3.717312 -0.80238,-2.36372 -1.21616,-4.742954 -1.23911,-7.124847 z"
         sodipodi:nodetypes="ccccccccccccccccccccccccccccccccccccccccccccccc" /><path
         id="rect4109-6"
         style="fill:#ff00ff;fill-opacity:1;fill-rule:evenodd;stroke:#000000;stroke-width:16.1777;stroke-linejoin:bevel"
         d="m -157.29621,-97.818424 v 63.442114 0 c 0.023,2.381902 0.43673,4.761127 1.23911,7.124847 0.4913,1.24575 1.0905,2.485472 1.7967,3.717312 0.48552,1.017072 1.04331,2.029354 1.67279,3.0358 1.03419,1.524355 2.23294,3.033136 3.5934,4.522728 0.60434,0.70646 1.24465,1.408764 1.92061,2.106468 1.60034,1.554808 3.37794,3.084397 5.32815,4.5846829 0.69905,0.5616848 1.42195,1.1193409 2.16843,1.6727782 2.2918,1.6527305 4.79339,3.2653307 7.49658,4.8325064 0.0412,0.041237 0.0825,0.082475 0.1239,0.1240293 C -102.28016,14.582714 -50.564177,25.056836 5.0883458,25.100672 60.851017,25.095723 112.70783,14.616764 142.443,-2.6552533 c 3.24829,-1.8790793 6.20614,-3.8233993 8.85959,-5.8237894 l 0.12403,-0.061856 c 2.54286,-1.9364433 4.7972,-3.9219183 6.75312,-5.9476983 0.0622,-0.06186 0.12434,-0.124029 0.18588,-0.185885 0.0416,-0.06186 0.0828,-0.12403 0.12403,-0.185886 1.96322,-2.051083 3.61785,-4.140051 4.95641,-6.257473 1.28026,-2.085787 2.2522,-4.195322 2.91199,-6.319431 0.0412,-0.08247 0.0825,-0.165267 0.12372,-0.247741 0.0211,-0.08247 0.0412,-0.165267 0.0634,-0.247742 0.64869,-2.139617 0.97954,-4.290574 0.99128,-6.44334 v 0 -63.442114 c -0.0116,2.152782 -0.34259,4.303713 -0.99128,6.44334 -0.0202,0.08248 -0.0412,0.165267 -0.0634,0.247741 -0.0412,0.08279 -0.0825,0.165267 -0.12372,0.247742 -0.65979,2.124105 -1.63173,4.233648 -2.91199,6.319428 -1.33863,2.117412 -2.9932,4.20638 -4.95641,6.257476 -0.0409,0.06186 -0.0825,0.12403 -0.12403,0.185886 -0.0615,0.06186 -0.12371,0.124029 -0.18588,0.185885 -1.95592,2.02577 -4.21026,4.011258 -6.75312,5.947698 l -0.12403,0.06186 c -2.65345,2.000394 -5.6113,3.94471 -8.85959,5.82379 C 112.70783,-48.82535 60.851017,-38.346391 5.0883458,-38.341442 -50.564177,-38.385278 -102.28016,-48.8594 -131.95653,-66.097367 c -0.0414,-0.04124 -0.0827,-0.08247 -0.12391,-0.12403 -2.70319,-1.567058 -5.20479,-3.179652 -7.49658,-4.832386 -0.74648,-0.553443 -1.46938,-1.111106 -2.16843,-1.67279 -1.95021,-1.500302 -3.72782,-3.029872 -5.32815,-4.584683 -0.67596,-0.69772 -1.31627,-1.400002 -1.92061,-2.106478 -1.36046,-1.489608 -2.5592,-2.998366 -3.5934,-4.522728 -0.62948,-1.006446 -1.18727,-2.018725 -1.67279,-3.035803 -0.7062,-1.231831 -1.3054,-2.471559 -1.7967,-3.717312 -0.80238,-2.36372 -1.21616,-4.742954 -1.23911,-7.124847 z"
         sodipodi:nodetypes="ccccccccccccccccccccccccccccccccccccccccccccccc" /><ellipse
         style="fill:#333333;fill-opacity:1;fill-rule:evenodd;stroke:none;stroke-width:0.95325;stroke-linejoin:bevel;stroke-dasharray:none"
         id="path4111"
         cx="5.1213813"
         cy="97.70919"
         rx="11.00202"
         ry="13.368444" /><ellipse
         style="fill:#333333;fill-opacity:1;fill-rule:evenodd;stroke:none;stroke-width:0.95325;stroke-linejoin:bevel;stroke-dasharray:none"
         id="path4111-1"
         cx="5.1213813"
         cy="50.808685"
         rx="11.00202"
         ry="13.368444" /><ellipse
         style="fill:#333333;fill-opacity:1;fill-rule:evenodd;stroke:none;stroke-width:0.829357;stroke-linejoin:bevel;stroke-dasharray:none"
         id="path4111-1-4"
         cx="-91.024605"
         cy="40.005207"
         rx="9.7231865"
         ry="11.450194" /><ellipse
         style="fill:#333333;fill-opacity:1;fill-rule:evenodd;stroke:none;stroke-width:0.829357;stroke-linejoin:bevel;stroke-dasharray:none"
         id="path4111-1-4-3"
         cx="-91.024605"
         cy="85.543678"
         rx="9.7231865"
         ry="11.450194" /><ellipse
         style="fill:#333333;fill-opacity:1;fill-rule:evenodd;stroke:none;stroke-width:0.829357;stroke-linejoin:bevel;stroke-dasharray:none"
         id="path4111-1-4-7"
         cx="100.5806"
         cy="40.005207"
         rx="9.7231865"
         ry="11.450194" /><ellipse
         style="fill:#333333;fill-opacity:1;fill-rule:evenodd;stroke:none;stroke-width:0.829357;stroke-linejoin:bevel;stroke-dasharray:none"
         id="path4111-1-4-3-4"
         cx="100.5806"
         cy="85.543678"
         rx="9.7231865"
         ry="11.450194" /></g></g></svg>
