<?xml version="1.0" encoding="UTF-8" standalone="no"?>
<!-- Created with Inkscape (http://www.inkscape.org/) -->

<svg
   width="127.99998mm"
   height="127.99998mm"
   viewBox="0 0 127.99998 127.99998"
   version="1.1"
   id="svg18"
   inkscape:version="1.3.2 (091e20ef0f, 2023-11-25, custom)"
   sodipodi:docname="gen_area_icon.svg"
   xml:space="preserve"
   xmlns:inkscape="http://www.inkscape.org/namespaces/inkscape"
   xmlns:sodipodi="http://sodipodi.sourceforge.net/DTD/sodipodi-0.dtd"
   xmlns="http://www.w3.org/2000/svg"
   xmlns:svg="http://www.w3.org/2000/svg"
   xmlns:rdf="http://www.w3.org/1999/02/22-rdf-syntax-ns#"
   xmlns:cc="http://creativecommons.org/ns#"
   xmlns:dc="http://purl.org/dc/elements/1.1/"><defs
     id="defs12" /><sodipodi:namedview
     id="base"
     pagecolor="#ffffff"
     bordercolor="#666666"
     borderopacity="1.0"
     inkscape:pageopacity="0.0"
     inkscape:pageshadow="2"
     inkscape:zoom="0.57899306"
     inkscape:cx="-14.68066"
     inkscape:cy="299.65817"
     inkscape:document-units="mm"
     inkscape:current-layer="layer1"
     showgrid="false"
     inkscape:pagecheckerboard="true"
     inkscape:window-width="1728"
     inkscape:window-height="899"
     inkscape:window-x="2160"
     inkscape:window-y="1434"
     inkscape:window-maximized="1"
     inkscape:showpageshadow="2"
     inkscape:deskcolor="#d1d1d1" /><metadata
     id="metadata15"><rdf:RDF><cc:Work
         rdf:about=""><dc:format>image/svg+xml</dc:format><dc:type
           rdf:resource="http://purl.org/dc/dcmitype/StillImage" /></cc:Work></rdf:RDF></metadata><g
     inkscape:label="Layer 1"
     inkscape:groupmode="layer"
     id="layer1"
     transform="translate(-50.693984,-64.301116)"><rect
       style="fill:#cccccc;fill-rule:evenodd;stroke:#000000;stroke-width:2.18474;stroke-dasharray:none;stroke-dashoffset:0;-inkscape-stroke:none"
       id="rect2"
       width="125.81525"
       height="125.81525"
       x="51.786354"
       y="65.393486"
       ry="31.20808" /><path
       id="path1"
       style="fill:#000000;fill-rule:evenodd;stroke:#ffffff;stroke-width:1.69063;stroke-linejoin:bevel;stroke-dasharray:none;stroke-dashoffset:0"
       d="M 114.69421,68.816155 A 59.543979,60.596054 0 0 0 55.149754,129.41269 59.543979,60.596054 0 0 0 114.69421,190.00871 59.543979,60.596054 0 0 0 174.23815,129.41269 59.543979,60.596054 0 0 0 114.69421,68.816155 Z M 98.557722,88.297451 h 32.272458 v 3.93523 h 20.39698 V 112.9911 h 3.86793 v 32.84266 h -3.86793 v 20.7579 h -20.39698 v 3.93575 H 98.557722 v -3.93575 H 78.15972 v -20.7579 H 74.292814 V 112.9911 H 78.15972 V 92.232681 h 20.398002 z" /><path
       id="path5"
       style="fill:#000000;fill-opacity:1;fill-rule:evenodd;stroke:#ffffff;stroke-width:1.7446;stroke-linejoin:bevel;stroke-dasharray:none;stroke-dashoffset:0"
       d="m 114.69421,80.935565 a 47.635181,48.476845 0 0 0 -19.624017,4.372993 47.585181,48.425958 0 0 0 -1.670884,0.902922 47.635181,48.476845 0 0 0 -4.149281,2.305112 47.585181,48.425958 0 0 0 -2.403229,1.772766 47.635181,48.476845 0 0 0 -2.634311,1.943323 h 0.0838 a 47.585181,48.425958 0 0 0 -6.136566,6.244992 v -0.08528 a 47.635181,48.476845 0 0 0 -1.909583,2.680857 47.585181,48.425958 0 0 0 -1.741987,2.4457 47.635181,48.476845 0 0 0 -2.26509,4.22258 47.585181,48.425958 0 0 0 -0.887245,1.70042 47.635181,48.476845 0 0 0 -4.297069,19.97074 47.635181,48.476845 0 0 0 4.297577,19.97229 47.585181,48.425958 0 0 0 0.880134,1.68594 47.635181,48.476845 0 0 0 2.271693,4.23499 47.585181,48.425958 0 0 0 1.741987,2.4457 47.635181,48.476845 0 0 0 1.909583,2.68086 v -0.0853 a 47.585181,48.425958 0 0 0 6.136058,6.24448 h -0.0838 a 47.635181,48.476845 0 0 0 2.639389,1.94746 47.585181,48.425958 0 0 0 2.396628,1.76812 47.635181,48.476845 0 0 0 4.169594,2.31648 47.585181,48.425958 0 0 0 1.650571,0.89206 47.635181,48.476845 0 0 0 19.626048,4.37351 47.635181,48.476845 0 0 0 19.62705,-4.37402 47.585181,48.425958 0 0 0 1.63737,-0.88484 47.635181,48.476845 0 0 0 4.18127,-2.32319 47.585181,48.425958 0 0 0 2.39663,-1.76812 47.635181,48.476845 0 0 0 2.63939,-1.94746 h -0.0838 a 47.585181,48.425958 0 0 0 6.13504,-6.24293 v 0.0853 a 47.635181,48.476845 0 0 0 1.92127,-2.69688 47.585181,48.425958 0 0 0 1.72929,-2.42812 47.635181,48.476845 0 0 0 2.27829,-4.24637 47.585181,48.425958 0 0 0 0.87557,-1.67767 47.635181,48.476845 0 0 0 4.29757,-19.97229 47.635181,48.476845 0 0 0 -0.0767,-1.11432 47.585181,48.425958 0 0 0 -0.31234,-4.53631 47.635181,48.476845 0 0 0 -0.28186,-2.07666 47.585181,48.425958 0 0 0 -0.96801,-4.63865 47.635181,48.476845 0 0 0 -0.45809,-1.68439 47.585181,48.425958 0 0 0 -1.71253,-4.79577 47.635181,48.476845 0 0 0 -0.68613,-1.5774 47.585181,48.425958 0 0 0 -2.37428,-4.55286 47.635181,48.476845 0 0 0 -0.86541,-1.39081 47.585181,48.425958 0 0 0 -2.90246,-4.076333 47.635181,48.476845 0 0 0 -0.4642,-0.651737 v 0.07753 a 47.585181,48.425958 0 0 0 -6.05632,-6.162298 h 0.0767 a 47.635181,48.476845 0 0 0 -0.64499,-0.475494 47.585181,48.425958 0 0 0 -4.002,-2.951164 47.635181,48.476845 0 0 0 -1.36363,-0.87863 47.585181,48.425958 0 0 0 -4.47989,-2.418817 47.635181,48.476845 0 0 0 -1.53986,-0.694634 47.585181,48.425958 0 0 0 -4.71911,-1.744857 47.635181,48.476845 0 0 0 -1.65768,-0.466707 47.585181,48.425958 0 0 0 -4.55405,-0.984066 47.635181,48.476845 0 0 0 -2.0401,-0.286846 47.585181,48.425958 0 0 0 -4.45146,-0.317342 47.635181,48.476845 0 0 0 -1.10055,-0.07856 z" /><path
       id="path3"
       style="color:#000000;fill:#ffffff;fill-rule:evenodd;stroke-width:0.991428;stroke-linejoin:bevel;-inkscape-stroke:none"
       d="m 98.557726,88.297451 v 3.935226 H 78.159716 V 112.9911 h -3.866902 v 32.84266 h 3.866902 v 20.7579 h 20.39801 v 3.93575 h 32.272454 v -3.93575 h 20.39698 v -20.7579 h 3.86793 V 112.9911 h -3.86793 V 92.232677 h -20.39698 v -3.935226 z" /><g
       id="g8"
       transform="matrix(0.55417188,0,0,0.56396347,171.8494,61.731311)"><path
         style="fill:#65001c"
         d="m -114.86127,129.78034 v -1.95411 h -1.95411 -1.9541 v -5.86231 -5.86232 h -3.90821 -3.90821 v -1.9541 -1.95411 h -1.95411 -1.9541 v -5.86231 -5.86232 h 1.9541 1.95411 v -1.954103 -1.954104 h 5.86231 5.86232 v -3.90821 -3.90821 h 1.9541 1.95411 v -3.90821 -3.90821 h 7.81642 7.816417 v 1.954105 1.954105 h 1.954105 1.954105 v 5.862315 5.862315 h -1.954105 -1.954105 v 1.954104 1.954103 h 3.90821 3.90821 v 1.95411 1.9541 h 1.954105 1.954105 v 5.86232 5.86231 h -1.954105 -1.954105 v 1.95411 1.9541 h -5.862315 -5.862315 v 3.90821 3.90821 h -1.954107 -1.9541 v 1.95411 1.9541 h -5.86232 -5.86231 z m 7.81642,-3.90821 v -1.95411 h 1.9541 1.95411 v -5.86231 -5.86232 h 1.9541 1.954107 v 1.95411 1.9541 h 5.862315 5.862315 v -5.86231 -5.86232 h -5.862315 -5.862315 v 1.95411 1.9541 h -1.954107 -1.9541 v -1.9541 -1.95411 h -1.95411 -1.9541 v 1.95411 1.9541 h 1.9541 1.95411 v 1.95411 1.9541 h -3.90821 -3.90821 v 3.90821 3.90821 h -1.95411 -1.9541 v 1.95411 1.9541 h 1.9541 1.95411 v 1.95411 1.9541 h 1.9541 1.95411 z m -7.81642,-15.63284 v -1.95411 h 1.9541 1.95411 v -3.90821 -3.90821 h -5.86232 -5.86231 v 1.95411 1.9541 h -1.95411 -1.9541 v 3.90821 3.90821 h 5.86231 5.86232 z m 15.632837,-11.724633 v -1.954104 h 1.954105 1.954105 v -3.90821 -3.90821 h -1.954105 -1.954105 v -1.954105 -1.954105 h -3.908207 -3.90821 v 1.954105 1.954105 h -1.95411 -1.9541 v 3.90821 3.90821 h 1.9541 1.95411 v 1.954104 1.954103 h 3.90821 3.908207 z"
         id="path10" /><path
         style="fill:#013c08"
         d="m -103.13664,172.77064 v -1.9541 h -1.95411 -1.9541 v -3.90821 -3.90821 h -1.95411 -1.9541 v -1.95411 -1.9541 h -1.95411 -1.9541 v -3.90821 -3.90821 h -1.95411 -1.9541 v -1.95411 -1.9541 h -1.95411 -1.9541 v -3.90821 -3.90821 h -1.95411 -1.9541 v -7.81642 -7.81642 h 1.9541 1.95411 v -3.90821 -3.90821 h 1.9541 1.95411 v 11.72463 11.72463 h 1.9541 1.95411 v 3.90821 3.90821 h 1.9541 1.95411 v 1.9541 1.95411 h 1.9541 1.95411 v 1.9541 1.95411 h 1.9541 1.95411 v 3.90821 3.90821 h 1.9541 1.954107 v 5.86231 5.86232 h -1.954107 -1.9541 z"
         id="path9" /><path
         style="fill:#000000"
         d="m -153.94337,180.58706 v -1.9541 h -1.9541 -1.95411 v -1.95411 -1.9541 h -1.9541 -1.95411 v -1.95411 -1.9541 h -1.9541 -1.95411 V 121.96392 73.111294 h 1.95411 1.9541 v -1.954105 -1.954105 h 1.95411 1.9541 v -1.954105 -1.954105 h 1.95411 1.9541 v -1.954105 -1.954105 h 1.95411 1.9541 v -1.954105 -1.954104 h 48.85262 48.852625 v 1.954104 1.954105 h 1.954105 1.954105 v 1.954105 1.954105 h 1.954105 1.954105 v 1.954105 1.954105 h 1.954104 1.954105 v 50.806726 50.80673 h -1.954105 -1.954104 v 1.9541 1.95411 h -1.954105 -1.954105 v 1.9541 1.95411 h -1.954105 -1.954105 v 1.9541 1.95411 h -50.806725 -50.80673 z m 7.81642,-7.81642 v -5.86231 h -5.86231 -5.86232 v 1.9541 1.95411 h 1.95411 1.9541 v 1.9541 1.95411 h 1.95411 1.9541 v 1.9541 1.95411 h 1.9541 1.95411 z m 85.980615,-1.9541 v -7.81642 h 7.81642 7.81642 v -41.0362 -41.036207 h -7.81642 -7.81642 v -9.770524 -9.770525 h -41.036205 -41.0362 v 9.770525 9.770524 h -9.77052 -9.77053 v 41.036207 41.0362 h 9.77053 9.77052 v 7.81642 7.81642 h 41.0362 41.036205 z m 7.81642,1.9541 v -1.9541 h 1.954105 1.954105 v -1.95411 -1.9541 h -3.90821 -3.90821 v 3.90821 3.90821 h 1.954105 1.954105 z M -146.12695,71.157189 v -5.862315 h -1.95411 -1.9541 v 1.954105 1.954105 h -1.9541 -1.95411 v 1.954105 1.954105 h -1.9541 -1.95411 v 1.954105 1.954105 h 5.86232 5.86231 z m 101.613455,3.90821 v -1.954105 h -1.954105 -1.954105 v -1.954105 -1.954105 h -1.954105 -1.954105 v -1.954105 -1.954105 h -1.954105 -1.954105 v 5.862315 5.862315 h 5.862315 5.862315 z"
         id="path8" /></g><path
       id="path4"
       style="color:#000000;fill:#800000;fill-rule:evenodd;stroke-width:0.991428;stroke-linejoin:bevel;-inkscape-stroke:none"
       d="m 76.22677,88.298485 -1.932939,1.967103 V 123.576 H 78.15972 V 92.232681 h 30.79913 v -3.934196 z m 44.20228,0 v 3.934196 h 30.79811 V 123.576 h 3.86793 V 90.265588 l -1.93294,-1.967103 z M 74.293831,135.24886 v 33.30991 l 1.932939,1.96864 h 32.73208 v -3.93575 H 78.15972 v -31.3428 z m 76.933329,0 v 31.3428 h -30.79811 v 3.93575 h 32.7331 l 1.93294,-1.96864 v -33.30991 z"
       sodipodi:nodetypes="cccccccccccccccccccccccccccccccc" /><path
       id="path14"
       style="fill:#ff00ff;fill-opacity:1;fill-rule:evenodd;stroke:none;stroke-width:0.872298;stroke-linejoin:bevel;stroke-dasharray:none;stroke-dashoffset:0"
       d="m 116.8598,120.59611 v 2.20409 h -2.16582 v 2.20408 h -4.33164 v 4.40818 h -2.16582 v 2.20409 h 2.16582 v 2.20409 h 2.16582 v -2.20409 h 2.16582 v -6.61227 h 2.16582 v 2.20409 h 6.49746 c -0.0177,-2.16983 0.0608,-4.44284 0,-6.61226 -6.90469,0.0582 -4.40372,-0.0618 -6.49746,0 z"
       sodipodi:nodetypes="ccccccccccccccccccc" /><path
       style="fill:#ffff00;fill-opacity:1;fill-rule:evenodd;stroke:none;stroke-width:8.00894e-10;stroke-linejoin:bevel;stroke-dasharray:none;stroke-dashoffset:0"
       d="m 112.52816,120.59611 v 2.20409 c 0.70828,-0.0181 1.49707,0.0614 2.16582,0 v -2.20409 z"
       id="path15"
       sodipodi:nodetypes="ccccc" /><path
       style="fill:#ff00ff;fill-opacity:1;fill-rule:evenodd;stroke:none;stroke-width:2.62315e-09;stroke-linejoin:bevel;stroke-dasharray:none;stroke-dashoffset:0"
       d="m 101.69906,125.00428 h 6.49746 v -2.20408 h 2.16582 c 0,0 0,-4.40818 0,-4.40818 h -6.49746 v 2.20409 h -2.16582 z"
       id="path16" /><path
       style="fill:#ff00ff;fill-opacity:1;fill-rule:evenodd;stroke:none;stroke-width:2.62315e-09;stroke-linejoin:bevel;stroke-dasharray:none;stroke-dashoffset:0"
       d="m 112.52816,109.57567 h 4.33164 v 2.20409 h 2.16582 v 4.40817 h -2.16582 v 2.20409 h -4.33164 v -2.20409 h -2.16582 v -4.40817 h 2.16582 z"
       id="path17" /></g></svg>
