<?xml version="1.0" encoding="UTF-8" standalone="no"?>
<!-- Created with Inkscape (http://www.inkscape.org/) -->

<svg
   width="127.99998mm"
   height="127.99998mm"
   viewBox="0 0 128.00001 128.00001"
   version="1.1"
   id="svg18"
   inkscape:version="1.4 (e7c3feb100, 2024-10-09)"
   sodipodi:docname="randomize.svg"
   xml:space="preserve"
   xmlns:inkscape="http://www.inkscape.org/namespaces/inkscape"
   xmlns:sodipodi="http://sodipodi.sourceforge.net/DTD/sodipodi-0.dtd"
   xmlns="http://www.w3.org/2000/svg"
   xmlns:svg="http://www.w3.org/2000/svg"
   xmlns:rdf="http://www.w3.org/1999/02/22-rdf-syntax-ns#"
   xmlns:cc="http://creativecommons.org/ns#"
   xmlns:dc="http://purl.org/dc/elements/1.1/"><defs
     id="defs12"><inkscape:path-effect
       effect="mirror_symmetry"
       start_point="-29.848996,84.251749"
       end_point="-29.848996,200.81028"
       center_point="-29.848996,142.53101"
       id="path-effect17"
       is_visible="true"
       lpeversion="1.2"
       lpesatellites=""
       mode="free"
       discard_orig_path="false"
       fuse_paths="false"
       oposite_fuse="false"
       split_items="false"
       split_open="false"
       link_styles="false" /><inkscape:path-effect
       effect="mirror_symmetry"
       start_point="60.297285,100.87223"
       end_point="60.297285,175.29533"
       center_point="60.297285,138.08378"
       id="path-effect16"
       is_visible="true"
       lpeversion="1.2"
       lpesatellites=""
       mode="free"
       discard_orig_path="false"
       fuse_paths="false"
       oposite_fuse="false"
       split_items="false"
       split_open="false"
       link_styles="false" /><inkscape:path-effect
       effect="mirror_symmetry"
       start_point="2.0180169,100.87223"
       end_point="2.0180169,175.29533"
       center_point="2.0180169,138.08378"
       id="path-effect15"
       is_visible="true"
       lpeversion="1.2"
       lpesatellites=""
       mode="free"
       discard_orig_path="false"
       fuse_paths="true"
       oposite_fuse="false"
       split_items="false"
       split_open="false"
       link_styles="false" /></defs><sodipodi:namedview
     id="base"
     pagecolor="#ffffff"
     bordercolor="#666666"
     borderopacity="1.0"
     inkscape:pageopacity="0.0"
     inkscape:pageshadow="2"
     inkscape:zoom="1.072"
     inkscape:cx="102.14552"
     inkscape:cy="261.19403"
     inkscape:document-units="mm"
     inkscape:current-layer="g13"
     showgrid="false"
     inkscape:pagecheckerboard="true"
     inkscape:window-width="1920"
     inkscape:window-height="1022"
     inkscape:window-x="2160"
     inkscape:window-y="1434"
     inkscape:window-maximized="1"
     inkscape:showpageshadow="2"
     inkscape:deskcolor="#d1d1d1"
     showguides="true" /><metadata
     id="metadata15"><rdf:RDF><cc:Work
         rdf:about=""><dc:format>image/svg+xml</dc:format><dc:type
           rdf:resource="http://purl.org/dc/dcmitype/StillImage" /></cc:Work></rdf:RDF></metadata><g
     inkscape:label="Layer 1"
     inkscape:groupmode="layer"
     id="layer1"
     transform="translate(-0.44264881,-79.568239)"><g
       id="g10"
       transform="matrix(0.68361352,0,0,0.68361352,20.014377,58.129605)"><g
         id="g11"><g
           id="g13"><rect
             style="fill:#f9f9f9;fill-rule:evenodd;stroke:#000000;stroke-width:3.19587;stroke-dasharray:none;stroke-dashoffset:0;-inkscape-stroke:none"
             id="rect2-2-7"
             width="184.0444"
             height="184.0444"
             x="-27.031883"
             y="32.958683"
             ry="45.651642" /><path
             id="rect2-2"
             style="fill:#000000;fill-rule:evenodd;stroke:#000000;stroke-width:3.05524;stroke-dasharray:none;stroke-dashoffset:0;-inkscape-stroke:none"
             d="M 59.625197,37.22622 C 33.030317,49.31225 6.435758,61.402638 -20.15872,73.49057 v 102.51279 c 25.9930133,12.24442 51.986598,24.48825 77.979845,36.73219 h 12.559963 c 26.440046,-12.22835 52.880192,-24.45686 79.320872,-36.6839 0.14277,-34.20204 0.2873,-68.40375 0.43315,-102.605774 C 122.33639,61.373437 94.538139,49.300262 66.740128,37.22622 Z" /><g
             id="g2"
             transform="matrix(0.93085503,0,0,0.93085503,4.4937542,8.641381)"><path
               id="rect1"
               style="fill:#ffc6c6;fill-opacity:1;fill-rule:evenodd;stroke:#f27070;stroke-width:10.8758;stroke-linecap:square;stroke-opacity:1;paint-order:markers stroke fill"
               d="M -15.071763,80.640774 60.65393,113.57722 59.844029,206.94247 -15.071763,173.23934 Z"
               sodipodi:nodetypes="ccccc" /><path
               id="path1"
               style="fill:#1a1a1a;fill-rule:evenodd;stroke:#000000;stroke-width:4.38844;stroke-linecap:square;stroke-dasharray:none;paint-order:markers stroke fill"
               d="m 29.935587,148.07702 a 10.806827,6.9604437 63.376099 0 1 -7.884917,6.06757 10.806827,6.9604437 63.376099 0 1 -7.884917,-13.01196 10.806827,6.9604437 63.376099 0 1 7.884917,-6.06757 10.806827,6.9604437 63.376099 0 1 7.884917,13.01196 z" /><path
               id="path1-6"
               style="fill:#1a1a1a;fill-rule:evenodd;stroke:#000000;stroke-width:4.38844;stroke-linecap:square;stroke-dasharray:none;paint-order:markers stroke fill"
               d="m 54.768238,128.36623 a 10.806827,6.9604437 63.376099 0 1 -7.884917,6.06757 10.806827,6.9604437 63.376099 0 1 -7.884916,-13.01195 10.806827,6.9604437 63.376099 0 1 7.884916,-6.06758 10.806827,6.9604437 63.376099 0 1 7.884917,13.01196 z" /><path
               id="path1-6-5"
               style="fill:#1a1a1a;fill-rule:evenodd;stroke:#000000;stroke-width:4.38844;stroke-linecap:square;stroke-dasharray:none;paint-order:markers stroke fill"
               d="m 6.4744324,106.72134 a 10.806827,6.9604437 63.376099 0 1 -7.8849168,6.06758 10.806827,6.9604437 63.376099 0 1 -7.884917,-13.011959 10.806827,6.9604437 63.376099 0 1 7.884917,-6.067578 10.806827,6.9604437 63.376099 0 1 7.8849168,13.011957 z" /><path
               id="path1-6-2"
               style="fill:#1a1a1a;fill-rule:evenodd;stroke:#000000;stroke-width:4.38844;stroke-linecap:square;stroke-dasharray:none;paint-order:markers stroke fill"
               d="m 54.195551,187.77976 a 10.806827,6.9604437 63.376099 0 0 -7.884916,-13.01195 10.806827,6.9604437 63.376099 0 0 -7.884917,6.06757 10.806827,6.9604437 63.376099 0 0 7.884917,13.01196 10.806827,6.9604437 63.376099 0 0 7.884916,-6.06758 z" /><path
               id="path1-6-5-9"
               style="fill:#1a1a1a;fill-rule:evenodd;stroke:#000000;stroke-width:4.38844;stroke-linecap:square;stroke-dasharray:none;paint-order:markers stroke fill"
               d="m 6.4744324,166.13488 a 10.806827,6.9604437 63.376099 0 0 -7.8849168,-13.01196 10.806827,6.9604437 63.376099 0 0 -7.884917,6.06757 10.806827,6.9604437 63.376099 0 0 7.884917,13.01197 10.806827,6.9604437 63.376099 0 0 7.8849168,-6.06758 z" /><path
               id="rect1-2"
               style="fill:#ffc6c6;fill-opacity:1;fill-rule:evenodd;stroke:#f27070;stroke-width:7.4859;stroke-linecap:square;stroke-dasharray:none;stroke-opacity:1;paint-order:markers stroke fill"
               d="M -12.362886,72.728289 64.990317,38.695247 142.34352,72.728289 64.990317,106.76133 Z" /><path
               id="path1-6-0"
               style="fill:#1a1a1a;fill-rule:evenodd;stroke:#000000;stroke-width:4.38844;stroke-linecap:square;stroke-dasharray:none;paint-order:markers stroke fill"
               d="m 72.952141,47.388888 a 11.27008,4.9584902 0 0 1 -1e-5,7.012359 11.27008,4.9584902 0 0 1 -15.938289,4e-6 11.27008,4.9584902 0 0 1 0,-7.012363 11.27008,4.9584902 0 0 1 15.938299,0 z" /><path
               id="path1-6-5-93"
               style="fill:#1a1a1a;fill-rule:evenodd;stroke:#000000;stroke-width:4.38844;stroke-linecap:square;stroke-dasharray:none;paint-order:markers stroke fill"
               d="m 23.274218,69.245654 a 11.27008,4.9584902 0 0 1 -9e-6,7.012358 11.27008,4.9584902 0 0 1 -15.9382893,5e-6 11.27008,4.9584902 0 0 1 0,-7.012363 11.27008,4.9584902 0 0 1 15.9382983,0 z" /><path
               id="path1-6-2-6"
               style="fill:#1a1a1a;fill-rule:evenodd;stroke:#000000;stroke-width:4.38844;stroke-linecap:square;stroke-dasharray:none;paint-order:markers stroke fill"
               d="m 122.58387,69.22533 a 11.27008,4.9584902 0 0 0 -15.93829,4e-6 11.27008,4.9584902 0 0 0 -10e-6,7.012359 11.27008,4.9584902 0 0 0 15.9383,0 11.27008,4.9584902 0 0 0 0,-7.012363 z" /><path
               id="path1-6-5-9-0"
               style="fill:#1a1a1a;fill-rule:evenodd;stroke:#000000;stroke-width:4.38844;stroke-linecap:square;stroke-dasharray:none;paint-order:markers stroke fill"
               d="m 72.905947,91.082094 a 11.27008,4.9584902 0 0 0 -15.938289,5e-6 11.27008,4.9584902 0 0 0 -1.1e-5,7.01236 11.27008,4.9584902 0 0 0 15.9383,0 11.27008,4.9584902 0 0 0 0,-7.012365 z" /><path
               id="rect1-2-2"
               style="fill:#ffbdbd;fill-opacity:1;fill-rule:evenodd;stroke:#f27070;stroke-width:10.7341;stroke-linecap:square;stroke-dasharray:none;stroke-opacity:1;paint-order:markers stroke fill"
               d="M 69.22878,113.5649 145.54219,80.614351 V 173.25166 L 69.22878,206.96888 Z"
               sodipodi:nodetypes="ccccc" /><path
               id="path1-6-0-1"
               style="fill:#1a1a1a;fill-rule:evenodd;stroke:#000000;stroke-width:4.38844;stroke-linecap:square;stroke-dasharray:none;paint-order:markers stroke fill"
               d="m 139.6608,99.785076 a 7.0035719,10.827282 27.029098 0 1 -7.94546,13.017394 7.0035719,10.827282 27.029098 0 1 -7.94547,-6.0701 7.0035719,10.827282 27.029098 0 1 7.94547,-13.01741 7.0035719,10.827282 27.029098 0 1 7.94546,6.070116 z" /><path
               id="path1-6-5-93-8"
               style="fill:#1a1a1a;fill-rule:evenodd;stroke:#000000;stroke-width:4.38844;stroke-linecap:square;stroke-dasharray:none;paint-order:markers stroke fill"
               d="m 90.130519,121.43902 a 7.0035719,10.827282 27.029098 0 1 -7.945466,13.01739 7.0035719,10.827282 27.029098 0 1 -7.945467,-6.0701 7.0035719,10.827282 27.029098 0 1 7.945467,-13.01741 7.0035719,10.827282 27.029098 0 1 7.945466,6.07012 z" /><path
               id="path1-6-0-1-2"
               style="fill:#1a1a1a;fill-rule:evenodd;stroke:#000000;stroke-width:4.38844;stroke-linecap:square;stroke-dasharray:none;paint-order:markers stroke fill"
               d="m 139.6608,129.50427 a 7.0035719,10.827282 27.029098 0 1 -7.94546,13.0174 7.0035719,10.827282 27.029098 0 1 -7.94547,-6.07011 7.0035719,10.827282 27.029098 0 1 7.94547,-13.01741 7.0035719,10.827282 27.029098 0 1 7.94546,6.07012 z" /><path
               id="path1-6-5-93-8-3"
               style="fill:#1a1a1a;fill-rule:evenodd;stroke:#000000;stroke-width:4.38844;stroke-linecap:square;stroke-dasharray:none;paint-order:markers stroke fill"
               d="m 90.130519,151.15822 a 7.0035719,10.827282 27.029098 0 1 -7.945466,13.01739 7.0035719,10.827282 27.029098 0 1 -7.945467,-6.07011 7.0035719,10.827282 27.029098 0 1 7.945467,-13.0174 7.0035719,10.827282 27.029098 0 1 7.945466,6.07012 z" /><path
               id="path1-6-2-6-7"
               style="fill:#1a1a1a;fill-rule:evenodd;stroke:#000000;stroke-width:4.38844;stroke-linecap:square;stroke-dasharray:none;paint-order:markers stroke fill"
               d="m 139.66081,159.22346 a 7.0035719,10.827282 27.029098 0 0 -7.94547,-6.07011 7.0035719,10.827282 27.029098 0 0 -7.94547,13.0174 7.0035719,10.827282 27.029098 0 0 7.94547,6.07012 7.0035719,10.827282 27.029098 0 0 7.94547,-13.01741 z" /><path
               id="path1-6-5-9-0-9"
               style="fill:#1a1a1a;fill-rule:evenodd;stroke:#000000;stroke-width:4.38844;stroke-linecap:square;stroke-dasharray:none;paint-order:markers stroke fill"
               d="m 90.130527,180.87739 a 7.0035719,10.827282 27.029098 0 0 -7.945467,-6.0701 7.0035719,10.827282 27.029098 0 0 -7.945466,13.0174 7.0035719,10.827282 27.029098 0 0 7.945466,6.07011 7.0035719,10.827282 27.029098 0 0 7.945467,-13.01741 z" /></g></g></g></g></g></svg>
