<?xml version="1.0" encoding="UTF-8" standalone="no"?>
<!-- Created with Inkscape (http://www.inkscape.org/) -->

<svg
   width="127.99998mm"
   height="127.99998mm"
   viewBox="0 0 128 128"
   version="1.1"
   id="svg18"
   inkscape:version="1.4 (e7c3feb100, 2024-10-09)"
   sodipodi:docname="repeat.svg"
   xml:space="preserve"
   xmlns:inkscape="http://www.inkscape.org/namespaces/inkscape"
   xmlns:sodipodi="http://sodipodi.sourceforge.net/DTD/sodipodi-0.dtd"
   xmlns="http://www.w3.org/2000/svg"
   xmlns:svg="http://www.w3.org/2000/svg"
   xmlns:rdf="http://www.w3.org/1999/02/22-rdf-syntax-ns#"
   xmlns:cc="http://creativecommons.org/ns#"
   xmlns:dc="http://purl.org/dc/elements/1.1/"><defs
     id="defs12"><inkscape:path-effect
       effect="mirror_symmetry"
       start_point="-29.848996,84.251749"
       end_point="-29.848996,200.81028"
       center_point="-29.848996,142.53101"
       id="path-effect17"
       is_visible="true"
       lpeversion="1.2"
       lpesatellites=""
       mode="free"
       discard_orig_path="false"
       fuse_paths="false"
       oposite_fuse="false"
       split_items="false"
       split_open="false"
       link_styles="false" /><inkscape:path-effect
       effect="mirror_symmetry"
       start_point="60.297285,100.87223"
       end_point="60.297285,175.29533"
       center_point="60.297285,138.08378"
       id="path-effect16"
       is_visible="true"
       lpeversion="1.2"
       lpesatellites=""
       mode="free"
       discard_orig_path="false"
       fuse_paths="false"
       oposite_fuse="false"
       split_items="false"
       split_open="false"
       link_styles="false" /><inkscape:path-effect
       effect="mirror_symmetry"
       start_point="2.0180169,100.87223"
       end_point="2.0180169,175.29533"
       center_point="2.0180169,138.08378"
       id="path-effect15"
       is_visible="true"
       lpeversion="1.2"
       lpesatellites=""
       mode="free"
       discard_orig_path="false"
       fuse_paths="true"
       oposite_fuse="false"
       split_items="false"
       split_open="false"
       link_styles="false" /></defs><sodipodi:namedview
     id="base"
     pagecolor="#ffffff"
     bordercolor="#666666"
     borderopacity="1.0"
     inkscape:pageopacity="0.0"
     inkscape:pageshadow="2"
     inkscape:zoom="1.45664"
     inkscape:cx="52.861381"
     inkscape:cy="197.7153"
     inkscape:document-units="mm"
     inkscape:current-layer="g13"
     showgrid="false"
     inkscape:pagecheckerboard="true"
     inkscape:window-width="1920"
     inkscape:window-height="1022"
     inkscape:window-x="2160"
     inkscape:window-y="1434"
     inkscape:window-maximized="1"
     inkscape:showpageshadow="2"
     inkscape:deskcolor="#d1d1d1" /><metadata
     id="metadata15"><rdf:RDF><cc:Work
         rdf:about=""><dc:format>image/svg+xml</dc:format><dc:type
           rdf:resource="http://purl.org/dc/dcmitype/StillImage" /></cc:Work></rdf:RDF></metadata><g
     inkscape:label="Layer 1"
     inkscape:groupmode="layer"
     id="layer1"
     transform="translate(223.39485,-77.531376)"><g
       id="g10"
       transform="matrix(0.68361352,0,0,0.68361352,20.014377,58.129605)"><g
         id="g11"><g
           id="g13"><rect
             style="fill:#f9f9f9;fill-rule:evenodd;stroke:#000000;stroke-width:3.19587;stroke-dasharray:none;stroke-dashoffset:0;-inkscape-stroke:none"
             id="rect2-2"
             width="184.0444"
             height="184.0444"
             x="-354.46469"
             y="29.979136"
             ry="45.651642" /><g
             id="g8"
             transform="translate(-281.64723,-40.91856)"
             style="fill:none;stroke:#000000"><path
               d="m -337.47596,35.345955 60.30096,-1.510528 a 8.4007003,8.4007003 0 0 1 7.05505,13.268609 l -34.97216,49.14709 a 10.383837,10.383837 0 0 1 -17.62887,-1.145406 l -23.66334,-44.504269 a 10.383837,10.383837 0 0 1 8.90836,-15.255496 z"
               style="fill:context-stroke;fill-rule:evenodd;stroke:none;stroke-width:8.4007"
               id="path9" /></g><path
             id="path10"
             style="fill:#00ff00;fill-rule:evenodd;stroke:#000000;stroke-width:10.06583212;stroke-linecap:round;paint-order:markers stroke fill"
             d="m -267.54297,50.095703 c -25.24796,7.101603 -48.3698,13.143305 -73.61655,20.24968 7.33311,3.964801 14.66389,7.933918 21.9961,11.900391 -11.46024,17.509626 -16.38125,41.516736 -9.19642,61.201776 6.38581,18.02488 20.62264,33.13098 38.32609,40.40556 15.26045,6.39809 32.88527,7.01221 48.51582,1.54233 14.51989,-4.98638 27.25598,-14.99068 35.50021,-27.9468 7.92334,-12.33084 11.82137,-27.24307 10.65596,-41.87551 -1.1098,-15.54232 -7.68601,-30.659012 -18.43091,-41.965255 -4.49952,-4.800328 -9.7301,-8.894276 -15.40069,-12.223109 -4.86377,7.206928 -9.7292,14.41274 -14.59375,21.61914 4.78288,3.736542 9.96224,7.205842 13.50226,12.242913 5.53533,7.301821 8.6087,16.446441 8.50757,25.674661 -0.10336,9.59217 -3.52188,19.16075 -9.74719,26.54306 -6.82433,8.14517 -16.80078,13.62725 -27.39113,14.75206 -7.12523,0.81142 -14.39333,-0.18131 -21.02776,-2.92754 -4.02437,-1.68294 -7.97797,-4.09124 -11.31502,-7.04504 -5.87773,-5.11815 -10.3373,-11.83171 -12.60881,-19.27918 -2.93312,-9.72982 -2.38572,-20.64705 2.0023,-29.89971 1.10348,-2.34481 2.63106,-4.431505 4.17348,-6.537786 6.08957,7.860766 12.18875,15.713976 18.28907,23.566406 4.15063,-23.387978 8.30144,-46.775925 12.45117,-70.164062 -0.19727,0.05534 -0.39453,0.110677 -0.5918,0.166015 z"
             sodipodi:nodetypes="ccccccccccccccccccccccc" /></g></g></g></g></svg>
