<?xml version="1.0" encoding="UTF-8" standalone="no"?>
<!-- Created with Inkscape (http://www.inkscape.org/) -->

<svg
   version="1.1"
   id="svg1"
   width="512"
   height="512"
   viewBox="0 0 512 512"
   sodipodi:docname="size.svg"
   xml:space="preserve"
   inkscape:version="1.3.2 (091e20ef0f, 2023-11-25, custom)"
   xmlns:inkscape="http://www.inkscape.org/namespaces/inkscape"
   xmlns:sodipodi="http://sodipodi.sourceforge.net/DTD/sodipodi-0.dtd"
   xmlns="http://www.w3.org/2000/svg"
   xmlns:svg="http://www.w3.org/2000/svg"><defs
     id="defs1" /><sodipodi:namedview
     id="namedview1"
     pagecolor="#ffffff"
     bordercolor="#666666"
     borderopacity="1.0"
     inkscape:showpageshadow="2"
     inkscape:pageopacity="0.0"
     inkscape:pagecheckerboard="0"
     inkscape:deskcolor="#d1d1d1"
     inkscape:zoom="0.68983051"
     inkscape:cx="152.93612"
     inkscape:cy="160.90909"
     inkscape:window-width="1920"
     inkscape:window-height="1020"
     inkscape:window-x="2160"
     inkscape:window-y="1434"
     inkscape:window-maximized="0"
     inkscape:current-layer="g1" /><g
     inkscape:groupmode="layer"
     inkscape:label="Image"
     id="g1"
     transform="translate(310.7236,93.641295)"><rect
       style="fill:#f2f2f2;fill-rule:evenodd;stroke:#000000;stroke-width:8.73895;stroke-dasharray:none;stroke-dashoffset:0;-inkscape-stroke:none"
       id="rect2"
       width="503.26105"
       height="503.26105"
       x="-306.35413"
       y="-413.98923"
       ry="124.83231"
       transform="scale(1,-1)" /><g
       id="g65"
       transform="matrix(0.93032139,0,0,0.93032139,-3.8240325,14.77971)"><g
         id="g62"
         transform="matrix(1.0779837,0.06285979,-0.06285979,1.0779837,16.974521,0.88993193)"><path
           style="fill:#000000;stroke-width:1.79208"
           d="m -271.04626,137.45133 c -18.57658,-32.79711 -22.14962,-72.671695 -9.67512,-107.973036 8.22006,-23.2617763 14.40848,-32.054694 37.54509,-53.346503 17.37449,-15.989142 21.43575,-18.98375 32.6555,-24.078692 59.21719,-26.890818 129.874804,-11.174882 169.018132,37.593676 31.141274,38.798831 38.4279068,88.938817 19.429745,133.697775 -30.150096,71.03251 -115.532027,102.48605 -188.454347,69.42404 -11.55467,-5.23873 -14.88668,-7.74882 -33.76385,-25.43506 -17.26029,-16.17135 -21.96621,-21.4272 -26.75515,-29.8822 z"
           id="path55" /><path
           style="fill:#000000;stroke-width:1.16485"
           d="m -118.37015,214.07813 c -12.07477,-21.31812 -14.39725,-47.2366 -6.28882,-70.18247 5.34304,-15.12015 9.36551,-20.83555 24.40431,-34.67523 11.293413,-10.392939 13.933232,-12.339434 21.22607,-15.651147 38.491173,-17.479031 84.4186204,-7.263673 109.861788,24.435887 20.24183,25.21924 24.97814,57.81023 12.62933,86.90356 -19.597561,46.17113 -75.095816,66.61593 -122.495323,45.12562 -7.510536,-3.40517 -9.676343,-5.03673 -21.946505,-16.53279 -11.21919,-10.51138 -14.27803,-13.92768 -17.39085,-19.42343 z"
           id="path55-78" /><path
           style="fill:#000000;stroke-width:0.757152"
           d="m -8.7562856,273.54619 c -7.8486014,-13.85678 -9.3582134,-30.70379 -4.0877334,-45.61861 3.4729764,-9.8281 6.0875814,-13.54311 15.8628017,-22.5389 7.3407183,-6.75541 9.0566003,-8.02063 13.7969453,-10.17325 25.019262,-11.36136 54.872103,-4.72138 71.410163,15.88333 13.157189,16.39251 16.235799,37.57665 8.209065,56.48732 -12.738414,30.01123 -48.812282,43.30035 -79.621961,29.33165 -4.881849,-2.21336 -6.289623,-3.27388 -14.2652283,-10.74631 -7.2924735,-6.8324 -9.2807193,-9.053 -11.3040523,-12.62523 z"
           id="path55-78-3" /><path
           style="fill:#000000;stroke-width:0.492149"
           d="m 71.086959,319.77396 c -5.101591,-9.00691 -6.082838,-19.95747 -2.657026,-29.6521 2.257434,-6.38826 3.956927,-8.80302 10.310821,-14.65028 4.771467,-4.39102 5.88679,-5.21341 8.968014,-6.61262 16.262522,-7.38488 35.666862,-3.06889 46.416602,10.32417 8.55218,10.65513 10.55328,24.42482 5.3359,36.71676 -8.27998,19.50729 -31.72799,28.14522 -51.754278,19.06557 -3.173202,-1.43869 -4.088255,-2.12802 -9.272399,-6.9851 -4.740108,-4.44106 -6.032468,-5.88445 -7.347634,-8.2064 z"
           id="path55-78-3-0" /></g><circle
         style="opacity:1;fill:#000000;fill-rule:evenodd;stroke:#000000;stroke-width:1.73257;stroke-linecap:square;paint-order:markers stroke fill"
         id="path62"
         cx="-146.19043"
         cy="73.791145"
         r="152.07584" /><circle
         style="opacity:1;fill:#000000;fill-rule:evenodd;stroke:#000000;stroke-width:1.39386;stroke-linecap:square;paint-order:markers stroke fill"
         id="path64"
         cx="-38.192886"
         cy="178.88943"
         r="103.68253" /><circle
         style="fill:#000000;fill-rule:evenodd;stroke:#000000;stroke-width:0.906009;stroke-linecap:square;paint-order:markers stroke fill"
         id="path64-6"
         cx="45.429825"
         cy="271.34503"
         r="67.393646" /><circle
         style="fill:#000000;fill-rule:evenodd;stroke:#000000;stroke-width:0.588906;stroke-linecap:square;paint-order:markers stroke fill"
         id="path64-6-0"
         cx="109.06408"
         cy="334.44861"
         r="43.80587" /></g></g></svg>
