<?xml version="1.0" encoding="UTF-8" standalone="no"?>
<!-- Created with Inkscape (http://www.inkscape.org/) -->

<svg
   width="127.99998mm"
   height="127.99998mm"
   viewBox="0 0 128 128"
   version="1.1"
   id="svg18"
   inkscape:version="1.3.2 (091e20ef0f, 2023-11-25, custom)"
   sodipodi:docname="sparkle.svg"
   xml:space="preserve"
   xmlns:inkscape="http://www.inkscape.org/namespaces/inkscape"
   xmlns:sodipodi="http://sodipodi.sourceforge.net/DTD/sodipodi-0.dtd"
   xmlns="http://www.w3.org/2000/svg"
   xmlns:svg="http://www.w3.org/2000/svg"
   xmlns:rdf="http://www.w3.org/1999/02/22-rdf-syntax-ns#"
   xmlns:cc="http://creativecommons.org/ns#"
   xmlns:dc="http://purl.org/dc/elements/1.1/"><defs
     id="defs12"><inkscape:path-effect
       effect="mirror_symmetry"
       start_point="-29.848996,84.251749"
       end_point="-29.848996,200.81028"
       center_point="-29.848996,142.53101"
       id="path-effect17"
       is_visible="true"
       lpeversion="1.2"
       lpesatellites=""
       mode="free"
       discard_orig_path="false"
       fuse_paths="false"
       oposite_fuse="false"
       split_items="false"
       split_open="false"
       link_styles="false" /><inkscape:path-effect
       effect="mirror_symmetry"
       start_point="60.297285,100.87223"
       end_point="60.297285,175.29533"
       center_point="60.297285,138.08378"
       id="path-effect16"
       is_visible="true"
       lpeversion="1.2"
       lpesatellites=""
       mode="free"
       discard_orig_path="false"
       fuse_paths="false"
       oposite_fuse="false"
       split_items="false"
       split_open="false"
       link_styles="false" /><inkscape:path-effect
       effect="mirror_symmetry"
       start_point="2.0180169,100.87223"
       end_point="2.0180169,175.29533"
       center_point="2.0180169,138.08378"
       id="path-effect15"
       is_visible="true"
       lpeversion="1.2"
       lpesatellites=""
       mode="free"
       discard_orig_path="false"
       fuse_paths="true"
       oposite_fuse="false"
       split_items="false"
       split_open="false"
       link_styles="false" /></defs><sodipodi:namedview
     id="base"
     pagecolor="#ffffff"
     bordercolor="#666666"
     borderopacity="1.0"
     inkscape:pageopacity="0.0"
     inkscape:pageshadow="2"
     inkscape:zoom="0.72831998"
     inkscape:cx="-81.694861"
     inkscape:cy="211.44552"
     inkscape:document-units="mm"
     inkscape:current-layer="g13"
     showgrid="false"
     inkscape:pagecheckerboard="true"
     inkscape:window-width="1920"
     inkscape:window-height="1006"
     inkscape:window-x="2160"
     inkscape:window-y="1434"
     inkscape:window-maximized="1"
     inkscape:showpageshadow="2"
     inkscape:deskcolor="#d1d1d1" /><metadata
     id="metadata15"><rdf:RDF><cc:Work
         rdf:about=""><dc:format>image/svg+xml</dc:format><dc:type
           rdf:resource="http://purl.org/dc/dcmitype/StillImage" /></cc:Work></rdf:RDF></metadata><g
     inkscape:label="Layer 1"
     inkscape:groupmode="layer"
     id="layer1"
     transform="translate(223.39485,-77.531376)"><g
       id="g10"
       transform="matrix(0.68361352,0,0,0.68361352,20.014377,58.129605)"><g
         id="g11"><g
           id="g13"><rect
             style="fill:#f9f9f9;fill-rule:evenodd;stroke:#000000;stroke-width:3.19587;stroke-dasharray:none;stroke-dashoffset:0;-inkscape-stroke:none"
             id="rect2-2"
             width="184.0444"
             height="184.0444"
             x="-354.46469"
             y="29.979134"
             ry="45.651642" /><path
             id="path15"
             style="opacity:1;fill:#ffcc00;fill-rule:evenodd;stroke:#000000;stroke-width:3.5065;stroke-linecap:square;paint-order:fill markers stroke"
             d="m -178.137,120.81196 c -19.23333,-2.5583 -32.50069,-3.74404 -51.29446,-13.86922 -11.81296,-37.294945 -11.6285,-45.102531 -14.45769,-70.096616 -2.82918,24.994085 -2.64475,32.801671 -14.4577,70.096616 -18.79377,10.12518 -32.06113,11.31092 -51.29444,13.86922 4.80832,0.63958 9.24327,1.19344 13.48542,1.82257 12.72645,1.88737 23.7137,4.45277 37.80902,12.04666 11.81295,37.29494 11.62852,45.10253 14.4577,70.09661 2.82919,-24.99408 2.64473,-32.80167 14.45769,-70.09661 14.09533,-7.59389 25.08171,-10.15929 37.80817,-12.04666 4.24214,-0.62913 8.67796,-1.18299 13.48629,-1.82257 z" /><path
             id="path15-9"
             style="fill:#ffcc00;fill-rule:evenodd;stroke:#000000;stroke-width:1.3347;stroke-linecap:square;paint-order:fill markers stroke"
             d="m -267.70771,170.96157 c -7.32087,-0.97378 -12.37088,-1.42512 -19.52444,-5.2791 -4.49641,-14.19575 -4.42621,-17.16759 -5.50309,-26.6812 -1.07689,9.51361 -1.00668,12.48545 -5.5031,26.6812 -7.15355,3.85398 -12.20357,4.30532 -19.52443,5.2791 1.83021,0.24344 3.51831,0.45426 5.13302,0.69373 4.84412,0.71839 9.02624,1.69488 14.39141,4.58537 4.49642,14.19574 4.42621,17.16758 5.5031,26.68118 1.07688,-9.5136 1.00668,-12.48544 5.50309,-26.68118 5.36517,-2.89049 9.54696,-3.86698 14.3911,-4.58537 1.6147,-0.23947 3.30313,-0.45029 5.13334,-0.69373 z" /><path
             id="path15-3"
             style="fill:#ffcc00;fill-rule:evenodd;stroke:#000000;stroke-width:1.54008;stroke-linecap:square;paint-order:fill markers stroke"
             d="m -288.90063,80.026894 c -8.44738,-1.123619 -14.27449,-1.644405 -22.52881,-6.091439 -5.18832,-16.380159 -5.10731,-19.809289 -6.3499,-30.786836 -1.2426,10.977547 -1.16159,14.406677 -6.34991,30.786836 -8.25432,4.447034 -14.08143,4.96782 -22.5288,6.091439 2.11182,0.280903 4.05969,0.524163 5.92288,0.800482 5.58953,0.828944 10.41517,1.955682 16.60592,5.290958 5.18832,16.380146 5.10731,19.809276 6.34991,30.786816 1.24259,-10.97754 1.16158,-14.40667 6.3499,-30.786816 6.19075,-3.335276 11.01602,-4.462014 16.60555,-5.290958 1.86319,-0.276319 3.81141,-0.519579 5.92326,-0.800482 z" /></g></g></g></g></svg>
