<?xml version="1.0" encoding="UTF-8" standalone="no"?>
<!-- Created with Inkscape (http://www.inkscape.org/) -->

<svg
   width="130.22269mm"
   height="130.22269mm"
   viewBox="0 0 130.22269 130.22269"
   version="1.1"
   id="svg18"
   inkscape:version="1.3.2 (091e20ef0f, 2023-11-25, custom)"
   sodipodi:docname="brush.svg"
   xml:space="preserve"
   xmlns:inkscape="http://www.inkscape.org/namespaces/inkscape"
   xmlns:sodipodi="http://sodipodi.sourceforge.net/DTD/sodipodi-0.dtd"
   xmlns:xlink="http://www.w3.org/1999/xlink"
   xmlns="http://www.w3.org/2000/svg"
   xmlns:svg="http://www.w3.org/2000/svg"
   xmlns:rdf="http://www.w3.org/1999/02/22-rdf-syntax-ns#"
   xmlns:cc="http://creativecommons.org/ns#"
   xmlns:dc="http://purl.org/dc/elements/1.1/"><defs
     id="defs12"><linearGradient
       id="linearGradient3"
       inkscape:collect="always"><stop
         style="stop-color:#000000;stop-opacity:1;"
         offset="0"
         id="stop3" /><stop
         style="stop-color:#000000;stop-opacity:0;"
         offset="1"
         id="stop4" /></linearGradient><linearGradient
       id="linearGradient1"
       inkscape:collect="always"><stop
         style="stop-color:#ff00ff;stop-opacity:1;"
         offset="0"
         id="stop1" /><stop
         style="stop-color:#0b00ff;stop-opacity:1;"
         offset="1"
         id="stop2" /></linearGradient><linearGradient
       inkscape:collect="always"
       xlink:href="#linearGradient3"
       id="linearGradient4"
       x1="-158.80707"
       y1="152.86593"
       x2="-58.188588"
       y2="152.86593"
       gradientUnits="userSpaceOnUse" /><linearGradient
       inkscape:collect="always"
       xlink:href="#linearGradient1"
       id="linearGradient14"
       x1="-158.74169"
       y1="184.33827"
       x2="-50.417035"
       y2="184.33827"
       gradientUnits="userSpaceOnUse" /></defs><sodipodi:namedview
     id="base"
     pagecolor="#ffffff"
     bordercolor="#666666"
     borderopacity="1.0"
     inkscape:pageopacity="0.0"
     inkscape:pageshadow="2"
     inkscape:zoom="2"
     inkscape:cx="151.75"
     inkscape:cy="315.75"
     inkscape:document-units="mm"
     inkscape:current-layer="layer1"
     showgrid="false"
     inkscape:pagecheckerboard="true"
     inkscape:window-width="2160"
     inkscape:window-height="3807"
     inkscape:window-x="0"
     inkscape:window-y="0"
     inkscape:window-maximized="1"
     inkscape:showpageshadow="2"
     inkscape:deskcolor="#d1d1d1" /><metadata
     id="metadata15"><rdf:RDF><cc:Work
         rdf:about=""><dc:format>image/svg+xml</dc:format><dc:type
           rdf:resource="http://purl.org/dc/dcmitype/StillImage" /></cc:Work></rdf:RDF></metadata><g
     inkscape:label="Layer 1"
     inkscape:groupmode="layer"
     id="layer1"
     transform="translate(171.55244,-84.740851)"
     style="opacity:1"><g
       inkscape:label="Layer 1"
       id="layer1-6"
       transform="translate(-222.24642,20.439731)"
       style="fill:#f9f9f9"><rect
         style="fill:#f9f9f9;fill-rule:evenodd;stroke:#000000;stroke-width:2.22268;stroke-dasharray:none;stroke-dashoffset:0;-inkscape-stroke:none"
         id="rect7"
         width="128"
         height="128"
         x="51.805321"
         y="65.41246"
         ry="31.75" /></g><path
       style="opacity:1;fill:url(#linearGradient14);fill-rule:evenodd;stroke-width:4;stroke-linejoin:bevel;stroke-dasharray:16, 4"
       d="m -156.68372,201.80784 -2.05797,1.49671 37.23064,0.93544 11.97368,-6.82874 8.98028,-6.73518 12.529766,10.81676 24.90836,-5.95845 9.708222,-7.85174 2.993707,-23.24608 -16.651747,19.36548 -17.218952,8.92177 -22.256216,-12.89889 -11.22533,13.84456 -18.70886,6.36101 z"
       id="path7"
       sodipodi:nodetypes="ccccccccccccccc" /><path
       id="path5"
       style="fill:#f4e3d7;fill-rule:evenodd;stroke-width:149.615;stroke-linejoin:bevel;stroke-dasharray:598.461, 149.615"
       d="m -135.74763,170.53363 c -2.98108,0.0748 -5.33378,1.59714 -7.90567,4.15594 -4.49406,4.49144 -1.69065,11.48969 -5.87576,17.00937 -5.36258,2.26293 -4.53109,4.04597 -6.49479,8.96868 4.26253,-0.39274 6.71772,-2.89505 10.05114,-2.03102 15.84724,0.8154 22.3252,-8.4959 20.97194,-23.58122 -2.13576,-0.46755 -2.17691,-0.0748 -3.94311,-3.40375 l -3.5758,-0.67701 c -1.15952,-0.33663 -2.23301,-0.4638 -3.22795,-0.4451 z" /><path
       id="path6"
       style="fill:#800080;fill-rule:evenodd;stroke-width:149.615;stroke-linejoin:bevel;stroke-dasharray:598.461, 149.615;fill-opacity:1"
       d="m -141.35745,190.84651 -3.5571,1.70187 -1.85523,0.14962 -3.45985,-0.65831 c -4.52811,2.11331 -3.93301,3.96293 -5.79871,8.64028 3.32893,-0.29923 5.55932,-1.87393 7.96364,-2.14698 l 0.22442,-0.89021 1.23807,-2.16568 3.4,-1.39142 z" /><path
       id="path3"
       style="fill:url(#linearGradient4);fill-rule:evenodd;stroke-width:149.615;stroke-linejoin:bevel;stroke-dasharray:598.461, 149.615"
       d="m -62.070393,102.91244 v 0.0194 0.0191 c -1.619584,0.0333 -3.179322,0.29923 -4.677344,0.79296 l -53.231953,57.19451 c -0.22442,-0.0748 -0.26183,-0.003 -0.83036,-0.0748 l -8.35003,8.91071 -0.0748,-0.11222 c -4.83295,-1.844 -7.49834,-2.21804 -13.34156,0.33664 -4.71325,4.54082 -7.16208,9.63073 -6.71698,15.78776 0.7406,3.95546 -7.01882,5.07084 -7.52377,11.94416 -0.0374,0.61716 -1.98988,5.10262 -1.98988,5.10262 5.57167,-0.18702 7.02032,-1.58966 15.30862,-1.70187 6.25242,0.14961 8.79775,-1.22684 14.35857,-4.90326 4.37101,-4.37213 7.27691,-6.55614 6.64104,-13.11751 l -0.0748,-8.67245 7.76989,-8.11811 c 0.22442,-0.26183 0.22442,-0.48625 0.18702,-0.73312 l 54.913623,-53.71521 c 2.128276,-3.07085 1.701873,-9.1183 0.617163,-8.81383 -1.009903,-0.11221 -2.004843,-0.18702 -2.977342,-0.14961 z m -4.310039,5.02557 h 0.01908 0.01945 0.01945 c 1.432566,0.0374 1.324095,0.40397 1.836527,0.63961 l 0.29923,0.29923 0.677008,1.93378 c -0.02207,1.57469 -0.519912,1.52607 -0.639604,2.28163 l -51.801259,52.51679 c -1.27921,-0.5835 -2.47987,-1.60836 -3.67306,-3.63191 -0.001,-0.0748 -0.005,-0.14961 0,-0.22442 l 51.395809,-52.80667 c 0.826624,-0.80044 1.398902,-1.02113 1.855228,-1.00617 z M -120.347,162.05906 c 1.11464,2.65941 2.60331,3.44863 4.21354,4.31041 l -3.86568,3.65435 c -2.77536,-1.45501 -3.56458,-2.68559 -3.82716,-3.90458 z m -4.23298,4.92907 c 0.89021,1.64202 2.30407,2.9923 3.92366,3.67305 l -3.38131,3.20924 c -2.92871,-0.75555 -2.62948,-0.77799 -3.8466,-3.01474 z m -11.17214,3.5571 c 0.99494,-0.0206 2.06843,0.11221 3.22795,0.4451 l 3.5758,0.67701 c 1.7692,3.3252 1.8066,2.93246 3.94311,3.40001 1.35401,15.08532 -5.1247,24.39774 -20.97193,23.58159 -3.33268,-0.86403 -5.78862,1.63829 -10.05115,2.03103 1.9637,-4.92272 1.13333,-6.70576 6.49479,-8.96869 4.18511,-5.51967 1.3802,-12.5183 5.87576,-17.00974 2.57338,-2.55842 4.92459,-4.09385 7.90567,-4.15556 z"
       sodipodi:nodetypes="cccccccccccccccccccccccccccccccccccccccccccccccccccccccc" /><path
       id="path4"
       style="fill:#cccccc;fill-rule:evenodd;stroke-width:149.615;stroke-linejoin:bevel;stroke-dasharray:598.461, 149.615"
       d="m -120.34251,162.06766 -3.47855,4.05906 c 0.26183,1.21936 1.05105,2.44995 3.82716,3.90458 l 3.86568,-3.65435 c -1.61211,-0.86029 -3.10078,-1.64951 -4.21354,-4.31041 z m -4.23298,4.92907 -3.3065,3.86568 c 1.21562,2.23675 0.91639,2.25919 3.84661,3.01475 l 3.3813,-3.20925 c -1.61958,-0.68075 -3.03345,-2.03102 -3.92366,-3.67305 z"
       sodipodi:nodetypes="cccccccccc" /><path
       id="path2"
       style="fill:#000080;fill-rule:evenodd;stroke-width:149.615;stroke-linejoin:bevel;stroke-dasharray:598.461, 149.615"
       d="m -64.172486,108.87423 -0.385259,2.08713 -52.852675,53.71297 c 0.48999,0.4077 0.97998,0.71441 1.49241,0.94257 l 51.824446,-52.531 c 0.112212,-0.75556 0.617163,-0.70693 0.639605,-2.28163 z"
       sodipodi:nodetypes="ccccccc" /><path
       id="path1"
       style="display:inline;fill:#0000ff;fill-rule:evenodd;stroke-width:149.615;stroke-linejoin:bevel;stroke-dasharray:598.461, 149.615"
       d="m -66.317967,107.92717 c -0.460067,-0.0153 -1.028604,0.18702 -1.855228,1.00616 l -51.418245,52.79545 c -0.005,0.0748 0.009,0.18702 0.0112,0.26183 0.71816,1.21562 1.43257,2.07217 2.16942,2.68559 l 52.852681,-53.71297 0.385259,-2.08713 -0.29923,-0.29923 c -0.512432,-0.22442 -0.403961,-0.60968 -1.836526,-0.65831 z"
       sodipodi:nodetypes="cccccccccc" /></g></svg>
