<?xml version="1.0" encoding="UTF-8" standalone="no"?>
<!-- Created with Inkscape (http://www.inkscape.org/) -->

<svg
   width="130.22269mm"
   height="130.22269mm"
   viewBox="0 0 130.22269 130.22269"
   version="1.1"
   id="svg18"
   inkscape:version="1.3.2 (091e20ef0f, 2023-11-25, custom)"
   sodipodi:docname="brush.svg"
   xml:space="preserve"
   xmlns:inkscape="http://www.inkscape.org/namespaces/inkscape"
   xmlns:sodipodi="http://sodipodi.sourceforge.net/DTD/sodipodi-0.dtd"
   xmlns="http://www.w3.org/2000/svg"
   xmlns:svg="http://www.w3.org/2000/svg"
   xmlns:rdf="http://www.w3.org/1999/02/22-rdf-syntax-ns#"
   xmlns:cc="http://creativecommons.org/ns#"
   xmlns:dc="http://purl.org/dc/elements/1.1/"><defs
     id="defs12" /><sodipodi:namedview
     id="base"
     pagecolor="#ffffff"
     bordercolor="#666666"
     borderopacity="1.0"
     inkscape:pageopacity="0.0"
     inkscape:pageshadow="2"
     inkscape:zoom="0.70710678"
     inkscape:cx="188.79751"
     inkscape:cy="434.16356"
     inkscape:document-units="mm"
     inkscape:current-layer="layer1"
     showgrid="false"
     inkscape:pagecheckerboard="true"
     inkscape:window-width="1728"
     inkscape:window-height="902"
     inkscape:window-x="2160"
     inkscape:window-y="1266"
     inkscape:window-maximized="1"
     inkscape:showpageshadow="2"
     inkscape:deskcolor="#d1d1d1" /><metadata
     id="metadata15"><rdf:RDF><cc:Work
         rdf:about=""><dc:format>image/svg+xml</dc:format><dc:type
           rdf:resource="http://purl.org/dc/dcmitype/StillImage" /></cc:Work></rdf:RDF></metadata><g
     inkscape:label="Layer 1"
     inkscape:groupmode="layer"
     id="layer1"
     transform="translate(171.55244,-84.740851)"
     style="opacity:1"><g
       inkscape:label="Layer 1"
       id="layer1-6"
       transform="translate(-222.24642,20.439731)"
       style="fill:#f9f9f9"><rect
         style="fill:#f9f9f9;fill-rule:evenodd;stroke:#000000;stroke-width:2.22268;stroke-dasharray:none;stroke-dashoffset:0;-inkscape-stroke:none"
         id="rect7"
         width="128"
         height="128"
         x="51.805321"
         y="65.41246"
         ry="31.75" /></g><path
       style="opacity:1;fill:#ff00ff;fill-rule:evenodd;stroke-width:4;stroke-linejoin:bevel;stroke-dasharray:16, 4"
       d="m -156.68372,201.80784 -2.05797,1.49671 37.23064,0.93544 11.97368,-6.82874 8.98028,-6.73518 12.529766,10.81676 24.90836,-5.95845 9.708222,-7.85174 2.993707,-23.24608 -16.651747,19.36548 -17.218952,8.92177 -22.256216,-12.89889 -11.22533,13.84456 -18.70886,6.36101 z"
       id="path7"
       sodipodi:nodetypes="ccccccccccccccc" /><g
       id="g6"
       style="opacity:1"
       transform="matrix(37.403791,0,0,37.403791,3920.6359,-5388.6942)"><path
         id="path5"
         style="opacity:1;fill:#f4e3d7;fill-rule:evenodd;stroke-width:4;stroke-linejoin:bevel;stroke-dasharray:16, 4"
         d="m -108.44846,148.62739 c -0.0797,0.002 -0.1426,0.0427 -0.21136,0.11111 -0.12015,0.12008 -0.0452,0.30718 -0.15709,0.45475 -0.14337,0.0605 -0.12114,0.10817 -0.17364,0.23978 0.11396,-0.0105 0.1796,-0.0774 0.26872,-0.0543 0.42368,0.0218 0.59687,-0.22714 0.56069,-0.63045 -0.0571,-0.0125 -0.0582,-0.002 -0.10542,-0.091 l -0.0956,-0.0181 c -0.031,-0.009 -0.0597,-0.0124 -0.0863,-0.0119 z" /><path
         id="path6"
         style="opacity:1;fill:#ff00ff;fill-rule:evenodd;stroke-width:4;stroke-linejoin:bevel;stroke-dasharray:16, 4"
         d="m -108.59832,149.17051 -0.0951,0.0455 -0.0496,0.004 -0.0925,-0.0176 c -0.12106,0.0565 -0.10515,0.10595 -0.15503,0.231 0.089,-0.008 0.14863,-0.0501 0.21291,-0.0574 l 0.006,-0.0238 0.0331,-0.0579 0.0909,-0.0372 z" /><path
         id="path3"
         style="fill:#000000;fill-rule:evenodd;stroke-width:4;stroke-linejoin:bevel;stroke-dasharray:16, 4"
         d="m -106.47868,146.81952 v 5.2e-4 5.1e-4 c -0.0433,8.9e-4 -0.085,0.008 -0.12505,0.0212 l -1.42317,1.52911 c -0.006,-0.002 -0.007,-8e-5 -0.0222,-0.002 l -0.22324,0.23823 -0.002,-0.003 c -0.12921,-0.0493 -0.20047,-0.0593 -0.35669,0.009 -0.12601,0.1214 -0.19148,0.25748 -0.17958,0.42209 0.0198,0.10575 -0.18765,0.13557 -0.20115,0.31933 -0.001,0.0165 -0.0532,0.13642 -0.0532,0.13642 0.14896,-0.005 0.18769,-0.0425 0.40928,-0.0455 0.16716,0.004 0.23521,-0.0328 0.38388,-0.13109 0.11686,-0.11689 0.19455,-0.17528 0.17755,-0.3507 l -0.002,-0.23186 0.20773,-0.21704 c 0.006,-0.007 0.006,-0.013 0.005,-0.0196 l 1.46813,-1.43609 c 0.0569,-0.0821 0.0455,-0.24378 0.0165,-0.23564 -0.027,-0.003 -0.0536,-0.005 -0.0796,-0.004 z m -0.11523,0.13436 h 5.1e-4 5.2e-4 5.2e-4 c 0.0383,0.001 0.0354,0.0108 0.0491,0.0171 l 0.008,0.008 0.0181,0.0517 c -5.9e-4,0.0421 -0.0139,0.0408 -0.0171,0.061 l -1.38492,1.40405 c -0.0342,-0.0156 -0.0663,-0.043 -0.0982,-0.0971 -4e-5,-0.002 -1.3e-4,-0.004 0,-0.006 l 1.37408,-1.4118 c 0.0221,-0.0214 0.0374,-0.0273 0.0496,-0.0269 z m -1.44281,1.44694 c 0.0298,0.0711 0.0696,0.0922 0.11265,0.11524 l -0.10335,0.0977 c -0.0742,-0.0389 -0.0953,-0.0718 -0.10232,-0.10439 z m -0.11317,0.13178 c 0.0238,0.0439 0.0616,0.08 0.1049,0.0982 l -0.0904,0.0858 c -0.0783,-0.0202 -0.0703,-0.0208 -0.10284,-0.0806 z m -0.29869,0.0951 c 0.0266,-5.5e-4 0.0553,0.003 0.0863,0.0119 l 0.0956,0.0181 c 0.0473,0.0889 0.0483,0.0784 0.10542,0.0909 0.0362,0.40331 -0.13701,0.65228 -0.56069,0.63046 -0.0891,-0.0231 -0.15476,0.0438 -0.26872,0.0543 0.0525,-0.13161 0.0303,-0.17928 0.17364,-0.23978 0.11189,-0.14757 0.0369,-0.33468 0.15709,-0.45476 0.0688,-0.0684 0.13166,-0.10945 0.21136,-0.1111 z"
         sodipodi:nodetypes="cccccccccccccccccccccccccccccccccccccccccccccccccccccccc" /><path
         id="path4"
         style="fill:#cccccc;fill-rule:evenodd;stroke-width:4;stroke-linejoin:bevel;stroke-dasharray:16, 4"
         d="m -108.0366,148.40105 -0.093,0.10852 c 0.007,0.0326 0.0281,0.0655 0.10232,0.10439 l 0.10335,-0.0977 c -0.0431,-0.023 -0.0829,-0.0441 -0.11265,-0.11524 z m -0.11317,0.13178 -0.0884,0.10335 c 0.0325,0.0598 0.0245,0.0604 0.10284,0.0806 l 0.0904,-0.0858 c -0.0433,-0.0182 -0.0811,-0.0543 -0.1049,-0.0982 z"
         sodipodi:nodetypes="cccccccccc" /><path
         id="path2"
         style="fill:#000080;fill-rule:evenodd;stroke-width:4;stroke-linejoin:bevel;stroke-dasharray:16, 4"
         d="m -106.53488,146.97891 -0.0103,0.0558 -1.41303,1.43603 c 0.0131,0.0109 0.0262,0.0191 0.0399,0.0252 l 1.38554,-1.40443 c 0.003,-0.0202 0.0165,-0.0189 0.0171,-0.061 z"
         sodipodi:nodetypes="ccccccc" /><path
         id="path1"
         style="display:inline;fill:#0000ff;fill-rule:evenodd;stroke-width:4;stroke-linejoin:bevel;stroke-dasharray:16, 4"
         d="m -106.59224,146.95359 c -0.0123,-4.1e-4 -0.0275,0.005 -0.0496,0.0269 l -1.37468,1.4115 c -1.3e-4,0.002 2.4e-4,0.005 3e-4,0.007 0.0192,0.0325 0.0383,0.0554 0.058,0.0718 l 1.41303,-1.43603 0.0103,-0.0558 -0.008,-0.008 c -0.0137,-0.006 -0.0108,-0.0163 -0.0491,-0.0176 z"
         sodipodi:nodetypes="cccccccccc" /></g></g></svg>
