<?xml version="1.0" encoding="UTF-8" standalone="no"?>
<!-- Created with Inkscape (http://www.inkscape.org/) -->

<svg
   width="130.22269mm"
   height="130.22269mm"
   viewBox="0 0 130.22269 130.22268"
   version="1.1"
   id="svg18"
   inkscape:version="1.3.2 (091e20ef0f, 2023-11-25, custom)"
   sodipodi:docname="eyedropper_icon.svg"
   xml:space="preserve"
   xmlns:inkscape="http://www.inkscape.org/namespaces/inkscape"
   xmlns:sodipodi="http://sodipodi.sourceforge.net/DTD/sodipodi-0.dtd"
   xmlns:xlink="http://www.w3.org/1999/xlink"
   xmlns="http://www.w3.org/2000/svg"
   xmlns:svg="http://www.w3.org/2000/svg"
   xmlns:rdf="http://www.w3.org/1999/02/22-rdf-syntax-ns#"
   xmlns:cc="http://creativecommons.org/ns#"
   xmlns:dc="http://purl.org/dc/elements/1.1/"><defs
     id="defs12"><linearGradient
       id="linearGradient1"
       inkscape:collect="always"><stop
         style="stop-color:#ff0706;stop-opacity:1;"
         offset="0"
         id="stop1" /><stop
         style="stop-color:#eb5d1e;stop-opacity:0.98431373;"
         offset="0.25219941"
         id="stop3" /><stop
         style="stop-color:#00ff54;stop-opacity:0.97647059;"
         offset="0.40029329"
         id="stop4" /><stop
         style="stop-color:#fbff37;stop-opacity:0.97254902;"
         offset="0.61656892"
         id="stop5" /><stop
         style="stop-color:#0000ff;stop-opacity:0.96893203;"
         offset="0.98240471"
         id="stop2" /></linearGradient><linearGradient
       inkscape:collect="always"
       xlink:href="#linearGradient1"
       id="linearGradient5"
       x1="68.766396"
       y1="165.13879"
       x2="96.678246"
       y2="165.13879"
       gradientUnits="userSpaceOnUse" /></defs><sodipodi:namedview
     id="base"
     pagecolor="#ffffff"
     bordercolor="#666666"
     borderopacity="1.0"
     inkscape:pageopacity="0.0"
     inkscape:pageshadow="2"
     inkscape:zoom="1.7945513"
     inkscape:cx="292.27362"
     inkscape:cy="380.87515"
     inkscape:document-units="mm"
     inkscape:current-layer="layer1"
     showgrid="false"
     inkscape:pagecheckerboard="true"
     inkscape:window-width="2160"
     inkscape:window-height="3807"
     inkscape:window-x="0"
     inkscape:window-y="0"
     inkscape:window-maximized="1"
     inkscape:showpageshadow="2"
     inkscape:deskcolor="#d1d1d1" /><metadata
     id="metadata15"><rdf:RDF><cc:Work
         rdf:about=""><dc:format>image/svg+xml</dc:format><dc:type
           rdf:resource="http://purl.org/dc/dcmitype/StillImage" /></cc:Work></rdf:RDF></metadata><g
     inkscape:label="Layer 1"
     inkscape:groupmode="layer"
     id="layer1"
     transform="translate(-50.693981,-64.30112)"><rect
       style="fill:#f9f9f9;fill-rule:evenodd;stroke:#000000;stroke-width:2.22268;stroke-dasharray:none;stroke-dashoffset:0;-inkscape-stroke:none"
       id="rect2"
       width="128"
       height="128"
       x="51.805321"
       y="65.41246"
       ry="31.75" /><path
       id="path10"
       style="fill:#000000;fill-rule:evenodd;stroke:none;stroke-width:4;stroke-linejoin:bevel;stroke-dasharray:none"
       d="m 125.1273,102.63698 -1.86707,2.08204 c 3.12261,0.40445 15.96583,10.881 17.69814,14.68489 l 1.52394,-1.57975 c -5.64166,-8.34206 -11.27933,-11.58244 -17.35501,-15.18718 z" /><path
       id="rect1"
       style="color:#000000;fill:#000000;fill-rule:evenodd;stroke-linejoin:bevel;-inkscape-stroke:none"
       d="m 150.95311,75.220046 c -3.31857,-0.0021 -6.8524,1.00384 -9.37462,3.816821 L 127.1804,95.093772 c -1.27687,-0.59807 -2.51346,-1.0973 -3.69641,-1.49087 -2.19175,-0.72918 -4.20807,-1.11331 -6.01979,-1.11621 -0.25882,-4.1e-4 -0.51339,0.007 -0.76378,0.0222 -2.00306,0.12215 -3.79965,0.78532 -5.00383,2.13682 -2.31774,2.6013 -2.76593,7.085788 -1.3503,12.275738 0.42739,1.56687 1.04266,3.20324 1.8588,4.8736 l -34.222719,38.16718 0.06666,-0.0682 -6.328296,11.70471 -6.313827,14.36708 c -0.344678,0.78431 -0.698006,1.50086 -0.825076,2.20417 -0.79946,4.42482 1.952119,6.24676 5.791883,5.58022 0.742213,-0.12884 1.467155,-0.60133 2.277196,-1.02666 l 13.894242,-7.29568 11.585856,-6.57479 0.0217,-0.0217 36.548161,-37.88967 c 1.74359,0.48962 3.43584,0.79664 5.03896,0.93637 5.53806,0.48272 10.05932,-0.77675 12.36514,-3.36465 2.21522,-2.48621 2.26923,-6.22325 0.33228,-10.27586 -0.53785,-1.12532 -1.23984,-2.30391 -2.08049,-3.52691 l 13.08861,-13.56868 c 2.39322,-2.393238 3.84751,-4.753908 4.43177,-7.212998 0.58427,-2.4591 0.268,-4.908035 -0.51159,-7.364926 -1.34955,-4.253095 -2.98407,-6.81509 -7.49826,-9.158614 -2.40384,-1.247942 -5.59561,-2.183304 -8.91418,-2.185396 z m -0.002,3.507796 c 2.63537,0.0017 5.41186,0.810714 7.30033,1.791105 4.04304,2.098933 4.49697,3.088084 5.77174,7.10551 0.6628,2.088829 0.84252,3.805595 0.44132,5.494235 -0.40122,1.68864 -1.41409,3.45897 -3.50005,5.54488 l -0.0212,0.0217 -12.731,13.198158 c -1.99375,-2.40446 -4.52592,-4.97879 -7.65897,-7.73596 -3.4927,-3.07375 -6.92623,-5.528528 -10.16268,-7.381458 L 144.1897,81.376259 c 1.7206,-1.918947 4.12649,-2.650079 6.76186,-2.648417 z m -33.4977,16.76797 c 1.37973,0.006 3.10749,0.30982 5.06688,0.9617 0.80615,0.2682 1.6627,0.61552 2.54041,1.00045 l -7.6848,8.570018 c 3.32507,6.5382 6.49013,9.07054 8.44858,10.88099 5.05072,4.78272 11.7294,6.62657 15.3603,7.31015 l 7.02386,-7.28173 c 0.60443,0.91659 1.10751,1.78564 1.49345,2.59313 1.64897,3.45001 1.41628,5.55397 0.13746,6.98924 -1.18821,1.33351 -4.95773,2.78613 -9.83402,2.36109 -0.92861,-0.0809 -1.89707,-0.22443 -2.89543,-0.43718 l -3.79306,-1.11828 c -3.20638,-1.20393 -6.59159,-3.14334 -9.9136,-6.06681 -3.20556,-2.82104 -5.58179,-5.75249 -7.27914,-8.58139 l -1.71928,-3.33571 c -0.47822,-1.10513 -0.85802,-2.18062 -1.13843,-3.20859 -1.24427,-4.5617 -0.48018,-8.172278 0.69608,-9.492448 0.54284,-0.60925 1.46071,-1.04006 2.92127,-1.12913 0.18257,-0.0111 0.37237,-0.0164 0.56947,-0.0155 z m 10.86704,3.57859 c 3.18897,1.767718 6.66806,4.195248 10.22573,7.326168 3.16497,2.78532 5.64797,5.35701 7.54373,7.68325 l -7.40988,7.6817 c -3.18967,-1.3761 -7.65223,-4.47475 -10.84792,-7.10964 -2.77651,-2.28927 -4.69648,-4.33919 -6.68176,-7.58403 z m -14.30042,15.949928 c 1.81742,2.84731 4.24267,5.73006 7.37578,8.48734 3.19225,2.80933 6.47572,4.80521 9.66452,6.15311 l -26.31519,27.28051 -12.567664,11.76807 c -9.241537,1.33639 -14.928038,7.94861 -20.234069,11.81743 -2.987895,1.50152 -5.284883,1.26441 -4.198788,-3.40029 3.94382,-4.97575 8.792288,-13.43417 9.227031,-19.57961 l 1.810739,-2.78635 0.0041,0.002 c 1.044255,-1.85485 2.630029,-3.37945 4.043681,-4.95577 l 7.774202,-8.67079 z"
       sodipodi:nodetypes="sccsscsccccccsscccccsssccsssscsssccccccccsccccccccccccccscccsccscccsccccccccccc" /><path
       id="path1"
       style="opacity:0.91;fill:none;fill-rule:evenodd;stroke:#000000;stroke-width:3.01813;stroke-linejoin:bevel"
       d="m 150.97234,127.51759 c -3.49406,3.92147 -16.57885,5.42287 -28.57293,-5.13242 -11.99409,-10.5553 -13.06389,-22.82022 -9.56984,-26.74171 3.49405,-3.921493 14.72676,-0.924975 26.72085,9.63033 11.9941,10.5553 14.91598,18.32231 11.42192,22.2438 z"
       sodipodi:nodetypes="sssss" /><path
       style="opacity:0.91;fill:#999999;fill-rule:evenodd;stroke:#000000;stroke-width:1.57612;stroke-linejoin:bevel;stroke-dasharray:none"
       d="m 117.43395,95.582047 c -1.27388,-0.009 -2.72951,0.157676 -3.55053,1.263262 -0.96766,1.297493 -1.22048,2.986647 -1.14798,4.569041 -0.0964,1.83548 0.17835,3.66686 0.78588,5.40049 1.5554,4.65062 4.25936,8.91163 7.78021,12.32329 3.88615,4.13201 8.81886,7.34567 14.31764,8.83821 3.9167,1.18311 8.29223,1.39531 12.13388,-0.17154 1.47477,-0.57983 2.90332,-1.79191 3.00565,-3.47703 0.17391,-2.59167 -1.07632,-5.01672 -2.43464,-7.13465 -0.42449,-0.30893 -0.88626,0.78595 -1.32148,1.03676 -1.93373,2.00516 -3.86748,4.01029 -5.80122,6.01543 -5.64912,-1.10366 -11.20254,-3.39413 -15.45198,-7.36534 -2.86683,-2.53131 -5.42217,-5.44691 -7.279,-8.80725 -0.35095,-0.68337 -0.84998,-1.34386 -1.01851,-2.09421 2.41724,-2.88153 5.07126,-5.57203 7.41871,-8.506864 -1.05788,-0.609736 -2.29369,-0.939268 -3.4601,-1.320647 -1.29006,-0.376368 -2.62986,-0.598519 -3.97653,-0.568952 z"
       id="path5" /><path
       style="opacity:0.5;fill:#999999;fill-rule:evenodd;stroke:#000000;stroke-width:2.22897;stroke-linejoin:bevel;stroke-dasharray:none"
       d="m 150.78717,78.801734 c -1.97568,0.07346 -4.12634,0.471954 -5.65093,1.809024 -4.90005,5.275639 -9.76889,10.590203 -14.50129,16.013868 0.0782,0.555167 0.95002,0.642509 1.30902,1.009637 6.0928,3.798177 11.39903,8.721687 16.22735,14.000147 0.3774,0.0914 0.63173,-0.6324 0.95691,-0.78588 4.49679,-4.64144 9.03023,-9.25529 13.3776,-14.035577 1.71581,-2.11516 2.60998,-4.987735 1.84917,-7.668853 -0.67058,-2.478287 -1.28198,-5.31909 -3.44939,-6.95477 -2.91768,-2.108775 -6.49403,-3.432527 -10.11844,-3.387596 z"
       id="path6" /><path
       style="opacity:0.3;fill:#000080;fill-rule:evenodd;stroke:#000000;stroke-width:2.22897;stroke-linejoin:bevel;stroke-dasharray:none"
       d="m 114.00192,115.21206 c -11.17657,12.30883 -22.23396,24.72901 -33.342368,37.09856 -1.373513,1.70757 -2.673129,3.52181 -3.602417,5.51074 -0.62673,3.84274 -1.997937,7.53166 -3.871756,10.94176 -1.601413,3.02031 -3.432905,5.92752 -5.551256,8.61266 0.0063,1.02107 -0.01213,2.0475 0.0089,3.06536 0.503155,0.57761 1.185172,1.07388 1.990112,0.8158 2.294526,-0.33727 3.938568,-2.19807 5.7255,-3.50263 4.180377,-3.44498 8.539825,-7.03768 13.896979,-8.42209 0.913201,-0.33053 1.959111,-0.34941 2.820491,-0.77301 11.661805,-10.15258 22.108415,-21.58131 32.876335,-32.6515 1.9613,-2.07969 4.04408,-4.11079 5.92725,-6.22494 -4.826,-2.23853 -9.22521,-5.39052 -12.76961,-9.36769 -1.51077,-1.57209 -2.8196,-3.33145 -4.07133,-5.10532 l -0.011,-0.003 z"
       id="path8" /><path
       style="fill:url(#linearGradient5);fill-rule:evenodd;stroke:none;stroke-width:4;stroke-linejoin:bevel;stroke-dasharray:none"
       d="m 68.766393,178.40812 c 4.063279,-6.04018 8.924305,-12.51551 9.954171,-20.07239 1.202363,-2.96561 3.417892,-4.68017 6.263904,-7.64577 6.938273,0.34721 10.860143,2.45978 11.693778,8.91163 -2.017856,2.71952 -2.629899,5.61172 -6.314496,7.22008 -8.129684,2.14889 -14.292003,8.11228 -20.41786,12.76595 z"
       id="path9"
       sodipodi:nodetypes="ccccccc" /><path
       style="fill:#000043;fill-opacity:0.677618;fill-rule:evenodd;stroke:#000000;stroke-width:1.57612;stroke-linejoin:bevel;stroke-dasharray:none"
       d="m 123.44116,104.82276 c -0.7807,0.28702 -1.15864,1.16894 -1.76116,1.69883 -0.58529,0.36201 -0.44169,0.81002 -0.0535,1.25977 3.03835,4.70242 7.5776,8.16 12.18438,11.21601 1.55911,0.97141 3.13885,1.99482 4.83911,2.67316 0.80502,-0.70454 1.59459,-1.47849 2.22211,-2.34144 -0.69223,-1.32146 -1.76398,-2.42257 -2.77107,-3.5153 -3.52346,-3.5265 -7.39319,-6.72359 -11.55183,-9.47418 -0.97367,-0.57059 -1.94496,-1.25974 -3.05184,-1.52072 z"
       id="path11" /><path
       style="fill:#333333;fill-opacity:0.677618;fill-rule:evenodd;stroke:#000000;stroke-width:1.57612;stroke-linejoin:bevel;stroke-dasharray:none"
       d="m 128.32215,99.125656 c -0.99632,1.163424 -2.12814,2.235014 -3.00666,3.487614 1.77751,1.27479 3.75444,2.28877 5.54887,3.55664 4.52715,2.96524 8.39488,6.87892 11.43899,11.34431 0.2601,0.48043 0.57744,-0.2684 0.8195,-0.39331 0.95188,-1.01179 2.00152,-1.97608 2.85544,-3.05785 -1.36851,-1.82289 -3.03815,-3.41235 -4.64517,-5.0268 -3.93197,-3.7819 -8.23586,-7.26843 -13.01097,-9.910604 z"
       id="path12" /></g></svg>
