<?xml version="1.0" encoding="UTF-8" standalone="no"?>
<!-- Created with Inkscape (http://www.inkscape.org/) -->

<svg
   width="128mm"
   height="128mm"
   viewBox="0 0 128 128"
   version="1.1"
   id="svg18"
   inkscape:version="1.3.2 (091e20ef0f, 2023-11-25, custom)"
   sodipodi:docname="layer_transform.svg"
   xml:space="preserve"
   xmlns:inkscape="http://www.inkscape.org/namespaces/inkscape"
   xmlns:sodipodi="http://sodipodi.sourceforge.net/DTD/sodipodi-0.dtd"
   xmlns:xlink="http://www.w3.org/1999/xlink"
   xmlns="http://www.w3.org/2000/svg"
   xmlns:svg="http://www.w3.org/2000/svg"
   xmlns:rdf="http://www.w3.org/1999/02/22-rdf-syntax-ns#"
   xmlns:cc="http://creativecommons.org/ns#"
   xmlns:dc="http://purl.org/dc/elements/1.1/"><defs
     id="defs12"><pattern
       inkscape:collect="always"
       xlink:href="#Checkerboard"
       preserveAspectRatio="xMidYMid"
       id="pattern5"
       patternTransform="matrix(4.7887508,0,0,4.7887508,-16.913264,-21.249652)"
       x="0"
       y="0" /><pattern
       inkscape:collect="always"
       style="fill:#000000"
       patternUnits="userSpaceOnUse"
       width="2"
       height="2"
       patternTransform="translate(0,0) scale(10,10)"
       id="Checkerboard"
       inkscape:stockid="Checkerboard"
       preserveAspectRatio="xMidYMid"
       inkscape:isstock="true"
       inkscape:label="Checkerboard">
      <rect
   style="stroke:none"
   x="0"
   y="0"
   width="1"
   height="1"
   id="rect209" />
      <rect
   style="stroke:none"
   x="1"
   y="1"
   width="1"
   height="1"
   id="rect211" />
    </pattern></defs><sodipodi:namedview
     id="base"
     pagecolor="#ffffff"
     bordercolor="#666666"
     borderopacity="1.0"
     inkscape:pageopacity="0.0"
     inkscape:pageshadow="2"
     inkscape:zoom="1.0090361"
     inkscape:cx="137.2597"
     inkscape:cy="225.95821"
     inkscape:document-units="mm"
     inkscape:current-layer="layer1"
     showgrid="false"
     inkscape:pagecheckerboard="true"
     inkscape:window-width="1728"
     inkscape:window-height="902"
     inkscape:window-x="2160"
     inkscape:window-y="1434"
     inkscape:window-maximized="1"
     inkscape:showpageshadow="2"
     inkscape:deskcolor="#d1d1d1" /><metadata
     id="metadata15"><rdf:RDF><cc:Work
         rdf:about=""><dc:format>image/svg+xml</dc:format><dc:type
           rdf:resource="http://purl.org/dc/dcmitype/StillImage" /></cc:Work></rdf:RDF></metadata><g
     inkscape:label="Layer 1"
     inkscape:groupmode="layer"
     id="layer1"
     transform="translate(-51.805321,-65.412461)"><rect
       style="fill:#f9f9f9;fill-rule:evenodd;stroke:#000000;stroke-width:2.22268;stroke-dasharray:none;stroke-dashoffset:0;-inkscape-stroke:none"
       id="rect2"
       width="128"
       height="128"
       x="51.805321"
       y="65.41246"
       ry="31.75" /><rect
       style="mix-blend-mode:normal;fill:#808080;fill-opacity:1;fill-rule:evenodd;stroke:#000000;stroke-width:0.635037;stroke-linejoin:bevel;stroke-dasharray:none"
       id="rect1-1"
       width="72.060852"
       height="72.060852"
       x="67.915947"
       y="80.820122"
       ry="2.1426846e-08" /><rect
       style="mix-blend-mode:normal;fill:url(#pattern5);fill-opacity:1;fill-rule:evenodd;stroke:#000000;stroke-width:0.635037;stroke-linejoin:bevel;stroke-dasharray:none"
       id="rect1"
       width="72.060852"
       height="72.060852"
       x="67.915947"
       y="80.820122"
       ry="2.1426846e-08" /><rect
       style="mix-blend-mode:normal;fill:#2b0000;fill-opacity:1;fill-rule:evenodd;stroke:#000000;stroke-width:2.04204483;stroke-linejoin:bevel;stroke-dasharray:none;opacity:0.8"
       id="rect1-1-3"
       width="72.060852"
       height="72.060852"
       x="93.290131"
       y="103.67687"
       ry="2.1426846e-08" /><g
       id="g7"
       transform="matrix(0.97242011,0,0,0.96956652,120.61633,37.566801)"><path
         id="rect5"
         style="fill:#ffffff;fill-rule:evenodd;stroke:#000000;stroke-width:0.401076;stroke-linejoin:bevel;stroke-dasharray:none"
         d="M 8.9510892,73.032668 2.9328519,83.598431 3.1602282,83.998407 H 6.66234 v 7.51737 a 13.929836,13.929836 0 0 1 2.2887492,-0.208256 13.929836,13.929836 0 0 1 2.4029538,0.212907 v -7.522021 h 3.387907 l 0.227377,-0.399976 z" /><path
         id="rect5-2"
         style="fill:#ffffff;fill-rule:evenodd;stroke:#000000;stroke-width:0.401076;stroke-linejoin:bevel;stroke-dasharray:none"
         d="M 11.354043,118.93374 A 13.929836,13.929836 0 0 1 8.9510892,119.1668 13.929836,13.929836 0 0 1 6.66234,118.95855 v 7.51737 H 3.1602282 l -0.2273763,0.39946 6.0182373,10.56628 6.0182378,-10.56628 -0.227377,-0.39946 h -3.387907 z" /><path
         id="rect5-23"
         style="fill:#ffffff;fill-rule:evenodd;stroke:#000000;stroke-width:0.401076;stroke-linejoin:bevel;stroke-dasharray:none"
         d="m 30.589562,99.218666 -0.399976,0.227377 v 3.502107 h -7.501868 a 13.929836,13.929836 0 0 1 0.19327,2.28875 13.929836,13.929836 0 0 1 -0.233577,2.40296 h 7.542175 v 3.3879 l 0.399976,0.2279 10.565763,-6.01876 z" /><path
         id="rect5-2-7"
         style="fill:#ffffff;fill-rule:evenodd;stroke:#000000;stroke-width:0.401076;stroke-linejoin:bevel;stroke-dasharray:none"
         d="m -12.687383,99.218666 -10.565764,6.018234 10.565764,6.01876 0.399975,-0.2279 v -3.3879 h 7.5416589 a 13.929836,13.929836 0 0 1 -0.2330608,-2.40296 13.929836,13.929836 0 0 1 0.2082561,-2.28875 h -7.5168542 v -3.502107 z" /></g></g></svg>
