<?xml version="1.0" encoding="UTF-8" standalone="no"?>
<!-- Created with Inkscape (http://www.inkscape.org/) -->

<svg
   width="130.22269mm"
   height="130.22269mm"
   viewBox="0 0 130.22269 130.22268"
   version="1.1"
   id="svg18"
   inkscape:version="1.3.2 (091e20ef0f, 2023-11-25, custom)"
   sodipodi:docname="mask_tool.svg"
   xml:space="preserve"
   xmlns:inkscape="http://www.inkscape.org/namespaces/inkscape"
   xmlns:sodipodi="http://sodipodi.sourceforge.net/DTD/sodipodi-0.dtd"
   xmlns="http://www.w3.org/2000/svg"
   xmlns:svg="http://www.w3.org/2000/svg"
   xmlns:rdf="http://www.w3.org/1999/02/22-rdf-syntax-ns#"
   xmlns:cc="http://creativecommons.org/ns#"
   xmlns:dc="http://purl.org/dc/elements/1.1/"><defs
     id="defs12" /><sodipodi:namedview
     id="base"
     pagecolor="#ffffff"
     bordercolor="#666666"
     borderopacity="1.0"
     inkscape:pageopacity="0.0"
     inkscape:pageshadow="2"
     inkscape:zoom="0.6344697"
     inkscape:cx="360.14328"
     inkscape:cy="441.31343"
     inkscape:document-units="mm"
     inkscape:current-layer="layer1"
     showgrid="false"
     inkscape:pagecheckerboard="true"
     inkscape:window-width="1728"
     inkscape:window-height="902"
     inkscape:window-x="2160"
     inkscape:window-y="1266"
     inkscape:window-maximized="1"
     inkscape:showpageshadow="2"
     inkscape:deskcolor="#d1d1d1" /><metadata
     id="metadata15"><rdf:RDF><cc:Work
         rdf:about=""><dc:format>image/svg+xml</dc:format><dc:type
           rdf:resource="http://purl.org/dc/dcmitype/StillImage" /></cc:Work></rdf:RDF></metadata><g
     inkscape:label="Layer 1"
     inkscape:groupmode="layer"
     id="layer1"
     transform="translate(-50.693981,-64.30112)"><rect
       style="fill:#f9f9f9;fill-rule:evenodd;stroke:#000000;stroke-width:2.22268;stroke-dasharray:none;stroke-dashoffset:0;-inkscape-stroke:none"
       id="rect2"
       width="128"
       height="128"
       x="51.805321"
       y="65.41246"
       ry="31.75"
       sodipodi:insensitive="true" /><path
       id="path1"
       style="opacity:1;fill:#d4aa00;fill-opacity:0.392555;fill-rule:evenodd;stroke:#000000;stroke-width:3.50779858;stroke-linejoin:bevel"
       d="m 108.14012,82.438629 c -15.271016,-0.0579 -27.9913,9.082094 -33.600599,24.765281 -1.467516,4.10307 -1.869466,8.48855 -1.940396,13.21047 l 4.969116,-1.4871 3.314842,1.65325 c 0,0 -1.933843,-0.8265 -4.420112,-0.27531 -2.486267,0.5512 -2.762449,2.75589 -2.762449,2.75589 l -1.101882,0.68197 c 0.01258,1.31794 0.02662,2.63105 0.05035,4.00293 0.0339,1.95999 0.12363,3.89463 0.285638,5.80108 l 0.213501,-0.0136 3.038888,4.4096 -2.946903,-1.63344 c 0.705165,5.3068 2.176239,10.33087 5.211666,14.8497 7.943943,11.82615 24.38106,22.36553 37.32502,21.5612 v -18.44063 c -3.74928,-0.75208 -18.59568,-0.29592 -19.230156,-6.11598 -0.240243,-2.20379 8.882006,1.06699 14.985286,1.31371 1.76901,0.0715 3.28458,0.64643 4.24487,-0.17629 l 0.19509,-8.70765 c -3.21761,0.78106 -2.59001,-0.79956 -3.81784,-0.88675 -1.31931,-0.0937 0.29446,0.317 -5.56412,0.37286 l -0.82883,-7.0829 3.12555,5.45671 c 1.49381,-0.63665 2.52092,-1.27688 3.29548,-1.12631 1.80624,0.35111 2.67663,2.38864 3.6271,0.15166 l -0.0325,-54.707145 c -1.5315,-0.147319 -3.05471,-0.07373 -4.54986,-0.198021 -1.03941,-0.0864 -2.06875,-0.131375 -3.08682,-0.135235 z m -4.60408,21.055031 3.31484,1.65372 -0.82883,1.10216 -12.707461,0.27579 -6.906122,1.92901 c 0,0 6.630056,-4.13382 7.18256,-4.13382 0.552505,0 9.945013,-0.82686 9.945013,-0.82686 z m -3.17057,8.18651 c 2.48132,8e-5 4.49278,3.24711 4.49273,7.25243 -1.1e-4,4.00508 -2.01153,7.25185 -4.49273,7.25194 -2.481193,-9e-5 -4.492623,-3.24686 -4.492735,-7.25194 -5.8e-5,-4.00532 2.011422,-7.25235 4.492735,-7.25243 z m 11.73435,6.5579 c -0.31295,4.86437 0.30831,10.42738 -2.76244,13.22834 l -0.82883,-3.58226 c 2.95382,-0.29453 2.61461,-6.06415 3.59127,-9.64608 z" /><path
       id="rect3"
       style="fill:#ff0000;fill-opacity:0.998308;fill-rule:evenodd;stroke:none;stroke-width:1.0873;stroke-linejoin:bevel"
       d="m 115.52457,77.855632 v 4.877133 c 1.33168,-0.08472 2.65558,-0.05066 3.95776,-0.158901 1.03941,-0.0864 2.06874,-0.131375 3.08682,-0.135235 15.27109,-0.0579 27.9913,9.08211 33.6006,24.765281 1.46753,4.10307 1.86946,8.48855 1.9404,13.21047 l -4.96912,-1.4871 -3.31485,1.65325 c 0,0 1.93384,-0.8265 4.42012,-0.27531 2.48626,0.5512 2.76245,2.75589 2.76245,2.75589 l 1.10186,0.68197 c -0.0126,1.31794 -0.0266,2.63105 -0.0503,4.00293 -0.0339,1.95999 -0.12363,3.89463 -0.28564,5.80108 l -0.2135,-0.0136 -3.03889,4.4096 2.9469,-1.63344 c -0.70517,5.30679 -2.17624,10.33088 -5.21167,14.8497 -7.82378,11.64728 -23.88331,22.03845 -36.73291,21.58197 v 6.26569 h 49.73863 V 77.834865 Z m 11.64865,25.638028 -3.31483,1.65372 0.82883,1.10216 12.70746,0.27579 6.90612,1.92901 c 0,0 -6.63004,-4.13382 -7.18255,-4.13382 -0.55252,0 -9.94503,-0.82686 -9.94503,-0.82686 z m 3.17058,8.18651 c -2.48133,8e-5 -4.49278,3.24711 -4.49273,7.25243 1.1e-4,4.00508 2.01152,7.25185 4.49273,7.25194 2.48121,-9e-5 4.49262,-3.24686 4.49273,-7.25194 6e-5,-4.00532 -2.01141,-7.25235 -4.49273,-7.25243 z m -11.73435,6.5579 c 0.31295,4.86436 -0.30833,10.42738 2.76244,13.22834 l 0.82883,-3.58226 c -2.95383,-0.29453 -2.6146,-6.06416 -3.59127,-9.64608 z m 6.33872,14.7589 -3.12555,5.45671 c -1.49382,-0.63665 -2.52091,-1.27688 -3.29548,-1.12631 -1.41033,0.27415 -2.24973,1.56775 -3.00257,1.06063 v 2.34969 c 2.29868,0.33288 1.91925,-0.95176 3.03064,-1.03068 1.31932,-0.0937 -0.29449,0.317 5.56413,0.37286 z m 7.83274,14.40778 c -2.75038,0.002 -9.0261,1.88791 -13.60358,2.07295 -1.44264,0.0583 -2.71094,0.43932 -3.65276,0.1362 v 4.5743 c 4.48184,-0.62944 18.03198,-0.4646 18.63806,-6.02421 0.0601,-0.55094 -0.46492,-0.75983 -1.38172,-0.75924 z"
       sodipodi:nodetypes="ccssscccsccccccccccccccccccsccccccccccccsccsccssccss" /><path
       id="rect4"
       style="opacity:1;fill:#ffaaaa;fill-opacity:0.998308;fill-rule:evenodd;stroke:none;stroke-width:1.16198;stroke-linejoin:bevel"
       d="M 122.56918 82.438514 C 121.5511 82.442374 120.52196 82.487507 119.48255 82.573906 C 118.18037 82.682147 116.85633 82.647833 115.52465 82.732553 L 115.52465 138.38807 C 116.27749 138.89519 117.11672 137.6013 118.52705 137.32715 C 119.30162 137.17658 120.32864 137.81705 121.82246 138.4537 L 124.94836 132.99719 L 124.11947 140.07996 C 118.26086 140.0241 119.87427 139.61315 118.55496 139.70685 C 117.44357 139.78577 117.82333 141.07068 115.52465 140.7378 L 115.52465 149.61374 C 116.46647 149.91686 117.7345 149.53613 119.17714 149.47783 C 123.75461 149.29279 130.03058 147.40657 132.78096 147.40457 C 133.69776 147.40398 134.22289 147.61328 134.16279 148.16422 C 133.55671 153.72382 120.00648 153.5587 115.52465 154.18814 L 115.52465 172.74153 C 128.37424 173.19801 144.43352 162.80665 152.25729 151.15938 C 155.29272 146.64057 156.76421 141.61643 157.46938 136.30964 L 154.52227 137.94314 L 157.56136 133.53359 L 157.77478 133.54702 C 157.93679 131.64057 158.02665 129.70581 158.06055 127.74583 C 158.08425 126.37395 158.09808 125.06091 158.11068 123.74297 L 157.00894 123.06136 C 157.00894 123.06136 156.73257 120.85665 154.24632 120.30545 C 151.76004 119.75426 149.82643 120.58037 149.82643 120.58037 L 153.14096 118.92724 L 158.11016 120.41449 C 158.03922 115.69258 157.63724 111.30699 156.16971 107.20393 C 150.56042 91.520772 137.84026 82.380614 122.56918 82.438514 z M 127.17303 103.49356 C 127.17303 103.49356 136.56564 104.32038 137.11816 104.32038 C 137.67067 104.32038 144.30067 108.4545 144.30067 108.4545 L 137.39463 106.52542 L 124.6874 106.24946 L 123.85851 105.14721 L 127.17303 103.49356 z M 130.3439 111.68014 C 132.82522 111.68022 134.83671 114.92709 134.83665 118.93241 C 134.83654 122.93749 132.82511 126.18459 130.3439 126.18468 C 127.86269 126.18459 125.85126 122.93749 125.85115 118.93241 C 125.8511 114.92709 127.86257 111.68022 130.3439 111.68014 z M 118.60922 118.23788 C 119.58588 121.8198 119.2469 127.58979 122.20073 127.88432 L 121.37184 131.46653 C 118.30107 128.66557 118.92217 123.10223 118.60922 118.23788 z " /><path
       id="rect3-7"
       style="fill:#b3b3b3;fill-opacity:0.998308;fill-rule:evenodd;stroke:#000000;stroke-width:1.07318179;stroke-linejoin:bevel"
       d="m 115.1847,77.855632 v 4.877133 c -1.33168,-0.08472 -2.65558,-0.05066 -3.95776,-0.158901 -1.03941,-0.0864 -2.06874,-0.131375 -3.08682,-0.135235 -15.271085,-0.0579 -27.991304,9.08211 -33.600599,24.765281 -1.467519,4.10307 -1.869466,8.48855 -1.940394,13.21047 l 4.969117,-1.4871 3.314847,1.65325 c 0,0 -1.933847,-0.8265 -4.420115,-0.27531 -2.486268,0.5512 -2.762451,2.75589 -2.762451,2.75589 l -1.101876,0.68197 c 0.01256,1.31794 0.02661,2.63105 0.05031,4.00293 0.03392,1.95999 0.123628,3.89463 0.285637,5.80108 l 0.213499,-0.0136 3.038888,4.4096 -2.946899,-1.63344 c 0.705168,5.30679 2.176237,10.33088 5.211668,14.8497 7.823783,11.64728 23.883308,22.03845 36.732908,21.58197 v 6.26569 H 65.446063 V 77.834865 Z m -11.64865,25.638028 3.31483,1.65372 -0.82883,1.10216 -12.707458,0.27579 -6.90612,1.92901 c 0,0 6.63004,-4.13382 7.182556,-4.13382 0.552507,0 9.945022,-0.82686 9.945022,-0.82686 z m -3.17058,8.18651 c 2.48133,8e-5 4.49278,3.24711 4.49273,7.25243 -1.1e-4,4.00508 -2.01152,7.25185 -4.49273,7.25194 -2.481206,-9e-5 -4.492623,-3.24686 -4.492735,-7.25194 -5.6e-5,-4.00532 2.011417,-7.25235 4.492735,-7.25243 z m 11.73435,6.5579 c -0.31295,4.86436 0.30833,10.42738 -2.76244,13.22834 l -0.82883,-3.58226 c 2.95383,-0.29453 2.6146,-6.06416 3.59127,-9.64608 z m -6.33872,14.7589 3.12555,5.45671 c 1.49382,-0.63665 2.52091,-1.27688 3.29548,-1.12631 1.41033,0.27415 2.24973,1.56775 3.00257,1.06063 v 2.34969 c -2.29868,0.33288 -1.91925,-0.95176 -3.03064,-1.03068 -1.31932,-0.0937 0.29449,0.317 -5.56413,0.37286 z m -7.832747,14.40778 c 2.750397,0.002 9.026107,1.88791 13.603587,2.07295 1.44264,0.0583 2.71093,0.43932 3.65276,0.1362 v 4.5743 c -4.48184,-0.62944 -18.031974,-0.4646 -18.638051,-6.02421 -0.06005,-0.55094 0.464912,-0.75983 1.381704,-0.75924 z"
       sodipodi:nodetypes="ccssscccsccccccccccccccccccsccccccccccccsccsccssccss" /><rect
       style="opacity:1;fill:none;fill-opacity:0.998308;fill-rule:evenodd;stroke:#000000;stroke-width:1.073;stroke-linejoin:bevel;stroke-dasharray:4.29199982,4.29199982;stroke-dashoffset:0"
       id="rect5"
       width="49.738659"
       height="101.15137"
       x="115.52457"
       y="77.855629"
       ry="1.777992e-08" /></g></svg>
