<?xml version="1.0" encoding="UTF-8" standalone="no"?>
<!-- Created with Inkscape (http://www.inkscape.org/) -->

<svg
   width="128mm"
   height="128mm"
   viewBox="0 0 128 128"
   version="1.1"
   id="svg18"
   inkscape:version="1.3.2 (091e20ef0f, 2023-11-25, custom)"
   sodipodi:docname="selection.svg"
   xml:space="preserve"
   xmlns:inkscape="http://www.inkscape.org/namespaces/inkscape"
   xmlns:sodipodi="http://sodipodi.sourceforge.net/DTD/sodipodi-0.dtd"
   xmlns="http://www.w3.org/2000/svg"
   xmlns:svg="http://www.w3.org/2000/svg"
   xmlns:rdf="http://www.w3.org/1999/02/22-rdf-syntax-ns#"
   xmlns:cc="http://creativecommons.org/ns#"
   xmlns:dc="http://purl.org/dc/elements/1.1/"><defs
     id="defs12" /><sodipodi:namedview
     id="base"
     pagecolor="#ffffff"
     bordercolor="#666666"
     borderopacity="1.0"
     inkscape:pageopacity="0.0"
     inkscape:pageshadow="2"
     inkscape:zoom="0.57899306"
     inkscape:cx="-18.134933"
     inkscape:cy="296.2039"
     inkscape:document-units="mm"
     inkscape:current-layer="layer1"
     showgrid="false"
     inkscape:pagecheckerboard="true"
     inkscape:window-width="1728"
     inkscape:window-height="899"
     inkscape:window-x="2160"
     inkscape:window-y="1434"
     inkscape:window-maximized="1"
     inkscape:showpageshadow="2"
     inkscape:deskcolor="#d1d1d1" /><metadata
     id="metadata15"><rdf:RDF><cc:Work
         rdf:about=""><dc:format>image/svg+xml</dc:format><dc:type
           rdf:resource="http://purl.org/dc/dcmitype/StillImage" /></cc:Work></rdf:RDF></metadata><g
     inkscape:label="Layer 1"
     inkscape:groupmode="layer"
     id="layer1"
     transform="translate(-51.805321,-65.412461)"><rect
       style="fill:#cccccc;fill-rule:evenodd;stroke:#000000;stroke-width:2.22268;stroke-dasharray:none;stroke-dashoffset:0;-inkscape-stroke:none"
       id="rect2"
       width="128"
       height="128"
       x="51.805321"
       y="65.41246"
       ry="31.75" /><path
       id="path1"
       style="fill:#000000;fill-rule:evenodd;stroke:#ffffff;stroke-width:1.70525144;stroke-linejoin:bevel;stroke-dasharray:none;stroke-dashoffset:0"
       d="M 115.80555 68.825173 A 60.587036 60.587036 0 0 0 55.218033 129.41269 A 60.587036 60.587036 0 0 0 115.80555 189.99969 A 60.587036 60.587036 0 0 0 176.39255 129.41269 A 60.587036 60.587036 0 0 0 115.80555 68.825173 z M 99.386396 88.30357 L 132.22418 88.30357 L 132.22418 92.238214 L 152.97847 92.238214 L 152.97847 112.99354 L 156.91415 112.99354 L 156.91415 145.83132 L 152.97847 145.83132 L 152.97847 166.58613 L 132.22418 166.58613 L 132.22418 170.52129 L 99.386396 170.52129 L 99.386396 166.58613 L 78.631074 166.58613 L 78.631074 145.83132 L 74.69643 145.83132 L 74.69643 112.99354 L 78.631074 112.99354 L 78.631074 92.238214 L 99.386396 92.238214 L 99.386396 88.30357 z " /><path
       id="path5"
       style="fill:#000000;fill-opacity:1;fill-rule:evenodd;stroke:#ffffff;stroke-width:1.75968075;stroke-linejoin:bevel;stroke-dasharray:none;stroke-dashoffset:0"
       d="M 115.80555 80.942779 A 48.469627 48.469631 0 0 0 95.837775 85.315122 A 48.418751 48.418751 0 0 0 94.137621 86.217909 A 48.469627 48.469631 0 0 0 89.915656 88.522678 A 48.418751 48.418751 0 0 0 87.470328 90.29518 A 48.469627 48.469631 0 0 0 84.789871 92.238214 L 84.875137 92.238214 A 48.418751 48.418751 0 0 0 78.631074 98.482277 L 78.631074 98.397011 A 48.469627 48.469631 0 0 0 76.68804 101.07747 A 48.418751 48.418751 0 0 0 74.915538 103.5228 A 48.469627 48.469631 0 0 0 72.610769 107.74476 A 48.418751 48.418751 0 0 0 71.707982 109.44492 A 48.469627 48.469631 0 0 0 67.335639 129.41269 A 48.469627 48.469631 0 0 0 71.708499 149.38201 A 48.418751 48.418751 0 0 0 72.604051 151.0677 A 48.469627 48.469631 0 0 0 74.915538 155.30206 A 48.418751 48.418751 0 0 0 76.68804 157.74739 A 48.469627 48.469631 0 0 0 78.631074 160.42785 L 78.631074 160.34258 A 48.418751 48.418751 0 0 0 84.87462 166.58613 L 84.789354 166.58613 A 48.469627 48.469631 0 0 0 87.474978 168.5333 A 48.418751 48.418751 0 0 0 89.913589 170.30115 A 48.469627 48.469631 0 0 0 94.156224 172.61729 A 48.418751 48.418751 0 0 0 95.835708 173.50922 A 48.469627 48.469631 0 0 0 115.80555 177.88208 A 48.469627 48.469631 0 0 0 135.77642 173.50871 A 48.418751 48.418751 0 0 0 137.44247 172.624 A 48.469627 48.469631 0 0 0 141.69699 170.30115 A 48.418751 48.418751 0 0 0 144.1356 168.5333 A 48.469627 48.469631 0 0 0 146.82123 166.58613 L 146.73596 166.58613 A 48.418751 48.418751 0 0 0 152.97847 160.34413 L 152.97847 160.4294 A 48.469627 48.469631 0 0 0 154.93339 157.73292 A 48.418751 48.418751 0 0 0 156.69298 155.30517 A 48.469627 48.469631 0 0 0 159.01118 151.05943 A 48.418751 48.418751 0 0 0 159.90208 149.38201 A 48.469627 48.469631 0 0 0 164.27494 129.41269 A 48.469627 48.469631 0 0 0 164.19691 128.29854 A 48.418751 48.418751 0 0 0 163.8791 123.7629 A 48.469627 48.469631 0 0 0 163.5923 121.68655 A 48.418751 48.418751 0 0 0 162.60734 117.04859 A 48.469627 48.469631 0 0 0 162.14122 115.36445 A 48.418751 48.418751 0 0 0 160.39869 110.56939 A 48.469627 48.469631 0 0 0 159.70054 108.99223 A 48.418751 48.418751 0 0 0 157.28467 104.44005 A 48.469627 48.469631 0 0 0 156.4041 103.04944 A 48.418751 48.418751 0 0 0 153.4508 98.97372 A 48.469627 48.469631 0 0 0 152.97847 98.32208 L 152.97847 98.399595 A 48.418751 48.418751 0 0 0 146.81606 92.238214 L 146.89409 92.238214 A 48.469627 48.469631 0 0 0 146.2378 91.762791 A 48.418751 48.418751 0 0 0 142.1657 88.812066 A 48.469627 48.469631 0 0 0 140.77818 87.933567 A 48.418751 48.418751 0 0 0 136.21981 85.51511 A 48.469627 48.469631 0 0 0 134.65298 84.820579 A 48.418751 48.418751 0 0 0 129.8512 83.075982 A 48.469627 48.469631 0 0 0 128.16448 82.609344 A 48.418751 48.418751 0 0 0 123.53066 81.625425 A 48.469627 48.469631 0 0 0 121.45482 81.338621 A 48.418751 48.418751 0 0 0 116.92538 81.021327 A 48.469627 48.469631 0 0 0 115.80555 80.942779 z " /><path
       id="path3"
       style="color:#000000;fill:#ffffff;fill-rule:evenodd;stroke-linejoin:bevel;-inkscape-stroke:none"
       d="m 99.3864,88.30357 v 3.93464 H 78.63107 v 20.75533 h -3.93464 v 32.83778 h 3.93464 v 20.75481 H 99.3864 v 3.93516 h 32.83778 v -3.93516 h 20.75429 v -20.75481 h 3.93568 v -32.83778 h -3.93568 V 92.23821 h -20.75429 v -3.93464 z" /><g
       id="g8"
       transform="matrix(0.56387954,0,0,0.56387954,173.96196,61.741383)"><path
         style="fill:#65001c"
         d="m -114.86127,129.78034 v -1.95411 h -1.95411 -1.9541 v -5.86231 -5.86232 h -3.90821 -3.90821 v -1.9541 -1.95411 h -1.95411 -1.9541 v -5.86231 -5.86232 h 1.9541 1.95411 v -1.954103 -1.954104 h 5.86231 5.86232 v -3.90821 -3.90821 h 1.9541 1.95411 v -3.90821 -3.90821 h 7.81642 7.816417 v 1.954105 1.954105 h 1.954105 1.954105 v 5.862315 5.862315 h -1.954105 -1.954105 v 1.954104 1.954103 h 3.90821 3.90821 v 1.95411 1.9541 h 1.954105 1.954105 v 5.86232 5.86231 h -1.954105 -1.954105 v 1.95411 1.9541 h -5.862315 -5.862315 v 3.90821 3.90821 h -1.954107 -1.9541 v 1.95411 1.9541 h -5.86232 -5.86231 z m 7.81642,-3.90821 v -1.95411 h 1.9541 1.95411 v -5.86231 -5.86232 h 1.9541 1.954107 v 1.95411 1.9541 h 5.862315 5.862315 v -5.86231 -5.86232 h -5.862315 -5.862315 v 1.95411 1.9541 h -1.954107 -1.9541 v -1.9541 -1.95411 h -1.95411 -1.9541 v 1.95411 1.9541 h 1.9541 1.95411 v 1.95411 1.9541 h -3.90821 -3.90821 v 3.90821 3.90821 h -1.95411 -1.9541 v 1.95411 1.9541 h 1.9541 1.95411 v 1.95411 1.9541 h 1.9541 1.95411 z m -7.81642,-15.63284 v -1.95411 h 1.9541 1.95411 v -3.90821 -3.90821 h -5.86232 -5.86231 v 1.95411 1.9541 h -1.95411 -1.9541 v 3.90821 3.90821 h 5.86231 5.86232 z m 15.632837,-11.724633 v -1.954104 h 1.954105 1.954105 v -3.90821 -3.90821 h -1.954105 -1.954105 v -1.954105 -1.954105 h -3.908207 -3.90821 v 1.954105 1.954105 h -1.95411 -1.9541 v 3.90821 3.90821 h 1.9541 1.95411 v 1.954104 1.954103 h 3.90821 3.908207 z"
         id="path10" /><path
         style="fill:#013c08"
         d="m -103.13664,172.77064 v -1.9541 h -1.95411 -1.9541 v -3.90821 -3.90821 h -1.95411 -1.9541 v -1.95411 -1.9541 h -1.95411 -1.9541 v -3.90821 -3.90821 h -1.95411 -1.9541 v -1.95411 -1.9541 h -1.95411 -1.9541 v -3.90821 -3.90821 h -1.95411 -1.9541 v -7.81642 -7.81642 h 1.9541 1.95411 v -3.90821 -3.90821 h 1.9541 1.95411 v 11.72463 11.72463 h 1.9541 1.95411 v 3.90821 3.90821 h 1.9541 1.95411 v 1.9541 1.95411 h 1.9541 1.95411 v 1.9541 1.95411 h 1.9541 1.95411 v 3.90821 3.90821 h 1.9541 1.954107 v 5.86231 5.86232 h -1.954107 -1.9541 z"
         id="path9" /><path
         style="fill:#000000"
         d="m -153.94337,180.58706 v -1.9541 h -1.9541 -1.95411 v -1.95411 -1.9541 h -1.9541 -1.95411 v -1.95411 -1.9541 h -1.9541 -1.95411 V 121.96392 73.111294 h 1.95411 1.9541 v -1.954105 -1.954105 h 1.95411 1.9541 v -1.954105 -1.954105 h 1.95411 1.9541 v -1.954105 -1.954105 h 1.95411 1.9541 v -1.954105 -1.954104 h 48.85262 48.852625 v 1.954104 1.954105 h 1.954105 1.954105 v 1.954105 1.954105 h 1.954105 1.954105 v 1.954105 1.954105 h 1.954104 1.954105 v 50.806726 50.80673 h -1.954105 -1.954104 v 1.9541 1.95411 h -1.954105 -1.954105 v 1.9541 1.95411 h -1.954105 -1.954105 v 1.9541 1.95411 h -50.806725 -50.80673 z m 7.81642,-7.81642 v -5.86231 h -5.86231 -5.86232 v 1.9541 1.95411 h 1.95411 1.9541 v 1.9541 1.95411 h 1.95411 1.9541 v 1.9541 1.95411 h 1.9541 1.95411 z m 85.980615,-1.9541 v -7.81642 h 7.81642 7.81642 v -41.0362 -41.036207 h -7.81642 -7.81642 v -9.770524 -9.770525 h -41.036205 -41.0362 v 9.770525 9.770524 h -9.77052 -9.77053 v 41.036207 41.0362 h 9.77053 9.77052 v 7.81642 7.81642 h 41.0362 41.036205 z m 7.81642,1.9541 v -1.9541 h 1.954105 1.954105 v -1.95411 -1.9541 h -3.90821 -3.90821 v 3.90821 3.90821 h 1.954105 1.954105 z M -146.12695,71.157189 v -5.862315 h -1.95411 -1.9541 v 1.954105 1.954105 h -1.9541 -1.95411 v 1.954105 1.954105 h -1.9541 -1.95411 v 1.954105 1.954105 h 5.86232 5.86231 z m 101.613455,3.90821 v -1.954105 h -1.954105 -1.954105 v -1.954105 -1.954105 h -1.954105 -1.954105 v -1.954105 -1.954105 h -1.954105 -1.954105 v 5.862315 5.862315 h 5.862315 5.862315 z"
         id="path8" /></g><path
       id="path4"
       style="color:#000000;fill:#800000;fill-rule:evenodd;stroke-linejoin:bevel;-inkscape-stroke:none"
       d="m 76.664264,88.304604 -1.9668,1.96681 v 33.305456 h 3.93361 V 92.238214 h 31.338656 v -3.93361 z m 44.976586,0 v 3.93361 h 31.33762 v 31.338656 h 3.93568 V 90.271414 l -1.9668,-1.96681 z M 74.697464,135.24799 v 33.30495 l 1.9668,1.96835 h 33.305466 v -3.93516 H 78.631074 v -31.33814 z m 78.281006,0 v 31.33814 h -31.33762 v 3.93516 h 33.3065 l 1.9668,-1.96835 v -33.30495 z"
       sodipodi:nodetypes="cccccccccccccccccccccccccccccccc" /><path
       id="path14"
       style="fill:#ff00ff;fill-opacity:1;fill-rule:evenodd;stroke:none;stroke-width:0.87984;stroke-linejoin:bevel;stroke-dasharray:none;stroke-dashoffset:0"
       d="m 118.00908,120.59742 v 2.20376 l -2.20376,0 v 2.20376 l -4.40752,0 v 4.40752 h -2.20376 v 2.20376 h 2.20376 v 2.20376 h 2.20376 v -2.20376 h 2.20376 v -6.61128 h 2.20376 v 2.20376 h 6.61128 c -0.018,-2.16951 0.0619,-4.44218 0,-6.61128 -7.02564,0.0582 -4.48086,-0.0618 -6.61128,0 z"
       sodipodi:nodetypes="ccccccccccccccccccc" /><path
       style="fill:#ffff00;fill-opacity:1;fill-rule:evenodd;stroke:none;stroke-width:8.07818e-10;stroke-linejoin:bevel;stroke-dasharray:none;stroke-dashoffset:0"
       d="m 113.60156,120.59742 v 2.20376 c 0.72069,-0.0181 1.5233,0.0614 2.20376,0 l 0,-2.20376 z"
       id="path15"
       sodipodi:nodetypes="ccccc" /><path
       style="fill:#ff00ff;fill-opacity:1;fill-rule:evenodd;stroke:none;stroke-width:0.00000000264583;stroke-linejoin:bevel;stroke-dasharray:none;stroke-dashoffset:0"
       d="m 102.58276,125.00494 h 6.61128 v -2.20376 h 2.20376 c 0,0 0,-4.40752 0,-4.40752 h -6.61128 v 2.20376 h -2.20376 z"
       id="path16" /><path
       style="fill:#ff00ff;fill-opacity:1;fill-rule:evenodd;stroke:none;stroke-width:2.64583e-09;stroke-linejoin:bevel;stroke-dasharray:none;stroke-dashoffset:0"
       d="m 113.60156,109.57862 h 4.40752 v 2.20376 h 2.20376 v 4.40752 h -2.20376 v 2.20376 h -4.40752 v -2.20376 h -2.20376 v -4.40752 h 2.20376 z"
       id="path17" /></g></svg>
