<?xml version="1.0" encoding="UTF-8" standalone="no"?>
<!-- Created with Inkscape (http://www.inkscape.org/) -->

<svg
   width="128mm"
   height="127.98062mm"
   viewBox="0 0 128 127.98062"
   version="1.1"
   id="svg18"
   inkscape:version="1.3.2 (091e20ef0f, 2023-11-25, custom)"
   sodipodi:docname="brush.svg"
   xml:space="preserve"
   xmlns:inkscape="http://www.inkscape.org/namespaces/inkscape"
   xmlns:sodipodi="http://sodipodi.sourceforge.net/DTD/sodipodi-0.dtd"
   xmlns:xlink="http://www.w3.org/1999/xlink"
   xmlns="http://www.w3.org/2000/svg"
   xmlns:svg="http://www.w3.org/2000/svg"
   xmlns:rdf="http://www.w3.org/1999/02/22-rdf-syntax-ns#"
   xmlns:cc="http://creativecommons.org/ns#"
   xmlns:dc="http://purl.org/dc/elements/1.1/"><defs
     id="defs12"><linearGradient
       id="linearGradient3"
       inkscape:collect="always"><stop
         style="stop-color:#000000;stop-opacity:1;"
         offset="0"
         id="stop3" /><stop
         style="stop-color:#000000;stop-opacity:0;"
         offset="1"
         id="stop4" /></linearGradient><linearGradient
       id="linearGradient1"
       inkscape:collect="always"><stop
         style="stop-color:#ff00ff;stop-opacity:1;"
         offset="0"
         id="stop1" /><stop
         style="stop-color:#0b00ff;stop-opacity:1;"
         offset="1"
         id="stop2" /></linearGradient><linearGradient
       inkscape:collect="always"
       xlink:href="#linearGradient3"
       id="linearGradient4"
       x1="-158.80707"
       y1="152.86594"
       x2="-58.188587"
       y2="152.86594"
       gradientUnits="userSpaceOnUse"
       gradientTransform="matrix(0.98293167,0,0,0.98278288,-2.9281095,1.4589894)" /><linearGradient
       inkscape:collect="always"
       xlink:href="#linearGradient1"
       id="linearGradient14"
       x1="-158.74168"
       y1="184.33827"
       x2="-50.417034"
       y2="184.33827"
       gradientUnits="userSpaceOnUse"
       gradientTransform="matrix(0.98293167,0,0,0.98278288,-2.9281095,1.4589894)" /></defs><sodipodi:namedview
     id="base"
     pagecolor="#ffffff"
     bordercolor="#666666"
     borderopacity="1.0"
     inkscape:pageopacity="0.0"
     inkscape:pageshadow="2"
     inkscape:zoom="0.70710678"
     inkscape:cx="-26.162951"
     inkscape:cy="429.21382"
     inkscape:document-units="mm"
     inkscape:current-layer="layer1"
     showgrid="false"
     inkscape:pagecheckerboard="true"
     inkscape:window-width="1728"
     inkscape:window-height="899"
     inkscape:window-x="2160"
     inkscape:window-y="1434"
     inkscape:window-maximized="1"
     inkscape:showpageshadow="2"
     inkscape:deskcolor="#d1d1d1" /><metadata
     id="metadata15"><rdf:RDF><cc:Work
         rdf:about=""><dc:format>image/svg+xml</dc:format><dc:type
           rdf:resource="http://purl.org/dc/dcmitype/StillImage" /></cc:Work></rdf:RDF></metadata><g
     inkscape:label="Layer 1"
     inkscape:groupmode="layer"
     id="layer1"
     transform="translate(171.55244,-84.740848)"
     style="opacity:1"><g
       inkscape:label="Layer 1"
       id="layer1-6"
       transform="matrix(0.98293169,0,0,0.98278287,-221.38116,21.546808)"
       style="fill:#f9f9f9"><rect
         style="fill:#f9f9f9;fill-rule:evenodd;stroke:#000000;stroke-width:2.22268;stroke-dasharray:none;stroke-dashoffset:0;-inkscape-stroke:none"
         id="rect7"
         width="128"
         height="128"
         x="51.805321"
         y="65.41246"
         ry="31.75" /></g><path
       style="opacity:1;fill:url(#linearGradient14);fill-rule:evenodd;stroke-width:3.93143;stroke-linejoin:bevel;stroke-dasharray:15.7258, 3.93143"
       d="m -156.9375,199.79228 -2.02285,1.47095 36.59518,0.91934 11.7693,-6.71118 8.82701,-6.61921 12.315904,10.63052 24.483217,-5.85586 9.542518,-7.71656 2.94261,-22.84585 -16.36753,19.03206 -16.925054,8.76817 -21.876345,-12.67681 -11.03373,13.60619 -18.38953,6.2515 z"
       id="path7"
       sodipodi:nodetypes="ccccccccccccccc" /><path
       id="path5"
       style="fill:#f4e3d7;fill-rule:evenodd;stroke-width:147.051;stroke-linejoin:bevel;stroke-dasharray:588.201, 147.051"
       d="m -136.35875,169.05653 c -2.9302,0.0735 -5.24275,1.56964 -7.77074,4.08439 -4.41735,4.41411 -1.66179,11.29187 -5.77547,16.71651 -5.27105,2.22398 -4.45376,3.97631 -6.38394,8.81426 4.18978,-0.38597 6.60307,-2.8452 9.87959,-1.99605 15.57676,0.80136 21.94414,-8.34962 20.61398,-23.17522 -2.0993,-0.4595 -2.13975,-0.0735 -3.87581,-3.34515 l -3.51477,-0.66535 c -1.13972,-0.33083 -2.19489,-0.45581 -3.17284,-0.43743 z" /><path
       id="path6"
       style="fill:#800080;fill-opacity:1;fill-rule:evenodd;stroke-width:147.051;stroke-linejoin:bevel;stroke-dasharray:588.201, 147.051"
       d="m -141.87283,189.01968 -3.49639,1.67256 -1.82356,0.14705 -3.40079,-0.64697 c -4.45083,2.07692 -3.86588,3.8947 -5.69974,8.49152 3.27212,-0.29408 5.46443,-1.84167 7.82772,-2.11002 l 0.22058,-0.87489 1.21694,-2.12839 3.34197,-1.36746 z" /><path
       id="path3"
       style="fill:url(#linearGradient4);fill-rule:evenodd;stroke-width:147.051;stroke-linejoin:bevel;stroke-dasharray:588.201, 147.051"
       d="m -63.939066,102.59957 v 0.0191 0.0188 c -1.591941,0.0327 -3.125057,0.29407 -4.59751,0.7793 l -52.323374,56.20979 c -0.22059,-0.0735 -0.25736,-0.003 -0.81619,-0.0735 l -8.2075,8.75729 -0.0735,-0.11029 c -4.75046,-1.81225 -7.37036,-2.17985 -13.11384,0.33085 -4.63281,4.46263 -7.03984,9.46491 -6.60233,15.51594 0.72796,3.88736 -6.89903,4.98353 -7.39535,11.73852 -0.0368,0.60653 -1.95593,5.01477 -1.95593,5.01477 5.47658,-0.18381 6.9005,-1.5623 15.04733,-1.67258 6.14571,0.14703 8.64759,-1.20571 14.1135,-4.81884 4.29641,-4.29685 7.1527,-6.44326 6.52769,-12.89166 l -0.0735,-8.52314 7.63727,-7.97834 c 0.22059,-0.25732 0.22059,-0.47787 0.18382,-0.7205 l 53.976345,-52.79038 c 2.09195,-3.01798 1.672825,-8.96132 0.606629,-8.66208 -0.992666,-0.11028 -1.970624,-0.18381 -2.926525,-0.14704 z m -4.236474,4.93905 h 0.01875 0.01911 0.01911 c 1.408115,0.0368 1.301495,0.39701 1.805181,0.6286 l 0.294123,0.29408 0.665452,1.90048 c -0.02169,1.54758 -0.511038,1.4998 -0.628686,2.24235 l -50.9171,51.61261 c -1.25737,-0.57346 -2.43754,-1.58067 -3.61036,-3.56939 -9.9e-4,-0.0735 -0.005,-0.14703 0,-0.22055 l 50.518563,-51.8975 c 0.812515,-0.78666 1.375024,-1.00354 1.823562,-0.98884 z m -53.04545,53.18925 c 1.09561,2.61361 2.55887,3.38925 4.14162,4.23619 l -3.7997,3.59143 c -2.72799,-1.42995 -3.50374,-2.63935 -3.76183,-3.83735 z m -4.16073,4.8442 c 0.87502,1.61374 2.26474,2.94079 3.85669,3.60981 l -3.3236,3.15398 c -2.87872,-0.74254 -2.58459,-0.76459 -3.78094,-2.96282 z m -10.98145,3.49586 c 0.97796,-0.0202 2.03312,0.11028 3.17285,0.43744 l 3.51477,0.66535 c 1.739,3.26795 1.77577,2.88197 3.87581,3.34147 1.3309,14.8256 -5.03724,23.97768 -20.61397,23.17558 -3.2758,-0.84915 -5.68983,1.61009 -9.8796,1.99607 1.93018,-4.83797 1.11399,-6.59031 6.38393,-8.81428 4.11368,-5.42464 1.35665,-12.30277 5.77548,-16.71688 2.52945,-2.51437 4.84054,-4.02337 7.77073,-4.08402 z"
       sodipodi:nodetypes="cccccccccccccccccccccccccccccccccccccccccccccccccccccccc" /><path
       id="path4"
       style="fill:#cccccc;fill-rule:evenodd;stroke-width:147.051;stroke-linejoin:bevel;stroke-dasharray:588.201, 147.051"
       d="m -121.21658,160.73632 -3.41917,3.98917 c 0.25735,1.19836 1.03311,2.40777 3.76183,3.83735 l 3.7997,-3.59143 c -1.58459,-0.84548 -3.04786,-1.62111 -4.14162,-4.23619 z m -4.16073,4.8442 -3.25006,3.79913 c 1.19488,2.19824 0.90075,2.22029 3.78095,2.96285 l 3.32359,-3.154 c -1.59194,-0.66903 -2.98167,-1.99605 -3.85669,-3.60982 z"
       sodipodi:nodetypes="cccccccccc" /><path
       id="path2"
       style="fill:#000080;fill-rule:evenodd;stroke-width:147.051;stroke-linejoin:bevel;stroke-dasharray:588.201, 147.051"
       d="m -66.00528,108.45872 -0.378683,2.0512 -51.950567,52.78819 c 0.48162,0.40068 0.96325,0.7021 1.46693,0.92634 l 50.939895,-51.62657 c 0.110296,-0.74255 0.606629,-0.69476 0.628688,-2.24235 z"
       sodipodi:nodetypes="ccccccc" /><path
       id="path1"
       style="display:inline;fill:#0000ff;fill-rule:evenodd;stroke-width:147.051;stroke-linejoin:bevel;stroke-dasharray:588.201, 147.051"
       d="m -68.114141,107.52797 c -0.452214,-0.015 -1.011047,0.1838 -1.823562,0.98884 l -50.540627,51.88646 c -0.005,0.0735 0.009,0.18381 0.011,0.25733 0.70591,1.19469 1.40812,2.03649 2.13239,2.63935 l 51.950579,-52.7882 0.378684,-2.05119 -0.294123,-0.29407 c -0.503686,-0.22057 -0.397066,-0.59919 -1.805179,-0.64698 z"
       sodipodi:nodetypes="cccccccccc" /></g></svg>
