<?xml version="1.0" encoding="UTF-8" standalone="no"?>
<!-- Created with Inkscape (http://www.inkscape.org/) -->

<svg
   version="1.1"
   id="svg1"
   width="127.99998"
   height="127.99998"
   viewBox="0 0 127.99999 127.99999"
   sodipodi:docname="eraser_icon.svg"
   xml:space="preserve"
   inkscape:version="1.3.2 (091e20ef0f, 2023-11-25, custom)"
   xmlns:inkscape="http://www.inkscape.org/namespaces/inkscape"
   xmlns:sodipodi="http://sodipodi.sourceforge.net/DTD/sodipodi-0.dtd"
   xmlns="http://www.w3.org/2000/svg"
   xmlns:svg="http://www.w3.org/2000/svg"><defs
     id="defs1" /><sodipodi:namedview
     id="namedview1"
     pagecolor="#ffffff"
     bordercolor="#666666"
     borderopacity="1.0"
     inkscape:showpageshadow="2"
     inkscape:pageopacity="0.0"
     inkscape:pagecheckerboard="0"
     inkscape:deskcolor="#d1d1d1"
     inkscape:zoom="3.100586"
     inkscape:cx="75.953384"
     inkscape:cy="63.858896"
     inkscape:window-width="1920"
     inkscape:window-height="1020"
     inkscape:window-x="2160"
     inkscape:window-y="1434"
     inkscape:window-maximized="0"
     inkscape:current-layer="g1" /><g
     inkscape:groupmode="layer"
     inkscape:label="Image"
     id="g1"
     transform="translate(754.71053,303.17608)"><rect
       style="fill:#f2f2f2;fill-rule:evenodd;stroke:#000000;stroke-width:2.18474;stroke-dasharray:none;stroke-dashoffset:0;-inkscape-stroke:none"
       id="rect2"
       width="125.81525"
       height="125.81525"
       x="-753.61816"
       y="-302.08371"
       ry="31.208076" /><ellipse
       style="fill:#ff00ff;fill-opacity:1;fill-rule:evenodd;stroke:#000000;stroke-width:7.59736832;stroke-linejoin:bevel;stroke-dasharray:none"
       id="path4107-4"
       cx="-690.71088"
       cy="-276.28485"
       rx="51.609188"
       ry="18.944069" /><path
       id="path4110"
       style="fill:#ff9f00;fill-opacity:1;fill-rule:evenodd;stroke:#000000;stroke-width:7.59736832;stroke-linejoin:bevel;stroke-dasharray:none"
       d="m -639.1005,-226.07377 c -0.004,0.68581 -0.10886,1.37105 -0.315,2.05266 -0.007,0.0263 -0.013,0.0527 -0.0197,0.0789 l -0.0394,0.0789 c -0.20966,0.67668 -0.51848,1.34872 -0.92531,2.01319 -0.42535,0.67455 -0.95114,1.34004 -1.57498,1.99345 -0.0131,0.0197 -0.0262,0.0395 -0.0394,0.0592 -0.0195,0.0197 -0.0393,0.0395 -0.0591,0.0592 -0.62152,0.64536 -1.33788,1.27787 -2.14592,1.89477 l -0.0394,0.0197 c -0.84318,0.63727 -1.78309,1.25668 -2.81529,1.85529 -9.44884,5.50237 -25.92727,8.84067 -43.64682,8.84224 -17.68454,-0.014 -34.11822,-3.35075 -43.5484,-8.84223 -0.0132,-0.0132 -0.0263,-0.0263 -0.0394,-0.0395 -0.85898,-0.49925 -1.65391,-1.01298 -2.38217,-1.53949 -0.2372,-0.17631 -0.46692,-0.35397 -0.68905,-0.53291 -0.61971,-0.47794 -1.18458,-0.96523 -1.69311,-1.46055 -0.2148,-0.22226 -0.41827,-0.446 -0.61031,-0.67106 -0.43231,-0.47454 -0.81324,-0.95519 -1.14187,-1.44081 -0.20003,-0.32062 -0.37727,-0.64311 -0.53156,-0.96712 l -0.96468,30.2965 h 103.22074 z m -23.40825,0.82896 c -0.97174,0.2331 -1.96121,0.46262 -2.97278,0.67107 1.00985,-0.20804 2.00271,-0.43844 2.97278,-0.67107 z m -2.97278,0.67107 c -1.04603,0.21554 -2.1046,0.42346 -3.18935,0.61185 1.08115,-0.1878 2.14674,-0.39707 3.18935,-0.61185 z m -3.44529,0.65132 c -1.08269,0.18538 -2.19058,0.35555 -3.30747,0.51317 1.11884,-0.15788 2.22299,-0.32742 3.30747,-0.51317 z m -40.85124,0.41448 c 1.15391,0.16955 2.3169,0.33483 3.50435,0.47369 -1.18507,-0.13895 -2.35216,-0.30413 -3.50435,-0.47369 z m 4.42966,0.57238 c 1.41291,0.15465 2.84027,0.28463 4.29184,0.39474 -1.4532,-0.1105 -2.87722,-0.23952 -4.29184,-0.39474 z m 25.35729,0.375 c -1.03366,0.0808 -2.07982,0.1398 -3.13028,0.19737 1.05021,-0.0575 2.09681,-0.11665 3.13028,-0.19737 z m -3.13028,0.19737 c -1.24872,0.0684 -2.49186,0.12318 -3.76029,0.1579 1.26332,-0.0347 2.51644,-0.0898 3.76029,-0.1579 z m -3.76029,0.1579 c -1.26842,0.0347 -2.55526,0.0591 -3.83903,0.0592 1.28761,-1.1e-4 2.56675,-0.0243 3.83903,-0.0592 z m -3.83903,0.0592 c -1.56098,-0.001 -3.10967,-0.0267 -4.64621,-0.0789 1.53724,0.0522 3.08553,0.0777 4.64621,0.0789 z m -10.2571,-0.39474 c 1.51542,0.11405 3.05749,0.21244 4.60683,0.27632 -1.55276,-0.0641 -3.0885,-0.16177 -4.60683,-0.27632 z" /><path
       id="rect4110"
       style="fill:#ffff00;fill-rule:evenodd;stroke-width:6.15775;stroke-linejoin:bevel"
       d="m -674.69521,-208.05376 c -5.10691,0.6134 -10.50209,0.92715 -16.0255,0.92764 -5.37971,-0.004 -10.6455,-0.32156 -15.63175,-0.90791 v 13.85548 c 0,1.02156 0.81194,1.85528 1.83092,1.85528 h 27.99541 c 1.01898,0 1.83092,-0.83372 1.83092,-1.85528 z" /><path
       id="rect4109-6-9-9"
       style="fill:#666666;fill-opacity:1;fill-rule:evenodd;stroke:#000000;stroke-width:7.59736832;stroke-linejoin:bevel"
       d="m -742.32124,-241.09055 v 15.02548 0 c 0.007,0.75881 0.13878,1.51676 0.39375,2.26977 0.15612,0.39686 0.34653,0.7918 0.57093,1.18423 0.15429,0.32401 0.33153,0.64649 0.53156,0.96712 0.32863,0.48561 0.70956,0.96627 1.14187,1.44081 0.19204,0.22506 0.39551,0.44879 0.61031,0.67106 0.50853,0.49532 1.0734,0.9826 1.69311,1.46055 0.22213,0.17893 0.45185,0.35659 0.68905,0.53289 0.72826,0.52652 1.52319,1.04025 2.38217,1.5395 0.0131,0.0131 0.0262,0.0263 0.0394,0.0395 9.43018,5.49149 25.86384,8.82825 43.5484,8.84221 17.71956,-0.002 34.19797,-3.33987 43.64684,-8.84224 1.0322,-0.59862 1.97211,-1.21802 2.81529,-1.85529 l 0.0394,-0.0197 c 0.80804,-0.6169 1.5244,-1.24941 2.14592,-1.89477 0.0198,-0.0197 0.0395,-0.0395 0.0591,-0.0592 0.0132,-0.0197 0.0263,-0.0395 0.0394,-0.0592 0.62385,-0.65342 1.14964,-1.31891 1.57499,-1.99346 0.40682,-0.66447 0.71568,-1.3365 0.92533,-2.01318 0.0131,-0.0263 0.0262,-0.0526 0.0393,-0.0789 0.007,-0.0263 0.0131,-0.0526 0.0201,-0.0789 0.20613,-0.68162 0.31126,-1.36685 0.31499,-2.05266 v 0 -15.02548 c -0.004,0.68581 -0.10886,1.37104 -0.31499,2.05266 -0.006,0.0263 -0.0131,0.0526 -0.0201,0.0789 -0.0131,0.0264 -0.0262,0.0526 -0.0393,0.0789 -0.20965,0.67668 -0.51851,1.34871 -0.92533,2.01318 -0.42537,0.67455 -0.95114,1.34004 -1.57499,1.99346 -0.013,0.0197 -0.0262,0.0395 -0.0394,0.0592 -0.0195,0.0197 -0.0393,0.0395 -0.0591,0.0592 -0.62152,0.64535 -1.33788,1.27787 -2.14592,1.89477 l -0.0394,0.0197 c -0.84318,0.63727 -1.78309,1.25667 -2.81529,1.85529 -9.44887,5.50237 -25.92728,8.84066 -43.64684,8.84224 -17.68456,-0.0139 -34.11822,-3.35072 -43.5484,-8.84224 -0.0132,-0.0131 -0.0263,-0.0263 -0.0394,-0.0395 -0.85898,-0.49922 -1.65391,-1.01294 -2.38217,-1.53946 -0.2372,-0.17631 -0.46692,-0.35396 -0.68905,-0.5329 -0.61971,-0.47795 -1.18458,-0.96523 -1.69311,-1.46055 -0.2148,-0.22227 -0.41827,-0.446 -0.61031,-0.67106 -0.43231,-0.47455 -0.81323,-0.95519 -1.14187,-1.44081 -0.20003,-0.32063 -0.37727,-0.64311 -0.53156,-0.96712 -0.2244,-0.39243 -0.41481,-0.78737 -0.57093,-1.18423 -0.25497,-0.75301 -0.38645,-1.51097 -0.39375,-2.26977 z"
       sodipodi:nodetypes="ccccccccccccccccccccccccccccccccccccccccccccccc" /><path
       id="rect4109-6-9"
       style="fill:#666666;fill-opacity:1;fill-rule:evenodd;stroke:#000000;stroke-width:7.59736832;stroke-linejoin:bevel"
       d="m -742.32124,-256.11603 v 15.02548 0 c 0.007,0.75881 0.13878,1.51676 0.39375,2.26977 0.15612,0.39686 0.34653,0.7918 0.57093,1.18423 0.15429,0.32401 0.33153,0.64649 0.53156,0.96712 0.32863,0.48561 0.70956,0.96627 1.14187,1.44081 0.19204,0.22506 0.39551,0.44879 0.61031,0.67106 0.50853,0.49532 1.0734,0.9826 1.69311,1.46055 0.22213,0.17893 0.45185,0.35659 0.68905,0.5329 0.72826,0.52651 1.52319,1.04024 2.38217,1.53949 0.0131,0.0131 0.0262,0.0263 0.0394,0.0395 9.43018,5.49149 25.86384,8.82825 43.5484,8.84221 17.71956,-0.002 34.19797,-3.33987 43.64684,-8.84224 1.0322,-0.59862 1.97211,-1.21802 2.81529,-1.85529 l 0.0394,-0.0197 c 0.80804,-0.6169 1.5244,-1.24941 2.14592,-1.89477 0.0198,-0.0197 0.0395,-0.0395 0.0591,-0.0592 0.0132,-0.0197 0.0263,-0.0395 0.0394,-0.0592 0.62385,-0.65342 1.14964,-1.31891 1.57499,-1.99346 0.40682,-0.66447 0.71568,-1.3365 0.92533,-2.01318 0.0131,-0.0263 0.0262,-0.0526 0.0393,-0.0789 0.007,-0.0263 0.0131,-0.0526 0.0201,-0.0789 0.20613,-0.68162 0.31126,-1.36685 0.31499,-2.05266 v 0 -15.02548 c -0.004,0.68581 -0.10886,1.37104 -0.31499,2.05266 -0.006,0.0263 -0.0131,0.0526 -0.0201,0.0789 -0.0131,0.0264 -0.0262,0.0526 -0.0393,0.0789 -0.20965,0.67668 -0.51851,1.34871 -0.92533,2.01318 -0.42537,0.67455 -0.95114,1.34004 -1.57499,1.99346 -0.013,0.0197 -0.0262,0.0395 -0.0394,0.0592 -0.0195,0.0197 -0.0393,0.0395 -0.0591,0.0592 -0.62152,0.64535 -1.33788,1.27787 -2.14592,1.89477 l -0.0394,0.0197 c -0.84318,0.63727 -1.78309,1.25667 -2.81529,1.85529 -9.44887,5.50237 -25.92728,8.84066 -43.64684,8.84224 -17.68456,-0.0139 -34.11822,-3.35072 -43.5484,-8.84224 -0.0132,-0.0131 -0.0263,-0.0263 -0.0394,-0.0395 -0.85898,-0.49922 -1.65391,-1.01294 -2.38217,-1.53946 -0.2372,-0.17631 -0.46692,-0.35396 -0.68905,-0.5329 -0.61971,-0.47795 -1.18458,-0.96523 -1.69311,-1.46055 -0.2148,-0.22227 -0.41827,-0.446 -0.61031,-0.67106 -0.43231,-0.47455 -0.81323,-0.95519 -1.14187,-1.44081 -0.20003,-0.32063 -0.37727,-0.64311 -0.53156,-0.96712 -0.2244,-0.39243 -0.41481,-0.78737 -0.57093,-1.18423 -0.25497,-0.75301 -0.38645,-1.51097 -0.39375,-2.26977 z"
       sodipodi:nodetypes="ccccccccccccccccccccccccccccccccccccccccccccccc" /><path
       id="rect4109-6"
       style="fill:#ff00ff;fill-opacity:1;fill-rule:evenodd;stroke:#000000;stroke-width:7.59736832;stroke-linejoin:bevel"
       d="m -742.32124,-276.85742 v 20.21083 0 c 0.007,0.7588 0.13878,1.51676 0.39375,2.26977 0.15612,0.39686 0.34653,0.7918 0.57093,1.18423 0.15429,0.32401 0.33153,0.64649 0.53156,0.96712 0.32863,0.48561 0.70956,0.96627 1.14187,1.44081 0.19204,0.22506 0.39551,0.44879 0.61031,0.67106 0.50853,0.49531 1.0734,0.9826 1.69311,1.46055 0.22213,0.17893 0.45185,0.35658 0.68905,0.53289 0.72826,0.52652 1.52319,1.04024 2.38217,1.5395 0.0131,0.0131 0.0262,0.0263 0.0394,0.0395 9.43018,5.49149 25.86384,8.82825 43.5484,8.84221 17.71956,-0.002 34.19797,-3.33987 43.64684,-8.84224 1.0322,-0.59862 1.97211,-1.21802 2.81529,-1.85529 l 0.0394,-0.0197 c 0.80804,-0.6169 1.5244,-1.24941 2.14592,-1.89477 0.0198,-0.0197 0.0395,-0.0395 0.0591,-0.0592 0.0132,-0.0197 0.0263,-0.0395 0.0394,-0.0592 0.62385,-0.65342 1.14964,-1.31891 1.57499,-1.99345 0.40682,-0.66448 0.71568,-1.33651 0.92533,-2.01319 0.0131,-0.0263 0.0262,-0.0526 0.0393,-0.0789 0.007,-0.0263 0.0131,-0.0526 0.0201,-0.0789 0.20613,-0.68162 0.31126,-1.36685 0.31499,-2.05266 v 0 -20.21083 c -0.004,0.68581 -0.10886,1.37104 -0.31499,2.05266 -0.006,0.0263 -0.0131,0.0526 -0.0201,0.0789 -0.0131,0.0264 -0.0262,0.0526 -0.0393,0.0789 -0.20965,0.67668 -0.51851,1.34872 -0.92533,2.01319 -0.42537,0.67454 -0.95114,1.34003 -1.57499,1.99345 -0.013,0.0197 -0.0262,0.0395 -0.0394,0.0592 -0.0195,0.0197 -0.0393,0.0395 -0.0591,0.0592 -0.62152,0.64536 -1.33788,1.27787 -2.14592,1.89477 l -0.0394,0.0197 c -0.84318,0.63726 -1.78309,1.25667 -2.81529,1.85529 -9.44887,5.50236 -25.92728,8.84066 -43.64684,8.84223 -17.68456,-0.014 -34.11822,-3.35072 -43.5484,-8.84223 -0.0132,-0.0131 -0.0263,-0.0263 -0.0394,-0.0395 -0.85898,-0.49922 -1.65391,-1.01294 -2.38217,-1.53946 -0.2372,-0.17631 -0.46692,-0.35396 -0.68905,-0.5329 -0.61971,-0.47795 -1.18458,-0.96523 -1.69311,-1.46055 -0.2148,-0.22227 -0.41827,-0.446 -0.61031,-0.67106 -0.43231,-0.47454 -0.81323,-0.95519 -1.14187,-1.44081 -0.20003,-0.32062 -0.37727,-0.64311 -0.53156,-0.96712 -0.2244,-0.39242 -0.41481,-0.78737 -0.57093,-1.18423 -0.25497,-0.75301 -0.38645,-1.51097 -0.39375,-2.26977 z"
       sodipodi:nodetypes="ccccccccccccccccccccccccccccccccccccccccccccccc" /><ellipse
       style="fill:#333333;fill-opacity:1;fill-rule:evenodd;stroke:none;stroke-width:0.303295;stroke-linejoin:bevel;stroke-dasharray:none"
       id="path4111"
       cx="-690.71021"
       cy="-214.56796"
       rx="3.496084"
       ry="4.2588005" /><ellipse
       style="fill:#333333;fill-opacity:1;fill-rule:evenodd;stroke:none;stroke-width:0.303295;stroke-linejoin:bevel;stroke-dasharray:none"
       id="path4111-1"
       cx="-690.71021"
       cy="-229.50911"
       rx="3.496084"
       ry="4.2588005" /><ellipse
       style="fill:#333333;fill-opacity:1;fill-rule:evenodd;stroke:none;stroke-width:0.263876;stroke-linejoin:bevel;stroke-dasharray:none"
       id="path4111-1-4"
       cx="-721.26227"
       cy="-232.95079"
       rx="3.0897124"
       ry="3.6477015" /><ellipse
       style="fill:#333333;fill-opacity:1;fill-rule:evenodd;stroke:none;stroke-width:0.263876;stroke-linejoin:bevel;stroke-dasharray:none"
       id="path4111-1-4-3"
       cx="-721.26227"
       cy="-218.44354"
       rx="3.0897124"
       ry="3.6477015" /><ellipse
       style="fill:#333333;fill-opacity:1;fill-rule:evenodd;stroke:none;stroke-width:0.263876;stroke-linejoin:bevel;stroke-dasharray:none"
       id="path4111-1-4-7"
       cx="-660.3764"
       cy="-232.95079"
       rx="3.0897124"
       ry="3.6477015" /><ellipse
       style="fill:#333333;fill-opacity:1;fill-rule:evenodd;stroke:none;stroke-width:0.263876;stroke-linejoin:bevel;stroke-dasharray:none"
       id="path4111-1-4-3-4"
       cx="-660.3764"
       cy="-218.44354"
       rx="3.0897124"
       ry="3.6477015" /></g></svg>
