<?xml version="1.0" encoding="UTF-8" standalone="no"?>
<!-- Created with Inkscape (http://www.inkscape.org/) -->

<svg
   width="127.99998mm"
   height="127.99998mm"
   viewBox="0 0 127.99999 127.99998"
   version="1.1"
   id="svg18"
   inkscape:version="1.3.2 (091e20ef0f, 2023-11-25, custom)"
   sodipodi:docname="eyedropper_icon.svg"
   xml:space="preserve"
   xmlns:inkscape="http://www.inkscape.org/namespaces/inkscape"
   xmlns:sodipodi="http://sodipodi.sourceforge.net/DTD/sodipodi-0.dtd"
   xmlns:xlink="http://www.w3.org/1999/xlink"
   xmlns="http://www.w3.org/2000/svg"
   xmlns:svg="http://www.w3.org/2000/svg"
   xmlns:rdf="http://www.w3.org/1999/02/22-rdf-syntax-ns#"
   xmlns:cc="http://creativecommons.org/ns#"
   xmlns:dc="http://purl.org/dc/elements/1.1/"><defs
     id="defs12"><linearGradient
       id="linearGradient1"
       inkscape:collect="always"><stop
         style="stop-color:#ff0706;stop-opacity:1;"
         offset="0"
         id="stop1" /><stop
         style="stop-color:#eb5d1e;stop-opacity:0.98431373;"
         offset="0.25219941"
         id="stop3" /><stop
         style="stop-color:#00ff54;stop-opacity:0.97647059;"
         offset="0.40029329"
         id="stop4" /><stop
         style="stop-color:#fbff37;stop-opacity:0.97254902;"
         offset="0.61656892"
         id="stop5" /><stop
         style="stop-color:#0000ff;stop-opacity:0.96893203;"
         offset="0.98240471"
         id="stop2" /></linearGradient><linearGradient
       inkscape:collect="always"
       xlink:href="#linearGradient1"
       id="linearGradient5"
       x1="68.766396"
       y1="165.13879"
       x2="96.678246"
       y2="165.13879"
       gradientUnits="userSpaceOnUse"
       gradientTransform="matrix(0.98293167,0,0,0.9829316,0.8652601,1.0975149)" /></defs><sodipodi:namedview
     id="base"
     pagecolor="#ffffff"
     bordercolor="#666666"
     borderopacity="1.0"
     inkscape:pageopacity="0.0"
     inkscape:pageshadow="2"
     inkscape:zoom="0.6344697"
     inkscape:cx="219.86866"
     inkscape:cy="385.36119"
     inkscape:document-units="mm"
     inkscape:current-layer="layer1"
     showgrid="false"
     inkscape:pagecheckerboard="true"
     inkscape:window-width="1728"
     inkscape:window-height="899"
     inkscape:window-x="2160"
     inkscape:window-y="1434"
     inkscape:window-maximized="1"
     inkscape:showpageshadow="2"
     inkscape:deskcolor="#d1d1d1" /><metadata
     id="metadata15"><rdf:RDF><cc:Work
         rdf:about=""><dc:format>image/svg+xml</dc:format><dc:type
           rdf:resource="http://purl.org/dc/dcmitype/StillImage" /></cc:Work></rdf:RDF></metadata><g
     inkscape:label="Layer 1"
     inkscape:groupmode="layer"
     id="layer1"
     transform="translate(-50.693984,-64.301116)"><rect
       style="fill:#f9f9f9;fill-rule:evenodd;stroke:#000000;stroke-width:2.18474;stroke-dasharray:none;stroke-dashoffset:0;-inkscape-stroke:none"
       id="rect2"
       width="125.81525"
       height="125.81525"
       x="51.786354"
       y="65.393486"
       ry="31.20808" /><path
       id="path10"
       style="fill:#000000;fill-rule:evenodd;stroke:none;stroke-width:3.93172;stroke-linejoin:bevel;stroke-dasharray:none"
       d="m 123.85685,101.98264 -1.8352,2.04651 c 3.06931,0.39754 15.69332,10.69528 17.39606,14.43425 l 1.49793,-1.55279 c -5.54537,-8.19968 -11.08681,-11.38475 -17.05879,-14.92797 z" /><path
       id="rect1"
       style="color:#000000;fill:#000000;fill-rule:evenodd;stroke-width:0.982931;stroke-linejoin:bevel;-inkscape-stroke:none"
       d="m 149.24186,75.033678 c -3.26193,-0.0021 -6.73545,0.986706 -9.21462,3.751674 l -14.15233,15.78284 c -1.25508,-0.587862 -2.47056,-1.078571 -3.63332,-1.465424 -2.15434,-0.716733 -4.13625,-1.094307 -5.91705,-1.097158 -0.25439,-4.02e-4 -0.50462,0.0069 -0.75074,0.02182 -1.96887,0.120065 -3.7348,0.771916 -4.91842,2.100348 -2.27818,2.5569 -2.71872,6.964842 -1.32726,12.066212 0.4201,1.54013 1.02487,3.14857 1.82708,4.79042 l -33.638596,37.51573 0.06552,-0.067 -6.220282,11.50493 -6.206061,14.12186 c -0.338795,0.77092 -0.686092,1.47524 -0.810993,2.16655 -0.785815,4.34929 1.918799,6.14014 5.693026,5.48497 0.729544,-0.12664 1.442112,-0.59107 2.238328,-1.00914 l 13.657091,-7.17115 11.388104,-6.46257 0.02133,-0.0213 35.924353,-37.24295 c 1.71383,0.48126 3.37719,0.78304 4.95295,0.92038 5.44353,0.47448 9.88763,-0.76349 12.15409,-3.30722 2.1774,-2.44377 2.23049,-6.11703 0.3266,-10.10046 -0.52866,-1.10612 -1.21867,-2.2646 -2.04497,-3.46672 l 12.86521,-13.33709 c 2.35236,-2.352384 3.78184,-4.672761 4.35612,-7.089878 0.5743,-2.417127 0.26343,-4.824263 -0.50285,-7.239219 -1.32652,-4.180502 -2.93314,-6.698768 -7.37028,-9.002292 -2.36281,-1.226642 -5.5001,-2.146038 -8.76203,-2.148094 z m -0.002,3.447923 c 2.59038,0.0017 5.31948,0.796877 7.17571,1.760535 3.97404,2.063107 4.42022,3.035374 5.67323,6.98423 0.65149,2.053176 0.82814,3.74064 0.43379,5.400457 -0.39437,1.659818 -1.38995,3.399931 -3.44031,5.450238 l -0.0208,0.02133 -12.5137,12.972889 c -1.95972,-2.36343 -4.44868,-4.89381 -7.52825,-7.60392 -3.43308,-3.02129 -6.80801,-5.434167 -9.98922,-7.25547 l 13.56358,-15.127072 c 1.69123,-1.886193 4.05606,-2.604846 6.64645,-2.603213 z M 116.31394,94.96337 c 1.35618,0.0059 3.05445,0.304532 4.9804,0.945285 0.79239,0.263622 1.63432,0.605014 2.49705,0.983374 l -7.55364,8.423741 c 3.26832,6.4266 6.37936,8.91572 8.30438,10.69527 4.96451,4.70109 11.5292,6.51347 15.09812,7.18538 l 6.90398,-7.15745 c 0.59411,0.90095 1.0886,1.75517 1.46796,2.54888 1.62082,3.39112 1.39211,5.45917 0.13511,6.86994 -1.16792,1.31075 -4.87311,2.73857 -9.66617,2.32079 -0.91276,-0.0795 -1.86469,-0.2206 -2.84601,-0.42971 l -3.72832,-1.0992 c -3.15165,-1.18338 -6.47908,-3.08969 -9.74439,-5.96326 -3.15084,-2.77289 -5.48651,-5.65431 -7.15489,-8.43492 l -1.68994,-3.27878 c -0.47006,-1.08626 -0.84337,-2.14339 -1.11899,-3.15382 -1.22304,-4.48384 -0.472,-8.03279 0.68419,-9.330428 0.53358,-0.598851 1.43578,-1.022308 2.87141,-1.109857 0.17946,-0.01091 0.36601,-0.01612 0.55975,-0.01523 z m 10.68156,3.517509 c 3.13454,1.737551 6.55425,4.123641 10.0512,7.201121 3.11094,2.73778 5.55156,5.26557 7.41497,7.55211 l -7.28341,7.55058 c -3.13523,-1.3526 -7.52162,-4.39836 -10.66277,-6.98829 -2.72912,-2.25019 -4.61632,-4.26512 -6.56771,-7.45458 z m -14.05633,15.677691 c 1.78639,2.79871 4.17024,5.63225 7.24987,8.34247 3.13778,2.76138 6.3652,4.7232 9.49957,6.04809 l -25.86603,26.81488 -12.353157,11.5672 c -9.0838,1.31359 -14.673242,7.81294 -19.888708,11.61573 -2.936896,1.47589 -5.194678,1.24283 -4.127121,-3.34226 3.876505,-4.89082 8.642218,-13.20487 9.06954,-19.24541 l 1.779833,-2.7388 0.004,0.002 c 1.026432,-1.82319 2.585139,-3.32177 3.974663,-4.87118 l 7.64151,-8.52279 z"
       sodipodi:nodetypes="sccsscsccccccsscccccsssccsssscsssccccccccsccccccccccccccscccsccscccsccccccccccc" /><path
       id="path1"
       style="opacity:0.91;fill:none;fill-rule:evenodd;stroke:#000000;stroke-width:2.96662;stroke-linejoin:bevel"
       d="m 149.26076,126.43859 c -3.43443,3.85453 -16.29588,5.33031 -28.08524,-5.04482 -11.78937,-10.37514 -12.84091,-22.430716 -9.4065,-26.285272 3.43442,-3.85456 14.4754,-0.909188 26.26477,9.465962 11.78938,10.37513 14.66139,18.00957 11.22697,21.86413 z"
       sodipodi:nodetypes="sssss" /><path
       style="opacity:0.91;fill:#999999;fill-rule:evenodd;stroke:#000000;stroke-width:1.54922;stroke-linejoin:bevel;stroke-dasharray:none"
       d="m 116.29481,95.048133 c -1.25214,-0.0088 -2.68292,0.154984 -3.48992,1.2417 -0.95115,1.275347 -1.19965,2.93567 -1.12839,4.491057 -0.0947,1.80415 0.1753,3.60427 0.77246,5.30831 1.52885,4.57124 4.18666,8.75952 7.64742,12.11295 3.81981,4.06149 8.66833,7.22029 14.07326,8.68736 3.84985,1.16291 8.1507,1.37149 11.92677,-0.16861 1.4496,-0.56994 2.85377,-1.76133 2.95436,-3.41769 0.17093,-2.54743 -1.05795,-4.93109 -2.39309,-7.01287 -0.41724,-0.30365 -0.87113,0.77254 -1.29893,1.01907 -1.90072,1.97093 -3.80147,3.94183 -5.70219,5.91275 -5.55271,-1.08482 -11.01134,-3.33619 -15.18825,-7.23963 -2.8179,-2.4881 -5.32962,-5.35394 -7.15476,-8.65692 -0.34496,-0.67171 -0.83547,-1.32093 -1.00113,-2.05847 2.37599,-2.83234 4.98471,-5.476922 7.29209,-8.361661 -1.03982,-0.599329 -2.25454,-0.923236 -3.40104,-1.298106 -1.26804,-0.369944 -2.58497,-0.588303 -3.90866,-0.55924 z"
       id="path5" /><path
       style="opacity:0.5;fill:#999999;fill-rule:evenodd;stroke:#000000;stroke-width:2.19092;stroke-linejoin:bevel;stroke-dasharray:none"
       d="m 149.07875,78.554232 c -1.94196,0.0722 -4.05591,0.463898 -5.55448,1.778147 -4.81642,5.185593 -9.60215,10.409446 -14.25377,15.740538 0.0768,0.54569 0.9338,0.631542 1.28667,0.992404 5.98881,3.733349 11.20447,8.572819 15.95038,13.761179 0.37095,0.0898 0.62095,-0.6216 0.94058,-0.77246 4.42003,-4.56221 8.87609,-9.09731 13.14926,-13.796011 1.68652,-2.079058 2.56544,-4.902603 1.81761,-7.537958 -0.65914,-2.435986 -1.2601,-5.228302 -3.39052,-6.836064 -2.86788,-2.072782 -6.38318,-3.373939 -9.94573,-3.329775 z"
       id="path6" /><path
       style="opacity:0.3;fill:#000080;fill-rule:evenodd;stroke:#000000;stroke-width:2.19092;stroke-linejoin:bevel;stroke-dasharray:none"
       d="m 112.92136,114.3431 c -10.98581,12.09873 -21.854464,24.30692 -32.77327,36.46534 -1.350069,1.67842 -2.627503,3.4617 -3.540929,5.41668 -0.616034,3.77715 -1.963836,7.40311 -3.805672,10.75501 -1.57408,2.96876 -3.374311,5.82634 -5.456505,8.46565 0.0062,1.00364 -0.01192,2.01255 0.0087,3.01304 0.494566,0.56775 1.164943,1.05556 1.956144,0.80188 2.255362,-0.33151 3.871343,-2.16056 5.627775,-3.44285 4.109025,-3.38618 8.394065,-6.91756 13.659782,-8.27834 0.897613,-0.32489 1.925672,-0.34344 2.772349,-0.75981 11.462756,-9.97929 21.731056,-21.21296 32.315186,-32.09419 1.92783,-2.0442 3.97506,-4.04064 5.82608,-6.1187 -4.74362,-2.20032 -9.06775,-5.29851 -12.55165,-9.20779 -1.48498,-1.54527 -2.77148,-3.27459 -4.00184,-5.01818 l -0.0108,-0.003 z"
       id="path8" /><path
       style="fill:url(#linearGradient5);fill-rule:evenodd;stroke:none;stroke-width:3.93172;stroke-linejoin:bevel;stroke-dasharray:none"
       d="m 68.457928,176.4605 c 3.993925,-5.93709 8.771981,-12.30189 9.784269,-19.72979 1.181842,-2.91499 3.359556,-4.60028 6.156991,-7.51526 6.819848,0.34128 10.674778,2.41779 11.494185,8.75951 -1.983415,2.67311 -2.585011,5.51595 -6.206719,7.09685 -7.990923,2.11222 -14.048062,7.97382 -20.069361,12.54806 z"
       id="path9"
       sodipodi:nodetypes="ccccccc" /><path
       style="fill:#000043;fill-opacity:0.677618;fill-rule:evenodd;stroke:#000000;stroke-width:1.54922;stroke-linejoin:bevel;stroke-dasharray:none"
       d="m 122.19949,104.13112 c -0.76738,0.28212 -1.13886,1.14899 -1.7311,1.66983 -0.5753,0.35584 -0.43415,0.7962 -0.0526,1.23827 2.9865,4.62216 7.44827,8.02072 11.97642,11.02457 1.5325,0.95483 3.08527,1.96078 4.75651,2.62754 0.79128,-0.69252 1.56738,-1.45325 2.18418,-2.30148 -0.68041,-1.2989 -1.73387,-2.38122 -2.72377,-3.45529 -3.46332,-3.46632 -7.267,-6.60883 -11.35466,-9.31247 -0.95705,-0.56086 -1.91176,-1.23824 -2.99976,-1.49477 z"
       id="path11" /><path
       style="fill:#333333;fill-opacity:0.677618;fill-rule:evenodd;stroke:#000000;stroke-width:1.54922;stroke-linejoin:bevel;stroke-dasharray:none"
       d="m 126.99717,98.531258 c -0.97932,1.143571 -2.09182,2.196862 -2.95535,3.428082 1.74718,1.25303 3.69037,2.24971 5.45417,3.49594 4.44988,2.91462 8.25159,6.7615 11.24374,11.15068 0.25567,0.47223 0.56758,-0.26382 0.80552,-0.3866 0.93563,-0.99452 1.96736,-1.94235 2.8067,-3.00565 -1.34515,-1.79179 -2.9863,-3.35411 -4.56588,-4.941 -3.86486,-3.71736 -8.0953,-7.14437 -12.7889,-9.741452 z"
       id="path12" /></g></svg>
