<?xml version="1.0" encoding="UTF-8" standalone="no"?>
<!-- Created with Inkscape (http://www.inkscape.org/) -->

<svg
   width="127.99998mm"
   height="127.99998mm"
   viewBox="0 0 127.99999 127.99998"
   version="1.1"
   id="svg18"
   inkscape:version="1.3.2 (091e20ef0f, 2023-11-25, custom)"
   sodipodi:docname="free_selection_icon.svg"
   xml:space="preserve"
   xmlns:inkscape="http://www.inkscape.org/namespaces/inkscape"
   xmlns:sodipodi="http://sodipodi.sourceforge.net/DTD/sodipodi-0.dtd"
   xmlns="http://www.w3.org/2000/svg"
   xmlns:svg="http://www.w3.org/2000/svg"
   xmlns:rdf="http://www.w3.org/1999/02/22-rdf-syntax-ns#"
   xmlns:cc="http://creativecommons.org/ns#"
   xmlns:dc="http://purl.org/dc/elements/1.1/"><defs
     id="defs12" /><sodipodi:namedview
     id="base"
     pagecolor="#ffffff"
     bordercolor="#666666"
     borderopacity="1.0"
     inkscape:pageopacity="0.0"
     inkscape:pageshadow="2"
     inkscape:zoom="0.73"
     inkscape:cx="307.53425"
     inkscape:cy="343.83562"
     inkscape:document-units="mm"
     inkscape:current-layer="layer1"
     showgrid="false"
     inkscape:pagecheckerboard="true"
     inkscape:window-width="1920"
     inkscape:window-height="1020"
     inkscape:window-x="2160"
     inkscape:window-y="1434"
     inkscape:window-maximized="0"
     inkscape:showpageshadow="2"
     inkscape:deskcolor="#d1d1d1" /><metadata
     id="metadata15"><rdf:RDF><cc:Work
         rdf:about=""><dc:format>image/svg+xml</dc:format><dc:type
           rdf:resource="http://purl.org/dc/dcmitype/StillImage" /></cc:Work></rdf:RDF></metadata><g
     inkscape:label="Layer 1"
     inkscape:groupmode="layer"
     id="layer1"
     transform="translate(-50.693984,-64.301116)"><rect
       style="fill:#f9f9f9;fill-rule:evenodd;stroke:#000000;stroke-width:2.18474;stroke-dasharray:none;stroke-dashoffset:0;-inkscape-stroke:none"
       id="rect2"
       width="125.81525"
       height="125.81525"
       x="51.786354"
       y="65.393486"
       ry="31.20808" /><path
       id="path1"
       style="opacity:1;fill:#ff0000;fill-opacity:0.560935;fill-rule:evenodd;stroke:#000000;stroke-width:6.48418;stroke-dasharray:17.4578, 4.36444;stroke-dashoffset:0"
       d="m 129.37305,70.222656 c -5.57113,0.03661 -11.07055,1.016321 -16.50415,2.165349 -3.7845,0.812885 -7.58288,1.588575 -11.35439,2.461294 -5.021734,1.405237 -9.77885,3.650293 -14.281578,6.259324 -7.811216,4.638413 -14.76709,10.819389 -19.998898,18.257891 -1.871877,3.467796 -1.535031,7.531316 -1.674116,11.333486 -0.006,5.50073 0.403713,11.11094 2.280238,16.31873 1.264498,2.40958 3.926511,3.47972 6.289131,4.49411 2.278026,1.1535 4.715043,2.34087 6.261338,4.43833 3.770862,4.2196 9.959776,6.08825 15.426465,4.64168 0.852725,-0.17634 1.701276,-0.37694 2.563769,-0.50105 0.566846,0.52014 1.553557,1.14631 1.100975,2.04774 -0.790635,2.77886 -1.268265,5.65208 -2.27754,8.35586 -2.349905,2.82909 -4.385345,5.96369 -7.212385,8.35817 -1.922475,2.17628 -2.084602,5.21455 -2.697565,7.919 -0.472028,2.66223 -0.86599,5.51425 0.05053,8.12265 1.627727,2.9939 4.873677,4.44658 7.621858,6.19544 2.870206,1.69444 5.728966,3.55302 8.978576,4.42887 6.40703,0.11763 12.83466,0.2817 19.22788,-0.18831 3.08255,-0.74014 5.76983,-2.50905 8.54267,-3.96933 1.77884,-1.09613 3.68243,-2.30274 4.681,-4.20132 1.221,-3.26327 1.81991,-6.71914 3.21124,-9.92504 0.46478,-1.33366 0.92815,-2.66782 1.39385,-4.00115 -5.64388,-10e-6 -11.28776,0 -16.93164,0 -1.74098,2.43938 -3.48175,4.87891 -5.22265,7.31835 -3.43191,0.20464 -7.09499,0.91033 -10.33594,-0.62695 -0.51339,-0.26156 -0.98669,-0.59565 -1.41797,-0.97656 3.19602,-5.78342 6.87319,-11.29575 9.85352,-17.19531 1.16834,-4.876 1.27919,-9.92244 1.25781,-14.91407 6.0257,-1.00453 12.07566,-1.86232 18.11523,-2.77148 5.03329,-1.77825 8.93547,-5.57323 13.00884,-8.85396 4.29891,-3.73782 8.55577,-7.69085 11.53999,-12.59721 1.15598,-3.44633 0.50492,-7.1382 1.02768,-10.68033 0.17088,-3.343387 0.6867,-6.728389 0.11295,-10.057954 -3.88057,-8.855436 -11.59118,-15.938812 -20.75153,-19.036382 -3.5898,-1.458573 -7.36168,-2.829433 -11.30081,-2.622175 -0.1948,7.69e-4 -0.38959,0.0015 -0.58438,0.0023 z m 1.77539,15.890625 c 5.48422,1.206164 10.24235,5.484266 11.92279,10.878725 0.27085,2.543019 -0.35451,5.069104 -0.36029,7.611514 -0.0935,1.16514 0.0129,2.41601 -0.44959,3.50388 -3.59404,4.26245 -7.84895,8.02211 -12.58166,10.99807 -1.87832,1.14005 -4.13383,1.10563 -6.23145,1.48568 -4.86953,0.64827 -9.69201,1.58201 -14.54946,2.3132 -0.68692,0.28704 -1.18395,0.003 -1.58247,-0.57609 -2.31062,-2.38731 -4.62037,-4.77547 -6.93154,-7.16224 -5.367843,0 -10.735681,0 -16.10352,0 -0.09295,-3.96389 -0.169505,-7.9281 -0.232422,-11.89258 3.753698,-5.029667 9.288889,-8.219554 14.849319,-10.889821 2.826263,-1.315211 5.492613,-3.076804 8.524693,-3.894541 5.88277,-0.778621 11.79574,-1.385633 17.70187,-2.057148 1.99778,-0.1701 4.02208,-0.479183 6.02373,-0.318649 z" /></g></svg>
