<?xml version="1.0" encoding="UTF-8" standalone="no"?>
<!-- Created with Inkscape (http://www.inkscape.org/) -->

<svg
   width="127.99998mm"
   height="127.99998mm"
   viewBox="0 0 127.99999 127.99998"
   version="1.1"
   id="svg18"
   inkscape:version="1.3.2 (091e20ef0f, 2023-11-25, custom)"
   sodipodi:docname="free_selection_icon.svg"
   xml:space="preserve"
   xmlns:inkscape="http://www.inkscape.org/namespaces/inkscape"
   xmlns:sodipodi="http://sodipodi.sourceforge.net/DTD/sodipodi-0.dtd"
   xmlns="http://www.w3.org/2000/svg"
   xmlns:svg="http://www.w3.org/2000/svg"
   xmlns:rdf="http://www.w3.org/1999/02/22-rdf-syntax-ns#"
   xmlns:cc="http://creativecommons.org/ns#"
   xmlns:dc="http://purl.org/dc/elements/1.1/"><defs
     id="defs12" /><sodipodi:namedview
     id="base"
     pagecolor="#ffffff"
     bordercolor="#666666"
     borderopacity="1.0"
     inkscape:pageopacity="0.0"
     inkscape:pageshadow="2"
     inkscape:zoom="0.42426407"
     inkscape:cx="307.59145"
     inkscape:cy="309.94847"
     inkscape:document-units="mm"
     inkscape:current-layer="layer1"
     showgrid="false"
     inkscape:pagecheckerboard="true"
     inkscape:window-width="1728"
     inkscape:window-height="899"
     inkscape:window-x="2160"
     inkscape:window-y="1434"
     inkscape:window-maximized="1"
     inkscape:showpageshadow="2"
     inkscape:deskcolor="#d1d1d1" /><metadata
     id="metadata15"><rdf:RDF><cc:Work
         rdf:about=""><dc:format>image/svg+xml</dc:format><dc:type
           rdf:resource="http://purl.org/dc/dcmitype/StillImage" /></cc:Work></rdf:RDF></metadata><g
     inkscape:label="Layer 1"
     inkscape:groupmode="layer"
     id="layer1"
     transform="translate(-50.693984,-64.301116)"><rect
       style="fill:#f9f9f9;fill-rule:evenodd;stroke:#000000;stroke-width:2.18474;stroke-dasharray:none;stroke-dashoffset:0;-inkscape-stroke:none"
       id="rect2"
       width="125.81525"
       height="125.81525"
       x="51.786354"
       y="65.393486"
       ry="31.20808" /><path
       id="path1"
       style="opacity:1;fill:#ff0000;fill-opacity:0.560935;fill-rule:evenodd;stroke:#000000;stroke-width:4.36444;stroke-dasharray:17.4578, 4.36444;stroke-dashoffset:0"
       d="m 135.18056,75.198658 c -11.56146,-1.949963 -21.11973,2.109646 -31.52845,3.617883 -12.481025,3.809803 -23.450852,10.641986 -32.045228,22.225069 -2.705055,0.38644 -1.794446,24.54848 1.034052,24.80893 0.420489,0.0387 4.276246,2.03693 7.931373,3.77697 l -0.17884,0.3582 1.385494,0.21628 c 4.901784,8.54729 12.538684,6.1415 12.569792,5.98596 0,0 4.151765,-0.67415 5.501427,-0.89525 l 4.83546,4.51313 -3.10113,12.40446 -7.752524,9.82012 c -0.860596,-2.58178 -2.983313,8.10672 -2.584351,10.85417 0.222823,1.53448 12.921235,8.26982 12.921235,8.26982 h 18.08994 c 0,0 10.3374,-4.65167 10.3374,-6.20224 0,-1.55056 2.06758,-7.23627 2.06758,-7.23627 h -8.26982 l -5.1687,7.23627 c -5.43379,-0.13326 -10.52055,2.16272 -16.53963,-2.06758 0,0 -3.10069,-2.58407 -2.58384,-4.13465 0.51686,-1.55057 9.27861,-16.04302 10.2461,-17.36035 1.13878,-1.55057 2.0117,-16.23568 1.12433,-16.23568 l -1.73538,-1.79517 c 10.35616,-1.67354 21.09495,-3.64571 21.89289,-3.37302 3.85752,1.31825 25.49106,-18.88184 23.25864,-20.15752 l 1.03353,-16.022836 -2.06707,-4.134643 C 147.48248,77.935684 141.77353,78.629874 135.18056,75.198658 Z m -5.38861,6.13569 c 7.35025,0.940399 12.87893,4.613137 16.33844,11.389651 l 1.634,3.254469 -0.81675,12.609812 c 2.23837,0.63952 -14.8546,16.52175 -18.38106,15.8643 -0.84773,-0.15805 -13.29247,2.00287 -22.11801,3.4354 l -7.965169,-8.23967 H 85.562167 l -1.622042,3.24409 c -1.228109,-0.58362 -3.401536,-1.60911 -3.571613,-1.69379 -0.816922,-0.40679 -0.81726,-19.52535 -0.81726,-19.52535 7.406665,-10.487503 16.759367,-12.217842 25.324668,-17.4915 z"
       sodipodi:nodetypes="cccsccccccccsccsccccssccsccccccccscccccccc" /></g></svg>
