<?xml version="1.0" encoding="UTF-8" standalone="no"?>
<!-- Created with Inkscape (http://www.inkscape.org/) -->

<svg
   version="1.1"
   id="svg1"
   width="127.99998"
   height="127.99998"
   viewBox="0 0 127.99999 127.99999"
   sodipodi:docname="gen_area_icon.svg"
   xml:space="preserve"
   inkscape:version="1.3.2 (091e20ef0f, 2023-11-25, custom)"
   xmlns:inkscape="http://www.inkscape.org/namespaces/inkscape"
   xmlns:sodipodi="http://sodipodi.sourceforge.net/DTD/sodipodi-0.dtd"
   xmlns="http://www.w3.org/2000/svg"
   xmlns:svg="http://www.w3.org/2000/svg"><defs
     id="defs1" /><sodipodi:namedview
     id="namedview1"
     pagecolor="#ffffff"
     bordercolor="#666666"
     borderopacity="1.0"
     inkscape:showpageshadow="2"
     inkscape:pageopacity="0.0"
     inkscape:pagecheckerboard="0"
     inkscape:deskcolor="#d1d1d1"
     inkscape:zoom="3.2"
     inkscape:cx="42.34375"
     inkscape:cy="94.6875"
     inkscape:window-width="1280"
     inkscape:window-height="780"
     inkscape:window-x="0"
     inkscape:window-y="0"
     inkscape:window-maximized="1"
     inkscape:current-layer="g1" /><g
     inkscape:groupmode="layer"
     inkscape:label="Image"
     id="g1"
     transform="translate(-241.54189,-375.33994)"><rect
       style="fill:#f2f2f2;fill-rule:evenodd;stroke:#000000;stroke-width:2.18474;stroke-dasharray:none;stroke-dashoffset:0;-inkscape-stroke:none"
       id="rect2"
       width="125.81525"
       height="125.81525"
       x="242.63426"
       y="-502.24756"
       ry="31.208075"
       transform="scale(1,-1)" /><path
       style="font-variation-settings:normal;vector-effect:none;fill:#ffffff;fill-opacity:1;stroke:#000000;stroke-width:0.91715;stroke-linecap:butt;stroke-linejoin:miter;stroke-miterlimit:4;stroke-dasharray:none;stroke-dashoffset:0;stroke-opacity:1;-inkscape-stroke:none"
       d="m 266.69733,489.87003 -3.38608,-3.98185 -4.11585,-4.28943 -3.52085,-5.66794 v -34.84327 -36.84326 l 0.54252,-4.38964 5.50011,-6.1519 5.41187,-5.6498 5.33744,-1.0204 h 34.21356 34.21358 l 6.63942,5.12083 4.01978,3.95398 3.05524,1.69101 1.7191,5.5067 v 37.78248 33.24808 l -3.95197,7.80598 -4.10313,3.50085 -3.13354,2.66668 -4.2449,3.05523 h -34.21358 -34.21356 z m 50.96587,-5.26767 c 0.0376,-0.0362 -0.15201,-2.5215 -0.4214,-5.52306 l -0.48978,-5.45738 h -2.09739 -2.09739 l -0.36559,-3.67324 -0.36559,-3.67323 h -2.00333 c -2.14879,0 -2.51321,-0.35505 -2.51271,-2.44818 2.4e-4,-1.08145 -0.0711,-1.11516 -2.06751,-0.97677 l -2.06778,0.14335 -0.29024,-1.93546 -0.29024,-1.93548 -2.01148,0.26684 -2.01148,0.26683 -0.27101,-2.88259 c -0.14905,-1.58543 -0.30812,-3.26042 -0.35349,-3.72219 -0.0699,-0.71122 -0.40346,-0.84506 -2.18149,-0.87528 l -2.099,-0.0356 -0.25696,-2.06956 c -0.14134,-1.13827 -0.39444,-3.7197 -0.56244,-5.73655 l -0.30547,-3.66699 1.19214,-0.006 c 0.65568,-0.003 1.59336,-0.11336 2.08374,-0.24502 0.79077,-0.21221 0.92519,-0.0154 1.18841,1.7399 l 0.29681,1.97918 3.63927,-0.27963 c 2.0016,-0.15382 4.77271,-0.38867 6.15805,-0.52194 l 2.51879,-0.24229 -0.14255,-1.78313 c -0.12573,-1.57248 -0.0265,-1.81423 0.83961,-2.04611 0.54018,-0.14463 1.50387,-0.26555 2.14155,-0.2687 1.09455,-0.005 1.14827,-0.0938 0.96031,-1.57997 -0.76029,-6.01182 -0.76993,-5.89218 0.49427,-6.13179 0.64031,-0.12134 2.86437,-0.33699 4.94238,-0.47915 2.07801,-0.14218 4.41544,-0.36763 5.19432,-0.50099 l 1.41613,-0.24246 -0.23933,-2.02081 c -0.19639,-1.65817 -0.12972,-1.97876 0.37118,-1.78652 0.33576,0.1289 1.29499,0.10592 2.1316,-0.051 l 1.52109,-0.2853 -0.24744,-2.5944 c -0.13606,-1.42693 -0.37448,-3.96723 -0.52972,-5.64512 l -0.28227,-3.05071 -1.98305,0.26305 c -1.83215,0.24306 -2.00323,0.1877 -2.24821,-0.72747 -0.14584,-0.5448 -0.26774,-1.42346 -0.27089,-1.95259 -0.006,-0.94151 -0.0753,-0.95666 -3.25916,-0.70938 -1.78939,0.13897 -3.64231,0.33027 -4.11758,0.42513 -0.73911,0.1475 -0.92599,-0.12945 -1.29162,-1.91436 l -0.42749,-2.08681 h 2.03945 c 1.24612,0 2.11644,-0.20413 2.23738,-0.52476 0.10882,-0.2886 -0.0388,-2.87045 -0.32803,-5.73744 l -0.52595,-5.2127 -2.099,-0.0348 -2.09899,-0.0348 -0.1311,-1.82596 c -0.12932,-1.80098 -0.14943,-1.82283 -1.4693,-1.59744 -0.73599,0.12574 -4.50401,0.4616 -8.37336,0.74649 l -7.03519,0.51798 0.26647,3.38835 c 0.14655,1.86359 0.43152,3.56781 0.63327,3.78716 0.72135,0.78431 0.33339,0.9269 -1.99625,0.7337 l -2.36305,-0.19596 0.29926,3.99164 0.29927,3.99165 -6.25006,0.52948 -6.25005,0.52949 0.0228,1.93728 0.0228,1.93726 -1.995,0.12794 -1.995,0.12793 0.23882,2.1809 c 0.13138,1.1995 0.36795,3.69218 0.52577,5.53929 l 0.28693,3.35839 2.30883,-0.0419 2.30885,-0.042 -0.14723,1.82612 -0.14721,1.82611 h 2.35116 2.35117 l 0.004,1.57423 c 10e-4,0.86584 0.12024,2.54502 0.26285,3.73152 l 0.2592,2.15726 -2.19028,0.30125 c -2.17693,0.2994 -2.18892,0.30928 -1.96648,1.62091 0.12312,0.72582 0.45567,4.12705 0.73908,7.55829 l 0.51529,6.23861 2.06345,-0.19827 c 1.30861,-0.12573 2.11653,-0.0276 2.20854,0.26826 0.0798,0.25661 0.26885,1.93059 0.4201,3.71998 l 0.27503,3.25343 h 2.01422 c 2.1304,0 2.51138,0.42437 2.5262,2.81387 0.006,0.85866 0.15126,0.90753 2.04151,0.68365 l 2.03579,-0.2411 0.26849,1.62523 c 0.14767,0.89387 0.27345,2.38087 0.27953,3.30442 0.016,2.42111 0.41603,2.83645 2.56736,2.66518 l 1.83871,-0.14639 0.12904,1.78415 0.12904,1.78414 h 2.23061 2.2306 l 0.29375,3.75489 0.29373,3.75489 2.00698,-0.2377 c 1.85005,-0.2191 2.02781,-0.15984 2.27347,0.75795 0.14656,0.5476 0.26907,1.44214 0.27222,1.98784 0.006,0.94501 0.10056,0.9781 1.99977,0.69538 1.09672,-0.16325 2.02482,-0.32638 2.06243,-0.36251 z"
       id="path26"
       sodipodi:nodetypes="ccccccccccccccccccccccccccscccccssscccccssccsscccsccsccscccsscsccccscsscssscscccccscscsssccccccccccsccccccccccscscssscscscssscccccccsscscc" /><path
       id="path8"
       style="fill:#000000;stroke:#000000;stroke-width:1.87139"
       d="m 265.47158,384.06942 v 1.70703 1.70313 h -1.67578 -1.67383 v 1.70312 1.70703 h -1.67383 -1.67773 v 1.70313 1.70312 h -1.67383 -1.67383 v 1.70704 1.70312 h -1.67578 -1.67383 v 22.04688 18.60937 1.95508 18.60937 22.04688 h 1.67383 1.67578 v 1.70312 1.70703 h 1.67383 1.67383 v 1.70313 1.70312 h 1.67773 1.67383 v 1.70704 1.70312 h 1.67383 1.67578 v 1.70313 1.70703 h 38.02734 0.5332 41.58008 v -1.70703 -1.70313 h 1.67578 1.67383 v -1.70312 -1.70704 h 1.67383 1.67773 v -1.70312 -1.70313 h 1.67383 1.67383 v -1.70703 -1.70312 h 1.67578 1.67383 v -22.04688 -20.56445 -18.60937 -22.04688 h -1.67383 -1.67578 v -1.70312 -1.70704 h -1.67383 -1.67383 v -1.70312 -1.70313 h -1.67773 -1.67383 v -1.70703 -1.70312 h -1.67383 -1.67578 v -1.70313 -1.70703 h -41.58008 -0.5332 z m 8.69922,3.41016 h 29.32812 0.5332 32.88086 v 8.52344 10.51953 h 10.375 8.37305 v 13.23047 18.60937 20.56445 13.23047 h -8.37305 -10.375 v 10.51953 8.52344 h -32.88086 -0.5332 -29.32812 v -8.52344 -10.51953 h -10.375 -8.37305 v -13.23047 -20.56445 -18.60937 -13.23047 h 8.37305 10.375 v -10.51953 z m -8.69922,3.41015 h 1.67383 3.67382 v 5.11329 7.11328 h -7.02343 -5.02539 v -3.70703 -1.70313 h 1.67773 1.67383 v -1.70312 -1.70704 h 1.67383 1.67578 v -1.70312 z m 74.79297,0 h 3.67382 1.67383 v 1.70313 1.70312 h 1.67578 1.67383 v 1.70704 1.70312 h 1.67383 1.67773 v 1.70313 3.70703 h -5.02539 -7.02343 v -7.11328 z m -81.49414,84.67383 h 5.02539 7.02343 v 7.11328 5.11328 h -3.67382 -1.67383 v -1.70312 -1.70313 h -1.67578 -1.67383 v -1.70703 -1.70312 h -1.67383 -1.67773 v -1.70313 z m 81.49414,0 h 7.02343 5.02539 v 3.70703 1.70313 h -1.67773 -1.67383 v 1.70312 1.70703 h -1.67383 -1.67578 v 1.70313 1.70312 h -1.67383 -3.67382 v -5.11328 z"
       sodipodi:nodetypes="ccccccccccccccccccccccccccccccccccccccccccccccccccccccccccccccccccccccccccccccccccccccccccccccccccccccccccccccccccccccccccccccccccccccccccccccccccccccccccccccccccccccccccccccccccc" /><path
       style="fill:#65001c;stroke-width:1.02896"
       d="m 296.9506,442.32594 -0.17598,-1.90975 -2.10059,0.17714 -2.10063,0.17712 -0.52793,-5.72936 -0.52793,-5.72937 -4.20122,0.35428 -4.20123,0.35428 -0.17598,-1.90977 -0.17598,-1.90979 -2.10061,0.17714 -2.10061,0.17714 -0.52792,-5.72934 -0.52793,-5.72936 2.10061,-0.17713 2.1006,-0.17713 -0.17598,-1.90978 -0.17597,-1.90979 6.30184,-0.53141 6.30186,-0.53141 -0.35194,-3.81957 -0.35197,-3.81956 2.10061,-0.17713 2.10064,-0.17714 -0.35196,-3.81958 -0.35195,-3.81957 8.40244,-0.70855 8.40245,-0.70854 0.17598,1.90981 0.17598,1.90976 2.10059,-0.17714 2.10063,-0.17713 0.52793,5.72935 0.52792,5.72935 -2.10061,0.17714 -2.10061,0.17714 0.17597,1.90979 0.17597,1.90976 4.20123,-0.35426 4.20123,-0.35427 0.17598,1.90979 0.17596,1.90978 2.10061,-0.17713 2.10063,-0.17715 0.52793,5.72934 0.52792,5.72935 -2.10063,0.17714 -2.10061,0.17712 0.17598,1.90979 0.17598,1.90978 -6.30185,0.53143 -6.30184,0.53141 0.35195,3.81957 0.35196,3.81958 -2.1006,0.17713 -2.10061,0.17713 0.17596,1.90976 0.17598,1.90978 -6.30184,0.5314 -6.30183,0.53141 z m 8.0505,-4.52811 -0.17596,-1.90977 2.10059,-0.17714 2.10061,-0.17714 -0.52791,-5.72936 -0.52794,-5.72932 2.10063,-0.17715 2.10059,-0.17713 0.17598,1.90979 0.17598,1.90977 6.30184,-0.53142 6.30183,-0.53141 -0.52791,-5.72933 -0.52794,-5.72934 -6.30184,0.5314 -6.30184,0.53141 0.17597,1.90979 0.17598,1.90977 -2.1006,0.17714 -2.10062,0.17714 -0.17596,-1.90977 -0.17598,-1.90979 -2.10062,0.17713 -2.10061,0.17715 0.17597,1.90979 0.17598,1.90976 2.10061,-0.17713 2.10061,-0.17714 0.17598,1.90978 0.17597,1.90979 -4.20123,0.35426 -4.20119,0.35428 0.35194,3.81955 0.35195,3.81958 -2.10063,0.17713 -2.1006,0.17714 0.17596,1.9098 0.17598,1.90976 2.10061,-0.17713 2.10064,-0.17713 0.17597,1.90977 0.17597,1.90981 2.10059,-0.17715 2.10063,-0.17713 z m -9.81026,-14.56971 -0.17597,-1.90978 2.10061,-0.17713 2.10063,-0.17715 -0.35195,-3.81956 -0.35194,-3.81957 -6.30186,0.53143 -6.30184,0.5314 0.17597,1.90979 0.17597,1.90977 -2.1006,0.17714 -2.10064,0.17713 0.35196,3.81956 0.35195,3.81957 6.30185,-0.5314 6.30184,-0.53141 z m 15.74903,-12.87577 -0.17597,-1.90979 2.10062,-0.17713 2.10063,-0.17714 -0.35196,-3.81956 -0.35195,-3.81957 -2.10061,0.17714 -2.10063,0.17714 -0.17597,-1.90979 -0.17598,-1.9098 -4.20122,0.35427 -4.20121,0.35427 0.17597,1.90981 0.17597,1.90977 -2.10062,0.17715 -2.10058,0.17713 0.35194,3.81957 0.35196,3.81956 2.10059,-0.17714 2.10062,-0.17714 0.17598,1.90979 0.17596,1.90978 4.20124,-0.35427 4.2012,-0.35428 z"
       id="path10" /><path
       style="fill:#013c08;stroke-width:1.02896"
       d="m 313.42573,483.27835 -0.17598,-1.90978 -2.10061,0.17713 -2.10059,0.17715 -0.35197,-3.81959 -0.35196,-3.81955 -2.10061,0.17712 -2.10058,0.17713 -0.17598,-1.90978 -0.17597,-1.90976 -2.10064,0.17713 -2.10061,0.17714 -0.35194,-3.81958 -0.35195,-3.81955 -2.10061,0.17713 -2.10063,0.17713 -0.17596,-1.90979 -0.17598,-1.90979 -2.10064,0.17715 -2.10059,0.17713 -0.35196,-3.81955 -0.35194,-3.81955 -2.10061,0.17712 -2.10064,0.17713 -0.70389,-7.63914 -0.70391,-7.6391 2.10064,-0.17715 2.10061,-0.17713 -0.35196,-3.81957 -0.35195,-3.81958 2.10061,-0.17713 2.10061,-0.17715 1.05586,11.45873 1.05585,11.45869 2.10063,-0.17715 2.10059,-0.17713 0.35197,3.81957 0.35194,3.81955 2.10061,-0.17713 2.10063,-0.17714 0.17599,1.90979 0.17597,1.90979 2.10059,-0.17713 2.10061,-0.17715 0.17597,1.90976 0.17598,1.90979 2.1006,-0.17713 2.10063,-0.17713 0.35194,3.81958 0.35196,3.81955 2.10061,-0.17715 2.10061,-0.17713 0.52792,5.72934 0.52793,5.72937 -2.1006,0.17713 -2.10062,0.17715 z"
       id="path9" /><path
       id="path14"
       style="fill:#ff00ff;fill-opacity:1;fill-rule:evenodd;stroke:none;stroke-width:1.60552;stroke-linejoin:bevel;stroke-dasharray:none;stroke-dashoffset:0"
       d="m 311.46782,416.08169 0.35195,3.81956 -4.20122,0.35428 0.35196,3.81957 -8.40243,0.70854 0.7039,7.63913 -4.20125,0.35427 0.35195,3.81956 4.20125,-0.35426 0.35194,3.81958 4.20122,-0.35428 -0.35195,-3.81958 4.20123,-0.35428 -1.05586,-11.45868 4.20122,-0.35428 0.35194,3.81956 12.6037,-1.06283 c -0.38091,-3.75728 -0.59157,-7.70913 -1.05585,-11.45867 -13.38432,1.23034 -8.55213,0.61333 -12.6037,1.06281 z"
       sodipodi:nodetypes="ccccccccccccccccccc" /><path
       style="fill:#ff00ff;fill-opacity:1;fill-rule:evenodd;stroke:none;stroke-width:4.82806e-09;stroke-linejoin:bevel;stroke-dasharray:none;stroke-dashoffset:0"
       d="m 282.76316,426.20072 12.60367,-1.06281 -0.35195,-3.81957 4.20125,-0.35428 c 0,0 -0.7039,-7.63913 -0.7039,-7.63913 l -12.6037,1.06283 0.35196,3.81956 -4.20122,0.35427 z"
       id="path16" /><path
       style="fill:#ff00ff;fill-opacity:1;fill-rule:evenodd;stroke:none;stroke-width:4.82806e-09;stroke-linejoin:bevel;stroke-dasharray:none;stroke-dashoffset:0"
       d="m 301.30564,397.69239 8.40242,-0.70854 0.35196,3.81959 4.20123,-0.35428 0.70391,7.63912 -4.20123,0.35428 0.35195,3.81956 -8.40245,0.70855 -0.35195,-3.81957 -4.2012,0.35427 -0.70391,-7.63912 4.20121,-0.35428 z"
       id="path17" /><path
       style="fill:#ffff00;fill-opacity:1;fill-rule:evenodd;stroke:#ffff00;stroke-width:3.04914;stroke-linejoin:bevel;stroke-dasharray:none;stroke-dashoffset:0"
       d="m 303.06538,416.79025 0.35195,3.81955 c 1.37102,-0.14723 2.91382,-0.13848 4.20122,-0.35427 l -0.35194,-3.81956 z"
       id="path15"
       sodipodi:nodetypes="ccccc" /></g></svg>
