<?xml version="1.0" encoding="UTF-8" standalone="no"?>
<!-- Created with Inkscape (http://www.inkscape.org/) -->

<svg
   width="127.99998mm"
   height="127.99998mm"
   viewBox="0 0 127.99998 127.99998"
   version="1.1"
   id="svg18"
   inkscape:version="1.3.2 (091e20ef0f, 2023-11-25, custom)"
   sodipodi:docname="gen_area_icon.svg"
   xml:space="preserve"
   xmlns:inkscape="http://www.inkscape.org/namespaces/inkscape"
   xmlns:sodipodi="http://sodipodi.sourceforge.net/DTD/sodipodi-0.dtd"
   xmlns="http://www.w3.org/2000/svg"
   xmlns:svg="http://www.w3.org/2000/svg"
   xmlns:rdf="http://www.w3.org/1999/02/22-rdf-syntax-ns#"
   xmlns:cc="http://creativecommons.org/ns#"
   xmlns:dc="http://purl.org/dc/elements/1.1/"><defs
     id="defs12" /><sodipodi:namedview
     id="base"
     pagecolor="#ffffff"
     bordercolor="#666666"
     borderopacity="1.0"
     inkscape:pageopacity="0.0"
     inkscape:pageshadow="2"
     inkscape:zoom="1.08"
     inkscape:cx="229.16667"
     inkscape:cy="341.66667"
     inkscape:document-units="mm"
     inkscape:current-layer="layer1"
     showgrid="false"
     inkscape:pagecheckerboard="true"
     inkscape:window-width="1920"
     inkscape:window-height="1020"
     inkscape:window-x="2160"
     inkscape:window-y="1434"
     inkscape:window-maximized="0"
     inkscape:showpageshadow="2"
     inkscape:deskcolor="#d1d1d1" /><metadata
     id="metadata15"><rdf:RDF><cc:Work
         rdf:about=""><dc:format>image/svg+xml</dc:format><dc:type
           rdf:resource="http://purl.org/dc/dcmitype/StillImage" /></cc:Work></rdf:RDF></metadata><g
     inkscape:label="Layer 1"
     inkscape:groupmode="layer"
     id="layer1"
     transform="translate(-50.693984,-64.301116)"><rect
       style="fill:#cccccc;fill-rule:evenodd;stroke:#000000;stroke-width:2.18474;stroke-dasharray:none;stroke-dashoffset:0;-inkscape-stroke:none"
       id="rect2"
       width="125.81525"
       height="125.81525"
       x="51.786354"
       y="65.393486"
       ry="31.20808" /><path
       id="path1"
       style="fill:#000000;fill-rule:evenodd;stroke:#ffffff;stroke-width:1.69063;stroke-linejoin:bevel;stroke-dasharray:none;stroke-dashoffset:0"
       d="M 114.69421,68.816155 A 59.543979,60.596054 0 0 0 55.149754,129.41269 59.543979,60.596054 0 0 0 114.69421,190.00871 59.543979,60.596054 0 0 0 174.23815,129.41269 59.543979,60.596054 0 0 0 114.69421,68.816155 Z M 98.557722,88.297451 h 32.272458 v 3.93523 h 20.39698 V 112.9911 h 3.86793 v 32.84266 h -3.86793 v 20.7579 h -20.39698 v 3.93575 H 98.557722 v -3.93575 H 78.15972 v -20.7579 H 74.292814 V 112.9911 H 78.15972 V 92.232681 h 20.398002 z" /><path
       id="path5"
       style="fill:#000000;fill-opacity:1;fill-rule:evenodd;stroke:#ffffff;stroke-width:1.7446;stroke-linejoin:bevel;stroke-dasharray:none;stroke-dashoffset:0"
       d="m 114.69421,80.935565 a 47.635181,48.476845 0 0 0 -19.624017,4.372993 47.585181,48.425958 0 0 0 -1.670884,0.902922 47.635181,48.476845 0 0 0 -4.149281,2.305112 47.585181,48.425958 0 0 0 -2.403229,1.772766 47.635181,48.476845 0 0 0 -2.634311,1.943323 h 0.0838 a 47.585181,48.425958 0 0 0 -6.136566,6.244992 v -0.08528 a 47.635181,48.476845 0 0 0 -1.909583,2.680857 47.585181,48.425958 0 0 0 -1.741987,2.4457 47.635181,48.476845 0 0 0 -2.26509,4.22258 47.585181,48.425958 0 0 0 -0.887245,1.70042 47.635181,48.476845 0 0 0 -4.297069,19.97074 47.635181,48.476845 0 0 0 4.297577,19.97229 47.585181,48.425958 0 0 0 0.880134,1.68594 47.635181,48.476845 0 0 0 2.271693,4.23499 47.585181,48.425958 0 0 0 1.741987,2.4457 47.635181,48.476845 0 0 0 1.909583,2.68086 v -0.0853 a 47.585181,48.425958 0 0 0 6.136058,6.24448 h -0.0838 a 47.635181,48.476845 0 0 0 2.639389,1.94746 47.585181,48.425958 0 0 0 2.396628,1.76812 47.635181,48.476845 0 0 0 4.169594,2.31648 47.585181,48.425958 0 0 0 1.650571,0.89206 47.635181,48.476845 0 0 0 19.626048,4.37351 47.635181,48.476845 0 0 0 19.62705,-4.37402 47.585181,48.425958 0 0 0 1.63737,-0.88484 47.635181,48.476845 0 0 0 4.18127,-2.32319 47.585181,48.425958 0 0 0 2.39663,-1.76812 47.635181,48.476845 0 0 0 2.63939,-1.94746 h -0.0838 a 47.585181,48.425958 0 0 0 6.13504,-6.24293 v 0.0853 a 47.635181,48.476845 0 0 0 1.92127,-2.69688 47.585181,48.425958 0 0 0 1.72929,-2.42812 47.635181,48.476845 0 0 0 2.27829,-4.24637 47.585181,48.425958 0 0 0 0.87557,-1.67767 47.635181,48.476845 0 0 0 4.29757,-19.97229 47.635181,48.476845 0 0 0 -0.0767,-1.11432 47.585181,48.425958 0 0 0 -0.31234,-4.53631 47.635181,48.476845 0 0 0 -0.28186,-2.07666 47.585181,48.425958 0 0 0 -0.96801,-4.63865 47.635181,48.476845 0 0 0 -0.45809,-1.68439 47.585181,48.425958 0 0 0 -1.71253,-4.79577 47.635181,48.476845 0 0 0 -0.68613,-1.5774 47.585181,48.425958 0 0 0 -2.37428,-4.55286 47.635181,48.476845 0 0 0 -0.86541,-1.39081 47.585181,48.425958 0 0 0 -2.90246,-4.076333 47.635181,48.476845 0 0 0 -0.4642,-0.651737 v 0.07753 a 47.585181,48.425958 0 0 0 -6.05632,-6.162298 h 0.0767 a 47.635181,48.476845 0 0 0 -0.64499,-0.475494 47.585181,48.425958 0 0 0 -4.002,-2.951164 47.635181,48.476845 0 0 0 -1.36363,-0.87863 47.585181,48.425958 0 0 0 -4.47989,-2.418817 47.635181,48.476845 0 0 0 -1.53986,-0.694634 47.585181,48.425958 0 0 0 -4.71911,-1.744857 47.635181,48.476845 0 0 0 -1.65768,-0.466707 47.585181,48.425958 0 0 0 -4.55405,-0.984066 47.635181,48.476845 0 0 0 -2.0401,-0.286846 47.585181,48.425958 0 0 0 -4.45146,-0.317342 47.635181,48.476845 0 0 0 -1.10055,-0.07856 z" /><path
       id="path3"
       style="color:#000000;fill:#ffffff;fill-rule:evenodd;stroke-width:0.991428;stroke-linejoin:bevel;-inkscape-stroke:none"
       d="m 98.557726,88.297451 v 3.935226 H 78.159716 V 112.9911 h -3.866902 v 32.84266 h 3.866902 v 20.7579 h 20.39801 v 3.93575 h 32.272454 v -3.93575 h 20.39698 v -20.7579 h 3.86793 V 112.9911 h -3.86793 V 92.232677 h -20.39698 v -3.935226 z" /><path
       style="fill:#000000;stroke-width:1.21000409;stroke:#000000"
       d="m 86.538313,163.57582 v -1.10205 h -1.082907 -1.082913 v -1.10204 -1.10204 h -1.082907 -1.082913 v -1.10205 -1.10204 h -1.082907 -1.082913 v -27.55109 -27.5511 h 1.082913 1.082907 v -1.10204 -1.10205 h 1.082913 1.082907 v -1.102041 -1.102044 h 1.082913 1.082907 v -1.102044 -1.102044 h 1.082913 1.082907 V 95.249103 94.14706 h 27.072747 27.07275 v 1.102043 1.102044 h 1.08291 1.08291 v 1.102044 1.102044 h 1.08291 1.08291 v 1.102044 1.102041 h 1.08291 1.08291 v 28.65314 28.65314 h -1.08291 -1.08291 v 1.10204 1.10205 h -1.08291 -1.08291 v 1.10204 1.10204 h -1.08291 -1.08291 v 1.10205 1.10204 H 114.69397 86.538313 Z m 4.33164,-4.40818 v -3.30613 h -3.248727 -3.248733 v 1.10204 1.10205 h 1.082913 1.082907 v 1.10204 1.10205 h 1.082913 1.082907 v 1.10204 1.10204 h 1.082908 1.082912 z m 47.648037,-1.10204 v -4.40818 h 4.33164 4.33164 v -23.14291 -23.14293 h -4.33164 -4.33164 v -5.51021 -5.510223 H 115.77688 93.035773 v 5.510223 5.51021 h -5.414547 -5.414553 v 23.14293 23.14291 h 5.414553 5.414547 v 4.40818 4.40817 h 22.741107 22.74111 z m 4.33164,1.10204 v -1.10204 h 1.08291 1.08291 v -1.10205 -1.10204 h -2.16582 -2.16582 v 2.20409 2.20409 h 1.08291 1.08291 z M 90.869953,101.86137 v -3.306135 h -1.082912 -1.082908 v 1.102044 1.102041 h -1.082907 -1.082913 v 1.10205 1.10204 h -1.082907 -1.082913 v 1.10204 1.10205 h 3.248733 3.248727 z m 56.311317,2.20408 v -1.10204 h -1.08291 -1.08291 v -1.10204 -1.10205 h -1.08291 -1.08291 v -1.102041 -1.102044 h -1.08291 -1.08291 v 3.306135 3.30613 h 3.24873 3.24873 z"
       id="path8" /><path
       id="path4"
       style="color:#000000;fill:#800000;fill-rule:evenodd;stroke-width:0.991428;stroke-linejoin:bevel;-inkscape-stroke:none"
       d="m 76.22677,88.298485 -1.932939,1.967103 V 123.576 H 78.15972 V 92.232681 h 30.79913 v -3.934196 z m 44.20228,0 v 3.934196 h 30.79811 V 123.576 h 3.86793 V 90.265588 l -1.93294,-1.967103 z M 74.293831,135.24886 v 33.30991 l 1.932939,1.96864 h 32.73208 v -3.93575 H 78.15972 v -31.3428 z m 76.933329,0 v 31.3428 h -30.79811 v 3.93575 h 32.7331 l 1.93294,-1.96864 v -33.30991 z"
       sodipodi:nodetypes="cccccccccccccccccccccccccccccccc" /><g
       id="g1"
       transform="matrix(0.96823518,-0.08164727,0.08816624,0.95682812,-8.3585019,15.974715)"><path
         style="fill:#65001c;stroke-width:0.68854"
         d="m 109.78597,129.94113 v -1.29052 h -1.40276 -1.40277 v -3.87161 -3.87162 h -2.80553 -2.80554 v -1.29052 -1.29054 h -1.402761 -1.402758 v -3.8716 -3.87161 h 1.402758 1.402761 v -1.29053 -1.29054 h 4.2083 4.2083 v -2.58107 -2.58107 h 1.40276 1.40278 v -2.58108 -2.581075 h 5.61105 5.61106 v 1.29055 1.290525 h 1.40276 1.40277 v 3.87161 3.87161 h -1.40277 -1.40276 v 1.29054 1.29053 h 2.80553 2.80553 v 1.29054 1.29053 h 1.40276 1.40277 v 3.8716 3.8716 h -1.40277 -1.40276 v 1.29054 1.29054 h -4.2083 -4.2083 v 2.58107 2.58108 h -1.40275 -1.40277 v 1.29052 1.29053 h -4.2083 -4.20829 z m 5.61106,-2.58107 v -1.29053 h 1.40276 1.40277 v -3.87161 -3.8716 h 1.40277 1.40275 v 1.29054 1.29052 h 4.2083 4.2083 v -3.8716 -3.8716 h -4.2083 -4.2083 v 1.29054 1.29053 h -1.40275 -1.40277 v -1.29053 -1.29054 h -1.40277 -1.40276 v 1.29054 1.29053 h 1.40276 1.40277 v 1.29053 1.29054 h -2.80553 -2.80552 v 2.58106 2.58108 h -1.40278 -1.40276 v 1.29054 1.29053 h 1.40276 1.40278 v 1.29053 1.29055 h 1.40275 1.40277 z m -5.61106,-10.32428 v -1.29053 h 1.40276 1.40278 v -2.58107 -2.58107 h -4.2083 -4.2083 v 1.29054 1.29053 h -1.40276 -1.40278 v 2.58107 2.58107 h 4.2083 4.2083 z m 11.22211,-7.7432 v -1.29054 h 1.40277 1.40277 v -2.58107 -2.58107 h -1.40277 -1.40277 v -1.29053 -1.29055 h -2.80552 -2.80553 v 1.29055 1.29053 h -1.40277 -1.40275 v 2.58107 2.58107 h 1.40275 1.40277 v 1.29054 1.29053 h 2.80553 2.80552 z"
         id="path10" /><path
         style="fill:#013c08;stroke-width:0.68854"
         d="m 118.20256,158.3329 v -1.29053 h -1.40277 -1.40276 v -2.58108 -2.58107 h -1.40277 -1.40275 v -1.29053 -1.29053 h -1.40278 -1.40276 v -2.58108 -2.58106 h -1.40276 -1.40277 v -1.29054 -1.29054 h -1.40277 -1.40276 v -2.58106 -2.58107 h -1.40276 -1.40278 v -5.16215 -5.16213 h 1.40278 1.40276 v -2.58107 -2.58108 h 1.40276 1.40277 v 7.74323 7.7432 h 1.40277 1.40276 v 2.58107 2.58106 h 1.40276 1.40278 v 1.29054 1.29054 h 1.40275 1.40277 v 1.29052 1.29054 h 1.40276 1.40277 v 2.58108 2.58106 h 1.40277 1.40275 v 3.8716 3.87162 h -1.40275 -1.40277 z"
         id="path9" /><path
         id="path14"
         style="fill:#ff00ff;fill-opacity:1;fill-rule:evenodd;stroke:none;stroke-width:1.07435;stroke-linejoin:bevel;stroke-dasharray:none;stroke-dashoffset:0"
         d="m 121.00809,113.16418 v 2.58107 h -2.80552 v 2.58107 h -5.61105 v 5.16214 h -2.80554 v 2.58107 h 2.80554 v 2.58108 h 2.80552 v -2.58108 h 2.80553 v -7.74321 h 2.80552 v 2.58106 h 8.41661 c -0.023,-2.54094 0.0787,-5.20273 0,-7.7432 -8.9441,0.0682 -5.70443,-0.0723 -8.41661,0 z"
         sodipodi:nodetypes="ccccccccccccccccccc" /><path
         style="fill:#ffff00;fill-opacity:1;fill-rule:evenodd;stroke:none;stroke-width:9.86407e-10;stroke-linejoin:bevel;stroke-dasharray:none;stroke-dashoffset:0"
         d="m 115.39704,113.16418 v 2.58107 c 0.91748,-0.0212 1.93926,0.0719 2.80553,0 v -2.58107 z"
         id="path15"
         sodipodi:nodetypes="ccccc" /><path
         style="fill:#ff00ff;fill-opacity:1;fill-rule:evenodd;stroke:none;stroke-width:3.23076e-09;stroke-linejoin:bevel;stroke-dasharray:none;stroke-dashoffset:0"
         d="m 101.36939,118.32632 h 8.41659 v -2.58107 h 2.80554 c 0,0 0,-5.16214 0,-5.16214 h -8.4166 v 2.58107 h -2.80553 z"
         id="path16" /><path
         style="fill:#ff00ff;fill-opacity:1;fill-rule:evenodd;stroke:none;stroke-width:3.23076e-09;stroke-linejoin:bevel;stroke-dasharray:none;stroke-dashoffset:0"
         d="m 115.39704,100.25882 h 5.61105 v 2.58108 h 2.80554 v 5.16214 h -2.80554 v 2.58107 h -5.61105 v -2.58107 h -2.80552 v -5.16214 h 2.80552 z"
         id="path17" /></g></g></svg>
