<?xml version="1.0" encoding="UTF-8" standalone="no"?>
<!-- Created with Inkscape (http://www.inkscape.org/) -->

<svg
   width="128mm"
   height="127.98062mm"
   viewBox="0 0 128 127.98062"
   version="1.1"
   id="svg18"
   xml:space="preserve"
   sodipodi:docname="layer_transform_icon.svg"
   inkscape:version="1.3.2 (091e20ef0f, 2023-11-25, custom)"
   xmlns:inkscape="http://www.inkscape.org/namespaces/inkscape"
   xmlns:sodipodi="http://sodipodi.sourceforge.net/DTD/sodipodi-0.dtd"
   xmlns="http://www.w3.org/2000/svg"
   xmlns:svg="http://www.w3.org/2000/svg"
   xmlns:rdf="http://www.w3.org/1999/02/22-rdf-syntax-ns#"
   xmlns:cc="http://creativecommons.org/ns#"
   xmlns:dc="http://purl.org/dc/elements/1.1/"><sodipodi:namedview
     id="namedview1"
     pagecolor="#ffffff"
     bordercolor="#666666"
     borderopacity="1.0"
     inkscape:showpageshadow="2"
     inkscape:pageopacity="0.0"
     inkscape:pagecheckerboard="0"
     inkscape:deskcolor="#d1d1d1"
     inkscape:document-units="mm"
     inkscape:zoom="1.48"
     inkscape:cx="267.90541"
     inkscape:cy="257.43243"
     inkscape:window-width="1920"
     inkscape:window-height="1020"
     inkscape:window-x="2160"
     inkscape:window-y="1434"
     inkscape:window-maximized="0"
     inkscape:current-layer="svg18" /><defs
     id="defs12" /><metadata
     id="metadata15"><rdf:RDF><cc:Work
         rdf:about=""><dc:format>image/svg+xml</dc:format><dc:type
           rdf:resource="http://purl.org/dc/dcmitype/StillImage" /></cc:Work></rdf:RDF></metadata><rect
     style="fill:#f9f9f9;fill-rule:evenodd;stroke:#000000;stroke-width:2.18458;stroke-dasharray:none;stroke-dashoffset:0;-inkscape-stroke:none"
     id="rect2"
     width="125.81525"
     height="125.7962"
     x="1.0923715"
     y="1.0922055"
     ry="31.203356" /><rect
     style="mix-blend-mode:normal;fill:#808080;fill-opacity:1;fill-rule:evenodd;stroke:#000000;stroke-width:0.624151;stroke-linejoin:bevel;stroke-dasharray:none"
     id="rect1-1"
     width="70.830894"
     height="70.820168"
     x="16.928017"
     y="16.234591"
     ry="2.1057938e-08" /><g
     id="g8"
     transform="matrix(1.2022155,0,0,1.2005691,57.95087,-77.917346)"><rect
       style="mix-blend-mode:normal;fill:#000000;fill-opacity:1;fill-rule:evenodd;stroke:#000000;stroke-width:0.0436776;stroke-linejoin:bevel;stroke-dasharray:none"
       id="rect1"
       width="4.9563222"
       height="4.9563222"
       x="-34.11874"
       y="78.426727"
       ry="1.4737317e-09" /><rect
       style="mix-blend-mode:normal;fill:#000000;fill-opacity:1;fill-rule:evenodd;stroke:#000000;stroke-width:0.0436776;stroke-linejoin:bevel;stroke-dasharray:none"
       id="rect1-5"
       width="4.9563222"
       height="4.9563222"
       x="-29.162418"
       y="83.383049"
       ry="1.4737317e-09" /><rect
       style="mix-blend-mode:normal;fill:#000000;fill-opacity:1;fill-rule:evenodd;stroke:#000000;stroke-width:0.0436776;stroke-linejoin:bevel;stroke-dasharray:none"
       id="rect1-9"
       width="4.9563222"
       height="4.9563222"
       x="-34.11874"
       y="88.276138"
       ry="1.4737317e-09" /><rect
       style="mix-blend-mode:normal;fill:#000000;fill-opacity:1;fill-rule:evenodd;stroke:#000000;stroke-width:0.0436776;stroke-linejoin:bevel;stroke-dasharray:none"
       id="rect1-5-2"
       width="4.9563222"
       height="4.9563222"
       x="-29.162418"
       y="93.23246"
       ry="1.4737317e-09" /><rect
       style="mix-blend-mode:normal;fill:#000000;fill-opacity:1;fill-rule:evenodd;stroke:#000000;stroke-width:0.0436776;stroke-linejoin:bevel;stroke-dasharray:none"
       id="rect1-2"
       width="4.9563222"
       height="4.9563222"
       x="-34.11874"
       y="98.188782"
       ry="1.4737317e-09" /><rect
       style="mix-blend-mode:normal;fill:#000000;fill-opacity:1;fill-rule:evenodd;stroke:#000000;stroke-width:0.0436776;stroke-linejoin:bevel;stroke-dasharray:none"
       id="rect1-5-8"
       width="4.9563222"
       height="4.9563222"
       x="-29.16242"
       y="103.1451"
       ry="1.4737317e-09" /><rect
       style="mix-blend-mode:normal;fill:#000000;fill-opacity:1;fill-rule:evenodd;stroke:#000000;stroke-width:0.0436776;stroke-linejoin:bevel;stroke-dasharray:none"
       id="rect1-9-9"
       width="4.9563222"
       height="4.9563222"
       x="-34.11874"
       y="108.03819"
       ry="1.4737317e-09" /><rect
       style="mix-blend-mode:normal;fill:#000000;fill-opacity:1;fill-rule:evenodd;stroke:#000000;stroke-width:0.0436776;stroke-linejoin:bevel;stroke-dasharray:none"
       id="rect1-5-2-7"
       width="4.9563222"
       height="4.9563222"
       x="-29.16242"
       y="112.99452"
       ry="1.4737317e-09" /><rect
       style="mix-blend-mode:normal;fill:#000000;fill-opacity:1;fill-rule:evenodd;stroke:#000000;stroke-width:0.0436776;stroke-linejoin:bevel;stroke-dasharray:none"
       id="rect1-3"
       width="4.9563222"
       height="4.9563222"
       x="-34.11874"
       y="117.8876"
       ry="1.4737317e-09" /><rect
       style="mix-blend-mode:normal;fill:#000000;fill-opacity:1;fill-rule:evenodd;stroke:#000000;stroke-width:0.0436776;stroke-linejoin:bevel;stroke-dasharray:none"
       id="rect1-5-6"
       width="4.9563222"
       height="4.9563222"
       x="-29.162418"
       y="122.84392"
       ry="1.4737317e-09" /><rect
       style="mix-blend-mode:normal;fill:#000000;fill-opacity:1;fill-rule:evenodd;stroke:#000000;stroke-width:0.0436776;stroke-linejoin:bevel;stroke-dasharray:none"
       id="rect1-9-1"
       width="4.9563222"
       height="4.9563222"
       x="-34.11874"
       y="127.73701"
       ry="1.4737317e-09" /><rect
       style="mix-blend-mode:normal;fill:#000000;fill-opacity:1;fill-rule:evenodd;stroke:#000000;stroke-width:0.0436776;stroke-linejoin:bevel;stroke-dasharray:none"
       id="rect1-5-2-2"
       width="4.9563222"
       height="4.9563222"
       x="-29.162418"
       y="132.69333"
       ry="1.4737317e-09" /><rect
       style="mix-blend-mode:normal;fill:#000000;fill-opacity:1;fill-rule:evenodd;stroke:#000000;stroke-width:0.0436776;stroke-linejoin:bevel;stroke-dasharray:none"
       id="rect1-93"
       width="4.9563222"
       height="4.9563222"
       x="-24.531179"
       y="78.426727"
       ry="1.4737317e-09" /><rect
       style="mix-blend-mode:normal;fill:#000000;fill-opacity:1;fill-rule:evenodd;stroke:#000000;stroke-width:0.0436776;stroke-linejoin:bevel;stroke-dasharray:none"
       id="rect1-5-1"
       width="4.9563222"
       height="4.9563222"
       x="-19.574858"
       y="83.383049"
       ry="1.4737317e-09" /><rect
       style="mix-blend-mode:normal;fill:#000000;fill-opacity:1;fill-rule:evenodd;stroke:#000000;stroke-width:0.0436776;stroke-linejoin:bevel;stroke-dasharray:none"
       id="rect1-9-94"
       width="4.9563222"
       height="4.9563222"
       x="-24.531179"
       y="88.276138"
       ry="1.4737317e-09" /><rect
       style="mix-blend-mode:normal;fill:#000000;fill-opacity:1;fill-rule:evenodd;stroke:#000000;stroke-width:0.0436776;stroke-linejoin:bevel;stroke-dasharray:none"
       id="rect1-5-2-78"
       width="4.9563222"
       height="4.9563222"
       x="-19.574858"
       y="93.23246"
       ry="1.4737317e-09" /><rect
       style="mix-blend-mode:normal;fill:#000000;fill-opacity:1;fill-rule:evenodd;stroke:#000000;stroke-width:0.0436776;stroke-linejoin:bevel;stroke-dasharray:none"
       id="rect1-2-4"
       width="4.9563222"
       height="4.9563222"
       x="-24.531179"
       y="98.188782"
       ry="1.4737317e-09" /><rect
       style="mix-blend-mode:normal;fill:#000000;fill-opacity:1;fill-rule:evenodd;stroke:#000000;stroke-width:0.0436776;stroke-linejoin:bevel;stroke-dasharray:none"
       id="rect1-5-8-5"
       width="4.9563222"
       height="4.9563222"
       x="-19.57486"
       y="103.1451"
       ry="1.4737317e-09" /><rect
       style="mix-blend-mode:normal;fill:#000000;fill-opacity:1;fill-rule:evenodd;stroke:#000000;stroke-width:0.0436776;stroke-linejoin:bevel;stroke-dasharray:none"
       id="rect1-9-9-0"
       width="4.9563222"
       height="4.9563222"
       x="-24.531179"
       y="108.03819"
       ry="1.4737317e-09" /><rect
       style="mix-blend-mode:normal;fill:#000000;fill-opacity:1;fill-rule:evenodd;stroke:#000000;stroke-width:0.0436776;stroke-linejoin:bevel;stroke-dasharray:none"
       id="rect1-5-2-7-3"
       width="4.9563222"
       height="4.9563222"
       x="-19.57486"
       y="112.99452"
       ry="1.4737317e-09" /><rect
       style="mix-blend-mode:normal;fill:#000000;fill-opacity:1;fill-rule:evenodd;stroke:#000000;stroke-width:0.0436776;stroke-linejoin:bevel;stroke-dasharray:none"
       id="rect1-3-6"
       width="4.9563222"
       height="4.9563222"
       x="-24.531179"
       y="117.88761"
       ry="1.4737317e-09" /><rect
       style="mix-blend-mode:normal;fill:#000000;fill-opacity:1;fill-rule:evenodd;stroke:#000000;stroke-width:0.0436776;stroke-linejoin:bevel;stroke-dasharray:none"
       id="rect1-5-6-1"
       width="4.9563222"
       height="4.9563222"
       x="-19.574858"
       y="122.84392"
       ry="1.4737317e-09" /><rect
       style="mix-blend-mode:normal;fill:#000000;fill-opacity:1;fill-rule:evenodd;stroke:#000000;stroke-width:0.0436776;stroke-linejoin:bevel;stroke-dasharray:none"
       id="rect1-9-1-0"
       width="4.9563222"
       height="4.9563222"
       x="-24.531179"
       y="127.73701"
       ry="1.4737317e-09" /><rect
       style="mix-blend-mode:normal;fill:#000000;fill-opacity:1;fill-rule:evenodd;stroke:#000000;stroke-width:0.0436776;stroke-linejoin:bevel;stroke-dasharray:none"
       id="rect1-5-2-2-6"
       width="4.9563222"
       height="4.9563222"
       x="-19.574858"
       y="132.69333"
       ry="1.4737317e-09" /><rect
       style="mix-blend-mode:normal;fill:#000000;fill-opacity:1;fill-rule:evenodd;stroke:#000000;stroke-width:0.0436776;stroke-linejoin:bevel;stroke-dasharray:none"
       id="rect1-32"
       width="4.9563222"
       height="4.9563222"
       x="-14.618536"
       y="78.426727"
       ry="1.4737317e-09" /><rect
       style="mix-blend-mode:normal;fill:#000000;fill-opacity:1;fill-rule:evenodd;stroke:#000000;stroke-width:0.0436776;stroke-linejoin:bevel;stroke-dasharray:none"
       id="rect1-5-0"
       width="4.9563222"
       height="4.9563222"
       x="-9.6622143"
       y="83.383049"
       ry="1.4737317e-09" /><rect
       style="mix-blend-mode:normal;fill:#000000;fill-opacity:1;fill-rule:evenodd;stroke:#000000;stroke-width:0.0436776;stroke-linejoin:bevel;stroke-dasharray:none"
       id="rect1-9-6"
       width="4.9563222"
       height="4.9563222"
       x="-14.618536"
       y="88.276138"
       ry="1.4737317e-09" /><rect
       style="mix-blend-mode:normal;fill:#000000;fill-opacity:1;fill-rule:evenodd;stroke:#000000;stroke-width:0.0436776;stroke-linejoin:bevel;stroke-dasharray:none"
       id="rect1-5-2-1"
       width="4.9563222"
       height="4.9563222"
       x="-9.6622143"
       y="93.23246"
       ry="1.4737317e-09" /><rect
       style="mix-blend-mode:normal;fill:#000000;fill-opacity:1;fill-rule:evenodd;stroke:#000000;stroke-width:0.0436776;stroke-linejoin:bevel;stroke-dasharray:none"
       id="rect1-2-5"
       width="4.9563222"
       height="4.9563222"
       x="-14.618536"
       y="98.188782"
       ry="1.4737317e-09" /><rect
       style="mix-blend-mode:normal;fill:#000000;fill-opacity:1;fill-rule:evenodd;stroke:#000000;stroke-width:0.0436776;stroke-linejoin:bevel;stroke-dasharray:none"
       id="rect1-5-8-54"
       width="4.9563222"
       height="4.9563222"
       x="-9.6622162"
       y="103.14511"
       ry="1.4737317e-09" /><rect
       style="mix-blend-mode:normal;fill:#000000;fill-opacity:1;fill-rule:evenodd;stroke:#000000;stroke-width:0.0436776;stroke-linejoin:bevel;stroke-dasharray:none"
       id="rect1-9-9-7"
       width="4.9563222"
       height="4.9563222"
       x="-14.618536"
       y="108.0382"
       ry="1.4737317e-09" /><rect
       style="mix-blend-mode:normal;fill:#000000;fill-opacity:1;fill-rule:evenodd;stroke:#000000;stroke-width:0.0436776;stroke-linejoin:bevel;stroke-dasharray:none"
       id="rect1-5-2-7-6"
       width="4.9563222"
       height="4.9563222"
       x="-9.6622162"
       y="112.99451"
       ry="1.4737317e-09" /><rect
       style="mix-blend-mode:normal;fill:#000000;fill-opacity:1;fill-rule:evenodd;stroke:#000000;stroke-width:0.0436776;stroke-linejoin:bevel;stroke-dasharray:none"
       id="rect1-3-5"
       width="4.9563222"
       height="4.9563222"
       x="-14.618536"
       y="117.8876"
       ry="1.4737317e-09" /><rect
       style="mix-blend-mode:normal;fill:#000000;fill-opacity:1;fill-rule:evenodd;stroke:#000000;stroke-width:0.0436776;stroke-linejoin:bevel;stroke-dasharray:none"
       id="rect1-5-6-6"
       width="4.9563222"
       height="4.9563222"
       x="-9.6622143"
       y="122.84392"
       ry="1.4737317e-09" /><rect
       style="mix-blend-mode:normal;fill:#000000;fill-opacity:1;fill-rule:evenodd;stroke:#000000;stroke-width:0.0436776;stroke-linejoin:bevel;stroke-dasharray:none"
       id="rect1-9-1-9"
       width="4.9563222"
       height="4.9563222"
       x="-14.618536"
       y="127.73701"
       ry="1.4737317e-09" /><rect
       style="mix-blend-mode:normal;fill:#000000;fill-opacity:1;fill-rule:evenodd;stroke:#000000;stroke-width:0.0436776;stroke-linejoin:bevel;stroke-dasharray:none"
       id="rect1-5-2-2-3"
       width="4.9563222"
       height="4.9563222"
       x="-9.6622143"
       y="132.69333"
       ry="1.4737317e-09" /><rect
       style="mix-blend-mode:normal;fill:#000000;fill-opacity:1;fill-rule:evenodd;stroke:#000000;stroke-width:0.0436776;stroke-linejoin:bevel;stroke-dasharray:none"
       id="rect1-7"
       width="4.9563222"
       height="4.9563222"
       x="-4.7058921"
       y="78.426727"
       ry="1.4737317e-09" /><rect
       style="mix-blend-mode:normal;fill:#000000;fill-opacity:1;fill-rule:evenodd;stroke:#000000;stroke-width:0.0436776;stroke-linejoin:bevel;stroke-dasharray:none"
       id="rect1-5-4"
       width="4.9563222"
       height="4.9563222"
       x="0.25042963"
       y="83.383049"
       ry="1.4737317e-09" /><rect
       style="mix-blend-mode:normal;fill:#000000;fill-opacity:1;fill-rule:evenodd;stroke:#000000;stroke-width:0.0436776;stroke-linejoin:bevel;stroke-dasharray:none"
       id="rect1-9-5"
       width="4.9563222"
       height="4.9563222"
       x="-4.7058921"
       y="88.276138"
       ry="1.4737317e-09" /><rect
       style="mix-blend-mode:normal;fill:#000000;fill-opacity:1;fill-rule:evenodd;stroke:#000000;stroke-width:0.0436776;stroke-linejoin:bevel;stroke-dasharray:none"
       id="rect1-5-2-25"
       width="4.9563222"
       height="4.9563222"
       x="0.25042963"
       y="93.23246"
       ry="1.4737317e-09" /><rect
       style="mix-blend-mode:normal;fill:#000000;fill-opacity:1;fill-rule:evenodd;stroke:#000000;stroke-width:0.0436776;stroke-linejoin:bevel;stroke-dasharray:none"
       id="rect1-2-47"
       width="4.9563222"
       height="4.9563222"
       x="-4.7058921"
       y="98.188782"
       ry="1.4737317e-09" /><rect
       style="mix-blend-mode:normal;fill:#000000;fill-opacity:1;fill-rule:evenodd;stroke:#000000;stroke-width:0.0436776;stroke-linejoin:bevel;stroke-dasharray:none"
       id="rect1-5-8-4"
       width="4.9563222"
       height="4.9563222"
       x="0.25042963"
       y="103.1451"
       ry="1.4737317e-09" /><rect
       style="mix-blend-mode:normal;fill:#000000;fill-opacity:1;fill-rule:evenodd;stroke:#000000;stroke-width:0.0436776;stroke-linejoin:bevel;stroke-dasharray:none"
       id="rect1-9-9-4"
       width="4.9563222"
       height="4.9563222"
       x="-4.7058921"
       y="108.03819"
       ry="1.4737317e-09" /><rect
       style="mix-blend-mode:normal;fill:#000000;fill-opacity:1;fill-rule:evenodd;stroke:#000000;stroke-width:0.0436776;stroke-linejoin:bevel;stroke-dasharray:none"
       id="rect1-5-2-7-30"
       width="4.9563222"
       height="4.9563222"
       x="0.25042963"
       y="112.99452"
       ry="1.4737317e-09" /><rect
       style="mix-blend-mode:normal;fill:#000000;fill-opacity:1;fill-rule:evenodd;stroke:#000000;stroke-width:0.0436776;stroke-linejoin:bevel;stroke-dasharray:none"
       id="rect1-3-7"
       width="4.9563222"
       height="4.9563222"
       x="-4.7058921"
       y="117.8876"
       ry="1.4737317e-09" /><rect
       style="mix-blend-mode:normal;fill:#000000;fill-opacity:1;fill-rule:evenodd;stroke:#000000;stroke-width:0.0436776;stroke-linejoin:bevel;stroke-dasharray:none"
       id="rect1-5-6-8"
       width="4.9563222"
       height="4.9563222"
       x="0.25042963"
       y="122.84392"
       ry="1.4737317e-09" /><rect
       style="mix-blend-mode:normal;fill:#000000;fill-opacity:1;fill-rule:evenodd;stroke:#000000;stroke-width:0.0436776;stroke-linejoin:bevel;stroke-dasharray:none"
       id="rect1-9-1-6"
       width="4.9563222"
       height="4.9563222"
       x="-4.7058921"
       y="127.73701"
       ry="1.4737317e-09" /><rect
       style="mix-blend-mode:normal;fill:#000000;fill-opacity:1;fill-rule:evenodd;stroke:#000000;stroke-width:0.0436776;stroke-linejoin:bevel;stroke-dasharray:none"
       id="rect1-5-2-2-8"
       width="4.9563222"
       height="4.9563222"
       x="0.25042963"
       y="132.69333"
       ry="1.4737317e-09" /><rect
       style="mix-blend-mode:normal;fill:#000000;fill-opacity:1;fill-rule:evenodd;stroke:#000000;stroke-width:0.0436776;stroke-linejoin:bevel;stroke-dasharray:none"
       id="rect1-8"
       width="4.9563222"
       height="4.9563222"
       x="5.2067513"
       y="78.426727"
       ry="1.4737317e-09" /><rect
       style="mix-blend-mode:normal;fill:#000000;fill-opacity:1;fill-rule:evenodd;stroke:#000000;stroke-width:0.0436776;stroke-linejoin:bevel;stroke-dasharray:none"
       id="rect1-5-43"
       width="4.9563222"
       height="4.9563222"
       x="10.163071"
       y="83.383049"
       ry="1.4737317e-09" /><rect
       style="mix-blend-mode:normal;fill:#000000;fill-opacity:1;fill-rule:evenodd;stroke:#000000;stroke-width:0.0436776;stroke-linejoin:bevel;stroke-dasharray:none"
       id="rect1-9-14"
       width="4.9563222"
       height="4.9563222"
       x="5.2067513"
       y="88.276138"
       ry="1.4737317e-09" /><rect
       style="mix-blend-mode:normal;fill:#000000;fill-opacity:1;fill-rule:evenodd;stroke:#000000;stroke-width:0.0436776;stroke-linejoin:bevel;stroke-dasharray:none"
       id="rect1-5-2-9"
       width="4.9563222"
       height="4.9563222"
       x="10.163071"
       y="93.23246"
       ry="1.4737317e-09" /><rect
       style="mix-blend-mode:normal;fill:#000000;fill-opacity:1;fill-rule:evenodd;stroke:#000000;stroke-width:0.0436776;stroke-linejoin:bevel;stroke-dasharray:none"
       id="rect1-2-2"
       width="4.9563222"
       height="4.9563222"
       x="5.2067513"
       y="98.188782"
       ry="1.4737317e-09" /><rect
       style="mix-blend-mode:normal;fill:#000000;fill-opacity:1;fill-rule:evenodd;stroke:#000000;stroke-width:0.0436776;stroke-linejoin:bevel;stroke-dasharray:none"
       id="rect1-5-8-0"
       width="4.9563222"
       height="4.9563222"
       x="10.163071"
       y="103.1451"
       ry="1.4737317e-09" /><rect
       style="mix-blend-mode:normal;fill:#000000;fill-opacity:1;fill-rule:evenodd;stroke:#000000;stroke-width:0.0436776;stroke-linejoin:bevel;stroke-dasharray:none"
       id="rect1-9-9-6"
       width="4.9563222"
       height="4.9563222"
       x="5.2067513"
       y="108.03819"
       ry="1.4737317e-09" /><rect
       style="mix-blend-mode:normal;fill:#000000;fill-opacity:1;fill-rule:evenodd;stroke:#000000;stroke-width:0.0436776;stroke-linejoin:bevel;stroke-dasharray:none"
       id="rect1-5-2-7-8"
       width="4.9563222"
       height="4.9563222"
       x="10.163071"
       y="112.99452"
       ry="1.4737317e-09" /><rect
       style="mix-blend-mode:normal;fill:#000000;fill-opacity:1;fill-rule:evenodd;stroke:#000000;stroke-width:0.0436776;stroke-linejoin:bevel;stroke-dasharray:none"
       id="rect1-3-9"
       width="4.9563222"
       height="4.9563222"
       x="5.2067513"
       y="117.8876"
       ry="1.4737317e-09" /><rect
       style="mix-blend-mode:normal;fill:#000000;fill-opacity:1;fill-rule:evenodd;stroke:#000000;stroke-width:0.0436776;stroke-linejoin:bevel;stroke-dasharray:none"
       id="rect1-5-6-2"
       width="4.9563222"
       height="4.9563222"
       x="10.163071"
       y="122.84392"
       ry="1.4737317e-09" /><rect
       style="mix-blend-mode:normal;fill:#000000;fill-opacity:1;fill-rule:evenodd;stroke:#000000;stroke-width:0.0436776;stroke-linejoin:bevel;stroke-dasharray:none"
       id="rect1-9-1-66"
       width="4.9563222"
       height="4.9563222"
       x="5.2067513"
       y="127.73701"
       ry="1.4737317e-09" /><rect
       style="mix-blend-mode:normal;fill:#000000;fill-opacity:1;fill-rule:evenodd;stroke:#000000;stroke-width:0.0436776;stroke-linejoin:bevel;stroke-dasharray:none"
       id="rect1-5-2-2-4"
       width="4.9563222"
       height="4.9563222"
       x="10.163071"
       y="132.69333"
       ry="1.4737317e-09" /><rect
       style="mix-blend-mode:normal;fill:#000000;fill-opacity:1;fill-rule:evenodd;stroke:#000000;stroke-width:0.0436776;stroke-linejoin:bevel;stroke-dasharray:none"
       id="rect1-95"
       width="4.9563222"
       height="4.9563222"
       x="15.119394"
       y="78.426727"
       ry="1.4737317e-09" /><rect
       style="mix-blend-mode:normal;fill:#000000;fill-opacity:1;fill-rule:evenodd;stroke:#000000;stroke-width:0.0436776;stroke-linejoin:bevel;stroke-dasharray:none"
       id="rect1-5-04"
       width="4.9563222"
       height="4.9563222"
       x="20.075716"
       y="83.383049"
       ry="1.4737317e-09" /><rect
       style="mix-blend-mode:normal;fill:#000000;fill-opacity:1;fill-rule:evenodd;stroke:#000000;stroke-width:0.0436776;stroke-linejoin:bevel;stroke-dasharray:none"
       id="rect1-9-8"
       width="4.9563222"
       height="4.9563222"
       x="15.119394"
       y="88.276138"
       ry="1.4737317e-09" /><rect
       style="mix-blend-mode:normal;fill:#000000;fill-opacity:1;fill-rule:evenodd;stroke:#000000;stroke-width:0.0436776;stroke-linejoin:bevel;stroke-dasharray:none"
       id="rect1-5-2-71"
       width="4.9563222"
       height="4.9563222"
       x="20.075716"
       y="93.23246"
       ry="1.4737317e-09" /><rect
       style="mix-blend-mode:normal;fill:#000000;fill-opacity:1;fill-rule:evenodd;stroke:#000000;stroke-width:0.0436776;stroke-linejoin:bevel;stroke-dasharray:none"
       id="rect1-2-7"
       width="4.9563222"
       height="4.9563222"
       x="15.119394"
       y="98.188782"
       ry="1.4737317e-09" /><rect
       style="mix-blend-mode:normal;fill:#000000;fill-opacity:1;fill-rule:evenodd;stroke:#000000;stroke-width:0.0436776;stroke-linejoin:bevel;stroke-dasharray:none"
       id="rect1-5-8-2"
       width="4.9563222"
       height="4.9563222"
       x="20.075714"
       y="103.1451"
       ry="1.4737317e-09" /><rect
       style="mix-blend-mode:normal;fill:#000000;fill-opacity:1;fill-rule:evenodd;stroke:#000000;stroke-width:0.0436776;stroke-linejoin:bevel;stroke-dasharray:none"
       id="rect1-9-9-72"
       width="4.9563222"
       height="4.9563222"
       x="15.119394"
       y="108.03819"
       ry="1.4737317e-09" /><rect
       style="mix-blend-mode:normal;fill:#000000;fill-opacity:1;fill-rule:evenodd;stroke:#000000;stroke-width:0.0436776;stroke-linejoin:bevel;stroke-dasharray:none"
       id="rect1-5-2-7-2"
       width="4.9563222"
       height="4.9563222"
       x="20.075714"
       y="112.99452"
       ry="1.4737317e-09" /><rect
       style="mix-blend-mode:normal;fill:#000000;fill-opacity:1;fill-rule:evenodd;stroke:#000000;stroke-width:0.0436776;stroke-linejoin:bevel;stroke-dasharray:none"
       id="rect1-3-61"
       width="4.9563222"
       height="4.9563222"
       x="15.119394"
       y="117.8876"
       ry="1.4737317e-09" /><rect
       style="mix-blend-mode:normal;fill:#000000;fill-opacity:1;fill-rule:evenodd;stroke:#000000;stroke-width:0.0436776;stroke-linejoin:bevel;stroke-dasharray:none"
       id="rect1-5-6-0"
       width="4.9563222"
       height="4.9563222"
       x="20.075716"
       y="122.84392"
       ry="1.4737317e-09" /><rect
       style="mix-blend-mode:normal;fill:#000000;fill-opacity:1;fill-rule:evenodd;stroke:#000000;stroke-width:0.0436776;stroke-linejoin:bevel;stroke-dasharray:none"
       id="rect1-9-1-61"
       width="4.9563222"
       height="4.9563222"
       x="15.119394"
       y="127.73701"
       ry="1.4737317e-09" /><rect
       style="mix-blend-mode:normal;fill:#000000;fill-opacity:1;fill-rule:evenodd;stroke:#000000;stroke-width:0.0436776;stroke-linejoin:bevel;stroke-dasharray:none"
       id="rect1-5-2-2-5"
       width="4.9563222"
       height="4.9563222"
       x="20.075716"
       y="132.69333"
       ry="1.4737317e-09" /></g><rect
     style="opacity:0.8;mix-blend-mode:normal;fill:#2b0000;fill-opacity:1;fill-rule:evenodd;stroke:#000000;stroke-width:2.00703;stroke-linejoin:bevel;stroke-dasharray:none"
     id="rect1-1-3"
     width="70.830894"
     height="70.820168"
     x="41.869106"
     y="38.697815"
     ry="2.1057938e-08" /><path
     id="rect5"
     style="fill:#ffffff;fill-rule:evenodd;stroke:#000000;stroke-width:1.84062101;stroke-linejoin:bevel;stroke-dasharray:none"
     d="m 77.140625,41.595703 c -1.537025,0.193832 -1.983927,1.871441 -2.709061,2.977851 -1.567315,2.862203 -3.376008,5.604542 -4.712814,8.584649 -0.19374,1.738783 1.828777,2.877027 3.363281,2.457031 0.482046,0.01589 0.02388,0.871233 0.176671,1.212061 0.0021,1.659354 -0.14177,3.36264 0.288173,4.981299 0.777545,1.202428 2.376545,0.907699 3.578125,0.777344 1.254267,-0.01721 2.794358,0.543524 3.78125,-0.533204 0.957952,-1.329853 0.338129,-3.021457 0.521484,-4.522656 0,-0.635026 0,-1.270052 0,-1.905078 1.243073,0.118124 2.910943,-0.18318 3.287939,-1.580237 0.409818,-1.603814 -0.938701,-2.861728 -1.565768,-4.199721 -1.542323,-2.631749 -2.942894,-5.361296 -4.657717,-7.882151 -0.390173,-0.281491 -0.872823,-0.41064 -1.351563,-0.367188 z" /><path
     id="rect5-2"
     style="fill:#ffffff;fill-rule:evenodd;stroke:#000000;stroke-width:1.84062101;stroke-linejoin:bevel;stroke-dasharray:none"
     d="m 79.060547,85.244141 c -1.580925,0.467421 -3.295154,-0.271884 -4.840306,0.308476 -1.296309,0.874454 -0.941345,2.622236 -0.966519,3.954414 -5.9e-4,0.959245 -0.0012,1.91849 -0.0018,2.877735 -1.260502,-0.116629 -2.970082,0.133193 -3.387856,1.546152 -0.439566,1.651997 0.963846,2.93947 1.605466,4.317602 1.537884,2.60625 2.90063,5.32854 4.630046,7.81203 1.252894,0.91756 3.055482,-0.12658 3.388672,-1.50977 1.79404,-3.22961 3.81374,-6.348184 5.361328,-9.705077 0.19322,-1.776075 -1.914531,-2.915093 -3.460937,-2.427734 0.08643,-1.480142 0.0473,-2.98219 0.0217,-4.471799 -0.05878,-0.871845 -9.54e-4,-1.982169 -0.943103,-2.412703 -0.418261,-0.248468 -0.925407,-0.338974 -1.406725,-0.289326 z" /><path
     id="rect5-23"
     style="fill:#ffffff;fill-rule:evenodd;stroke:#000000;stroke-width:1.84062101;stroke-linejoin:bevel;stroke-dasharray:none"
     d="m 97.847656,66.451172 c -1.686267,0.08364 -2.478313,2.111219 -2.0625,3.558594 -2.005891,-0.01367 -4.044724,-0.180751 -6.037109,0.164062 -1.283565,0.573873 -1.212529,2.210151 -1.022349,3.376919 0.139909,1.319082 -0.626556,2.908161 0.463755,4.000034 1.280315,1.046474 2.999093,0.402738 4.489063,0.587891 0.68138,0 1.36276,0 2.04414,0 -0.126089,1.26404 0.216906,2.978004 1.664565,3.297215 1.614352,0.340513 2.858629,-1.008625 4.212009,-1.630472 2.61199,-1.536989 5.34799,-2.886113 7.83632,-4.617915 0.91668,-1.245835 -0.12051,-3.042155 -1.4961,-3.378906 -3.22492,-1.788847 -6.36098,-3.756996 -9.687497,-5.34961 -0.134683,-0.01522 -0.269122,-0.0161 -0.404297,-0.0078 z" /><path
     id="rect5-2-7"
     style="fill:#ffffff;fill-rule:evenodd;stroke:#000000;stroke-width:1.84062101;stroke-linejoin:bevel;stroke-dasharray:none"
     d="m 56.4375,66.492188 c -2.635286,0.934437 -4.876079,2.680868 -7.366579,3.920208 -1.408185,0.814792 -2.922632,1.527385 -4.096312,2.673542 -0.677227,1.348408 0.524654,2.842889 1.824219,3.193359 3.183472,1.771618 6.265225,3.755837 9.580078,5.271484 1.774627,0.196597 2.916283,-1.912004 2.431641,-3.457031 1.591408,0.06937 3.206405,0.09058 4.804687,0.002 0.805873,-0.0657 1.797837,-0.134982 2.127502,-1.020124 0.585522,-1.338584 -0.174808,-2.795742 0.176773,-4.178387 0.199397,-1.069311 -0.130148,-2.434488 -1.312564,-2.756849 -1.276178,-0.416477 -2.631238,-0.0082 -3.940539,-0.163781 -0.608854,0 -1.217708,10e-7 -1.826562,0 0.115324,-1.264578 -0.135786,-2.951226 -1.534838,-3.397216 -0.276819,-0.09826 -0.577204,-0.106909 -0.867506,-0.08716 z" /></svg>
