<?xml version="1.0" encoding="UTF-8" standalone="no"?>
<!-- Created with Inkscape (http://www.inkscape.org/) -->

<svg
   width="127.99998mm"
   height="127.99998mm"
   viewBox="0 0 127.99999 127.99998"
   version="1.1"
   id="svg18"
   inkscape:version="1.3.2 (091e20ef0f, 2023-11-25, custom)"
   sodipodi:docname="pen_icon.svg"
   xml:space="preserve"
   xmlns:inkscape="http://www.inkscape.org/namespaces/inkscape"
   xmlns:sodipodi="http://sodipodi.sourceforge.net/DTD/sodipodi-0.dtd"
   xmlns="http://www.w3.org/2000/svg"
   xmlns:svg="http://www.w3.org/2000/svg"
   xmlns:rdf="http://www.w3.org/1999/02/22-rdf-syntax-ns#"
   xmlns:cc="http://creativecommons.org/ns#"
   xmlns:dc="http://purl.org/dc/elements/1.1/"><defs
     id="defs12" /><sodipodi:namedview
     id="base"
     pagecolor="#ffffff"
     bordercolor="#666666"
     borderopacity="1.0"
     inkscape:pageopacity="0.0"
     inkscape:pageshadow="2"
     inkscape:zoom="0.78"
     inkscape:cx="241.66667"
     inkscape:cy="452.5641"
     inkscape:document-units="mm"
     inkscape:current-layer="layer1"
     showgrid="false"
     inkscape:pagecheckerboard="true"
     inkscape:window-width="1920"
     inkscape:window-height="1020"
     inkscape:window-x="2160"
     inkscape:window-y="1434"
     inkscape:window-maximized="0"
     inkscape:showpageshadow="2"
     inkscape:deskcolor="#d1d1d1" /><metadata
     id="metadata15"><rdf:RDF><cc:Work
         rdf:about=""><dc:format>image/svg+xml</dc:format><dc:type
           rdf:resource="http://purl.org/dc/dcmitype/StillImage" /></cc:Work></rdf:RDF></metadata><g
     inkscape:label="Layer 1"
     inkscape:groupmode="layer"
     id="layer1"
     transform="translate(-50.693984,-64.301116)"><rect
       style="fill:#f9f9f9;fill-rule:evenodd;stroke:#000000;stroke-width:2.18474;stroke-dasharray:none;stroke-dashoffset:0;-inkscape-stroke:none"
       id="rect2"
       width="125.81525"
       height="125.81525"
       x="51.786354"
       y="65.393486"
       ry="31.20808" /><g
       id="g1"
       transform="translate(-4.8999134,-8.0126529)"><path
         id="path5"
         style="fill:#000000;fill-opacity:0.868664;fill-rule:evenodd;stroke:#1a1a1a;stroke-width:1.28067;stroke-linejoin:bevel"
         d="M 143.99499,82.400595 76.322648,151.72642 65.680722,183.68726 v 6.53966 h 5.26482 l 35.973668,-15.10758 35.80141,-36.2654 4.66772,2.98173 26.11871,-25.48062 V 82.400595 Z m 16.78244,3.187736 3.39335,3.825245 2.54958,2.529561 0.41147,25.049033 -20.38075,19.31134 -5.92309,-4.87436 20.79236,-21.22367 0.43145,-4.66856 -61.55311,65.37866 -19.53756,11.45525 -8.534803,3.29079 2.591289,-8.3908 8.925542,-21.22367 63.240212,-67.90869 z"
         sodipodi:nodetypes="cccccccccccccccccccccccccc" /><path
         style="opacity:0.66;fill:#800000;fill-opacity:0.868664;fill-rule:evenodd;stroke-width:159.199;stroke-linejoin:bevel"
         d="m 91.999959,164.11747 72.165711,-74.712527 2.54743,2.546996 0.42376,25.046111 -20.3758,19.31468 -5.94321,-4.88222 20.80109,-21.22499 0.4246,-4.66956 -61.55346,65.37391 z"
         id="path1" /><path
         style="fill:#ff5555;fill-opacity:0.868664;fill-rule:evenodd;stroke-width:159.199;stroke-linejoin:bevel"
         d="m 164.16567,89.404943 -3.39592,-3.820571 -13.5841,2.547003 -63.251247,67.920615 8.065556,8.06548 z"
         id="path2" /><path
         style="fill:#fff6d5;fill-opacity:0.868664;fill-rule:evenodd;stroke:#000000;stroke-width:1.96042;stroke-linejoin:bevel"
         d="m 83.934403,156.05199 8.065556,8.06548 8.490121,6.7924 -19.527157,11.46127 -5.943071,-5.09416 z"
         id="path3" /><path
         style="fill:#ff0000;fill-opacity:0.868664;fill-rule:evenodd;stroke-width:159.199;stroke-linejoin:bevel"
         d="m 75.019852,177.27698 -2.585313,8.38235 8.528384,-3.28819 z"
         id="path4"
         sodipodi:nodetypes="cccc" /></g></g></svg>
