<?xml version="1.0" encoding="UTF-8" standalone="no"?>
<!-- Created with Inkscape (http://www.inkscape.org/) -->

<svg
   width="127.99998mm"
   height="127.99998mm"
   viewBox="0 0 127.99999 127.99998"
   version="1.1"
   id="svg18"
   inkscape:version="1.3.2 (091e20ef0f, 2023-11-25, custom)"
   sodipodi:docname="selection_fill_icon.svg"
   xml:space="preserve"
   xmlns:inkscape="http://www.inkscape.org/namespaces/inkscape"
   xmlns:sodipodi="http://sodipodi.sourceforge.net/DTD/sodipodi-0.dtd"
   xmlns="http://www.w3.org/2000/svg"
   xmlns:svg="http://www.w3.org/2000/svg"
   xmlns:rdf="http://www.w3.org/1999/02/22-rdf-syntax-ns#"
   xmlns:cc="http://creativecommons.org/ns#"
   xmlns:dc="http://purl.org/dc/elements/1.1/"><defs
     id="defs12" /><sodipodi:namedview
     id="base"
     pagecolor="#ffffff"
     bordercolor="#666666"
     borderopacity="1.0"
     inkscape:pageopacity="0.0"
     inkscape:pageshadow="2"
     inkscape:zoom="0.89727565"
     inkscape:cx="249.08733"
     inkscape:cy="225.68316"
     inkscape:document-units="mm"
     inkscape:current-layer="layer1"
     showgrid="false"
     inkscape:pagecheckerboard="true"
     inkscape:window-width="1728"
     inkscape:window-height="899"
     inkscape:window-x="2160"
     inkscape:window-y="1434"
     inkscape:window-maximized="1"
     inkscape:showpageshadow="2"
     inkscape:deskcolor="#d1d1d1" /><metadata
     id="metadata15"><rdf:RDF><cc:Work
         rdf:about=""><dc:format>image/svg+xml</dc:format><dc:type
           rdf:resource="http://purl.org/dc/dcmitype/StillImage" /></cc:Work></rdf:RDF></metadata><g
     inkscape:label="Layer 1"
     inkscape:groupmode="layer"
     id="layer1"
     transform="translate(-50.693984,-64.301116)"><rect
       style="fill:#f9f9f9;fill-rule:evenodd;stroke:#000000;stroke-width:2.18474;stroke-dasharray:none;stroke-dashoffset:0;-inkscape-stroke:none"
       id="rect2"
       width="125.81525"
       height="125.81525"
       x="51.786354"
       y="65.393486"
       ry="31.20808" /><path
       style="fill:#ebc50d;stroke-width:1.67479"
       d="M 114.69397,173.67664 H 80.662322 v -5.67195 -5.67193 h 17.015823 17.015825 v -5.67195 -5.67194 h 5.67194 5.67194 v -5.67194 -5.67194 h -5.67194 -5.67194 v -11.34388 -11.34389 h -5.67194 -5.67195 v -5.67194 -5.67194 h 11.34389 11.34388 v -5.671937 -5.671941 h 5.67194 5.67194 V 88.59752 82.92558 h 5.67194 5.67194 v 11.343882 11.343878 h 5.67194 5.67194 v 5.67194 5.67194 h -5.67194 -5.67194 v 5.67195 5.67194 h 5.67194 5.67194 v 17.01582 17.01583 h -5.67194 -5.67194 v 5.67193 5.67195 z m 17.01582,-11.34388 h 5.67194 v -5.67195 -5.67194 h 5.67194 5.67194 v -5.67194 -5.67194 h -5.67194 -5.67194 v 5.67194 5.67194 h -5.67194 -5.67194 v 5.67194 5.67195 z m 0,-34.03165 h 5.67194 v -5.67194 -5.67195 h 5.67194 5.67194 v -5.67194 -5.67194 h -5.67194 -5.67194 v 5.67194 5.67194 h -5.67194 -5.67194 v 5.67195 5.67194 z"
       id="path25" /><path
       style="fill:#eb8f0d;stroke-width:1.67479"
       d="M 86.334262,162.33276 H 69.318439 v -28.35971 -28.35971 h 5.671942 5.671941 V 94.269462 82.92558 h 5.67194 5.671942 v 5.67194 5.671942 h 17.015826 17.01582 v 5.671941 5.671937 H 109.02203 92.006204 v 5.67194 5.67194 h 5.671941 5.671935 v 5.67195 5.67194 h 5.67195 5.67194 v 11.34388 11.34388 h -5.67194 -5.67195 v 5.67194 5.67195 z m 11.343883,-11.34389 h 5.671935 v -5.67194 -5.67194 h -5.671935 -5.671941 v 5.67194 5.67194 z M 86.334262,128.30111 h 5.671942 v -5.67194 -5.67195 h -5.671942 -5.67194 v 5.67195 5.67194 z"
       id="path24" /><path
       id="path23"
       style="fill:#343427;stroke-width:1.67479"
       d="M 92.006191 105.61332 L 92.006191 111.28533 L 92.006191 116.95733 L 97.678196 116.95733 L 103.3502 116.95733 L 103.3502 111.28533 L 103.3502 105.61332 L 97.678196 105.61332 L 92.006191 105.61332 z M 103.3502 116.95733 L 103.3502 122.62934 L 103.3502 124.4623 C 103.51641 123.05649 103.76471 121.58388 103.5166 120.646 C 103.13687 117.58366 106.42726 116.70937 108.83462 117.06172 C 110.78353 117.05188 112.73288 117.05945 114.68181 117.05707 C 114.68714 117.3761 114.69047 117.69597 114.69421 118.01567 L 114.69421 116.95733 L 109.02221 116.95733 L 103.3502 116.95733 z M 92.006191 116.95733 L 86.334186 116.95733 L 80.662181 116.95733 L 80.662181 122.62934 L 80.662181 128.30134 L 81.065774 128.30134 C 81.0039 124.58411 81.057705 120.81872 81.039419 117.08342 C 84.564803 117.02202 88.137991 117.07443 91.681663 117.05707 C 91.743904 120.77885 91.689709 124.549 91.708018 128.28894 C 91.405798 128.29421 91.102929 128.29763 90.800063 128.30134 L 92.006191 128.30134 L 92.006191 122.62934 L 92.006191 116.95733 z M 137.38172 105.61332 L 137.38172 111.28533 L 137.38172 116.95733 L 143.05372 116.95733 L 148.72573 116.95733 L 148.72573 111.28533 L 148.72573 105.61332 L 143.05372 105.61332 L 137.38172 105.61332 z M 148.72573 116.95733 L 148.72573 122.62934 L 148.72573 128.30134 L 154.39773 128.30134 L 160.06974 128.30134 L 160.06974 122.62934 L 160.06974 116.95733 L 154.39773 116.95733 L 148.72573 116.95733 z M 137.38172 116.95733 L 131.70971 116.95733 L 126.03771 116.95733 L 126.03771 122.62934 L 126.03771 128.30134 L 131.70971 128.30134 L 137.38172 128.30134 L 137.38172 122.62934 L 137.38172 116.95733 z M 97.558824 105.84845 C 99.335671 105.85167 101.11485 105.86075 102.88666 105.85207 C 102.94817 109.37754 102.89558 112.95004 102.91302 116.4938 C 99.745473 116.29756 96.288833 117.00339 93.241258 115.83854 C 91.4012 113.01862 92.664224 109.06041 92.244936 105.87842 C 94.007628 105.84772 95.781974 105.84523 97.558824 105.84845 z M 103.3502 127.21304 L 103.3502 128.30134 L 104.54754 128.30134 C 103.87116 128.21923 103.51486 127.81192 103.3502 127.21304 z M 114.69421 128.28894 C 114.41362 128.29419 114.13209 128.29764 113.85085 128.30134 L 114.69421 128.30134 L 114.69421 128.28894 z M 92.006191 139.64484 L 92.006191 145.31684 L 92.006191 147.04697 C 92.171863 145.67642 92.399963 144.25869 92.158637 143.34642 C 91.778897 140.28408 95.069294 139.40928 97.476658 139.76163 L 97.476658 139.76214 C 99.425564 139.75214 101.37492 139.75898 103.32385 139.75698 C 103.33817 140.61399 103.3459 141.47393 103.3502 142.33511 L 103.3502 139.64484 L 97.678196 139.64484 L 92.006191 139.64484 z M 114.69421 139.64484 L 114.69421 145.31684 L 114.69421 150.98885 L 120.3657 150.98885 L 126.03771 150.98885 L 126.03771 145.31684 L 126.03771 139.64484 L 120.3657 139.64484 L 114.69421 139.64484 z M 126.03771 150.98885 L 126.03771 156.66085 L 126.03771 162.33286 L 131.70971 162.33286 L 137.38172 162.33286 L 137.38172 156.66085 L 137.38172 150.98885 L 131.70971 150.98885 L 126.03771 150.98885 z M 137.38172 150.98885 L 143.05372 150.98885 L 148.72573 150.98885 L 148.72573 145.31684 L 148.72573 139.64484 L 143.05372 139.64484 L 137.38172 139.64484 L 137.38172 145.31684 L 137.38172 150.98885 z M 114.69421 150.98885 L 109.02221 150.98885 L 103.3502 150.98885 L 103.3502 152.62441 C 104.28513 151.21625 106.49885 150.82326 108.24809 151.07928 L 108.24809 151.0798 C 110.197 151.0698 112.14635 151.07663 114.09528 151.07463 C 114.15748 154.79641 114.10334 158.56654 114.12164 162.3065 C 113.3552 162.32089 112.58593 162.32855 111.81532 162.33286 L 114.69421 162.33286 L 114.69421 156.66085 L 114.69421 150.98885 z M 92.006191 149.961 L 92.006191 150.98885 L 93.092946 150.98885 C 92.495549 150.8842 92.168102 150.50533 92.006191 149.961 z M 103.3502 162.11117 L 103.3502 162.33286 L 104.06954 162.33286 C 103.77598 162.31367 103.54102 162.23453 103.3502 162.11117 z M 104.06954 162.33286 L 107.84295 162.33286 C 106.58366 162.32929 105.32449 162.32596 104.06954 162.33286 z " /><path
       style="opacity:0.75;fill:#ff2a2a;fill-opacity:0.920474;fill-rule:evenodd;stroke:#000000;stroke-width:1.68046;stroke-dasharray:2.513, 0.62825, 1.2565, 0.62825;stroke-dashoffset:0"
       d="m 108.2483,151.07917 c -2.40737,-0.35235 -5.69784,0.52222 -5.3181,3.58456 0.59004,2.23047 -1.63359,7.48775 1.13918,7.66903 3.34677,-0.0184 6.72372,0.036 10.05221,-0.0265 -0.0183,-3.73997 0.0357,-7.50993 -0.0265,-11.23171 -1.94893,0.002 -3.89789,-0.005 -5.8468,0.005 z"
       id="path28-6" /><path
       style="opacity:0.75;fill:#ff2a2a;fill-opacity:0.920474;fill-rule:evenodd;stroke:#000000;stroke-width:1.68046;stroke-dasharray:2.513, 0.62825, 1.2565, 0.62825;stroke-dashoffset:0"
       d="m 108.83486,117.06169 c -2.40737,-0.35235 -5.69784,0.52222 -5.3181,3.58456 0.59004,2.23047 -1.63359,7.48775 1.13918,7.66903 3.34677,-0.0184 6.72372,0.036 10.05221,-0.0265 -0.0183,-3.73997 0.0357,-7.50993 -0.0265,-11.23171 -1.94893,0.002 -3.89789,-0.005 -5.8468,0.005 z"
       id="path28" /><path
       style="opacity:0.75;fill:#ff2a2a;fill-opacity:0.920474;fill-rule:evenodd;stroke:#000000;stroke-width:1.68046;stroke-dasharray:2.513, 0.62825, 1.2565, 0.62825;stroke-dashoffset:0"
       d="m 81.039522,117.08357 c 0.01831,3.73997 -0.03575,7.50993 0.02649,11.23171 3.543755,-0.0174 7.116456,0.035 10.641957,-0.0265 -0.01831,-3.73997 0.03575,-7.50993 -0.02649,-11.23171 -3.543683,0.0174 -7.116561,-0.0349 -10.641957,0.0265 z"
       id="path26" /><path
       style="opacity:0.75;fill:#ff2a2a;fill-opacity:0.920474;fill-rule:evenodd;stroke:#000000;stroke-width:1.68046;stroke-dasharray:2.513, 0.62825, 1.2565, 0.62825;stroke-dashoffset:0"
       d="m 92.244735,105.87836 c 0.419288,3.18199 -0.843714,7.14015 0.996352,9.96006 3.047587,1.16486 6.504546,0.45917 9.672103,0.65541 -0.0174,-3.54376 0.035,-7.11646 -0.0265,-10.64196 -3.543679,0.0173 -7.116557,-0.0349 -10.641955,0.0265 z"
       id="path27" /><path
       style="opacity:0.75;fill:#ff2a2a;fill-opacity:0.920474;fill-rule:evenodd;stroke:#000000;stroke-width:1.68046;stroke-dasharray:2.513, 0.62825, 1.2565, 0.62825;stroke-dashoffset:0"
       d="m 97.476668,139.76125 c -2.40737,-0.35235 -5.69784,0.52222 -5.3181,3.58456 0.59004,2.23047 -1.63359,7.48775 1.13918,7.66903 3.34677,-0.0184 6.723722,0.036 10.052212,-0.0265 -0.0183,-3.73997 0.0357,-7.50993 -0.0265,-11.23171 -1.94893,0.002 -3.897892,-0.005 -5.846802,0.005 z"
       id="path28-3" /><path
       id="path29"
       style="opacity:0.75;fill:#ff2a2a;fill-opacity:0.920474;fill-rule:evenodd;stroke:#000000;stroke-width:4.08019;stroke-dasharray:11.0573, 2.76434;stroke-dashoffset:0"
       d="m 106.67188,65.457031 c -9.149051,0.0412 -18.307976,-0.111218 -27.447035,0.380313 -12.352592,1.319671 -23.360383,10.952907 -26.268398,23.039213 -1.619457,6.545717 -0.786078,13.333733 -1.078789,19.996093 -0.03495,18.26406 -0.23278,36.53502 0.312436,54.79299 1.255462,11.71445 9.901722,22.23878 21.129122,25.79028 5.345178,1.99783 11.144955,1.41429 16.730781,1.5025 12.347783,0.076 24.695823,0.0503 37.043753,0.0474 0,-6.08008 0,-12.16016 0,-18.24024 -15.12956,10e-6 -30.259115,0 -45.388672,0 0.0025,-3.83336 0.009,-7.66681 -0.03516,-11.5 -3.821615,10e-6 -7.643229,0 -11.464844,0 0,-18.24934 0,-36.49869 0,-54.74804 3.833364,0.002 7.666817,0.009 11.5,-0.0352 0,-7.556639 0,-15.113279 0,-22.66992 3.11263,0 6.225261,0 9.337891,0 -0.0025,3.835317 -0.009,7.670723 0.03516,11.505859 12.005195,-0.01197 24.010415,-0.01668 36.015625,-0.02539 0,-9.948568 0,-19.897136 0,-29.845703 -6.80723,-0.0026 -13.61479,-0.04288 -20.42187,0.0098 z" /></g></svg>
