<?xml version="1.0" encoding="UTF-8" standalone="no"?>
<!-- Created with Inkscape (http://www.inkscape.org/) -->

<svg
   width="127.99998mm"
   height="127.99998mm"
   viewBox="0 0 127.99999 127.99998"
   version="1.1"
   id="svg18"
   inkscape:version="1.3.2 (091e20ef0f, 2023-11-25, custom)"
   sodipodi:docname="selection_icon.svg"
   xml:space="preserve"
   xmlns:inkscape="http://www.inkscape.org/namespaces/inkscape"
   xmlns:sodipodi="http://sodipodi.sourceforge.net/DTD/sodipodi-0.dtd"
   xmlns="http://www.w3.org/2000/svg"
   xmlns:svg="http://www.w3.org/2000/svg"
   xmlns:rdf="http://www.w3.org/1999/02/22-rdf-syntax-ns#"
   xmlns:cc="http://creativecommons.org/ns#"
   xmlns:dc="http://purl.org/dc/elements/1.1/"><defs
     id="defs12" /><sodipodi:namedview
     id="base"
     pagecolor="#ffffff"
     bordercolor="#666666"
     borderopacity="1.0"
     inkscape:pageopacity="0.0"
     inkscape:pageshadow="2"
     inkscape:zoom="0.6344697"
     inkscape:cx="213.56418"
     inkscape:cy="139.48657"
     inkscape:document-units="mm"
     inkscape:current-layer="layer1"
     showgrid="false"
     inkscape:pagecheckerboard="true"
     inkscape:window-width="1728"
     inkscape:window-height="899"
     inkscape:window-x="2160"
     inkscape:window-y="1434"
     inkscape:window-maximized="1"
     inkscape:showpageshadow="2"
     inkscape:deskcolor="#d1d1d1" /><metadata
     id="metadata15"><rdf:RDF><cc:Work
         rdf:about=""><dc:format>image/svg+xml</dc:format><dc:type
           rdf:resource="http://purl.org/dc/dcmitype/StillImage" /></cc:Work></rdf:RDF></metadata><g
     inkscape:label="Layer 1"
     inkscape:groupmode="layer"
     id="layer1"
     transform="translate(-50.693984,-64.301116)"><rect
       style="fill:#f9f9f9;fill-rule:evenodd;stroke:#000000;stroke-width:2.18474;stroke-dasharray:none;stroke-dashoffset:0;-inkscape-stroke:none"
       id="rect2"
       width="125.81525"
       height="125.81525"
       x="51.786354"
       y="65.393486"
       ry="31.20808" /><g
       id="g69"
       transform="matrix(0.98293169,0,0,0.98293159,0.86526013,1.0975149)"><path
         id="path1"
         style="opacity:1;fill:#ececec;fill-opacity:0.392555;fill-rule:evenodd;stroke:#000000;stroke-width:0.0429097;stroke-linejoin:bevel"
         d="m 108.14012,82.438629 c -15.271016,-0.0579 -27.9913,9.082094 -33.600599,24.765281 -1.467516,4.10307 -1.869466,8.48855 -1.940396,13.21047 l 4.969116,-1.4871 3.314842,1.65325 c 0,0 -1.933843,-0.8265 -4.420112,-0.27531 -2.486267,0.5512 -2.762449,2.75589 -2.762449,2.75589 l -1.101882,0.68197 c 0.01258,1.31794 0.02662,2.63105 0.05035,4.00293 0.0339,1.95999 0.12363,3.89463 0.285638,5.80108 l 0.213501,-0.0136 3.038888,4.4096 -2.946903,-1.63344 c 0.705165,5.3068 2.176239,10.33087 5.211666,14.8497 7.943943,11.82615 24.38106,22.36553 37.32502,21.5612 v -18.44063 c -3.74928,-0.75208 -18.59568,-0.29592 -19.230156,-6.11598 -0.240243,-2.20379 8.882006,1.06699 14.985286,1.31371 1.76901,0.0715 3.28458,0.64643 4.24487,-0.17629 l 0.19509,-8.70765 c -3.21761,0.78106 -2.59001,-0.79956 -3.81784,-0.88675 -1.31931,-0.0937 0.29446,0.317 -5.56412,0.37286 l -0.82883,-7.0829 3.12555,5.45671 c 1.49381,-0.63665 2.52092,-1.27688 3.29548,-1.12631 1.80624,0.35111 2.67663,2.38864 3.6271,0.15166 l -0.0325,-54.707145 c -1.5315,-0.147319 -3.05471,-0.07373 -4.54986,-0.198021 -1.03941,-0.0864 -2.06875,-0.131375 -3.08682,-0.135235 z m -4.60408,21.055031 3.31484,1.65372 -0.82883,1.10216 -12.707461,0.27579 -6.906122,1.92901 c 0,0 6.630056,-4.13382 7.18256,-4.13382 0.552505,0 9.945013,-0.82686 9.945013,-0.82686 z m -3.17057,8.18651 c 2.48132,8e-5 4.49278,3.24711 4.49273,7.25243 -1.1e-4,4.00508 -2.01153,7.25185 -4.49273,7.25194 -2.481193,-9e-5 -4.492623,-3.24686 -4.492735,-7.25194 -5.8e-5,-4.00532 2.011422,-7.25235 4.492735,-7.25243 z m 11.73435,6.5579 c -0.31295,4.86437 0.30831,10.42738 -2.76244,13.22834 l -0.82883,-3.58226 c 2.95382,-0.29453 2.61461,-6.06415 3.59127,-9.64608 z" /><path
         id="rect4"
         style="opacity:1;fill:#ececec;fill-opacity:0.998308;fill-rule:evenodd;stroke:none;stroke-width:1.16198;stroke-linejoin:bevel"
         d="m 122.56918,82.438514 c -1.01808,0.0039 -2.04722,0.04899 -3.08663,0.135392 -1.30218,0.108241 -2.62622,0.07393 -3.9579,0.158647 v 55.655517 c 0.75284,0.50712 1.59207,-0.78677 3.0024,-1.06092 0.77457,-0.15057 1.80159,0.4899 3.29541,1.12655 l 3.1259,-5.45651 -0.82889,7.08277 c -5.85861,-0.0559 -4.2452,-0.46681 -5.56451,-0.37311 -1.11139,0.0789 -0.73163,1.36383 -3.03031,1.03095 v 8.87594 c 0.94182,0.30312 2.20985,-0.0776 3.65249,-0.13591 4.57747,-0.18504 10.85344,-2.07126 13.60382,-2.07326 0.9168,-5.9e-4 1.44193,0.20871 1.38183,0.75965 -0.60608,5.5596 -14.15631,5.39448 -18.63814,6.02392 v 18.55339 c 12.84959,0.45648 28.90887,-9.93488 36.73264,-21.58215 3.03543,-4.51881 4.50692,-9.54295 5.21209,-14.84974 l -2.94711,1.6335 3.03909,-4.40955 0.21342,0.0134 c 0.16201,-1.90645 0.25187,-3.84121 0.28577,-5.80119 0.0237,-1.37188 0.0375,-2.68492 0.0501,-4.00286 l -1.10174,-0.68161 c 0,0 -0.27637,-2.20471 -2.76262,-2.75591 -2.48628,-0.55119 -4.41989,0.27492 -4.41989,0.27492 l 3.31453,-1.65313 4.9692,1.48725 c -0.0709,-4.72191 -0.47292,-9.1075 -1.94045,-13.21056 -5.60929,-15.683158 -18.32945,-24.823316 -33.60053,-24.765416 z m 4.60385,21.055046 c 0,0 9.39261,0.82682 9.94513,0.82682 0.55251,0 7.18251,4.13412 7.18251,4.13412 l -6.90604,-1.92908 -12.70723,-0.27596 -0.82889,-1.10225 z m 3.17087,8.18658 c 2.48132,8e-5 4.49281,3.24695 4.49275,7.25227 -1.1e-4,4.00508 -2.01154,7.25218 -4.49275,7.25227 -2.48121,-9e-5 -4.49264,-3.24719 -4.49275,-7.25227 -5e-5,-4.00532 2.01142,-7.25219 4.49275,-7.25227 z m -11.73468,6.55774 c 0.97666,3.58192 0.63768,9.35191 3.59151,9.64644 l -0.82889,3.58221 c -3.07077,-2.80096 -2.44967,-8.3643 -2.76262,-13.22865 z" /><path
         id="rect3"
         style="fill:#b3b3b3;fill-opacity:0.998308;fill-rule:evenodd;stroke:#333333;stroke-width:1.0873;stroke-linejoin:bevel"
         d="M 65.446052,77.834661 V 179.00678 H 165.26322 V 77.834661 c -33.53001,-0.09329 -66.284631,0.01418 -99.817168,0 z m 42.694038,4.603853 c 5.89369,0.566198 11.38334,0.02745 14.42909,0 15.27104,-0.0579 27.99128,9.08231 33.60053,24.765416 1.46753,4.10302 1.86951,8.48869 1.94045,13.21056 l -4.9692,-1.48725 -3.31453,1.65313 c 0,0 1.93361,-0.82611 4.41989,-0.27492 2.48621,0.5512 2.76262,2.75591 2.76262,2.75591 l 1.10174,0.68161 c -0.0126,1.31794 -0.0264,2.63098 -0.0501,4.00286 -0.0339,1.95994 -0.12376,3.89474 -0.28577,5.80119 l -0.21342,-0.0134 -3.03909,4.40955 2.94711,-1.6335 c -0.70517,5.30679 -2.17666,10.33097 -5.21209,14.84974 -18.86488,28.08424 -54.940377,28.0843 -73.805313,0 -3.035416,-4.51877 -4.506922,-9.54295 -5.212085,-14.84974 l 2.947107,1.6335 -3.039091,-4.40955 -0.213424,0.0134 c -0.162009,-1.90645 -0.251851,-3.84125 -0.285771,-5.80119 -0.0237,-1.37188 -0.03757,-2.68492 -0.05013,-4.00286 l 1.101742,-0.68161 c 0,0 0.276364,-2.20471 2.762622,-2.75591 2.486253,-0.55119 4.419885,0.27492 4.419885,0.27492 l -3.314526,-1.65313 -4.969206,1.48725 c 0.07093,-4.72187 0.472936,-9.10754 1.94045,-13.21056 5.609265,-15.683106 18.329511,-24.823316 33.60054,-24.765416 z m -4.60386,21.055046 c 0,0 -9.392619,0.82682 -9.945126,0.82682 -0.552511,0 -7.182507,4.13412 -7.182507,4.13412 l 6.906038,-1.92908 12.707235,-0.27596 0.82889,-1.10225 z m 23.6368,0 -3.31452,1.65365 0.82889,1.10225 12.70723,0.27596 6.90604,1.92908 c 0,0 -6.63,-4.13412 -7.18251,-4.13412 -0.55252,0 -9.94513,-0.82682 -9.94513,-0.82682 z m -26.80766,8.18658 c -2.481318,8e-5 -4.492807,3.24695 -4.492751,7.25227 1.12e-4,4.00508 2.011545,7.25218 4.492751,7.25227 2.48121,-9e-5 4.49264,-3.24719 4.49275,-7.25227 5e-5,-4.00532 -2.01142,-7.25219 -4.49275,-7.25227 z m 29.97853,0 c -2.48133,8e-5 -4.4928,3.24695 -4.49275,7.25227 1.1e-4,4.00508 2.01154,7.25218 4.49275,7.25227 2.48121,-9e-5 4.49264,-3.24719 4.49275,-7.25227 6e-5,-4.00532 -2.01143,-7.25219 -4.49275,-7.25227 z m -18.24385,6.55774 c -0.97667,3.58192 -0.63768,9.35191 -3.59151,9.64644 l 0.82889,3.58221 c 3.07077,-2.80096 2.44967,-8.36434 2.76262,-13.22865 z m 6.50917,0 c 0.31295,4.86431 -0.30815,10.42769 2.76262,13.22865 l 0.82889,-3.58221 c -2.95383,-0.29453 -2.61489,-6.06452 -3.59151,-9.64644 z m -12.84832,14.75931 0.82889,7.08277 c 5.85862,-0.0559 4.2452,-0.46681 5.56452,-0.37311 0.90215,0.0641 0.84421,0.91034 1.42782,1.06764 l 3.79719,-0.13023 c 0.33866,-0.28728 0.42401,-0.88403 1.17564,-0.93741 1.31927,-0.0937 -0.29406,0.31725 5.56451,0.37311 l 0.82889,-7.08277 -3.1259,5.45651 c -1.49382,-0.63665 -2.52084,-1.27712 -3.29541,-1.12655 -0.84329,0.16393 -1.47012,0.66026 -2.00866,0.95033 h -2.32751 c -0.53854,-0.29007 -1.16537,-0.7864 -2.00866,-0.95033 -0.77457,-0.15057 -1.80159,0.4899 -3.29541,1.12655 z m -7.832593,14.40738 c -0.916787,-5.9e-4 -1.441878,0.20871 -1.381828,0.75965 0.513048,4.7062 10.258731,5.30765 13.114441,5.75985 l 12.3145,-0.0362 c 2.89066,-0.48838 11.69977,-1.25098 12.18737,-5.72368 0.0601,-0.55094 -0.46503,-0.76024 -1.38183,-0.75965 -2.75038,0.002 -9.02639,1.88822 -13.60382,2.07326 -0.36427,0.0147 -0.67743,0.0632 -1.01699,0.10284 h -5.61103 c -0.33956,-0.0396 -0.65272,-0.0881 -1.01699,-0.10284 -4.57748,-0.18504 -10.85343,-2.07126 -13.603823,-2.07326 z"
         sodipodi:nodetypes="ccccccscccccccccccccccccccccsccccccsccccccccccsccccccccccccccccccccccccscccsccsccccccccccccc" /><path
         id="rect5"
         style="opacity:0.99;fill:#ff0000;fill-opacity:0.35206;fill-rule:evenodd;stroke:#000000;stroke-width:7.692;stroke-linejoin:bevel;stroke-dasharray:23.076, 7.692;stroke-dashoffset:0"
         d="m 119.2777,73.68548 c 83.01292,3.758319 52.28986,122.17501 2.08508,112.82779 l -13.34448,-11.2594 c -10.967781,-17.64372 22.19834,-12.26945 1.4693,-30.67361 -8.52845,-7.57194 -20.15549,-12.94785 -20.627438,-21.30534 -5.259618,-19.32721 6.255595,-56.1931 30.417538,-49.58944 z"
         sodipodi:nodetypes="cccscc" /></g></g></svg>
