<?xml version="1.0" encoding="UTF-8" standalone="no"?>
<!-- Created with Inkscape (http://www.inkscape.org/) -->

<svg
   width="127.99998mm"
   height="127.99998mm"
   viewBox="0 0 127.99999 127.99998"
   version="1.1"
   id="svg18"
   inkscape:version="1.3.2 (091e20ef0f, 2023-11-25, custom)"
   sodipodi:docname="selection_icon.svg"
   xml:space="preserve"
   xmlns:inkscape="http://www.inkscape.org/namespaces/inkscape"
   xmlns:sodipodi="http://sodipodi.sourceforge.net/DTD/sodipodi-0.dtd"
   xmlns="http://www.w3.org/2000/svg"
   xmlns:svg="http://www.w3.org/2000/svg"
   xmlns:rdf="http://www.w3.org/1999/02/22-rdf-syntax-ns#"
   xmlns:cc="http://creativecommons.org/ns#"
   xmlns:dc="http://purl.org/dc/elements/1.1/"><defs
     id="defs12" /><sodipodi:namedview
     id="base"
     pagecolor="#ffffff"
     bordercolor="#666666"
     borderopacity="1.0"
     inkscape:pageopacity="0.0"
     inkscape:pageshadow="2"
     inkscape:zoom="0.89727565"
     inkscape:cx="194.47758"
     inkscape:cy="296.45293"
     inkscape:document-units="mm"
     inkscape:current-layer="layer1"
     showgrid="false"
     inkscape:pagecheckerboard="true"
     inkscape:window-width="1920"
     inkscape:window-height="1020"
     inkscape:window-x="2160"
     inkscape:window-y="1434"
     inkscape:window-maximized="0"
     inkscape:showpageshadow="2"
     inkscape:deskcolor="#d1d1d1" /><metadata
     id="metadata15"><rdf:RDF><cc:Work
         rdf:about=""><dc:format>image/svg+xml</dc:format><dc:type
           rdf:resource="http://purl.org/dc/dcmitype/StillImage" /></cc:Work></rdf:RDF></metadata><g
     inkscape:label="Layer 1"
     inkscape:groupmode="layer"
     id="layer1"
     transform="translate(-50.693984,-64.301116)"><rect
       style="fill:#f9f9f9;fill-rule:evenodd;stroke:#000000;stroke-width:2.18474;stroke-dasharray:none;stroke-dashoffset:0;-inkscape-stroke:none"
       id="rect2"
       width="125.81525"
       height="125.81525"
       x="51.786354"
       y="65.393486"
       ry="31.20808" /><path
       id="path1"
       style="fill:#ececec;fill-opacity:0.392555;fill-rule:evenodd;stroke:#000000;stroke-width:0.0421773;stroke-linejoin:bevel"
       d="m 107.15961,82.129048 c -15.010365,-0.05691 -27.513535,8.927077 -33.027093,24.342572 -1.442468,4.03304 -1.837557,8.34367 -1.907276,12.98499 l 4.884301,-1.46171 3.258264,1.62503 c 0,0 -1.900836,-0.8124 -4.344669,-0.27061 -2.44383,0.54179 -2.715298,2.70885 -2.715298,2.70885 l -1.083075,0.67033 c 0.01237,1.29544 0.02617,2.58614 0.04949,3.9346 0.03332,1.92654 0.121519,3.82816 0.280762,5.70207 l 0.209857,-0.0134 2.98702,4.33434 -2.896605,-1.60556 c 0.693129,5.21622 2.139094,10.15453 5.122712,14.59624 7.808353,11.62429 23.96492,21.98378 36.68795,21.19318 v -18.12588 c -3.68529,-0.73924 -18.278288,-0.29087 -18.901935,-6.01159 -0.236142,-2.16617 8.730405,1.04878 14.729515,1.29129 1.73881,0.0703 3.22852,0.6354 4.17242,-0.17328 l 0.19176,-8.55903 c -3.16269,0.76773 -2.54581,-0.78591 -3.75268,-0.87161 -1.29679,-0.0921 0.28943,0.31159 -5.46915,0.3665 l -0.81468,-6.96201 3.0722,5.36357 c 1.46831,-0.62578 2.47789,-1.25508 3.23923,-1.10708 1.77541,0.34511 2.63095,2.34787 3.56519,0.14907 l -0.0319,-53.773384 c -1.50536,-0.144804 -3.00257,-0.07247 -4.4722,-0.194641 -1.02167,-0.08492 -2.03344,-0.129132 -3.03414,-0.132927 z m -4.5255,20.695652 3.25827,1.6255 -0.81469,1.08334 -12.490563,0.27109 -6.788246,1.89608 c 0,0 6.516892,-4.06326 7.059965,-4.06326 0.543075,0 9.775264,-0.81275 9.775264,-0.81275 z m -3.116449,8.04678 c 2.438969,8e-5 4.416099,3.19169 4.416049,7.12864 -1.1e-4,3.93672 -1.9772,7.12808 -4.416049,7.12817 -2.438843,-9e-5 -4.415941,-3.19145 -4.416051,-7.12817 -5.7e-5,-3.93695 1.97709,-7.12856 4.416051,-7.12864 z m 11.534069,6.44597 c -0.30761,4.78134 0.30304,10.2494 -2.71529,13.00255 l -0.81469,-3.52111 c 2.90341,-0.28951 2.56999,-5.96065 3.52998,-9.48144 z" /><path
       id="rect4"
       style="fill:#ececec;fill-opacity:0.998308;fill-rule:evenodd;stroke:none;stroke-width:1.14215;stroke-linejoin:bevel"
       d="m 121.34239,82.128935 c -1.0007,0.0038 -2.01228,0.04815 -3.03395,0.133081 -1.27995,0.106393 -2.58139,0.07267 -3.89034,0.155939 v 54.705565 c 0.73999,0.49846 1.5649,-0.77334 2.95115,-1.04281 0.76135,-0.148 1.77084,0.48154 3.23917,1.10732 l 3.07254,-5.36338 -0.81474,6.96188 c -5.75861,-0.0549 -4.17274,-0.45884 -5.46953,-0.36674 -1.09242,0.0776 -0.71914,1.34055 -2.97859,1.01335 v 8.72445 c 0.92574,0.29794 2.17213,-0.0763 3.59015,-0.13359 4.49934,-0.18189 10.66819,-2.03591 13.37162,-2.03788 0.90116,-5.8e-4 1.41732,0.20515 1.35825,0.74669 -0.59574,5.4647 -13.91469,5.3024 -18.32002,5.9211 v 18.23671 c 12.63027,0.44869 28.41544,-9.76531 36.10568,-21.21378 2.98362,-4.44168 4.42999,-9.38006 5.12312,-14.59627 l -2.8968,1.60561 2.98721,-4.33428 0.20978,0.0132 c 0.15925,-1.87391 0.24757,-3.77565 0.28089,-5.70217 0.0233,-1.34847 0.0369,-2.6391 0.0493,-3.93454 l -1.08294,-0.66998 c 0,0 -0.27165,-2.16708 -2.71546,-2.70887 -2.44385,-0.54178 -4.34445,0.27023 -4.34445,0.27023 l 3.25795,-1.62491 4.88439,1.46186 c -0.0697,-4.64131 -0.46485,-8.95205 -1.90733,-12.98508 -5.51355,-15.415467 -18.0166,-24.399617 -33.02703,-24.342705 z m 4.52527,20.695665 c 0,0 9.2323,0.81271 9.77538,0.81271 0.54308,0 7.05992,4.06356 7.05992,4.06356 l -6.78816,-1.89615 -12.49034,-0.27125 -0.81475,-1.08344 z m 3.11675,8.04685 c 2.43897,8e-5 4.41613,3.19153 4.41607,7.12849 -1.1e-4,3.93672 -1.97721,7.12839 -4.41607,7.12848 -2.43886,-9e-5 -4.41596,-3.19176 -4.41607,-7.12848 -5e-5,-3.93696 1.97709,-7.12841 4.41607,-7.12849 z m -11.53439,6.44581 c 0.95999,3.52078 0.6268,9.19229 3.53021,9.48179 l -0.81474,3.52107 c -3.01836,-2.75315 -2.40786,-8.22153 -2.71547,-13.00286 z" /><path
       id="rect3"
       style="fill:#916f6f;fill-opacity:0.998308;fill-rule:evenodd;stroke:#333333;stroke-width:2.34362203;stroke-linejoin:bevel"
       d="M 65.194259,77.603662 V 177.04893 H 163.30772 V 77.603662 c -32.95771,-0.0917 -65.153268,0.01394 -98.113461,0 z m 41.965321,4.525273 c 5.7931,0.556533 11.18905,0.02698 14.18281,0 15.01039,-0.05691 27.51352,8.927289 33.02703,24.342705 1.44248,4.03299 1.8376,8.34381 1.90733,12.98508 l -4.88439,-1.46186 -3.25795,1.62491 c 0,0 1.9006,-0.81201 4.34445,-0.27023 2.44377,0.54179 2.71546,2.70887 2.71546,2.70887 l 1.08294,0.66998 c -0.0124,1.29544 -0.026,2.58607 -0.0493,3.93454 -0.0333,1.92648 -0.12164,3.82826 -0.28089,5.70217 l -0.20978,-0.0132 -2.98721,4.33428 2.8968,-1.60561 c -0.69313,5.21621 -2.1395,10.15463 -5.12313,14.59627 -18.54288,27.60489 -54.002633,27.60495 -72.545576,0 -2.983607,-4.44164 -4.429997,-9.38006 -5.123124,-14.59627 l 2.896805,1.60561 -2.987219,-4.33428 -0.209781,0.0132 c -0.159244,-1.87391 -0.247552,-3.77569 -0.280893,-5.70217 -0.0233,-1.34847 -0.03693,-2.6391 -0.04927,-3.93454 l 1.082938,-0.66998 c 0,0 0.271647,-2.16708 2.715468,-2.70887 2.443817,-0.54178 4.344445,0.27023 4.344445,0.27023 l -3.257952,-1.62491 -4.88439,1.46186 c 0.06972,-4.64127 0.464863,-8.95209 1.907329,-12.98508 C 79.6461,91.056224 92.149233,82.072023 107.15961,82.128935 Z M 102.6343,102.8246 c 0,0 -9.232301,0.81271 -9.775378,0.81271 -0.54308,0 -7.059914,4.06356 -7.059914,4.06356 l 6.788164,-1.89615 12.490348,-0.27125 0.81474,-1.08344 z m 23.23336,0 -3.25795,1.62543 0.81475,1.08344 12.49034,0.27125 6.78816,1.89615 c 0,0 -6.51684,-4.06356 -7.05992,-4.06356 -0.54308,0 -9.77538,-0.81271 -9.77538,-0.81271 z m -26.350097,8.04685 c -2.438966,8e-5 -4.416122,3.19153 -4.416067,7.12849 1.1e-4,3.93672 1.977211,7.12839 4.416067,7.12848 2.438857,-9e-5 4.415957,-3.19176 4.416067,-7.12848 5e-5,-3.93696 -1.97709,-7.12841 -4.416067,-7.12849 z m 29.466847,0 c -2.43898,8e-5 -4.41612,3.19153 -4.41607,7.12849 1.1e-4,3.93672 1.97721,7.12839 4.41607,7.12848 2.43886,-9e-5 4.41596,-3.19176 4.41607,-7.12848 6e-5,-3.93696 -1.9771,-7.12841 -4.41607,-7.12849 z m -17.93246,6.44581 c -0.96,3.52078 -0.62679,9.19229 -3.53021,9.48179 l 0.81474,3.52107 c 3.01836,-2.75315 2.40786,-8.22157 2.71547,-13.00286 z m 6.39807,0 c 0.30761,4.78129 -0.30289,10.24971 2.71547,13.00286 l 0.81474,-3.52107 c -2.90341,-0.2895 -2.57026,-5.96101 -3.53021,-9.48179 z m -12.62902,14.50739 0.81474,6.96188 c 5.75863,-0.0549 4.17274,-0.45884 5.46955,-0.36674 0.88675,0.063 0.8298,0.8948 1.40345,1.04942 l 3.73237,-0.12801 c 0.33288,-0.28238 0.41678,-0.86894 1.15558,-0.92141 1.29675,-0.0921 -0.28904,0.31184 5.46953,0.36674 l 0.81474,-6.96188 -3.07254,5.36338 c -1.46833,-0.62578 -2.47782,-1.25532 -3.23917,-1.10732 -0.82889,0.16113 -1.44502,0.64899 -1.97437,0.93411 h -2.28779 c -0.52934,-0.28512 -1.14547,-0.77298 -1.97437,-0.93411 -0.76135,-0.148 -1.77084,0.48154 -3.23916,1.10732 z m -7.698904,14.16147 c -0.901139,-5.8e-4 -1.417267,0.20515 -1.358242,0.74669 0.504291,4.62587 10.083636,5.21705 12.890596,5.66154 l 12.10432,-0.0356 c 2.84132,-0.48004 11.50007,-1.22962 11.97935,-5.62598 0.0591,-0.54154 -0.45709,-0.74727 -1.35825,-0.74669 -2.70343,0.002 -8.87232,1.85599 -13.37162,2.03788 -0.35805,0.0145 -0.66587,0.0621 -0.99963,0.10108 h -5.51526 c -0.33377,-0.0389 -0.64158,-0.0866 -0.99963,-0.10108 -4.49935,-0.18189 -10.668185,-2.03591 -13.371634,-2.03788 z"
       sodipodi:nodetypes="ccccccscccccccccccccccccccccsccccccsccccccccccsccccccccccccccccccccccccscccsccsccccccccccccc" /><path
       id="rect5"
       style="opacity:0.99;fill:#ff0000;fill-opacity:0.35206;fill-rule:evenodd;stroke:#000000;stroke-width:11.08697992;stroke-linejoin:bevel;stroke-dasharray:22.6821, 7.56071;stroke-dashoffset:0"
       d="m 118.10709,73.525301 c 81.59603,3.69417 51.39736,120.089679 2.04949,110.901999 l -13.11671,-11.06722 c -10.780579,-17.34257 21.81945,-12.06003 1.44422,-30.15006 -8.38288,-7.4427 -19.811468,-12.72685 -20.275361,-20.94169 C 83.038884,103.271 94.357552,67.034355 118.10709,73.525301 Z"
       sodipodi:nodetypes="cccscc" /></g></svg>
