<?xml version="1.0" encoding="UTF-8" standalone="no"?>
<!-- Created with Inkscape (http://www.inkscape.org/) -->

<svg
   version="1.1"
   id="svg1"
   width="511.98755"
   height="511.9707"
   viewBox="0 0 511.98755 511.9707"
   sodipodi:docname="smudge_icon.svg"
   xml:space="preserve"
   inkscape:version="1.3.2 (091e20ef0f, 2023-11-25, custom)"
   xmlns:inkscape="http://www.inkscape.org/namespaces/inkscape"
   xmlns:sodipodi="http://sodipodi.sourceforge.net/DTD/sodipodi-0.dtd"
   xmlns="http://www.w3.org/2000/svg"
   xmlns:svg="http://www.w3.org/2000/svg"><defs
     id="defs1" /><sodipodi:namedview
     id="namedview1"
     pagecolor="#ffffff"
     bordercolor="#666666"
     borderopacity="1.0"
     inkscape:showpageshadow="2"
     inkscape:pageopacity="0.0"
     inkscape:pagecheckerboard="0"
     inkscape:deskcolor="#d1d1d1"
     inkscape:zoom="0.89746417"
     inkscape:cx="283.57678"
     inkscape:cy="255.16339"
     inkscape:window-width="1920"
     inkscape:window-height="1022"
     inkscape:window-x="2160"
     inkscape:window-y="1434"
     inkscape:window-maximized="1"
     inkscape:current-layer="g1" /><g
     inkscape:groupmode="layer"
     inkscape:label="Image"
     id="g1"
     transform="translate(831.15033,-172.23206)"><rect
       style="fill:#ffffff;fill-rule:evenodd;stroke:#000000;stroke-width:8.70849;stroke-dasharray:none;stroke-dashoffset:0;-inkscape-stroke:none"
       id="rect2-7-2-4"
       width="503.27905"
       height="499.741"
       x="-826.79608"
       y="-679.84851"
       ry="123.95918"
       transform="scale(1,-1)" /><path
       style="fill:#ff0000;fill-rule:evenodd;stroke:none;stroke-width:8.70849;stroke-dasharray:none;stroke-dashoffset:0;-inkscape-stroke:none"
       d="m -555.39991,548.61125 c 1.45322,0.90015 -2.47187,0.34463 -0.0267,0.002 z"
       id="path53" /><path
       style="fill:#ff0000;fill-rule:evenodd;stroke:none;stroke-width:8.70849;stroke-dasharray:none;stroke-dashoffset:0;-inkscape-stroke:none"
       d="m -827.17876,372.40166 -3.15168,33.7265 164.77434,73.18857 c 2.90952,1.12578 5.6854,2.5759 8.31154,4.23513 2.44481,0.11117 3.12962,-3.12195 5.00722,-4.27068 2.34383,-2.38228 4.33633,-5.06275 6.25489,-7.77792 1.64867,-1.70784 3.07813,-3.55632 4.24197,-5.58748 2.56155,-2.53642 4.4413,-5.64993 6.45815,-8.61452 1.07294,-1.67063 3.25809,-4.3116 0.54972,-5.6566 -2.04267,-1.85687 -4.79576,-1.42484 -5.72079,1.32847 -1.83979,2.66665 -3.96625,5.14958 -6.05088,7.64282 -1.0346,2.28337 -3.12006,3.88751 -4.42372,6.04411 -2.11438,3.13753 -4.73872,5.89638 -6.91923,8.98845 -0.72868,0.99936 -1.50705,1.67319 -0.32144,0.2575 1.50469,-1.20446 2.974,-3.55262 0.0842,-4.01156 -1.88634,-0.76998 -3.87107,-1.59887 -3.95468,-3.74734 -1.75454,-1.5432 -3.71309,-2.86 -5.59091,-4.26665 -5.47354,-3.85108 -11.24333,-7.29451 -16.47021,-11.48512 -1.22061,-1.75308 -0.98345,-4.02336 -1.651,-5.98494 -1.3591,-6.42646 -2.71822,-12.85294 -4.07733,-19.27941 l -108.48566,-41.60752 c -11.83079,-4.90862 -14.13081,-2.9627 -25.71286,-8.42751 z"
       id="rect2"
       sodipodi:nodetypes="ccccccccccccccccccccccc" /><g
       id="g69"
       transform="matrix(1.1598192,0,0,1.1886992,49.612101,-140.32371)"><g
         id="g68"><path
           style="fill:#2afdfd;fill-opacity:1;fill-rule:evenodd;stroke:none;stroke-width:11.388;stroke-dasharray:none;stroke-dashoffset:0;-inkscape-stroke:none"
           d="m -622.87602,576.89857 c -5.44179,3.43585 -9.44577,8.60416 -14.2727,12.78542 -13.3164,12.86271 -26.78547,25.57508 -40.03741,38.49906 -2.25925,3.20543 3.52065,-0.72448 5.18538,-0.69901 4.53634,-1.32568 8.90853,-3.13991 13.56053,-4.06895 9.49384,-2.53185 18.80711,-5.71892 28.35759,-8.05885 15.98243,-3.77591 31.63824,-8.78096 47.52285,-12.93521 2.8253,-0.78191 28.70446,-8.13726 31.51833,-8.95948 -1.10077,-3.13051 -27.48141,-17.12689 -30.12558,-19.20856 -12.80534,-5.80097 -27.23991,8.36508 -40.19639,2.90723 -0.49144,-0.14569 -0.99923,-0.24462 -1.5126,-0.26165 z"
           id="path55"
           sodipodi:nodetypes="ccccccccccc" /></g><g
         id="g67"
         transform="translate(-6.05924,1.19184)"><g
           id="g66"><path
             style="fill:#ff0000;fill-rule:evenodd;stroke:none;stroke-width:11.388;stroke-dasharray:none;stroke-dashoffset:0;-inkscape-stroke:none"
             d="m -552.01128,506.41781 c -5.04461,2.80111 -8.61614,7.51149 -12.77087,11.39638 -9.75051,9.88415 -19.64825,19.62532 -29.2013,29.70246 1.27436,2.49733 4.72654,2.34623 6.81214,3.93474 5.74298,2.42454 11.54911,4.82317 16.88034,8.04812 l 49.72074,24.06602 c 2.10383,2.32224 -3.53073,1.92138 -4.86147,2.94812 -7.68681,2.26632 -15.33905,4.70147 -23.01866,6.95643 -5.0758,0.6661 -9.58507,3.27754 -14.541,4.43353 -5.24086,1.66138 -10.71991,2.74874 -15.74277,4.99983 -2.32418,0.87788 -0.84629,2.47226 0.96546,1.40566 2.3527,-0.1759 1.3036,3.30711 4.08848,2.46591 4.25786,-0.63375 8.62447,-0.75917 12.78986,-1.93069 1.51372,-0.6611 -3.24405,-1.45525 -0.46536,-1.58552 3.89184,0.55576 6.94295,-2.32301 10.44476,-3.2937 3.59162,-0.4357 6.98164,-1.56148 9.98521,-3.33773 3.96372,0.20325 7.48851,-1.79197 11.06766,-3.20045 3.44293,-0.31523 4.99205,-3.71436 8.21918,-4.67995 3.20187,0.015 5.53767,-2.39066 8.48277,-2.94462 2.92627,-0.6319 5.33969,-2.20839 8.16901,-2.83727 2.42115,-2.17195 5.49134,-3.19117 8.58625,-4.023 12.38058,-3.31689 24.62891,-7.11781 36.82278,-11.06484 3.42728,-1.06195 6.76006,-2.38189 10.09263,-3.65666 3.0797,-0.24168 5.43875,-2.26363 8.45425,-2.58991 3.68854,-1.64238 -2.01794,-4.02711 -3.69029,-4.81041 l -72.30912,-34.43229 c -7.07127,-4.62834 -15.08612,-7.51543 -22.61389,-11.29214 -4.00934,-1.79173 -8.05106,-3.76537 -12.36679,-4.67802 z"
             id="path52"
             sodipodi:nodetypes="cccccccccccccccccccccccccccc" /><g
             id="g65"><path
               style="fill:#fd5858;stroke-width:0.938734"
               d="m -517.05721,626.23794 c -0.82663,-0.4626 -3.57686,-0.79436 -6.11167,-0.73725 -2.53479,0.0571 -4.39477,-0.24234 -4.13328,-0.66544 0.2615,-0.42311 2.04616,-0.82833 3.96591,-0.9005 1.91976,-0.0722 3.94409,-0.62568 4.49851,-1.23004 0.73248,-0.79844 0.69021,-0.91954 -0.15463,-0.44297 -0.79937,0.45091 -0.97499,0.16677 -0.56204,-0.90936 0.59745,-1.55692 -0.30642,-1.50553 -5.0811,0.28884 -0.6454,0.24253 -1.17343,-0.19267 -1.17343,-0.96712 0,-1.78508 -2.11229,-2.63026 -3.84006,-1.5365 -0.72763,0.46063 -2.37904,0.81063 -3.66981,0.77778 -1.29076,-0.0328 -1.81879,-0.27281 -1.17341,-0.53322 1.87652,-0.7572 1.35786,-1.81125 -0.93874,-1.90779 -4.78375,-0.20106 -8.63772,-1.08877 -8.96297,-2.0645 -0.19038,-0.57113 -1.31773,-1.03841 -2.50525,-1.03841 -1.36809,0 -2.33861,-0.68637 -2.64903,-1.87341 -1.02421,-3.91657 4.96238,-7.8146 28.43294,-18.51346 2.83967,-1.29445 5.89656,-2.72853 6.79308,-3.18687 0.89653,-0.45834 2.34177,-0.83333 3.21165,-0.83333 0.86988,0 2.24851,-0.57904 3.06362,-1.28673 0.81511,-0.70771 4.32883,-2.21912 7.80828,-3.35871 3.47943,-1.13959 6.56698,-2.46149 6.86122,-2.93758 0.29423,-0.47606 1.35489,-0.86558 2.35702,-0.86558 1.00214,0 1.82207,-0.44737 1.82207,-0.99414 0,-0.54678 0.39325,-0.7511 0.87387,-0.45406 0.48062,0.29705 1.10871,0.16011 1.39574,-0.30431 0.28701,-0.46441 3.59004,-1.83354 7.34005,-3.04251 3.74999,-1.20895 7.02939,-2.45471 7.28754,-2.76836 0.25815,-0.31363 2.79274,-1.33247 5.6324,-2.26408 2.83967,-0.93161 6.00789,-2.0437 7.0405,-2.47129 1.03262,-0.4276 4.20084,-1.59302 7.04051,-2.58984 10.50563,-3.68778 14.55781,-5.31063 14.8457,-5.9455 0.16243,-0.35822 0.93692,-0.40512 1.72105,-0.10425 0.8855,0.33979 -1.18283,1.59322 -5.45836,3.30786 -3.78626,1.51841 -8.50811,3.57187 -10.49305,4.5632 -1.98492,0.99134 -4.4139,1.80243 -5.39773,1.80243 -0.9838,0 -1.78875,0.42244 -1.78875,0.93874 0,0.5163 -0.70599,0.93873 -1.56887,0.93873 -0.86287,0 -2.23577,0.54622 -3.05088,1.21384 -0.81511,0.66761 -3.17174,1.75871 -5.23695,2.42468 -2.06522,0.66597 -5.23344,1.83803 -7.0405,2.60458 -5.14966,2.18449 -6.03699,2.54439 -23.93771,9.70891 -18.45182,7.38509 -25.80288,10.9163 -32.62316,15.67104 -2.45363,1.71055 -4.79271,3.11009 -5.19794,3.11009 -0.40524,0 -0.79808,0.81351 -0.87299,1.8078 -0.0929,1.234 0.812,2.16147 2.85113,2.92207 4.54252,1.69435 36.22944,2.25109 57.43383,1.0091 10.32607,-0.60481 24.89991,-1.2917 32.38632,-1.5264 7.48639,-0.2347 15.30135,-0.61671 17.36656,-0.8489 2.06521,-0.2322 8.19045,-0.6758 13.61163,-0.98577 5.42119,-0.30999 13.02493,-0.77198 16.89721,-1.02665 3.87227,-0.25467 14.43302,-0.8761 23.46833,-1.38096 9.03531,-0.50485 20.86336,-1.1799 26.28454,-1.50008 5.42119,-0.32019 9.63117,-0.33909 9.35553,-0.042 -0.5128,0.55275 -14.80332,2.00469 -29.06893,2.95346 -11.7622,0.78228 -18.18593,1.57578 -19.24403,2.37717 -0.5163,0.39104 -6.83973,0.93349 -14.05207,1.20544 -8.2299,0.31031 -13.24063,0.87637 -13.45518,1.52001 -0.18802,0.56407 -1.25712,1.03901 -2.37577,1.05543 -1.11866,0.0164 -2.85392,0.65005 -3.85613,1.4081 -1.0022,0.75803 -3.21997,1.37825 -4.92835,1.37825 -2.13519,0 -3.10614,0.44014 -3.10614,1.4081 0,0.87615 0.88658,1.40809 2.34683,1.40809 1.29075,0 2.34508,0.31683 2.34293,0.70406 -10e-4,0.38722 -5.4856,0.78083 -12.18547,0.87467 -6.69986,0.0938 -17.15326,0.66906 -23.22975,1.27821 -6.0765,0.60916 -17.38464,1.11457 -25.12919,1.12316 -8.01486,0.008 -13.27218,0.33971 -12.20354,0.76796 1.71464,0.68713 1.67395,0.76458 -0.46936,0.89301 -1.29077,0.0774 -5.84796,0.43165 -10.1271,0.78736 -4.27913,0.35571 -8.45658,0.26826 -9.28318,-0.19434 z m 126.17166,-16.18857 c -0.31193,-0.31193 -1.12158,-0.34528 -1.79924,-0.074 -0.74886,0.29968 -0.52641,0.52212 0.56715,0.56717 0.98958,0.0408 1.54402,-0.18111 1.23209,-0.49305 z m -34.65492,8.37449 c 0.67766,-0.27117 1.48731,-0.23782 1.79924,0.074 0.31193,0.31193 -0.2425,0.53379 -1.23209,0.49304 -1.09356,-0.0451 -1.31601,-0.26749 -0.56715,-0.56716 z m 88.65165,-14.08683 c 0.90353,-0.23612 2.38204,-0.23612 3.28557,0 0.90353,0.23611 0.16427,0.42931 -1.64278,0.42931 -1.80706,0 -2.54632,-0.1932 -1.64279,-0.42931 z"
               id="path44" /><g
               id="g64"><path
                 style="fill:#f6581e;stroke-width:0.938734"
                 d="m -537.76402,622.80432 c -3.91291,-1.84268 -8.34226,-2.38791 -12.07918,-4.63908 -4.37229,-1.77929 -9.15081,-2.03748 -13.75975,-2.80376 -13.06973,-1.44701 -26.27553,-1.22771 -39.31374,-2.98913 -1.99399,0.4153 -3.86184,-1.85277 -1.30206,-2.68319 3.06743,-1.47638 6.23975,-2.85417 9.65211,-3.27144 4.79301,-1.14092 9.33164,-3.2439 14.23202,-3.95128 1.71355,0.25616 0.23659,1.37666 0.14216,1.99638 1.24861,0.77166 4.41839,-1.50889 4.02338,1.46756 1.03355,2.01728 4.29505,0.1281 6.20986,0.41403 3.19079,-0.34822 6.37482,-0.80052 9.50869,-1.50259 0.0522,-1.0586 -3.32812,-1.42935 -0.59782,-1.59004 2.70293,0.0568 5.43806,-0.73712 7.55484,-2.43584 3.035,-1.43119 6.57598,-1.17111 9.60908,-2.55636 1.51548,-1.72442 3.68251,-1.67071 5.76915,-1.85175 3.22028,-0.53074 6.05588,-2.25195 9.09954,-3.2974 1.56882,0.0298 2.95681,-0.95511 3.43691,-2.09265 1.98767,-0.9591 3.50478,-2.84853 5.95328,-2.65617 2.59118,-0.12223 4.04197,-2.68537 6.66578,-2.68096 2.7909,0.23632 4.18166,-2.61727 6.88448,-2.30293 2.32355,-0.57708 3.71341,-3.16899 6.35109,-3.40232 5.10589,-1.70267 10.40163,-2.77149 15.51216,-4.47009 10.89113,-3.25858 21.80672,-6.48617 32.49592,-10.36177 1.15385,-0.47141 3.81004,-2.0252 4.32445,-0.89319 -1.5595,1.51423 -3.81381,2.11739 -5.80751,2.8545 -4.08205,0.77004 -7.77102,2.73284 -11.70838,3.97543 -3.14451,0.98328 -6.20606,2.19091 -9.15061,3.67049 -4.06127,1.72173 -8.44266,2.62587 -12.39066,4.63609 -1.49849,0.81159 -3.16285,1.33364 -4.59243,2.07341 -2.4854,0.48988 -4.30316,2.42829 -6.76111,3.00312 -3.90454,1.40724 -8.01069,2.53174 -11.42493,4.98651 -2.16246,0.73646 -4.57075,0.71672 -6.51899,2.04533 -10.14786,4.8661 -20.71383,9.01994 -30.15076,15.23156 -1.90816,1.37271 -4.73421,3.73913 -3.41016,6.3467 1.41454,1.92413 4.17457,0.94325 5.66154,2.84654 2.34547,1.4723 5.2937,1.18162 7.94135,1.55147 1.39088,-0.20483 3.16494,0.73499 1.46378,2.00864 0.94124,1.23992 3.72506,-0.0923 5.17901,-0.57215 2.26525,-1.36933 2.84566,1.5739 4.09065,2.54632 1.9067,0.46844 3.61206,-1.59149 5.36464,-1.16921 0.37282,0.89105 -0.407,2.19559 0.89635,2.13059 -1.77315,1.74074 -4.80946,0.73584 -7.10813,1.23215 -3.75486,0.0764 -7.55857,0.058 -11.26289,-0.58583 l -0.34625,-0.11611 -0.33686,-0.14147 z m 113.09007,0.39333 c 0.0289,-1.52701 -0.16096,-4.14492 -2.42894,-3.09131 -2.55277,0.17824 -2.25411,-3.69324 0.38262,-2.84512 2.86727,0.15968 5.32425,-1.28341 7.73032,-2.53678 2.52115,0.13863 4.23029,-1.80365 6.59706,-2.11889 8.14196,-1.01799 16.40016,-0.59866 24.52198,-1.82386 4.02704,-1.54914 8.42327,-1.49203 12.65253,-2.00172 10.83622,-0.7932 21.67758,-1.5501 32.47301,-2.80181 3.74444,-0.39008 7.52002,-0.80356 11.2694,-0.89205 1.92514,0.45875 0.84351,2.27686 -0.68187,1.14739 -2.4991,-0.63844 -4.48246,1.50683 -6.89315,1.6875 -4.23842,0.67382 -8.54617,0.77939 -12.79564,1.39374 -13.3416,1.57317 -26.63243,3.58705 -39.86547,5.88515 -3.02272,0.69099 -5.98194,1.94368 -9.11062,1.91732 -1.96737,1.15321 -3.78334,2.5559 -6.21171,2.48057 -3.00677,0.38014 -5.93045,1.17644 -8.86717,1.87633 -2.44743,0.4111 -4.93649,0.39074 -7.40638,0.54969 -0.85572,0.51032 1.15465,2.16729 -0.72068,1.60932 -0.24977,-0.0773 -0.49825,-0.20995 -0.64529,-0.43547 z m 0.93272,-4.69968 c -0.85356,-1.19923 -2.81079,0.97515 -0.69237,0.52196 0.2939,10e-4 0.72664,-0.15777 0.69237,-0.52196 z m 31.05644,-8.52271 c 2.15377,-0.88622 1.19258,1.66633 -0.40543,0.25792 l 0.0977,-0.12172 z m -183.81575,-8.74607 c 0.63237,-0.9885 3.41185,-0.90156 1.47104,0.31491 -0.4415,0.40264 -3.10413,0.89051 -1.47104,-0.31491 z m 13.83066,-3.87141 c 1.40828,-1.71168 2.03296,0.91654 -0.0165,0.69784 -0.70891,0.1319 -0.33932,-0.54289 0.0165,-0.69784 z m 16.0328,-0.52479 c 2.15378,-0.88621 1.19256,1.66631 -0.40545,0.2579 l 0.0977,-0.12171 z m -16.7212,-34.09187 c -1.51582,-1.96506 3.25589,0.28735 0.96718,0.62695 -0.34082,-0.18272 -0.60135,-0.48577 -0.96718,-0.62695 z m 118.74978,0 c 0.39801,-1.37637 4.20422,-1.05126 1.98201,0.29254 -0.50073,0.35211 -2.50198,1.08843 -1.98201,-0.29254 z m 5.63241,-1.87747 c 0.81869,-2.13789 2.23992,1.90605 0.0683,0.80554 -0.24569,-0.17822 -0.33028,-0.59385 -0.0683,-0.80554 z"
                 id="path42"
                 sodipodi:nodetypes="sccccccccccccccccccccccccccccccccccccccccccccsccccccccccccccccccccccccccccccccccccccccccccc" /><g
                 id="g63"><path
                   style="fill:#f78b58;stroke-width:0.938734"
                   d="m -569.50354,631.1983 c -0.31282,-0.50617 2.81464,-0.86837 7.49796,-0.86837 4.41905,0 8.03464,-0.37664 8.03464,-0.83697 0,-0.46033 1.13965,-1.123 2.53256,-1.47259 1.98599,-0.49846 2.23923,-0.82121 1.17342,-1.49551 -1.05225,-0.6657 -0.86971,-0.86309 0.8084,-0.87423 1.19216,-0.008 1.92902,0.37159 1.63748,0.84331 -0.29959,0.48475 0.79876,0.65047 2.52612,0.38114 3.6604,-0.57075 4.63357,-1.23882 1.80455,-1.23882 -1.11866,0 -2.03393,-0.37794 -2.03393,-0.83987 0,-0.47286 1.41523,-0.5207 3.23857,-0.10947 1.78121,0.40173 3.46073,0.50825 3.73225,0.23673 0.27153,-0.27152 1.14074,0.0434 1.93158,0.69968 1.72375,1.43058 13.93617,1.39574 14.42255,-0.0412 0.21302,-0.62936 0.77643,-0.58915 1.62614,0.11598 1.42037,1.1788 9.59875,1.30856 19.16938,0.30414 4.20151,-0.44094 5.51708,-0.85398 4.2243,-1.32629 -1.0326,-0.37725 4.45899,-0.6559 12.20354,-0.61923 13.24619,0.0627 15.30195,1.22732 2.59197,1.46835 -3.22114,0.0611 -11.66974,0.72065 -18.77467,1.46567 -7.10492,0.74505 -18.62084,1.81081 -25.59094,2.3684 -6.9701,0.55758 -16.47477,1.40801 -21.1215,1.88983 -10.65446,1.10479 -20.93511,1.08064 -21.63437,-0.0508 z m 33.36854,-5.93097 c 0,-0.89051 2.80997,-1.33931 3.3109,-0.5288 0.30517,0.49374 -0.31496,0.89773 -1.37804,0.89773 -1.06307,0 -1.93286,-0.16602 -1.93286,-0.36893 z m 5.63239,-0.5698 c 1.84943,-1.19518 4.02423,-1.19518 3.28557,0 -0.3191,0.5163 -1.50571,0.93226 -2.63692,0.92437 -1.6721,-0.0117 -1.7934,-0.18458 -0.64865,-0.92437 z m -9.56334,-1.58 c 0.67765,-0.27118 1.48731,-0.23782 1.79924,0.074 0.31193,0.31193 -0.24251,0.5338 -1.23209,0.49304 -1.09356,-0.0451 -1.31601,-0.26748 -0.56715,-0.56715 z m 76.46597,-0.009 c 0.91336,-0.23802 2.18065,-0.22235 2.81621,0.0348 0.63555,0.25714 -0.11168,0.45188 -1.66065,0.43275 -1.54892,-0.0192 -2.06891,-0.22952 -1.15556,-0.46753 z m 10.3082,-0.9353 c 0.90353,-0.2361 2.38204,-0.2361 3.28557,0 0.90353,0.23613 0.16429,0.42932 -1.64278,0.42932 -1.80706,0 -2.54632,-0.19319 -1.64279,-0.42932 z m -75.80272,-9.35674 c -6.41071,-0.76305 -9.74114,-2.18479 -9.59711,-4.09691 0.077,-1.02174 0.63197,-1.85771 1.23333,-1.85771 0.60135,0 1.61927,-0.63365 2.262,-1.40811 0.64275,-0.77445 1.64494,-1.37475 2.2271,-1.33399 0.66508,0.0465 0.62235,0.25009 -0.11494,0.54759 -0.64539,0.26042 -1.17342,1.03674 -1.17342,1.72514 0,0.6884 -0.52426,1.42639 -1.16504,1.63999 -2.33851,0.7795 1.9076,3.5219 5.55697,3.58901 1.97303,0.0364 4.43216,0.42903 5.46478,0.87276 l 1.87746,0.80679 -1.87746,-0.0748 c -1.03262,-0.0412 -3.14477,-0.22551 -4.69367,-0.40988 z m 8.68328,-0.005 c 0.64538,-0.26042 1.70145,-0.26042 2.34684,0 0.64538,0.2604 0.11728,0.47346 -1.17342,0.47346 -1.29076,0 -1.8188,-0.21306 -1.17342,-0.47346 z m 121.58386,-4.72251 c 0.91335,-0.23801 2.18065,-0.22236 2.81619,0.0348 0.63556,0.25714 -0.11168,0.45188 -1.66064,0.43275 -1.54892,-0.0192 -2.06891,-0.22952 -1.15555,-0.46753 z m 25.82211,-1.91549 c 2.20794,-0.1983 5.58738,-0.19551 7.50987,0.007 1.92249,0.20171 0.11598,0.36397 -4.01443,0.36055 -4.13042,-0.004 -5.70337,-0.16844 -3.49544,-0.36675 z m 14.52556,-0.89728 c 0.90353,-0.2361 2.38204,-0.2361 3.28557,0 0.90353,0.23613 0.16427,0.42932 -1.64279,0.42932 -1.80705,0 -2.54631,-0.19319 -1.64278,-0.42932 z m 16.91507,-0.94216 c 0.91335,-0.23802 2.18065,-0.22236 2.8162,0.0348 0.63555,0.25714 -0.11181,0.45188 -1.66065,0.43275 -1.5489,-0.0192 -2.06891,-0.22953 -1.15555,-0.46753 z m -187.99925,-2.65416 c 0,-0.17202 1.30971,-0.96611 2.91046,-1.76466 2.20001,-1.09752 2.65079,-1.13905 1.84672,-0.1702 -0.95842,1.15483 -4.75718,2.69986 -4.75718,1.93486 z m 8.4486,-4.67454 c 1.29076,-0.73786 2.76927,-1.34158 3.28557,-1.34158 0.5163,0 -0.11741,0.60372 -1.4081,1.34158 -1.29076,0.73786 -2.76927,1.34157 -3.28557,1.34157 -0.5163,0 0.11728,-0.60371 1.4081,-1.34157 z"
                   id="path46" /><g
                   id="g62"><path
                     style="fill:#e88829;stroke-width:0.938734"
                     d="m -562.59556,631.56613 c 0.68447,-1.15003 2.20704,1.09877 0.54849,0.59398 -0.31959,0.0198 -1.33112,-0.27105 -0.54849,-0.59398 z m -6.76632,-2.44288 c 2.34157,-0.75798 1.07246,-3.72324 -0.21641,-4.90865 -2.0415,-2.49749 -5.51234,-2.57675 -8.37041,-3.42414 -3.827,-0.8701 -7.41506,-2.46884 -10.91825,-4.19809 -1.25858,-0.56314 -2.54457,-1.17841 -3.94227,-1.19175 -1.4378,0.17872 -2.44408,-1.93207 -0.47845,-1.79024 4.61006,-0.15751 9.2137,0.3442 13.81648,0.54431 8.13411,0.45564 16.27768,1.05358 24.30324,2.51004 2.08294,0.34762 4.22672,0.66377 6.04381,1.8249 2.67814,1.59921 5.78594,2.18085 8.68686,3.24402 1.70535,0.68501 3.48103,0.99494 5.27236,1.29777 1.954,0.42868 -1.30535,2.77362 1.06897,2.58326 1.62371,0.008 1.46642,-2.83435 3.4386,-1.80339 0.98711,0.44976 -0.41293,1.60646 0.99235,1.70135 1.86632,0.26308 3.76838,-0.0494 5.65287,0.15411 1.07351,-0.16092 1.61256,0.76029 0.166,0.7108 -3.90154,0.30776 -7.88296,0.59949 -11.74802,-0.22708 -1.99171,-1.87376 -4.91164,-0.72926 -7.27044,-1.59416 -1.0041,-0.84852 -3.43978,0.65305 -1.37311,1.02929 0.67117,-0.10607 2.55336,0.303 1.03549,0.83118 -1.80921,0.65543 -3.93038,0.97927 -5.29318,-0.64102 -1.03721,-0.64812 -2.67125,0.15592 -1.54303,1.3512 -0.56116,1.41439 -2.97486,0.73011 -3.83283,2.19012 -2.14129,1.23286 -4.69073,0.71816 -7.03776,0.96778 -2.91516,0.0453 -5.85529,0.0284 -8.74924,-0.28035 -0.42675,-0.23665 -0.1603,-0.91128 0.29637,-0.88126 z m 31.09517,-5.93161 c -0.63212,-1.2708 -2.6941,0.93792 -0.65292,0.51074 0.28082,-0.0212 0.64341,-0.18484 0.65292,-0.51074 z m 47.90591,2.71942 c 0.95125,10e-4 2.69905,-0.73033 3.12871,0.34138 -0.86014,-0.0134 -2.80658,0.4895 -3.12871,-0.34138 z m 30.96726,-2.77397 c 0.79273,-1.02456 3.05653,0.69025 0.81408,0.51405 -0.33017,0.0481 -0.85067,-0.0804 -0.81408,-0.51405 z m 22.54055,-1.91969 c 0.95125,10e-4 2.69897,-0.73036 3.12872,0.34128 -0.86008,-0.0133 -2.80673,0.48966 -3.12872,-0.34128 z"
                     id="path43" /><g
                     id="g61"><g
                       id="g58"
                       transform="matrix(1.3031348,0,0,1.3031348,169.45793,-408.44696)"><path
                         style="fill:#9d9c24;stroke-width:0.720366"
                         d="m -420.79179,807.95067 c -0.25237,-0.40834 0.0368,-0.5291 0.67785,-0.28311 1.24797,0.4789 1.47631,0.99523 0.44011,0.99523 -0.37282,0 -0.8759,-0.32045 -1.11796,-0.71212 z M -588.012,799.82235 c -0.34655,-0.61019 -1.60257,-1.26509 -2.79118,-1.45533 -2.36615,-0.37868 -6.83166,-2.71057 -6.83892,-3.57127 -0.002,-0.29715 -0.4908,-0.54027 -1.0851,-0.54027 -0.5943,0 -1.08055,-0.48625 -1.08055,-1.08055 0,-0.5943 -0.32871,-1.08055 -0.73046,-1.08055 -0.40177,0 -1.86148,-0.72937 -3.24382,-1.62082 -1.68917,-1.08932 -2.45358,-2.09327 -2.33109,-3.06155 0.10604,-0.83821 -0.19431,-1.36542 -0.71819,-1.26064 -0.49525,0.099 -0.90046,-0.1094 -0.90046,-0.46321 0,-0.7143 1.73597,-1.5178 3.27921,-1.5178 0.55016,0 2.77203,-0.81041 4.93749,-1.80091 2.16546,-0.99051 4.52526,-1.79061 5.24399,-1.77801 1.25291,0.022 1.25208,0.0644 -0.0202,1.02837 -1.23055,0.93241 -1.12586,1.06131 1.44074,1.77399 1.52224,0.42269 3.33939,0.77033 4.03811,0.77254 0.69873,0.002 1.8333,0.29037 2.52128,0.64034 0.68798,0.34998 2.22336,1.03243 3.41196,1.51657 1.18861,0.48414 3.13359,1.3297 4.3222,1.87901 1.1886,0.54932 4.09057,1.42876 6.44882,1.95431 3.58641,0.79925 4.49375,1.32433 5.54737,3.2103 1.22218,2.1877 1.21672,2.26839 -0.18355,2.71281 -1.15106,0.36534 -1.27184,0.66452 -0.59669,1.47803 0.46557,0.56098 1.53617,1.06561 2.37911,1.12139 2.76054,0.18269 -6.21675,1.28969 -14.40571,1.77638 -6.80093,0.4042 -8.1097,0.30835 -8.64439,-0.63313 z m -14.87231,-13.92612 c -0.23937,-0.23937 -0.86068,-0.26496 -1.3807,-0.0568 -0.57466,0.22996 -0.40396,0.40066 0.43522,0.43522 0.75938,0.0313 1.18485,-0.13898 0.94548,-0.37835 z m 55.49156,11.45159 c 0.89607,-0.17231 2.19273,-0.16576 2.88146,0.0146 0.68874,0.1803 -0.0444,0.32128 -1.62922,0.31329 -1.5848,-0.008 -2.14831,-0.15552 -1.25224,-0.32782 z m 10.84211,-0.70297 c 0.52002,-0.2081 1.14133,-0.1825 1.3807,0.0568 0.23937,0.23937 -0.1861,0.40963 -0.94548,0.37835 -0.83918,-0.0346 -1.00988,-0.20526 -0.43522,-0.43522 z m 23.0517,-2.1611 c 0.52002,-0.20809 1.14133,-0.1825 1.3807,0.0568 0.23937,0.23937 -0.1861,0.40962 -0.94548,0.37835 -0.83918,-0.0346 -1.00988,-0.20526 -0.43522,-0.43523 z m 11.85472,-0.72748 c 0.70089,-0.18265 1.67338,-0.17063 2.16109,0.0267 0.48772,0.19732 -0.0857,0.34676 -1.27435,0.33208 -1.1886,-0.0147 -1.58763,-0.17613 -0.88674,-0.35877 z m 6.82976,-0.69824 c 0.49525,-0.19984 1.30566,-0.19984 1.80091,0 0.49526,0.19984 0.0901,0.36334 -0.90045,0.36334 -0.9905,0 -1.39571,-0.1635 -0.90046,-0.36334 z m 5.04256,-0.72037 c 0.49525,-0.19983 1.30566,-0.19983 1.80091,0 0.49526,0.19984 0.09,0.36334 -0.90045,0.36334 -0.99051,0 -1.39571,-0.1635 -0.90046,-0.36334 z m 10.08512,-0.72036 c 0.49525,-0.19984 1.30566,-0.19984 1.80091,0 0.49525,0.19984 0.0901,0.36334 -0.90045,0.36334 -0.99051,0 -1.39571,-0.1635 -0.90046,-0.36334 z m 5.80795,-0.73538 c 0.52001,-0.20809 1.14133,-0.1825 1.3807,0.0568 0.23937,0.23937 -0.1861,0.40963 -0.94548,0.37835 -0.83918,-0.0346 -1.00988,-0.20526 -0.43522,-0.43523 z m 12.96658,-0.72036 c 0.52002,-0.2081 1.14133,-0.1825 1.3807,0.0568 0.23937,0.23937 -0.1861,0.40963 -0.94548,0.37835 -0.83918,-0.0346 -1.00988,-0.20526 -0.43522,-0.43522 z m -130.97148,-10.31339 c 0.59431,-0.38407 1.40472,-0.69831 1.80092,-0.69831 0.3962,0 0.23412,0.31424 -0.36019,0.69831 -0.5943,0.38406 -1.40471,0.6983 -1.80091,0.6983 -0.3962,0 -0.23412,-0.31424 0.36018,-0.6983 z m 5.04256,-1.44073 c 0.5943,-0.38407 1.40472,-0.69831 1.80092,-0.69831 0.3962,0 0.23412,0.31424 -0.36019,0.69831 -0.5943,0.38406 -1.40471,0.6983 -1.80091,0.6983 -0.3962,0 -0.23412,-0.31424 0.36018,-0.6983 z m 5.76293,-1.44074 c 0.5943,-0.38407 1.40471,-0.6983 1.80091,-0.6983 0.3962,0 0.23412,0.31423 -0.36018,0.6983 -0.5943,0.38407 -1.40471,0.69831 -1.80091,0.69831 -0.39621,0 -0.23412,-0.31424 0.36018,-0.69831 z m 46.82376,-13.68694 c 0.5943,-0.38407 1.40472,-0.69831 1.80092,-0.69831 0.3962,0 0.23412,0.31424 -0.36019,0.69831 -0.5943,0.38406 -1.40471,0.6983 -1.80091,0.6983 -0.3962,0 -0.23412,-0.31424 0.36018,-0.6983 z m -183.69323,-87.16424 c -0.64926,-0.41959 -0.73811,-0.70271 -0.22261,-0.70934 0.47187,-0.006 1.05829,0.31314 1.30316,0.70934 0.55274,0.89435 0.30336,0.89435 -1.08055,0 z"
                         id="path41"
                         sodipodi:nodetypes="sssssscsssssssssssscsssssssssssssssssssssssssscssccssssssssssssssssscssccsssssssssssssssssssssssssscss" /><path
                         id="path37"
                         style="fill:#0caf1e;stroke-width:0.720366"
                         d="m -601.65884,782.7711 c -0.0924,-0.008 -0.19979,-0.002 -0.31055,0.0195 -1.40298,0.10633 -2.68823,0.72866 -3.96094,1.27734 1.4659,0.1026 3.07062,0.0748 4.31055,-0.8164 0.3739,-0.30196 0.23814,-0.45746 -0.0391,-0.48047 z m -4.99805,1.54883 c -2.85205,0.37018 -5.60669,1.23219 -8.38867,1.92968 -2.29243,0.61632 -4.58849,1.26861 -6.78906,2.15821 l -13.75586,3.77734 -0.0859,-0.0273 -0.15039,-0.002 c -0.77343,0.0226 -1.5332,0.27117 -2.18164,0.69336 l -7.07422,1.94141 c 0,0 -0.3922,0.27735 -0.45703,0.32227 -2.54145,0.83412 -4.99065,1.93006 -7.15821,3.51562 -2.63295,1.88632 -4.80763,4.30639 -7.10546,6.56836 -0.50297,0.50493 -1.00762,1.00799 -1.51758,1.50586 0.75394,-0.0849 1.50936,-0.15489 2.26367,-0.23633 0.0175,0.007 0.0262,0.0183 0.0469,0.0234 1.54924,0.38731 20.47163,-1.08434 32.10547,-2.0332 -0.2098,0.19254 -0.41906,0.38562 -0.6289,0.57812 13.22589,-1.14583 26.45183,-2.29167 39.67773,-3.4375 -0.5251,-0.18446 -1.0279,-0.79635 -0.24414,-1.04297 0.42543,-0.71025 -0.34251,-1.4333 -0.97461,-1.6582 -1.33953,-0.6038 -2.86443,-0.60101 -4.19726,-1.23242 -1.59502,-0.65245 -2.94109,-1.75228 -4.37696,-2.67969 -0.0105,-0.74224 -1.11555,-0.50613 -1.22851,-1.18359 -0.34372,-1.43994 -1.68957,-2.40056 -3.01758,-2.87891 -0.78993,-0.3359 -1.73008,-0.24287 -2.42578,-0.80469 -0.87996,-0.66351 -1.88936,-1.53292 -1.80274,-2.74609 0.31099,-0.72682 -0.45799,-1.48198 -1.17968,-1.22461 -0.70664,-0.19474 -0.36667,-1.19781 0.18164,-1.37891 0.12086,-0.0829 0.63954,-0.27979 0.46484,-0.44726 z m 2.75781,1.35937 c -0.42572,0.13016 -0.73769,0.61594 -0.0215,0.60742 0.42219,0.1522 1.51032,-0.26292 0.6582,-0.57617 l -0.11328,-0.0195 -0.0937,0.008 c -0.13374,-0.067 -0.28778,-0.0629 -0.42969,-0.0195 z m 132.54492,5.04297 c -0.42576,0.12966 -0.73405,0.61546 -0.0176,0.60742 0.42247,0.15297 1.50893,-0.26465 0.65625,-0.57617 l -0.11329,-0.0195 -0.0937,0.01 v -0.002 c -0.13398,-0.0677 -0.28971,-0.0628 -0.43164,-0.0195 z" /></g><g
                       id="g60"><path
                         id="path54"
                         style="fill:#ff0000;fill-rule:evenodd;stroke:none;stroke-width:11.388;stroke-dasharray:none;stroke-dashoffset:0;-inkscape-stroke:none"
                         d="m -332.95181,606.25938 c -2.98644,0.18891 -5.55727,2.22416 -8.64258,1.98828 -16.86508,1.60193 -33.64891,4.04733 -50.32227,7.03516 -3.31564,1.24152 -7.36652,1.26316 -10.31054,2.76953 -2.671,2.01117 -6.29214,1.41214 -9.36524,2.35742 -3.89001,0.88185 -7.80598,1.83011 -11.8125,1.87305 -0.34469,1.35077 4.11055,2.2259 5.53125,3.36719 l 54.19532,24.59375 c 13.18614,-12.18015 23.77601,-27.10041 30.72656,-43.98438 z" /><g
                         id="g59"><path
                           style="fill:#fd9b9a;stroke-width:0.938734"
                           d="m -549.45329,631.56613 c 0.67766,-0.27117 1.48731,-0.23782 1.79924,0.074 0.31193,0.31193 -0.24251,0.5338 -1.23209,0.49304 -1.09356,-0.0451 -1.31601,-0.26748 -0.56715,-0.56715 z m 27.63397,-2.82203 c 0.90353,-0.23611 2.38204,-0.23611 3.28556,0 0.90353,0.23612 0.16429,0.42931 -1.64278,0.42931 -1.80706,0 -2.54631,-0.19319 -1.64278,-0.42931 z m 13.61163,-0.91334 c 0.64539,-0.26042 1.70146,-0.26042 2.34684,0 0.64538,0.26041 0.11728,0.47348 -1.17342,0.47348 -1.29075,0 -1.8188,-0.21307 -1.17342,-0.47348 z m -16.45264,-15.50548 c -0.88988,-0.35093 -3.23225,-0.66775 -5.20528,-0.70404 -3.64937,-0.0671 -7.89548,-2.80952 -5.55697,-3.58903 0.64078,-0.21358 1.16504,-0.79323 1.16504,-1.2881 0,-1.49352 3.13445,-4.29836 5.6324,-5.04011 1.29075,-0.38329 2.98048,-1.21099 3.75493,-1.83934 0.77447,-0.62835 2.78101,-1.68571 4.45899,-2.34969 1.67798,-0.66397 3.05089,-1.57841 3.05089,-2.03207 0,-0.45367 0.67407,-0.82484 1.49794,-0.82484 0.82388,0 2.61919,-0.58219 3.98962,-1.29374 1.37042,-0.71156 3.75896,-1.82687 5.30786,-2.47845 5.67087,-2.38558 8.50022,-3.56079 10.79545,-4.48403 1.29075,-0.51921 4.34877,-1.83097 6.79558,-2.91504 2.44682,-1.08405 5.05277,-1.97101 5.791,-1.97101 0.73826,0 2.53819,-0.60927 3.99986,-1.35393 1.46167,-0.74465 5.19217,-2.27967 8.29,-3.41113 3.09781,-1.13146 7.82399,-3.05677 10.50262,-4.27848 2.67862,-1.2217 5.38009,-2.22127 6.00326,-2.22127 1.08391,0 12.79141,-5.23919 17.80034,-7.96577 1.34244,-0.73075 2.92081,-0.9721 3.60241,-0.55085 2.06439,1.27586 -13.97619,9.83301 -30.86814,16.46718 -4.90488,1.92636 -10.2491,4.09376 -11.87604,4.81645 -1.62693,0.7227 -3.25282,1.314 -3.61305,1.314 -0.81578,0 -7.0192,2.67046 -8.91798,3.83902 -0.77445,0.47663 -2.04174,1.12869 -2.81619,1.44904 -5.98077,2.47388 -11.26481,5.21964 -11.26481,5.85356 0,0.4183 -1.07989,1.25258 -2.39977,1.85396 -1.31987,0.60137 -2.17797,1.45226 -1.90689,1.89087 0.27106,0.43861 -0.54997,1.27262 -1.82455,1.85335 -1.27456,0.58074 -2.31739,1.66338 -2.31739,2.40588 0,0.74249 -0.52804,1.56308 -1.17342,1.82348 -0.93873,0.3788 -0.93873,0.4883 0,0.54759 1.75517,0.1109 1.4146,1.7488 -0.46936,2.25746 -2.83901,0.76652 49.58891,0.44993 57.96679,-0.35003 4.38858,-0.41905 16.42783,-1.23207 26.75391,-1.80671 10.32607,-0.57464 25.32233,-1.48727 33.32504,-2.02807 8.00269,-0.54079 24.48223,-1.19892 36.62118,-1.46251 18.87816,-0.40991 22.54455,-0.26333 25.3458,1.01333 1.91181,0.87131 2.29815,1.23981 0.92816,0.88532 -1.29076,-0.33399 -2.76927,-0.57581 -3.28557,-0.5374 -0.5163,0.0384 -11.92191,0.73479 -25.3458,1.54755 -13.4239,0.81274 -25.88558,1.68208 -27.69265,1.93187 -1.80706,0.24978 -8.56593,0.69179 -15.01973,0.98225 -6.45379,0.29044 -17.01454,0.93343 -23.46834,1.42886 -18.03729,1.38462 -79.83132,3.8419 -88.77559,3.5302 -4.37997,-0.15262 -8.69167,-0.56463 -9.58155,-0.91558 z m 79.58247,-56.1553 c -0.84607,-0.54678 -0.96186,-0.91572 -0.29009,-0.92436 0.61491,-0.008 1.3791,0.40806 1.69819,0.92436 0.7203,1.16546 0.39532,1.16546 -1.4081,0 z M -584.01042,398.10832 c 0,-0.19492 0.73926,-0.93418 1.64279,-1.64278 1.48888,-1.16766 1.52209,-1.13446 0.35443,0.35442 -1.22633,1.5637 -1.99722,2.06098 -1.99722,1.28836 z m -233.74464,-9.0329 c -0.84607,-0.54678 -0.96186,-0.91572 -0.29009,-0.92436 0.61491,-0.008 1.37909,0.40806 1.69819,0.92436 0.7203,1.16546 0.39532,1.16546 -1.4081,0 z"
                           id="path48"
                           sodipodi:nodetypes="sssssssssssssssssssssssssssssssssssssssssssssssssssssssssssssssssssssss" /><path
                           id="path56"
                           style="fill:#2afdfd;fill-opacity:1;fill-rule:evenodd;stroke:none;stroke-width:11.388;stroke-dasharray:none;stroke-dashoffset:0;-inkscape-stroke:none"
                           d="m -508.0397,628.53282 c -10.72991,-0.14046 -21.31901,1.97196 -32.02149,2.41211 -18.86759,1.49099 -37.67158,3.68201 -56.53711,5.19922 -32.33742,2.91697 -64.68432,5.80085 -97.10547,7.62695 -6.20166,5.54054 -12.31822,11.17623 -18.44531,16.79883 21.68724,-2.16498 43.15941,-6.83873 65.03906,-6.75391 11.39438,0.0302 22.82307,-0.13566 34.1836,0.85938 8.37053,1.03234 16.66401,2.65437 24.92773,4.33203 14.35742,2.99548 28.21362,7.92185 41.73438,13.53711 l 144.55859,1.80859 c -1.95526,-0.88398 -3.90819,-1.77205 -5.86719,-2.64648 -4.12066,-2.29979 -8.50494,-4.01275 -12.88867,-5.72266 -10.71048,-4.70458 -21.21649,-9.86418 -31.96289,-14.49219 -9.5043,-4.14167 -18.89668,-8.58036 -28.46094,-12.55859 -8.58643,-2.74742 -15.62356,-9.48333 -24.87304,-10.24805 -0.75793,-0.0838 -1.51886,-0.13538 -2.28125,-0.15234 z"
                           sodipodi:nodetypes="cccccccccccccccc" /></g><path
                         id="path49"
                         style="fill:#00fe2b;fill-opacity:1;fill-rule:evenodd;stroke:none;stroke-width:11.2402;stroke-linecap:square;stroke-dasharray:181.224, 60.408;paint-order:markers stroke fill"
                         d="m -423.48697,622.81993 -80.4414,5.10937 100.06835,47.21094 c 14.99824,-5.70018 28.56176,-14.17768 40.125,-24.8457 z" /></g></g></g></g></g></g></g><path
           style="fill:#00fe2b;fill-opacity:1;fill-rule:evenodd;stroke:none;stroke-width:11.2402;stroke-linecap:square;stroke-dasharray:181.224, 60.408;paint-order:markers stroke fill"
           d="m -593.98345,547.51665 -29.30139,-7.85122 78.65763,52.92155 25.28594,-7.92509 z"
           id="path50"
           sodipodi:nodetypes="ccccc" /></g></g><path
       style="fill:#2afdfd;fill-opacity:1;fill-rule:evenodd;stroke:none;stroke-width:8.70849;stroke-dasharray:none;stroke-dashoffset:0;-inkscape-stroke:none"
       d="m -826.39019,438.95359 -0.78793,24.70062 c 45.25397,26.4292 84.17908,51.33712 129.44909,77.73897 2.64185,1.14046 4.09648,-1.94209 5.38173,-3.62617 4.56998,-6.09059 8.62526,-12.5924 13.73707,-18.25755 1.01532,-2.19519 2.33717,-4.19643 3.74882,-6.15197 1.24925,-1.80211 3.1794,-4.76723 0.0477,-5.83821 -2.79862,-1.15747 -5.57098,-2.34495 -8.20068,-3.85725 -5.45903,-2.09037 -10.66305,-4.83011 -16.02676,-7.16997 -20.72575,-9.48516 -41.57699,-18.6968 -62.2886,-28.2115 -8.45479,-3.69634 -16.99069,-7.26311 -25.15732,-11.56252 -7.63347,-3.82529 -15.47783,-7.24535 -23.22301,-10.84957 -7.91903,-3.61931 -22.15469,-17.78682 -18.256,-10.04441 z"
       id="rect2-7-3"
       sodipodi:nodetypes="ccccccccccccsc" /><path
       style="fill:#00fe2b;fill-opacity:1;fill-rule:evenodd;stroke:none;stroke-width:8.59542;stroke-linecap:square;stroke-dasharray:138.583, 46.1943;paint-order:markers stroke fill"
       d="m -656.55588,483.94177 -16.44917,24.84996 -155.64453,-71.55073 4.01896,-29.58842 z"
       id="path51"
       sodipodi:nodetypes="ccccc" /><path
       style="fill:#000000;fill-rule:evenodd;stroke:#ffffff;stroke-width:8.70849;stroke-dasharray:none;stroke-dashoffset:0;-inkscape-stroke:none"
       d="m -666.53056,180.10716 c -21.85496,13.72153 -44.16424,26.73695 -65.62218,41.07619 -13.56295,12.42657 -20.54416,29.78552 -28.24228,46.01614 -1.4722,3.32255 -3.37371,6.47918 -4.76323,9.81394 -3.10624,13.23514 0.9558,26.69557 0.15241,40.0472 0.0847,4.1355 3.93314,8.54405 8.36825,7.34043 5.39068,-1.2182 9.10038,-6.30094 10.08709,-11.49669 7.0534,-13.2029 12.15527,-27.58628 21.41709,-39.51954 6.74266,-7.93216 16.37734,-12.53376 25.28705,-17.59884 5.49692,-2.94667 10.84776,-6.20599 15.96066,-9.7328 3.54712,-0.71959 -0.0702,2.67073 -1.57736,3.03566 -8.00256,5.52511 -17.12742,9.33406 -24.72162,15.47905 -8.79478,6.96551 -15.84233,15.94073 -20.94707,25.86758 -11.30931,19.00505 -15.92752,40.83157 -21.7433,61.88315 -2.52413,9.73409 -6.56306,19.53876 -5.08757,29.77737 0.69117,7.24503 6.35031,13.12503 13.02101,15.59655 4.90028,2.05732 10.9983,1.95546 15.16642,-1.62827 2.90486,-2.50224 4.51993,-6.09029 6.88332,-9.05475 14.94372,-21.42148 28.32825,-44.17187 46.56927,-63.09286 9.50674,-9.04554 22.04357,-13.7686 32.76117,-21.11061 l -19.39617,19.70492 c -6.6848,6.40618 -14.21896,11.96726 -20.02331,19.23961 -5.55475,6.5199 -9.75726,14.0382 -13.1103,21.87045 -10.72495,21.72155 -21.6733,43.4744 -29.21951,66.53539 -2.99204,10.23133 -6.28447,21.01624 -4.29336,31.75609 1.2703,7.84922 6.81029,14.10898 12.67071,19.13199 4.83741,4.01624 11.0397,7.9559 17.63667,6.37796 5.3665,-1.35108 8.3483,-6.46574 11.53843,-10.51353 26.93456,-34.49808 51.98225,-70.54021 81.3644,-103.08853 8.74114,-8.63228 19.07009,-15.42514 28.76558,-22.92063 2.62964,-1.17842 5.11117,-5.6102 7.79082,-4.52855 2.07973,3.44214 -1.93071,6.55889 -4.4491,8.42786 -31.29938,28.37069 -50.73232,56.74138 -76.09085,85.11208 -19.54112,26.40175 -31.85176,42.84442 -48.66399,71.13014 -12.58092,19.43041 -26.15259,38.22358 -40.36683,56.50448 -12.14239,14.86238 -26.14215,28.06561 -39.44303,41.87539 -0.52552,8.59739 -0.85816,18.04388 4.21478,25.49847 3.63698,5.05058 10.07464,6.68561 15.98161,7.19618 16.69846,1.82758 33.54001,-4.54305 46.22945,-15.16002 12.69498,-10.34945 24.21088,-22.01605 36.23082,-33.11093 131.46597,-140.9673 -14.81377,4.33671 198.15103,-214.91276 9.40081,-8.65988 18.99436,-17.11597 28.84176,-25.2728 1.70362,5.42609 -1.95209,10.66914 -5.76222,14.22132 -3.70254,3.71988 -7.23751,7.72659 -9.51225,12.48165 -11.41849,15.70226 -26.23518,28.58688 -41.77054,40.13802 -8.13575,7.46617 -14.66537,16.73941 -18.87566,26.92459 -3.70174,9.30829 -5.92662,19.99866 -2.26143,29.67351 2.58712,7.08739 8.25218,14.06563 16.22191,15.04244 7.81508,1.03074 14.98372,-3.04836 21.68005,-6.46054 5.86268,-3.22998 11.72457,-6.50547 17.97187,-8.95279 24.05607,-11.46697 47.41988,-25.99128 64.29621,-46.88763 3.42385,-4.70147 7.75592,-8.58806 11.8499,-12.68495 4.84421,-4.85729 20.99992,-11.14888 20.70254,-18.25283 -0.12882,-5.91314 -0.43496,-11.82009 -0.34742,-17.73812 0.38681,-36.84664 2.60202,-72.68012 -3.38504,-106.97038 -10.14359,-69.22819 -66.31744,-88.06504 -102.73442,-92.92328 -15.08421,-1.77393 -30.30636,-1.098 -45.45939,-1.26122 -24.69728,0.16063 -49.39648,0.48181 -74.09302,0.0987 -21.94992,-0.003 -43.90006,-0.003 -65.84983,-6.2e-4 z"
       id="rect2-7-2"
       sodipodi:nodetypes="ccccccccccccccccccccccccccccccccccccccccccccccccccccccccccsc" /><rect
       style="fill:none;fill-rule:evenodd;stroke:#000000;stroke-width:8.70849;stroke-dasharray:none;stroke-dashoffset:0;-inkscape-stroke:none"
       id="rect2-7-2-6"
       width="503.27905"
       height="499.741"
       x="-826.79608"
       y="-679.84851"
       ry="123.95918"
       transform="scale(1,-1)" /></g></svg>
