<?xml version="1.0" encoding="UTF-8" standalone="no"?>
<!-- Created with Inkscape (http://www.inkscape.org/) -->

<svg
   width="127.99998mm"
   height="127.99998mm"
   viewBox="0 0 127.99999 127.99998"
   version="1.1"
   id="svg18"
   inkscape:version="1.3.2 (091e20ef0f, 2023-11-25, custom)"
   sodipodi:docname="text_icon.svg"
   xml:space="preserve"
   xmlns:inkscape="http://www.inkscape.org/namespaces/inkscape"
   xmlns:sodipodi="http://sodipodi.sourceforge.net/DTD/sodipodi-0.dtd"
   xmlns="http://www.w3.org/2000/svg"
   xmlns:svg="http://www.w3.org/2000/svg"
   xmlns:rdf="http://www.w3.org/1999/02/22-rdf-syntax-ns#"
   xmlns:cc="http://creativecommons.org/ns#"
   xmlns:dc="http://purl.org/dc/elements/1.1/"><defs
     id="defs12"><rect
       x="125.4902"
       y="178.43137"
       width="250.98039"
       height="231.37255"
       id="rect3" /></defs><sodipodi:namedview
     id="base"
     pagecolor="#ffffff"
     bordercolor="#666666"
     borderopacity="1.0"
     inkscape:pageopacity="0.0"
     inkscape:pageshadow="2"
     inkscape:zoom="0.72124892"
     inkscape:cx="272.44408"
     inkscape:cy="153.20647"
     inkscape:document-units="mm"
     inkscape:current-layer="layer1"
     showgrid="false"
     inkscape:pagecheckerboard="true"
     inkscape:window-width="1728"
     inkscape:window-height="899"
     inkscape:window-x="2160"
     inkscape:window-y="1434"
     inkscape:window-maximized="1"
     inkscape:showpageshadow="2"
     inkscape:deskcolor="#d1d1d1" /><metadata
     id="metadata15"><rdf:RDF><cc:Work
         rdf:about=""><dc:format>image/svg+xml</dc:format><dc:type
           rdf:resource="http://purl.org/dc/dcmitype/StillImage" /></cc:Work></rdf:RDF></metadata><g
     inkscape:label="Layer 1"
     inkscape:groupmode="layer"
     id="layer1"
     transform="translate(-50.693984,-64.301116)"><rect
       style="fill:#f9f9f9;fill-rule:evenodd;stroke:#000000;stroke-width:2.18474;stroke-dasharray:none;stroke-dashoffset:0;-inkscape-stroke:none"
       id="rect2"
       width="125.81525"
       height="125.81525"
       x="51.786354"
       y="65.393486"
       ry="31.20808" /><path
       style="font-size:160px;line-height:1.25;font-family:'Classic Console';-inkscape-font-specification:'Classic Console';letter-spacing:0px;word-spacing:0px;white-space:pre;stroke-width:0.721618"
       d="m 121.81103,130.27926 v 16.91291 h 5.63763 v -5.63764 h 5.63765 v 39.46348 h -5.63765 v 5.63763 h 22.55055 v -5.63763 h -5.63763 v -39.46348 h 5.63763 v 5.63764 h 5.63765 v -16.91291 z"
       id="path8" /><path
       style="font-size:160px;line-height:1.25;font-family:'Classic Console';-inkscape-font-specification:'Classic Console';letter-spacing:0px;word-spacing:0px;white-space:pre;stroke-width:0.721618"
       d="m 71.072277,130.27926 v 11.27527 h 5.63764 v 11.27528 h 5.63764 v 11.27528 h -5.63764 v 11.27527 h -5.63764 v 11.27528 h 11.27528 v -11.27528 h 5.63763 v -5.63763 h 5.63765 v 5.63763 h 5.63763 v 11.27528 h 11.275273 v -11.27528 h -5.63763 v -11.27527 h -5.637643 v -11.27528 h 5.637643 v -11.27528 h 5.63763 V 130.27926 H 99.260467 v 11.27527 h -5.63763 v 5.63764 h -5.63765 v -5.63764 h -5.63763 v -11.27527 z"
       id="path7" /><path
       style="font-size:160px;line-height:1.25;font-family:'Classic Console';-inkscape-font-specification:'Classic Console';letter-spacing:0px;word-spacing:0px;white-space:pre;stroke-width:0.721618"
       d="m 114.0129,70.851075 v 5.637632 h 5.63764 v 45.101133 h -5.63764 v 5.63763 h 39.46347 v -16.91291 h -5.63763 v 5.63763 h -5.63764 v 5.63765 H 130.92582 V 99.03927 h 5.63763 v 5.63765 h 5.63765 V 87.763983 h -5.63765 v 5.637643 h -5.63763 V 76.488707 h 11.27528 v 5.637644 h 5.63764 v 5.637632 h 5.63763 V 70.851075 Z"
       id="path6" /><path
       style="font-size:160px;line-height:1.25;font-family:'Classic Console';-inkscape-font-specification:'Classic Console';letter-spacing:0px;word-spacing:0px;white-space:pre;stroke-width:0.721618"
       d="m 74.54942,70.851075 v 16.912908 h 5.637639 v -5.637632 h 5.637638 v 39.463489 h -5.637638 v 5.63763 h 22.550561 v -5.63763 H 97.099978 V 82.126351 h 5.637642 v 5.637632 h 5.63765 V 70.851075 Z"
       id="text2" /></g></svg>
