<?xml version="1.0" encoding="UTF-8" standalone="no"?>
<!-- Created with Inkscape (http://www.inkscape.org/) -->

<svg
   width="127.99998mm"
   height="127.99998mm"
   viewBox="0 0 128 127.99999"
   version="1.1"
   id="svg18"
   inkscape:version="1.3.2 (091e20ef0f, 2023-11-25, custom)"
   sodipodi:docname="text_icon.svg"
   xml:space="preserve"
   xmlns:inkscape="http://www.inkscape.org/namespaces/inkscape"
   xmlns:sodipodi="http://sodipodi.sourceforge.net/DTD/sodipodi-0.dtd"
   xmlns="http://www.w3.org/2000/svg"
   xmlns:svg="http://www.w3.org/2000/svg"
   xmlns:rdf="http://www.w3.org/1999/02/22-rdf-syntax-ns#"
   xmlns:cc="http://creativecommons.org/ns#"
   xmlns:dc="http://purl.org/dc/elements/1.1/"><defs
     id="defs12"><rect
       x="125.4902"
       y="178.43137"
       width="250.98039"
       height="231.37254"
       id="rect3" /></defs><sodipodi:namedview
     id="base"
     pagecolor="#ffffff"
     bordercolor="#666666"
     borderopacity="1.0"
     inkscape:pageopacity="0.0"
     inkscape:pageshadow="2"
     inkscape:zoom="1.4424978"
     inkscape:cx="186.13546"
     inkscape:cy="264.12518"
     inkscape:document-units="mm"
     inkscape:current-layer="layer1"
     showgrid="false"
     inkscape:pagecheckerboard="true"
     inkscape:window-width="1920"
     inkscape:window-height="1022"
     inkscape:window-x="2160"
     inkscape:window-y="1434"
     inkscape:window-maximized="1"
     inkscape:showpageshadow="2"
     inkscape:deskcolor="#d1d1d1" /><metadata
     id="metadata15"><rdf:RDF><cc:Work
         rdf:about=""><dc:format>image/svg+xml</dc:format><dc:type
           rdf:resource="http://purl.org/dc/dcmitype/StillImage" /></cc:Work></rdf:RDF></metadata><g
     inkscape:label="Layer 1"
     inkscape:groupmode="layer"
     id="layer1"
     transform="translate(94.048661,-60.15079)"><rect
       style="fill:#f9f9f9;fill-rule:evenodd;stroke:#000000;stroke-width:2.18474;stroke-dasharray:none;stroke-dashoffset:0;-inkscape-stroke:none"
       id="rect2"
       width="125.81525"
       height="125.81525"
       x="-92.956291"
       y="61.24316"
       ry="31.20808" /><path
       id="path14"
       style="opacity:1;fill:#1a1a1a;fill-rule:evenodd;stroke:#000000;stroke-width:0.435173;stroke-linecap:square;paint-order:markers stroke fill"
       d="m -75.78889,127.45736 c 0.0028,0.0521 0.0056,0.1044 0.0084,0.1566 v 4.59359 c -0.04099,1.43704 -0.08008,2.8743 -0.0015,4.31132 4.66e-4,6.7e-4 10e-4,9.5e-4 0.0015,0.002 v 0.26657 c 1.457609,2.12372 3.111982,4.23039 4.812058,6.32853 2.581513,3.44752 5.206374,6.88555 7.652064,10.32614 -0.03312,0.74287 0.142052,1.63509 -0.144822,2.29852 l 0.01424,0.003 c -3.959013,5.55295 -8.423182,11.09709 -12.333536,16.68854 -0.170653,3.02709 0.193043,6.05425 0.02061,9.08116 5.748866,-0.0156 11.497369,-0.0279 17.246234,-0.0398 -1.166563,-2.12462 -2.333867,-4.24842 -3.500795,-6.37271 l 6.189106,-7.89213 h 0.56162 1.516961 0.56162 l 6.189106,7.89213 c -1.166928,2.12429 -2.334232,4.24809 -3.500795,6.37271 5.748865,0.0119 11.497368,0.0242 17.246234,0.0398 -0.172425,-3.02691 0.191268,-6.05407 0.02061,-9.08116 -3.910354,-5.59145 -8.374523,-11.13559 -12.333536,-16.68854 l 0.01424,-0.003 c -0.286874,-0.66343 -0.111705,-1.55565 -0.144822,-2.29852 2.446532,-3.44178 5.072152,-6.88135 7.654519,-10.33007 1.699,-2.09689 3.352868,-4.20215 4.809603,-6.3246 v -0.26657 c 4.67e-4,-6.7e-4 10e-4,-9.5e-4 0.0014,-0.002 0.07821,-1.4295 0.03927,-2.85923 -0.0014,-4.28873 v -4.61618 c 0.0028,-0.0522 0.0055,-0.10442 0.0084,-0.1566 h -0.0084 -17.301709 -0.04418 c 1.193854,2.16481 2.386528,4.33112 3.579834,6.49642 -2.063064,2.63082 -4.126043,5.26132 -6.189106,7.89213 h -2.640201 c -2.063063,-2.63081 -4.126042,-5.26131 -6.189106,-7.89213 1.193306,-2.1653 2.385981,-4.33161 3.579834,-6.49642 h -0.04418 -17.301709 z" /><path
       id="path13-5"
       style="fill:#000000;fill-rule:evenodd;stroke:#000000;stroke-width:0.471423;stroke-linecap:square;paint-order:markers stroke fill"
       d="m -26.687612,127.4367 v 18.95711 c 3.21846,-2.11579 6.436786,-4.23182 9.655224,-6.34767 h 5.312418 v 31.60926 c -2.896277,3.25594 -5.790648,6.51356 -8.687915,9.76845 H 10.68252 C 7.7852524,178.16896 4.8908817,174.91134 1.9946045,171.6554 v -31.60926 h 5.3124183 c 3.2184382,2.11586 6.4367642,4.23188 9.6552242,6.34767 V 127.4367 c -0.0747,5.9e-4 -0.148862,9.5e-4 -0.223535,0.002 v -4.9e-4 c -6.68758,0.11092 -13.3879451,-0.0176 -20.0761138,0.16544 -6.8543362,-0.18807 -16.3980342,-0.0539 -23.1266752,-0.16544 v 4.9e-4 c -0.07467,-9.5e-4 -0.14884,-9.5e-4 -0.223535,-0.002 z" /><path
       id="path13-5-0"
       style="fill:#000000;fill-rule:evenodd;stroke:#000000;stroke-width:0.471423;stroke-linecap:square;paint-order:markers stroke fill"
       d="m -77.074513,68.317526 v 18.957119 c 3.21846,-2.115793 6.436786,-4.231823 9.655224,-6.347672 h 5.312418 v 31.609267 c -2.896278,3.25594 -5.790648,6.51356 -8.687915,9.76845 h 31.090405 c -2.897267,-3.25489 -5.791638,-6.51251 -8.687915,-9.76845 V 80.926973 h 5.312418 c 3.218438,2.115859 6.436764,4.231879 9.655224,6.347672 V 68.317526 c -0.0747,5.99e-4 -0.148862,9.5e-4 -0.223535,0.0019 v -4.84e-4 c -6.687579,0.110922 -13.387944,-0.01758 -20.076113,0.165442 -6.854337,-0.188071 -16.398035,-0.05387 -23.126676,-0.165442 v 4.84e-4 c -0.07467,-9.5e-4 -0.14884,-9.5e-4 -0.223535,-0.0019 z" /><path
       id="path11"
       style="opacity:1;fill:#1a1a1a;fill-rule:evenodd;stroke:#000000;stroke-width:0.435173;stroke-linecap:square;paint-order:markers stroke fill"
       d="m -26.73402,68.325224 c 5.56e-4,0.81755 -1.1e-5,1.635116 4.91e-4,2.452667 -0.04636,0.435691 -0.04528,0.878141 0,1.291136 0.0045,7.769033 0.0032,15.538126 0.0039,23.307208 -6.97e-4,7.769255 5.81e-4,15.538505 -0.0039,23.307695 -0.04528,0.41302 -0.04636,0.85542 0,1.29115 -5.02e-4,0.81755 6.5e-5,1.63511 -4.91e-4,2.45266 h 42.265793 c -0.03334,-8.62702 -0.146602,-15.7979 -0.240063,-24.424068 L 4.9881517,109.37941 H -10.293396 v -7.32118 h 8.5038218 c 1.70182647,1.39805 3.4038048,2.79641 5.1056315,4.19448 V 95.577514 95.175446 84.500258 c -1.7018267,1.398066 -3.40380503,2.796425 -5.1056315,4.194473 H -10.293396 V 81.373549 H 4.9881517 L 15.29171,92.749289 c 0.09346,-8.626164 0.206718,-15.797047 0.240063,-24.424065 z" /></g></svg>
