<?xml version="1.0" encoding="UTF-8" standalone="no"?>
<!-- Created with Inkscape (http://www.inkscape.org/) -->

<svg
   width="127.99998mm"
   height="127.99998mm"
   viewBox="0 0 127.99999 127.99998"
   version="1.1"
   id="svg18"
   inkscape:version="1.3.2 (091e20ef0f, 2023-11-25, custom)"
   sodipodi:docname="zoom_icon.svg"
   xml:space="preserve"
   xmlns:inkscape="http://www.inkscape.org/namespaces/inkscape"
   xmlns:sodipodi="http://sodipodi.sourceforge.net/DTD/sodipodi-0.dtd"
   xmlns="http://www.w3.org/2000/svg"
   xmlns:svg="http://www.w3.org/2000/svg"
   xmlns:rdf="http://www.w3.org/1999/02/22-rdf-syntax-ns#"
   xmlns:cc="http://creativecommons.org/ns#"
   xmlns:dc="http://purl.org/dc/elements/1.1/"><defs
     id="defs12" /><sodipodi:namedview
     id="base"
     pagecolor="#ffffff"
     bordercolor="#666666"
     borderopacity="1.0"
     inkscape:pageopacity="0.0"
     inkscape:pageshadow="2"
     inkscape:zoom="0.72124892"
     inkscape:cx="164.29834"
     inkscape:cy="363.25878"
     inkscape:document-units="mm"
     inkscape:current-layer="layer1"
     showgrid="false"
     inkscape:pagecheckerboard="true"
     inkscape:window-width="1920"
     inkscape:window-height="1022"
     inkscape:window-x="2160"
     inkscape:window-y="1434"
     inkscape:window-maximized="1"
     inkscape:showpageshadow="2"
     inkscape:deskcolor="#d1d1d1" /><metadata
     id="metadata15"><rdf:RDF><cc:Work
         rdf:about=""><dc:format>image/svg+xml</dc:format><dc:type
           rdf:resource="http://purl.org/dc/dcmitype/StillImage" /></cc:Work></rdf:RDF></metadata><g
     inkscape:label="Layer 1"
     inkscape:groupmode="layer"
     id="layer1"
     transform="translate(-50.693984,-64.301116)"><g
       id="g3"><rect
         style="fill:#f9f9f9;fill-rule:evenodd;stroke:#000000;stroke-width:2.18474;stroke-dasharray:none;stroke-dashoffset:0;-inkscape-stroke:none"
         id="rect2"
         width="125.81525"
         height="125.81525"
         x="51.786354"
         y="65.393486"
         ry="31.20808" /><path
         id="path1"
         style="opacity:1;fill-rule:evenodd;stroke-width:7.56328;stroke-linecap:square;paint-order:markers stroke fill"
         d="m 102.57299,72.601901 c -23.207884,1.82e-4 -42.021546,18.813845 -42.021727,42.021729 -1.01e-4,23.20808 18.813643,42.02206 42.021727,42.02224 8.49608,-0.003 16.79158,-2.58212 23.79234,-7.39593 l 30.8436,30.84359 c 0.006,0.005 0.0132,-5e-4 0.0217,0 4.52687,0.26887 8.98112,0.41973 8.09977,-8.09976 0.005,-0.006 0.006,-0.0157 0,-0.0217 l -30.46636,-30.46635 c 6.28587,-7.54796 9.72899,-17.05946 9.73119,-26.88208 -1.8e-4,-23.208085 -18.81416,-42.02183 -42.02224,-42.021729 z m -0.30799,9.294523 c 7.21134,-0.04267 14.45187,2.375437 20.14657,6.741708 7.64566,5.659656 12.39235,14.917288 12.84314,24.366468 0.63544,9.93041 -3.805,19.90352 -11.27476,26.40356 -7.11449,6.26497 -17.11638,8.98075 -26.394255,7.55303 -9.430321,-1.34998 -18.017931,-7.26021 -22.972241,-15.36754 -6.88854,-10.99465 -6.143052,-26.21698 1.737879,-36.516635 5.858055,-7.706034 15.110171,-12.704368 24.820707,-13.165088 0.3643,-0.0094 0.72849,-0.02 1.09296,-0.0155 z"
         sodipodi:nodetypes="cccccscscccccccccccc" /><path
         id="rect3"
         style="opacity:1;fill:#000000;fill-rule:evenodd;stroke:none;stroke-width:5.38347;stroke-linecap:square;paint-order:markers stroke fill"
         d="M 102.35595 83.112888 C 99.864845 83.087639 97.266446 83.85534 94.788967 85.491037 C 94.780497 85.496637 94.770363 85.499441 94.770363 85.509641 L 94.770363 85.624879 L 94.655125 85.624879 C 94.645025 85.624879 94.637038 85.632776 94.637038 85.642966 L 94.637038 107.48711 L 72.792377 107.48711 C 72.782187 107.48711 72.77429 107.49561 72.77429 107.50571 L 72.77429 107.62095 L 72.659052 107.62095 C 72.648852 107.62095 72.646048 107.63106 72.640448 107.63956 C 69.369044 112.59451 69.571034 118.03381 72.640448 122.12911 C 72.646448 122.13711 72.648452 122.1472 72.659052 122.1472 L 72.77429 122.1472 L 72.77429 122.26244 C 72.77429 122.27254 72.782187 122.28052 72.792377 122.28052 L 94.637038 122.28052 L 94.637038 144.12518 C 94.637038 144.13528 94.645025 144.14327 94.655125 144.14327 L 94.770363 144.14327 L 94.770363 144.25851 C 94.770363 144.26871 94.780497 144.27151 94.788967 144.27711 C 99.743929 147.54852 105.18324 147.34653 109.27852 144.27711 C 109.28652 144.27111 109.29661 144.26911 109.29661 144.25851 L 109.29661 144.14327 L 109.41185 144.14327 C 109.42195 144.14327 109.43045 144.13528 109.43045 144.12518 L 109.43045 122.28052 L 131.2746 122.28052 C 131.2847 122.28052 131.29268 122.27254 131.29268 122.26244 L 131.29268 122.1472 L 131.40792 122.1472 C 131.41852 122.1472 131.42052 122.13711 131.42652 122.12911 C 132.96123 120.08145 133.77942 117.69761 133.80467 115.20654 C 133.82987 112.71544 133.06222 110.11702 131.42652 107.63956 C 131.42052 107.63156 131.41852 107.62095 131.40792 107.62095 L 131.29268 107.62095 L 131.29268 107.50571 C 131.29268 107.49561 131.2847 107.48711 131.2746 107.48711 L 109.43045 107.48711 L 109.43045 85.642966 C 109.43045 85.632776 109.42245 85.624879 109.41185 85.624879 L 109.29661 85.624879 L 109.29661 85.509641 C 109.29661 85.499041 109.28652 85.497037 109.27852 85.491037 C 107.23086 83.956335 104.84702 83.138136 102.35595 83.112888 z " /></g></g></svg>
