<?xml version="1.0" encoding="UTF-8" standalone="no"?>
<!-- Created with Inkscape (http://www.inkscape.org/) -->

<svg
   version="1.1"
   id="svg1"
   width="37.518188"
   height="37.407757"
   viewBox="0 0 37.51819 37.407758"
   sodipodi:docname="alpha_lock_closed.svg"
   inkscape:version="1.3.2 (091e20ef0f, 2023-11-25, custom)"
   xml:space="preserve"
   xmlns:inkscape="http://www.inkscape.org/namespaces/inkscape"
   xmlns:sodipodi="http://sodipodi.sourceforge.net/DTD/sodipodi-0.dtd"
   xmlns="http://www.w3.org/2000/svg"
   xmlns:svg="http://www.w3.org/2000/svg"><defs
     id="defs1" /><sodipodi:namedview
     id="namedview1"
     pagecolor="#ffffff"
     bordercolor="#666666"
     borderopacity="1.0"
     inkscape:showpageshadow="2"
     inkscape:pageopacity="0.0"
     inkscape:pagecheckerboard="0"
     inkscape:deskcolor="#d1d1d1"
     inkscape:zoom="9.40452"
     inkscape:cx="1.6481437"
     inkscape:cy="21.744863"
     inkscape:window-width="1728"
     inkscape:window-height="899"
     inkscape:window-x="2160"
     inkscape:window-y="1434"
     inkscape:window-maximized="1"
     inkscape:current-layer="g1"
     showgrid="false" /><g
     inkscape:groupmode="layer"
     inkscape:label="Image"
     id="g1"
     transform="translate(2.7590945,3.5501545)"><g
       id="g2"
       transform="translate(-46.887623,1.200092)"><path
         id="rect2"
         style="opacity:1;fill-opacity:0.920474;fill-rule:evenodd;stroke:#000000;stroke-width:0.129067"
         d="m 44.248302,-0.0673051 h 4.563165 c 0.03061,0 0.05524,0.024638 0.05524,0.055243 v 4.5631648 c 0,0.030604 -0.02464,0.055243 -0.05524,0.055243 h -4.563165 c -0.0306,0 -0.05524,-0.024638 -0.05524,-0.055243 v -4.5631648 c 0,-0.030604 0.02464,-0.055243 0.05524,-0.055243 z" /><path
         id="rect2-6"
         style="fill-opacity:0.920474;fill-rule:evenodd;stroke:#000000;stroke-width:0.129067"
         d="m 44.248302,9.2799917 h 4.563165 c 0.03061,0 0.05524,0.02464 0.05524,0.05524 v 4.5631633 c 0,0.0306 -0.02464,0.05524 -0.05524,0.05524 h -4.563165 c -0.0306,0 -0.05524,-0.02464 -0.05524,-0.05524 V 9.3352347 c 0,-0.0306 0.02464,-0.05524 0.05524,-0.05524 z" /><path
         id="rect2-5"
         style="fill-opacity:0.920474;fill-rule:evenodd;stroke:#000000;stroke-width:0.129067"
         d="m 44.303542,18.572039 h 4.563165 c 0.03061,0 0.05524,0.02464 0.05524,0.05524 v 4.563164 c 0,0.0306 -0.02464,0.05524 -0.05524,0.05524 h -4.563165 c -0.0306,0 -0.05524,-0.02464 -0.05524,-0.05524 v -4.563164 c 0,-0.0306 0.02464,-0.05524 0.05524,-0.05524 z" /><path
         id="rect2-6-2"
         style="fill-opacity:0.920474;fill-rule:evenodd;stroke:#000000;stroke-width:0.129067"
         d="m 44.303542,27.919327 h 4.563165 c 0.03061,0 0.05524,0.02464 0.05524,0.05524 v 4.563164 c 0,0.0306 -0.02464,0.05524 -0.05524,0.05524 h -4.563165 c -0.0306,0 -0.05524,-0.02464 -0.05524,-0.05524 V 27.97457 c 0,-0.0306 0.02464,-0.05524 0.05524,-0.05524 z" /><path
         id="rect2-4"
         style="fill:#ffffff;fill-opacity:0.920474;fill-rule:evenodd;stroke:#000000;stroke-width:0.129067"
         d="m 44.303542,-4.685713 h 4.563165 c 0.03061,0 0.05524,0.024638 0.05524,0.055243 v 4.5631649 c 0,0.030604 -0.02464,0.055243 -0.05524,0.055243 h -4.563165 c -0.0306,0 -0.05524,-0.024638 -0.05524,-0.055243 v -4.5631648 c 0,-0.030604 0.02464,-0.055243 0.05524,-0.055243 z" /><path
         id="rect2-6-4"
         style="fill:#ffffff;fill-opacity:0.920474;fill-rule:evenodd;stroke:#000000;stroke-width:0.129067"
         d="m 44.248302,4.6063457 h 4.563165 c 0.03061,0 0.05524,0.02464 0.05524,0.05524 v 4.563166 c 0,0.0306 -0.02464,0.05524 -0.05524,0.05524 h -4.563165 c -0.0306,0 -0.05524,-0.02464 -0.05524,-0.05524 v -4.563163 c 0,-0.0306 0.02464,-0.05524 0.05524,-0.05524 z" /><path
         id="rect2-5-3"
         style="fill:#ffffff;fill-opacity:0.920474;fill-rule:evenodd;stroke:#000000;stroke-width:0.129067"
         d="m 44.303542,13.898395 h 4.563165 c 0.03061,0 0.05524,0.02464 0.05524,0.05524 v 4.563164 c 0,0.0306 -0.02464,0.05524 -0.05524,0.05524 h -4.563165 c -0.0306,0 -0.05524,-0.02464 -0.05524,-0.05524 v -4.563164 c 0,-0.0306 0.02464,-0.05524 0.05524,-0.05524 z" /><path
         id="rect2-6-2-6"
         style="fill:#ffffff;fill-opacity:0.920474;fill-rule:evenodd;stroke:#000000;stroke-width:0.129067"
         d="m 44.303542,23.245683 h 4.563165 c 0.03061,0 0.05524,0.02464 0.05524,0.05524 v 4.563164 c 0,0.0306 -0.02464,0.05524 -0.05524,0.05524 h -4.563165 c -0.0306,0 -0.05524,-0.02464 -0.05524,-0.05524 v -4.563161 c 0,-0.0306 0.02464,-0.05524 0.05524,-0.05524 z" /><path
         id="rect2-1"
         style="fill-opacity:0.920474;fill-rule:evenodd;stroke:#000000;stroke-width:0.129067"
         d="m 49.032427,4.6063399 h 4.563165 c 0.03061,0 0.05524,0.02464 0.05524,0.05524 v 4.563165 c 0,0.0306 -0.02464,0.05524 -0.05524,0.05524 h -4.563165 c -0.0306,0 -0.05524,-0.02464 -0.05524,-0.05524 v -4.563165 c 0,-0.0306 0.02464,-0.05524 0.05524,-0.05524 z" /><path
         id="rect2-6-7"
         style="fill-opacity:0.920474;fill-rule:evenodd;stroke:#000000;stroke-width:0.129067"
         d="m 49.032427,13.953631 h 4.563165 c 0.03061,0 0.05524,0.02464 0.05524,0.05524 v 4.563163 c 0,0.0306 -0.02464,0.05524 -0.05524,0.05524 h -4.563165 c -0.0306,0 -0.05524,-0.02464 -0.05524,-0.05524 v -4.56316 c 0,-0.0306 0.02464,-0.05524 0.05524,-0.05524 z" /><path
         id="rect2-5-8"
         style="fill-opacity:0.920474;fill-rule:evenodd;stroke:#000000;stroke-width:0.129067"
         d="m 48.977187,23.245678 h 4.563165 c 0.03061,0 0.05524,0.02464 0.05524,0.05524 v 4.563164 c 0,0.0306 -0.02464,0.05524 -0.05524,0.05524 h -4.563165 c -0.0306,0 -0.05524,-0.02464 -0.05524,-0.05524 v -4.563164 c 0,-0.0306 0.02464,-0.05524 0.05524,-0.05524 z" /><path
         id="rect2-6-2-5"
         style="fill-opacity:0.920474;fill-rule:evenodd;stroke:#000000;stroke-width:0.129067"
         d="m 48.977187,-4.6857095 h 4.563165 c 0.03061,0 0.05524,0.02464 0.05524,0.05524 v 4.5631644 c 0,0.0306 -0.02464,0.05524 -0.05524,0.05524 h -4.563165 c -0.0306,0 -0.05524,-0.02464 -0.05524,-0.05524 v -4.5631614 c 0,-0.0306 0.02464,-0.05524 0.05524,-0.05524 z" /><path
         id="rect2-4-7"
         style="fill:#ffffff;fill-opacity:0.920474;fill-rule:evenodd;stroke:#000000;stroke-width:0.129067"
         d="m 49.032427,-0.0673051 h 4.563165 c 0.03061,0 0.05524,0.02464 0.05524,0.05524 v 4.563165 c 0,0.0306 -0.02464,0.05524 -0.05524,0.05524 h -4.563165 c -0.0306,0 -0.05524,-0.02464 -0.05524,-0.05524 v -4.563162 c 0,-0.0306 0.02464,-0.05524 0.05524,-0.05524 z" /><path
         id="rect2-6-4-4"
         style="fill:#ffffff;fill-opacity:0.920474;fill-rule:evenodd;stroke:#000000;stroke-width:0.129067"
         d="m 49.032427,9.2799849 h 4.563165 c 0.03061,0 0.05524,0.02464 0.05524,0.05524 v 4.5631661 c 0,0.0306 -0.02464,0.05524 -0.05524,0.05524 h -4.563165 c -0.0306,0 -0.05524,-0.02464 -0.05524,-0.05524 V 9.3352279 c 0,-0.0306 0.02464,-0.05524 0.05524,-0.05524 z" /><path
         id="rect2-5-3-1"
         style="fill:#ffffff;fill-opacity:0.920474;fill-rule:evenodd;stroke:#000000;stroke-width:0.129067"
         d="m 48.977187,18.572034 h 4.563165 c 0.03061,0 0.05524,0.02464 0.05524,0.05524 v 4.563164 c 0,0.0306 -0.02464,0.05524 -0.05524,0.05524 h -4.563165 c -0.0306,0 -0.05524,-0.02464 -0.05524,-0.05524 v -4.563164 c 0,-0.0306 0.02464,-0.05524 0.05524,-0.05524 z" /><path
         id="rect2-6-2-6-8"
         style="fill:#ffffff;fill-opacity:0.920474;fill-rule:evenodd;stroke:#000000;stroke-width:0.129067"
         d="m 48.977187,27.919322 h 4.563165 c 0.03061,0 0.05524,0.02464 0.05524,0.05524 v 4.563164 c 0,0.0306 -0.02464,0.05524 -0.05524,0.05524 h -4.563165 c -0.0306,0 -0.05524,-0.02464 -0.05524,-0.05524 v -4.563161 c 0,-0.0306 0.02464,-0.05524 0.05524,-0.05524 z" /><path
         id="rect2-11"
         style="fill-opacity:0.920474;fill-rule:evenodd;stroke:#000000;stroke-width:0.129067"
         d="m 53.485112,-0.0673017 h 4.563165 c 0.03061,0 0.05524,0.02464 0.05524,0.05524 v 4.563165 c 0,0.0306 -0.02464,0.05524 -0.05524,0.05524 h -4.563165 c -0.0306,0 -0.05524,-0.02464 -0.05524,-0.05524 v -4.563165 c 0,-0.0306 0.02464,-0.05524 0.05524,-0.05524 z" /><path
         id="rect2-6-0"
         style="fill-opacity:0.920474;fill-rule:evenodd;stroke:#000000;stroke-width:0.129067"
         d="m 53.485112,9.2799953 h 4.563165 c 0.03061,0 0.05524,0.02464 0.05524,0.05524 v 4.5631637 c 0,0.0306 -0.02464,0.05524 -0.05524,0.05524 h -4.563165 c -0.0306,0 -0.05524,-0.02464 -0.05524,-0.05524 V 9.3352383 c 0,-0.0306 0.02464,-0.05524 0.05524,-0.05524 z" /><path
         id="rect2-5-85"
         style="fill-opacity:0.920474;fill-rule:evenodd;stroke:#000000;stroke-width:0.129067"
         d="m 53.540352,18.572043 h 4.563165 c 0.03061,0 0.05524,0.02464 0.05524,0.05524 v 4.563164 c 0,0.0306 -0.02464,0.05524 -0.05524,0.05524 h -4.563165 c -0.0306,0 -0.05524,-0.02464 -0.05524,-0.05524 v -4.563164 c 0,-0.0306 0.02464,-0.05524 0.05524,-0.05524 z" /><path
         id="rect2-6-2-0"
         style="fill-opacity:0.920474;fill-rule:evenodd;stroke:#000000;stroke-width:0.129067"
         d="m 53.540352,27.91933 h 4.563165 c 0.03061,0 0.05524,0.02464 0.05524,0.05524 v 4.563164 c 0,0.0306 -0.02464,0.05524 -0.05524,0.05524 h -4.563165 c -0.0306,0 -0.05524,-0.02464 -0.05524,-0.05524 v -4.56316 c 0,-0.0306 0.02464,-0.05524 0.05524,-0.05524 z" /><path
         id="rect2-4-6"
         style="fill:#ffffff;fill-opacity:0.920474;fill-rule:evenodd;stroke:#000000;stroke-width:0.129067"
         d="m 53.540352,-4.6857095 h 4.563165 c 0.03061,0 0.05524,0.024638 0.05524,0.055243 v 4.5631648 c 0,0.0306 -0.02464,0.05524 -0.05524,0.05524 h -4.563165 c -0.0306,0 -0.05524,-0.02464 -0.05524,-0.05524 v -4.5631647 c 0,-0.030604 0.02464,-0.055243 0.05524,-0.055243 z" /><path
         id="rect2-6-4-46"
         style="fill:#ffffff;fill-opacity:0.920474;fill-rule:evenodd;stroke:#000000;stroke-width:0.129067"
         d="m 53.485112,4.6063493 h 4.563165 c 0.03061,0 0.05524,0.02464 0.05524,0.05524 v 4.563166 c 0,0.0306 -0.02464,0.05524 -0.05524,0.05524 h -4.563165 c -0.0306,0 -0.05524,-0.02464 -0.05524,-0.05524 v -4.563163 c 0,-0.0306 0.02464,-0.05524 0.05524,-0.05524 z" /><path
         id="rect2-5-3-2"
         style="fill:#ffffff;fill-opacity:0.920474;fill-rule:evenodd;stroke:#000000;stroke-width:0.129067"
         d="m 53.540352,13.898399 h 4.563165 c 0.03061,0 0.05524,0.02464 0.05524,0.05524 v 4.563164 c 0,0.0306 -0.02464,0.05524 -0.05524,0.05524 h -4.563165 c -0.0306,0 -0.05524,-0.02464 -0.05524,-0.05524 v -4.563164 c 0,-0.0306 0.02464,-0.05524 0.05524,-0.05524 z" /><path
         id="rect2-6-2-6-5"
         style="fill:#ffffff;fill-opacity:0.920474;fill-rule:evenodd;stroke:#000000;stroke-width:0.129067"
         d="m 53.540352,23.245687 h 4.563165 c 0.03061,0 0.05524,0.02464 0.05524,0.05524 v 4.563164 c 0,0.0306 -0.02464,0.05524 -0.05524,0.05524 h -4.563165 c -0.0306,0 -0.05524,-0.02464 -0.05524,-0.05524 V 23.30093 c 0,-0.0306 0.02464,-0.05524 0.05524,-0.05524 z" /><path
         id="rect2-1-8"
         style="fill-opacity:0.920474;fill-rule:evenodd;stroke:#000000;stroke-width:0.129067"
         d="m 58.269237,4.6063433 h 4.563165 c 0.03061,0 0.05524,0.02464 0.05524,0.05524 v 4.563165 c 0,0.0306 -0.02464,0.05524 -0.05524,0.05524 h -4.563165 c -0.0306,0 -0.05524,-0.02464 -0.05524,-0.05524 v -4.563165 c 0,-0.0306 0.02464,-0.05524 0.05524,-0.05524 z" /><path
         id="rect2-6-7-6"
         style="fill-opacity:0.920474;fill-rule:evenodd;stroke:#000000;stroke-width:0.129067"
         d="m 58.269237,13.953635 h 4.563165 c 0.03061,0 0.05524,0.02464 0.05524,0.05524 v 4.563163 c 0,0.0306 -0.02464,0.05524 -0.05524,0.05524 h -4.563165 c -0.0306,0 -0.05524,-0.02464 -0.05524,-0.05524 v -4.56316 c 0,-0.0306 0.02464,-0.05524 0.05524,-0.05524 z" /><path
         id="rect2-5-8-2"
         style="fill-opacity:0.920474;fill-rule:evenodd;stroke:#000000;stroke-width:0.129067"
         d="m 58.213997,23.245682 h 4.563165 c 0.03061,0 0.05524,0.02464 0.05524,0.05524 v 4.563164 c 0,0.0306 -0.02464,0.05524 -0.05524,0.05524 h -4.563165 c -0.0306,0 -0.05524,-0.02464 -0.05524,-0.05524 v -4.563164 c 0,-0.0306 0.02464,-0.05524 0.05524,-0.05524 z" /><path
         id="rect2-6-2-5-8"
         style="fill-opacity:0.920474;fill-rule:evenodd;stroke:#000000;stroke-width:0.129067"
         d="m 58.213997,-4.685706 h 4.563165 c 0.03061,0 0.05524,0.02464 0.05524,0.05524 v 4.5631643 c 0,0.0306 -0.02464,0.05524 -0.05524,0.05524 h -4.563165 c -0.0306,0 -0.05524,-0.02464 -0.05524,-0.05524 V -4.630463 c 0,-0.0306 0.02464,-0.05524 0.05524,-0.05524 z" /><path
         id="rect2-4-7-4"
         style="fill:#ffffff;fill-opacity:0.920474;fill-rule:evenodd;stroke:#000000;stroke-width:0.129067"
         d="m 58.269237,-0.0673017 h 4.563165 c 0.03061,0 0.05524,0.02464 0.05524,0.05524 v 4.563165 c 0,0.0306 -0.02464,0.05524 -0.05524,0.05524 h -4.563165 c -0.0306,0 -0.05524,-0.02464 -0.05524,-0.05524 v -4.563162 c 0,-0.0306 0.02464,-0.05524 0.05524,-0.05524 z" /><path
         id="rect2-6-4-4-7"
         style="fill:#ffffff;fill-opacity:0.920474;fill-rule:evenodd;stroke:#000000;stroke-width:0.129067"
         d="m 58.269237,9.2799883 h 4.563165 c 0.03061,0 0.05524,0.02464 0.05524,0.05524 v 4.5631667 c 0,0.0306 -0.02464,0.05524 -0.05524,0.05524 h -4.563165 c -0.0306,0 -0.05524,-0.02464 -0.05524,-0.05524 V 9.3352313 c 0,-0.0306 0.02464,-0.05524 0.05524,-0.05524 z" /><path
         id="rect2-5-3-1-2"
         style="fill:#ffffff;fill-opacity:0.920474;fill-rule:evenodd;stroke:#000000;stroke-width:0.129067"
         d="m 58.213997,18.572038 h 4.563165 c 0.03061,0 0.05524,0.02464 0.05524,0.05524 v 4.563164 c 0,0.0306 -0.02464,0.05524 -0.05524,0.05524 h -4.563165 c -0.0306,0 -0.05524,-0.02464 -0.05524,-0.05524 v -4.563164 c 0,-0.0306 0.02464,-0.05524 0.05524,-0.05524 z" /><path
         id="rect2-6-2-6-8-4"
         style="fill:#ffffff;fill-opacity:0.920474;fill-rule:evenodd;stroke:#000000;stroke-width:0.129067"
         d="m 58.213997,27.919325 h 4.563165 c 0.03061,0 0.05524,0.02464 0.05524,0.05524 v 4.563164 c 0,0.0306 -0.02464,0.05524 -0.05524,0.05524 h -4.563165 c -0.0306,0 -0.05524,-0.02464 -0.05524,-0.05524 v -4.563161 c 0,-0.0306 0.02464,-0.05524 0.05524,-0.05524 z" /><path
         id="rect2-9"
         style="fill-opacity:0.920474;fill-rule:evenodd;stroke:#000000;stroke-width:0.129067"
         d="m 62.832402,-0.067298 h 4.563165 c 0.03061,0 0.05524,0.02464 0.05524,0.05524 v 4.5631652 c 0,0.030604 -0.02464,0.055243 -0.05524,0.055243 h -4.563165 c -0.0306,0 -0.05524,-0.024638 -0.05524,-0.055243 V -0.012058 c 0,-0.0306 0.02464,-0.05524 0.05524,-0.05524 z" /><path
         id="rect2-6-08"
         style="fill-opacity:0.920474;fill-rule:evenodd;stroke:#000000;stroke-width:0.129067"
         d="m 62.832402,9.2799992 h 4.563165 c 0.03061,0 0.05524,0.02464 0.05524,0.05524 v 4.5631638 c 0,0.0306 -0.02464,0.05524 -0.05524,0.05524 h -4.563165 c -0.0306,0 -0.05524,-0.02464 -0.05524,-0.05524 V 9.3352422 c 0,-0.0306 0.02464,-0.05524 0.05524,-0.05524 z" /><path
         id="rect2-5-1"
         style="fill-opacity:0.920474;fill-rule:evenodd;stroke:#000000;stroke-width:0.129067"
         d="m 62.887642,18.572047 h 4.563165 c 0.03061,0 0.05524,0.02464 0.05524,0.05524 v 4.563164 c 0,0.0306 -0.02464,0.05524 -0.05524,0.05524 h -4.563165 c -0.0306,0 -0.05524,-0.02464 -0.05524,-0.05524 v -4.563164 c 0,-0.0306 0.02464,-0.05524 0.05524,-0.05524 z" /><path
         id="rect2-6-2-3"
         style="fill-opacity:0.920474;fill-rule:evenodd;stroke:#000000;stroke-width:0.129067"
         d="m 62.887642,27.919334 h 4.563165 c 0.03061,0 0.05524,0.02464 0.05524,0.05524 v 4.563164 c 0,0.0306 -0.02464,0.05524 -0.05524,0.05524 h -4.563165 c -0.0306,0 -0.05524,-0.02464 -0.05524,-0.05524 v -4.563161 c 0,-0.0306 0.02464,-0.05524 0.05524,-0.05524 z" /><path
         id="rect2-4-1"
         style="fill:#ffffff;fill-opacity:0.920474;fill-rule:evenodd;stroke:#000000;stroke-width:0.129067"
         d="m 62.887642,-4.685706 h 4.563165 c 0.03061,0 0.05524,0.02464 0.05524,0.05524 v 4.563164 c 0,0.0306 -0.02464,0.05524 -0.05524,0.05524 h -4.563165 c -0.0306,0 -0.05524,-0.02464 -0.05524,-0.05524 v -4.563164 c 0,-0.0306 0.02464,-0.05524 0.05524,-0.05524 z" /><path
         id="rect2-6-4-1"
         style="fill:#ffffff;fill-opacity:0.920474;fill-rule:evenodd;stroke:#000000;stroke-width:0.129067"
         d="m 62.832402,4.6063532 h 4.563165 c 0.03061,0 0.05524,0.02464 0.05524,0.05524 v 4.563166 c 0,0.0306 -0.02464,0.05524 -0.05524,0.05524 h -4.563165 c -0.0306,0 -0.05524,-0.02464 -0.05524,-0.05524 v -4.563163 c 0,-0.0306 0.02464,-0.05524 0.05524,-0.05524 z" /><path
         id="rect2-5-3-0"
         style="fill:#ffffff;fill-opacity:0.920474;fill-rule:evenodd;stroke:#000000;stroke-width:0.129067"
         d="m 62.887642,13.898403 h 4.563165 c 0.03061,0 0.05524,0.02464 0.05524,0.05524 v 4.563164 c 0,0.0306 -0.02464,0.05524 -0.05524,0.05524 h -4.563165 c -0.0306,0 -0.05524,-0.02464 -0.05524,-0.05524 v -4.563164 c 0,-0.0306 0.02464,-0.05524 0.05524,-0.05524 z" /><path
         id="rect2-6-2-6-3"
         style="fill:#ffffff;fill-opacity:0.920474;fill-rule:evenodd;stroke:#000000;stroke-width:0.129067"
         d="m 62.887642,23.24569 h 4.563165 c 0.03061,0 0.05524,0.02464 0.05524,0.05524 v 4.563164 c 0,0.0306 -0.02464,0.05524 -0.05524,0.05524 h -4.563165 c -0.0306,0 -0.05524,-0.02464 -0.05524,-0.05524 v -4.563161 c 0,-0.0306 0.02464,-0.05524 0.05524,-0.05524 z" /><path
         id="rect2-1-4"
         style="fill-opacity:0.920474;fill-rule:evenodd;stroke:#000000;stroke-width:0.129067"
         d="m 67.616527,4.6063474 h 4.563165 c 0.03061,0 0.05524,0.02464 0.05524,0.05524 v 4.563165 c 0,0.0306 -0.02464,0.05524 -0.05524,0.05524 h -4.563165 c -0.0306,0 -0.05524,-0.02464 -0.05524,-0.05524 v -4.563165 c 0,-0.0306 0.02464,-0.05524 0.05524,-0.05524 z" /><path
         id="rect2-6-7-0"
         style="fill-opacity:0.920474;fill-rule:evenodd;stroke:#000000;stroke-width:0.129067"
         d="m 67.616527,13.953639 h 4.563165 c 0.03061,0 0.05524,0.02464 0.05524,0.05524 v 4.563163 c 0,0.0306 -0.02464,0.05524 -0.05524,0.05524 h -4.563165 c -0.0306,0 -0.05524,-0.02464 -0.05524,-0.05524 v -4.56316 c 0,-0.0306 0.02464,-0.05524 0.05524,-0.05524 z" /><path
         id="rect2-5-8-3"
         style="fill-opacity:0.920474;fill-rule:evenodd;stroke:#000000;stroke-width:0.129067"
         d="m 67.561287,23.245686 h 4.563165 c 0.03061,0 0.05524,0.02464 0.05524,0.05524 v 4.563165 c 0,0.0306 -0.02464,0.05524 -0.05524,0.05524 h -4.563165 c -0.0306,0 -0.05524,-0.02464 -0.05524,-0.05524 v -4.563165 c 0,-0.0306 0.02464,-0.05524 0.05524,-0.05524 z" /><path
         id="rect2-6-2-5-9"
         style="fill-opacity:0.920474;fill-rule:evenodd;stroke:#000000;stroke-width:0.129067"
         d="m 67.561287,-4.685702 h 4.563165 c 0.03061,0 0.05524,0.02464 0.05524,0.05524 v 4.563164 c 0,0.0306 -0.02464,0.05524 -0.05524,0.05524 h -4.563165 c -0.0306,0 -0.05524,-0.02464 -0.05524,-0.05524 v -4.563161 c 0,-0.0306 0.02464,-0.05524 0.05524,-0.05524 z" /><path
         id="rect2-4-7-1"
         style="fill:#ffffff;fill-opacity:0.920474;fill-rule:evenodd;stroke:#000000;stroke-width:0.129067"
         d="m 67.616527,-0.067298 h 4.563165 c 0.03061,0 0.05524,0.02464 0.05524,0.05524 v 4.5631654 c 0,0.0306 -0.02464,0.05524 -0.05524,0.05524 h -4.563165 c -0.0306,0 -0.05524,-0.02464 -0.05524,-0.05524 V -0.012055 c 0,-0.0306 0.02464,-0.05524 0.05524,-0.05524 z" /><path
         id="rect2-6-4-4-9"
         style="fill:#ffffff;fill-opacity:0.920474;fill-rule:evenodd;stroke:#000000;stroke-width:0.129067"
         d="m 67.616527,9.2799924 h 4.563165 c 0.03061,0 0.05524,0.02464 0.05524,0.05524 v 4.5631666 c 0,0.0306 -0.02464,0.05524 -0.05524,0.05524 h -4.563165 c -0.0306,0 -0.05524,-0.02464 -0.05524,-0.05524 V 9.3352354 c 0,-0.0306 0.02464,-0.05524 0.05524,-0.05524 z" /><path
         id="rect2-5-3-1-6"
         style="fill:#ffffff;fill-opacity:0.920474;fill-rule:evenodd;stroke:#000000;stroke-width:0.129067"
         d="m 67.561287,18.572042 h 4.563165 c 0.03061,0 0.05524,0.02464 0.05524,0.05524 v 4.563163 c 0,0.0306 -0.02464,0.05524 -0.05524,0.05524 h -4.563165 c -0.0306,0 -0.05524,-0.02464 -0.05524,-0.05524 v -4.563163 c 0,-0.0306 0.02464,-0.05524 0.05524,-0.05524 z" /><path
         id="rect2-6-2-6-8-9"
         style="fill:#ffffff;fill-opacity:0.920474;fill-rule:evenodd;stroke:#000000;stroke-width:0.129067"
         d="m 67.561287,27.919329 h 4.563165 c 0.03061,0 0.05524,0.02464 0.05524,0.05524 v 4.563164 c 0,0.0306 -0.02464,0.05524 -0.05524,0.05524 h -4.563165 c -0.0306,0 -0.05524,-0.02464 -0.05524,-0.05524 v -4.563161 c 0,-0.0306 0.02464,-0.05524 0.05524,-0.05524 z" /><path
         id="rect2-56"
         style="fill-opacity:0.920474;fill-rule:evenodd;stroke:#000000;stroke-width:0.129067"
         d="m 72.179692,-0.0672972 h 4.563165 c 0.03061,0 0.05524,0.024638 0.05524,0.055243 v 4.5631648 c 0,0.030604 -0.02464,0.055243 -0.05524,0.055243 h -4.563165 c -0.0306,0 -0.05524,-0.024638 -0.05524,-0.055243 v -4.5631648 c 0,-0.030604 0.02464,-0.055243 0.05524,-0.055243 z" /><path
         id="rect2-6-6"
         style="fill-opacity:0.920474;fill-rule:evenodd;stroke:#000000;stroke-width:0.129067"
         d="m 72.179692,9.2799996 h 4.563165 c 0.03061,0 0.05524,0.02464 0.05524,0.05524 v 4.5631624 c 0,0.0306 -0.02464,0.05524 -0.05524,0.05524 h -4.563165 c -0.0306,0 -0.05524,-0.02464 -0.05524,-0.05524 V 9.3352426 c 0,-0.0306 0.02464,-0.05524 0.05524,-0.05524 z" /><path
         id="rect2-5-4"
         style="fill-opacity:0.920474;fill-rule:evenodd;stroke:#000000;stroke-width:0.129067"
         d="m 72.234932,18.572047 h 4.563165 c 0.03061,0 0.05524,0.02464 0.05524,0.05524 v 4.563164 c 0,0.0306 -0.02464,0.05524 -0.05524,0.05524 h -4.563165 c -0.0306,0 -0.05524,-0.02464 -0.05524,-0.05524 v -4.563165 c 0,-0.0306 0.02464,-0.05524 0.05524,-0.05524 z" /><path
         id="rect2-6-2-00"
         style="fill-opacity:0.920474;fill-rule:evenodd;stroke:#000000;stroke-width:0.129067"
         d="m 72.234932,27.919334 h 4.563165 c 0.03061,0 0.05524,0.02464 0.05524,0.05524 v 4.563164 c 0,0.0306 -0.02464,0.05524 -0.05524,0.05524 h -4.563165 c -0.0306,0 -0.05524,-0.02464 -0.05524,-0.05524 v -4.56316 c 0,-0.0306 0.02464,-0.05524 0.05524,-0.05524 z" /><path
         id="rect2-4-4"
         style="fill:#ffffff;fill-opacity:0.920474;fill-rule:evenodd;stroke:#000000;stroke-width:0.129067"
         d="m 72.234932,-4.6857051 h 4.563165 c 0.03061,0 0.05524,0.024638 0.05524,0.055243 v 4.5631649 c 0,0.030604 -0.02464,0.055243 -0.05524,0.055243 h -4.563165 c -0.0306,0 -0.05524,-0.024638 -0.05524,-0.055243 V -4.630462 c 0,-0.030604 0.02464,-0.055243 0.05524,-0.055243 z" /><path
         id="rect2-6-4-6"
         style="fill:#ffffff;fill-opacity:0.920474;fill-rule:evenodd;stroke:#000000;stroke-width:0.129067"
         d="m 72.179692,4.6063536 h 4.563165 c 0.03061,0 0.05524,0.02464 0.05524,0.05524 v 4.563166 c 0,0.0306 -0.02464,0.05524 -0.05524,0.05524 h -4.563165 c -0.0306,0 -0.05524,-0.02464 -0.05524,-0.05524 v -4.563163 c 0,-0.0306 0.02464,-0.05524 0.05524,-0.05524 z" /><path
         id="rect2-5-3-26"
         style="fill:#ffffff;fill-opacity:0.920474;fill-rule:evenodd;stroke:#000000;stroke-width:0.129067"
         d="m 72.234932,13.898402 h 4.563165 c 0.03061,0 0.05524,0.02464 0.05524,0.05524 v 4.563164 c 0,0.0306 -0.02464,0.05524 -0.05524,0.05524 h -4.563165 c -0.0306,0 -0.05524,-0.02464 -0.05524,-0.05524 v -4.563164 c 0,-0.0306 0.02464,-0.05524 0.05524,-0.05524 z" /><path
         id="rect2-6-2-6-7"
         style="fill:#ffffff;fill-opacity:0.920474;fill-rule:evenodd;stroke:#000000;stroke-width:0.129067"
         d="m 72.234932,23.24569 h 4.563165 c 0.03061,0 0.05524,0.02464 0.05524,0.05524 v 4.563164 c 0,0.0306 -0.02464,0.05524 -0.05524,0.05524 h -4.563165 c -0.0306,0 -0.05524,-0.02464 -0.05524,-0.05524 v -4.563161 c 0,-0.0306 0.02464,-0.05524 0.05524,-0.05524 z" /><path
         id="rect2-1-5"
         style="fill-opacity:0.920474;fill-rule:evenodd;stroke:#000000;stroke-width:0.129067"
         d="m 76.963817,4.6063478 h 4.563167 c 0.0306,0 0.0552,0.02464 0.0552,0.05524 v 4.563165 c 0,0.0306 -0.0246,0.05524 -0.0552,0.05524 h -4.563167 c -0.0306,0 -0.05524,-0.02464 -0.05524,-0.05524 v -4.563165 c 0,-0.0306 0.02464,-0.05524 0.05524,-0.05524 z" /><path
         id="rect2-6-7-69"
         style="fill-opacity:0.920474;fill-rule:evenodd;stroke:#000000;stroke-width:0.129067"
         d="m 76.963817,13.953638 h 4.563167 c 0.0306,0 0.0552,0.02464 0.0552,0.05524 v 4.563163 c 0,0.0306 -0.0246,0.05524 -0.0552,0.05524 h -4.563167 c -0.0306,0 -0.05524,-0.02464 -0.05524,-0.05524 v -4.56316 c 0,-0.0306 0.02464,-0.05524 0.05524,-0.05524 z" /><path
         id="rect2-5-8-8"
         style="fill-opacity:0.920474;fill-rule:evenodd;stroke:#000000;stroke-width:0.129067"
         d="m 76.908577,23.245685 h 4.563167 c 0.0306,0 0.0552,0.02464 0.0552,0.05524 v 4.563165 c 0,0.0306 -0.0246,0.05524 -0.0552,0.05524 h -4.563167 c -0.0306,0 -0.05524,-0.02464 -0.05524,-0.05524 v -4.563165 c 0,-0.0306 0.02464,-0.05524 0.05524,-0.05524 z" /><path
         id="rect2-6-2-5-7"
         style="fill-opacity:0.920474;fill-rule:evenodd;stroke:#000000;stroke-width:0.129067"
         d="m 76.908577,-4.6857016 h 4.563167 c 0.0306,0 0.0552,0.02464 0.0552,0.05524 v 4.5631644 c 0,0.0306 -0.0246,0.05524 -0.0552,0.05524 h -4.563167 c -0.0306,0 -0.05524,-0.02464 -0.05524,-0.05524 v -4.5631614 c 0,-0.0306 0.02464,-0.05524 0.05524,-0.05524 z" /><path
         id="rect2-4-7-2"
         style="fill:#ffffff;fill-opacity:0.920474;fill-rule:evenodd;stroke:#000000;stroke-width:0.129067"
         d="m 76.963817,-0.0672972 h 4.563167 c 0.0306,0 0.0552,0.02464 0.0552,0.05524 v 4.563165 c 0,0.0306 -0.0246,0.05524 -0.0552,0.05524 h -4.563167 c -0.0306,0 -0.05524,-0.02464 -0.05524,-0.05524 v -4.563162 c 0,-0.0306 0.02464,-0.05524 0.05524,-0.05524 z" /><path
         id="rect2-6-4-4-8"
         style="fill:#ffffff;fill-opacity:0.920474;fill-rule:evenodd;stroke:#000000;stroke-width:0.129067"
         d="m 76.963817,9.2799928 h 4.563167 c 0.0306,0 0.0552,0.02464 0.0552,0.05524 v 4.5631652 c 0,0.0306 -0.0246,0.05524 -0.0552,0.05524 h -4.563167 c -0.0306,0 -0.05524,-0.02464 -0.05524,-0.05524 V 9.3352358 c 0,-0.0306 0.02464,-0.05524 0.05524,-0.05524 z" /><path
         id="rect2-5-3-1-29"
         style="fill:#ffffff;fill-opacity:0.920474;fill-rule:evenodd;stroke:#000000;stroke-width:0.129067"
         d="m 76.908577,18.572042 h 4.563167 c 0.0306,0 0.0552,0.02464 0.0552,0.05524 v 4.563164 c 0,0.0306 -0.0246,0.05524 -0.0552,0.05524 h -4.563167 c -0.0306,0 -0.05524,-0.02464 -0.05524,-0.05524 v -4.563164 c 0,-0.0306 0.02464,-0.05524 0.05524,-0.05524 z" /><path
         id="rect2-6-2-6-8-96"
         style="fill:#ffffff;fill-opacity:0.920474;fill-rule:evenodd;stroke:#000000;stroke-width:0.129067"
         d="m 76.908577,27.919329 h 4.563167 c 0.0306,0 0.0552,0.02464 0.0552,0.05524 v 4.563164 c 0,0.0306 -0.0246,0.05524 -0.0552,0.05524 h -4.563167 c -0.0306,0 -0.05524,-0.02464 -0.05524,-0.05524 v -4.563161 c 0,-0.0306 0.02464,-0.05524 0.05524,-0.05524 z" /></g><path
       id="rect1"
       style="opacity:1;fill:#e9afaf;fill-opacity:1;fill-rule:evenodd;stroke:#000000;stroke-width:2.24671"
       d="M 4.8044778,14.834385 H 27.195522 c 0.03051,0 0.05506,0.02646 0.05506,0.05933 v 13.391071 c 0,0.03286 -0.02455,0.05933 -0.05506,0.05933 H 4.8044778 c -0.030502,0 -0.055059,-0.02646 -0.055059,-0.05933 V 14.893719 c 0,-0.03288 0.024555,-0.05933 0.055059,-0.05933 z" /><path
       id="path1"
       style="opacity:1;fill:#e9afaf;fill-opacity:1;fill-rule:evenodd;stroke:#000000;stroke-width:1.41544"
       d="M 13.665108,1.547698 6.6930581,6.2235323 V 15.127981 H 11.47293 l 0.111163,-5.8845988 3.582133,-2.556739 h 1.707058 l 3.580218,2.556739 0.113079,5.8845988 h 4.527697 V 6.2235323 L 18.336808,1.547698 h -0.40632 -3.860976 z"
       sodipodi:nodetypes="ccccccccccccccc" /></g></svg>
