<?xml version="1.0" encoding="UTF-8" standalone="no"?>
<!-- Created with Inkscape (http://www.inkscape.org/) -->

<svg
   width="159.91385mm"
   height="121.10107mm"
   viewBox="0 0 159.91385 121.10106"
   version="1.1"
   id="svg18"
   inkscape:version="1.3.2 (091e20ef0f, 2023-11-25, custom)"
   sodipodi:docname="txt_frame.svg"
   xml:space="preserve"
   xmlns:inkscape="http://www.inkscape.org/namespaces/inkscape"
   xmlns:sodipodi="http://sodipodi.sourceforge.net/DTD/sodipodi-0.dtd"
   xmlns="http://www.w3.org/2000/svg"
   xmlns:svg="http://www.w3.org/2000/svg"
   xmlns:rdf="http://www.w3.org/1999/02/22-rdf-syntax-ns#"
   xmlns:cc="http://creativecommons.org/ns#"
   xmlns:dc="http://purl.org/dc/elements/1.1/"><defs
     id="defs12"><rect
       x="17.647059"
       y="93.382353"
       width="450"
       height="260.29412"
       id="rect4" /><rect
       x="-180.93615"
       y="-25.996573"
       width="713.34596"
       height="472.09776"
       id="rect3" /><rect
       x="43.674242"
       y="40.554654"
       width="393.06818"
       height="372.27092"
       id="rect2" /></defs><sodipodi:namedview
     id="base"
     pagecolor="#ffffff"
     bordercolor="#666666"
     borderopacity="1.0"
     inkscape:pageopacity="0.0"
     inkscape:pageshadow="2"
     inkscape:zoom="1.36"
     inkscape:cx="305.51471"
     inkscape:cy="311.02941"
     inkscape:document-units="mm"
     inkscape:current-layer="layer1"
     showgrid="false"
     inkscape:pagecheckerboard="true"
     inkscape:window-width="1920"
     inkscape:window-height="1020"
     inkscape:window-x="2160"
     inkscape:window-y="1434"
     inkscape:window-maximized="0"
     inkscape:showpageshadow="2"
     inkscape:deskcolor="#d1d1d1" /><metadata
     id="metadata15"><rdf:RDF><cc:Work
         rdf:about=""><dc:format>image/svg+xml</dc:format><dc:type
           rdf:resource="http://purl.org/dc/dcmitype/StillImage" /></cc:Work></rdf:RDF></metadata><g
     inkscape:label="Layer 1"
     inkscape:groupmode="layer"
     id="layer1"
     transform="translate(-36.415858,-88.835622)"><path
       id="rect1"
       style="fill:#000000;fill-rule:evenodd;stroke:#ffffff;stroke-width:4.80874;stroke-linecap:square;paint-order:markers stroke fill"
       d="m 193.92531,185.75762 -12.17145,10 v 8.9079 l -3.37009,2.87252 -6.6114,-0.006 -93.00388,-0.0158 0.015,-115.140974 99.70093,0.0145 3.26905,3.818747 7.8e-4,9.555107 12.17048,9.99956 z"
       sodipodi:nodetypes="cccccccccccc" /><path
       id="path4"
       style="fill:#000000;fill-rule:evenodd;stroke:#ffffff;stroke-width:2.15426;stroke-linecap:square;paint-order:markers stroke fill"
       d="m 171.77228,207.53208 c -144.81762,0.61232 -92.30442,0.009 -112.13165,0.0124 l -0.0119,-0.0119 -22.1356,-0.004 0.0155,-117.616074 c 38.36832,0.006 76.72712,0 115.09944,0 h 19.16379 v 23.625944 l -7.40832,2.53508 3e-4,66.85669 7.40835,2.7513 z"
       sodipodi:nodetypes="cccccccccccc" /><path
       style="font-size:96px;line-height:1.25;font-family:'Arial Black';-inkscape-font-specification:'Arial Black, ';letter-spacing:0px;word-spacing:0px;white-space:pre;fill:#ffffff"
       d="m 19.849609,111.26147 h 64.546875 v 16.96875 h -21.65625 v 51.75 H 41.505859 v -51.75 h -21.65625 z m 74.109375,0 h 56.906246 v 14.67187 h -35.625 v 10.92188 h 33.04688 v 14.01562 h -33.04688 v 13.54688 h 36.65625 v 15.5625 H 93.958984 Z m 64.640626,0 h 23.39062 l 12.1875,21.14062 11.8125,-21.14062 h 23.15625 l -21.375,33.28125 23.39063,35.4375 h -23.85938 l -13.54687,-22.07813 -13.59375,22.07813 h -23.71875 l 23.71875,-35.8125 z m 74.57812,0 h 64.54688 v 16.96875 h -21.65625 v 51.75 h -21.23438 v -51.75 h -21.65625 z"
       id="text2"
       transform="matrix(0,0.26458333,-0.26458333,0,217.84181,108.74104)"
       aria-label="TEXT" /></g></svg>
