<?xml version="1.0" encoding="UTF-8" standalone="no"?>
<!-- Created with Inkscape (http://www.inkscape.org/) -->

<svg
   width="114.26365mm"
   height="48.073212mm"
   viewBox="0 0 114.26365 48.073212"
   version="1.1"
   id="svg18"
   inkscape:version="1.3.2 (091e20ef0f, 2023-11-25, custom)"
   sodipodi:docname="visible.svg"
   xmlns:inkscape="http://www.inkscape.org/namespaces/inkscape"
   xmlns:sodipodi="http://sodipodi.sourceforge.net/DTD/sodipodi-0.dtd"
   xmlns="http://www.w3.org/2000/svg"
   xmlns:svg="http://www.w3.org/2000/svg"
   xmlns:rdf="http://www.w3.org/1999/02/22-rdf-syntax-ns#"
   xmlns:cc="http://creativecommons.org/ns#"
   xmlns:dc="http://purl.org/dc/elements/1.1/">
  <defs
     id="defs12" />
  <sodipodi:namedview
     id="base"
     pagecolor="#ffffff"
     bordercolor="#666666"
     borderopacity="1.0"
     inkscape:pageopacity="0.0"
     inkscape:pageshadow="2"
     inkscape:zoom="3.56"
     inkscape:cx="227.66854"
     inkscape:cy="80.477528"
     inkscape:document-units="mm"
     inkscape:current-layer="layer1"
     showgrid="false"
     inkscape:pagecheckerboard="true"
     inkscape:window-width="2160"
     inkscape:window-height="3807"
     inkscape:window-x="0"
     inkscape:window-y="0"
     inkscape:window-maximized="1"
     inkscape:showpageshadow="2"
     inkscape:deskcolor="#d1d1d1" />
  <metadata
     id="metadata15">
    <rdf:RDF>
      <cc:Work
         rdf:about="">
        <dc:format>image/svg+xml</dc:format>
        <dc:type
           rdf:resource="http://purl.org/dc/dcmitype/StillImage" />
        <dc:title />
      </cc:Work>
    </rdf:RDF>
  </metadata>
  <g
     inkscape:label="Layer 1"
     inkscape:groupmode="layer"
     id="layer1"
     transform="translate(-30.154678,-122.07967)">
    <g
       id="g4">
      <path
         id="rect3"
         style="font-variation-settings:normal;opacity:1;vector-effect:none;fill:#ffffff;fill-opacity:1;fill-rule:evenodd;stroke-width:2.22268;stroke-linecap:butt;stroke-linejoin:miter;stroke-miterlimit:4;stroke-dasharray:none;stroke-dashoffset:0;stroke-opacity:1;-inkscape-stroke:none"
         d="m 83.473387,139.53134 v 10.05158 h 4.676201 4.6762 v -10.05158 h -4.6762 z" />
      <path
         id="rect1"
         style="fill:#0000ff;fill-rule:evenodd;stroke-width:3.92318"
         d="m 88.149658,132.07514 -12.48761,12.48813 12.48761,12.48813 12.487612,-12.48813 z m -4.6762,7.45639 h 4.6762 4.676201 v 10.05159 h -4.676201 -4.6762 z" />
      <path
         id="path3"
         style="opacity:1;vector-effect:none;fill:#b3b3b3;fill-rule:evenodd;stroke-width:2.16984"
         d="M 87.286591 122.07967 C 55.733684 122.07967 30.154682 138.11891 30.154678 157.90436 C 30.154674 177.68981 56.596671 167.5601 88.149588 167.5601 C 119.70251 167.5601 144.4185 177.68981 144.4185 157.90436 C 144.4185 138.11891 118.8395 122.07967 87.286591 122.07967 z M 88.149588 132.07493 L 100.6372 144.56305 L 88.149588 157.05118 L 75.661978 144.56305 L 88.149588 132.07493 z M 69.700068 134.9533 C 69.700068 134.9533 61.449497 150.88489 69.842178 158.56633 C 78.234858 166.24776 40.539057 156.43261 40.539057 156.43261 C 40.539057 156.43261 60.453893 136.66029 69.700068 134.9533 z M 106.46061 134.9533 C 115.70681 136.66029 135.62163 156.43313 135.62163 156.43313 C 135.62163 156.43313 97.925804 166.24829 106.3185 158.56685 C 114.71119 150.8854 106.46061 134.9533 106.46061 134.9533 z " />
      <g
         id="g2">
        <path
           id="path1"
           style="fill:#1a1a1a;fill-rule:evenodd;stroke-width:4.99999"
           d="m 88.149658,126.62638 c -24.50646,-0.2031 -39.600113,10.55393 -52.763704,31.47456 3.014234,-0.35512 15.588512,-22.73253 41.129272,-27.74662 0.456645,-0.13348 0.93036,-0.22929 1.424719,-0.27389 -0.482608,0.0808 -0.951058,0.1809 -1.424719,0.27389 -10.924794,3.19322 -10.821871,30.7312 11.634432,30.76401 22.456292,-0.0328 22.559222,-27.57079 11.634432,-30.76401 -0.473661,-0.093 -0.94211,-0.1931 -1.424719,-0.27389 0.494359,0.0446 0.968075,0.14041 1.424719,0.27389 25.54076,5.01409 38.11504,27.3915 41.12927,27.74662 -13.16358,-20.92063 -28.25725,-31.67766 -52.763702,-31.47456 z m 0,5.44876 12.487612,12.48813 -12.487612,12.48813 -12.48761,-12.48813 z" />
      </g>
      <path
         style="font-variation-settings:normal;vector-effect:none;fill:#ffffff;fill-opacity:1;fill-rule:evenodd;stroke-width:2.22268;stroke-linecap:butt;stroke-linejoin:miter;stroke-miterlimit:4;stroke-dasharray:none;stroke-dashoffset:0;stroke-opacity:1;-inkscape-stroke:none"
         d="m 69.69993,134.95298 c 0,0 -8.250449,15.93189 0.142248,23.61335 8.392696,7.68145 -29.303315,-2.13374 -29.303315,-2.13374 0,0 19.914874,-19.77262 29.161067,-21.47961 z"
         id="path4-6" />
      <path
         style="font-variation-settings:normal;vector-effect:none;fill:#ffffff;fill-opacity:1;fill-rule:evenodd;stroke-width:2.22268;stroke-linecap:butt;stroke-linejoin:miter;stroke-miterlimit:4;stroke-dasharray:none;stroke-dashoffset:0;stroke-opacity:1;-inkscape-stroke:none"
         d="m 106.59939,134.95298 c 0,0 8.25045,15.93189 -0.14225,23.61335 -8.392696,7.68145 29.30331,-2.13374 29.30331,-2.13374 0,0 -19.91487,-19.77262 -29.16106,-21.47961 z"
         id="path4-6-1" />
    </g>
  </g>
</svg>
