<?xml version="1.0" encoding="UTF-8" standalone="no"?>
<!-- Created with Inkscape (http://www.inkscape.org/) -->

<svg
   width="127.99998mm"
   height="127.99998mm"
   viewBox="0 0 127.99999 127.99999"
   version="1.1"
   id="svg18"
   inkscape:version="1.3.2 (091e20ef0f, 2023-11-25, custom)"
   sodipodi:docname="wrench.svg"
   xml:space="preserve"
   xmlns:inkscape="http://www.inkscape.org/namespaces/inkscape"
   xmlns:sodipodi="http://sodipodi.sourceforge.net/DTD/sodipodi-0.dtd"
   xmlns="http://www.w3.org/2000/svg"
   xmlns:svg="http://www.w3.org/2000/svg"
   xmlns:rdf="http://www.w3.org/1999/02/22-rdf-syntax-ns#"
   xmlns:cc="http://creativecommons.org/ns#"
   xmlns:dc="http://purl.org/dc/elements/1.1/"><defs
     id="defs12" /><sodipodi:namedview
     id="base"
     pagecolor="#ffffff"
     bordercolor="#666666"
     borderopacity="1.0"
     inkscape:pageopacity="0.0"
     inkscape:pageshadow="2"
     inkscape:zoom="0.5"
     inkscape:cx="513"
     inkscape:cy="343"
     inkscape:document-units="mm"
     inkscape:current-layer="g13"
     showgrid="false"
     inkscape:pagecheckerboard="true"
     inkscape:window-width="1728"
     inkscape:window-height="899"
     inkscape:window-x="2160"
     inkscape:window-y="1434"
     inkscape:window-maximized="1"
     inkscape:showpageshadow="2"
     inkscape:deskcolor="#d1d1d1" /><metadata
     id="metadata15"><rdf:RDF><cc:Work
         rdf:about=""><dc:format>image/svg+xml</dc:format><dc:type
           rdf:resource="http://purl.org/dc/dcmitype/StillImage" /></cc:Work></rdf:RDF></metadata><g
     inkscape:label="Layer 1"
     inkscape:groupmode="layer"
     id="layer1"
     transform="translate(115.67847,-93.624124)"><g
       id="g10"
       transform="matrix(0.68361352,0,0,0.68361352,20.014377,58.129605)"><g
         id="g11"><g
           id="g13"><rect
             style="fill:#f9f9f9;fill-rule:evenodd;stroke:#000000;stroke-width:3.19587;stroke-dasharray:none;stroke-dashoffset:0;-inkscape-stroke:none"
             id="rect2-2"
             width="184.0444"
             height="184.0444"
             x="-196.89557"
             y="53.519844"
             ry="45.651642" /><path
             id="rect2"
             style="fill:#666666;fill-rule:evenodd;stroke:#000000;stroke-width:3.19587;stroke-dasharray:none;stroke-dashoffset:0;-inkscape-stroke:none"
             d="M -155.69272 142.21101 L -165.3127 162.09651 L -175.38849 182.21485 L -186.48782 196.91543 C -186.48782 196.91543 -191.87103 202.54418 -194.77055 205.73487 C -189.45639 222.58541 -174.67013 235.13077 -156.59908 237.22769 L -147.83331 229.58826 L -134.22127 219.2683 C -134.22127 219.2683 -116.59211 212.212 -116.28607 212.51254 C -115.98003 212.81307 -97.937536 207.69957 -97.459616 207.53928 C -96.981686 207.37904 -72.913041 203.31816 -72.913041 203.31816 L -57.303831 201.47067 L -46.450937 195.14504 L -106.39472 164.50944 L -120.81787 200.33148 L -154.58302 180.88517 L -141.93252 148.56309 L -155.69272 142.21101 z " /><path
             style="fill:#808080;fill-opacity:1;fill-rule:evenodd;stroke:#000000;stroke-width:4.2896;stroke-dasharray:none;stroke-dashoffset:0"
             d="m -159.64002,105.73842 47.74899,23.94072 -4.92016,-7.43549 1.49981,-6.33033 22.624188,-48.160883 -14.614458,1.789556 -19.82219,7.155417 -10.90989,6.536924 -12.13171,11.414712 -6.09339,5.474324 z"
             id="path1" /><path
             style="fill:#808080;fill-opacity:1;fill-rule:evenodd;stroke:#000000;stroke-width:4.2896;stroke-dasharray:none;stroke-dashoffset:0"
             d="m -110.61904,130.9418 35.578167,15.97465 18.432231,0.10704 21.961552,-49.971071 7.241141,11.879451 4.800676,17.85202 0.650037,16.94196 -1.451238,14.36224 c 0,0 -8.152365,18.49254 -7.211631,18.85018 0.940573,0.35731 -10.140442,13.06214 -10.140442,13.06214 l -7.253912,3.25236 -59.480101,-28.17809 2.16566,-8.30305 -1.16049,-2.22209 -27.16688,-13.22204 c 0,0 -3.10007,0.37962 -2.21439,0.27116 0.88576,-0.10844 -6.26141,7.85897 -6.26141,7.85897 l -14.33015,-7.2288 -0.75678,-21.65696 1.28317,-11.97767 z"
             id="path2" /><path
             style="fill:#808080;fill-opacity:1;fill-rule:evenodd;stroke:#000000;stroke-width:4.2896;stroke-dasharray:none;stroke-dashoffset:0"
             d="m -157.62204,102.88668 -12.9237,8.93791 -3.01495,1.3721 -7.31906,-0.1068 -5.17264,7.31993 7.55005,4.75928 -1.92229,5.25028 5.12479,3.05024 2.93943,-4.70634 3.36473,1.59402 -1.72573,4.22332 4.14647,2.83557 2.66518,-4.3383 3.28695,0.93481 c 0,0 -4.71973,27.32467 -4.09343,27.24796 0.62629,-0.0767 8.784,-19.79831 8.784,-19.79831 l -0.92376,-18.60959 0.79525,-14.80796 -2.3864,-1.37954 z"
             id="path3" /><path
             style="fill:#808080;fill-opacity:1;fill-rule:evenodd;stroke:#000000;stroke-width:4.2896;stroke-dasharray:none;stroke-dashoffset:0"
             d="m -140.10759,150.39053 -1.0217,4.80576 2.26978,0.39061 2.0411,-6.93659 4.34304,1.8085 -1.88568,8.25491 4.61731,1.44063 2.31541,-7.30455 3.95218,1.18777 -2.19886,8.2932 5.3214,2.02303 1.65018,-7.55735 3.71671,1.88526 -1.53139,5.87116 5.79,3.30304 -7.41255,17.95865 -2.93497,-0.64362 -3.488,5.44213 -2.93496,-0.64363 1.1405,-6.49205 -3.71678,-1.88516 -3.60456,4.45339 -3.01272,-1.30282 1.29597,-5.17361 -4.02989,-1.84693 -3.56575,4.78293 -2.7384,-1.67059 0.90509,-5.79458 -4.49848,-3.12681 z"
             id="path4" /><path
             style="fill:#808080;fill-opacity:1;fill-rule:evenodd;stroke:#000000;stroke-width:4.2896;stroke-dasharray:none;stroke-dashoffset:0"
             d="m -117.56961,158.32944 -9.41927,30.57476 2.42528,1.70905 8.98949,-31.52516 z"
             id="path5" /><path
             style="fill:#808080;fill-opacity:1;fill-rule:evenodd;stroke:#000000;stroke-width:4.2896;stroke-dasharray:none;stroke-dashoffset:0"
             d="m -127.07625,153.14123 4.6173,1.44062 -10.90735,31.42562 -3.60014,-0.89653 z"
             id="path6" /><path
             style="fill:#808080;fill-opacity:1;fill-rule:evenodd;stroke:#000000;stroke-width:4.2896;stroke-dasharray:none;stroke-dashoffset:0"
             d="m -136.19206,148.5738 4.34297,1.80849 -11.14271,32.1231 -3.40356,-1.92355 z"
             id="path7" /><path
             id="rect2-6"
             style="fill:#999999;fill-rule:evenodd;stroke:#000000;stroke-width:3.19587;stroke-dasharray:none;stroke-dashoffset:0;-inkscape-stroke:none"
             d="M -174.25762 202.81774 L -182.66432 211.04302 L -189.22656 217.29607 C -183.81743 225.39414 -175.86764 231.60663 -166.51614 234.91077 L -161.20346 229.38567 L -154.93075 222.0985 C -154.39008 222.3721 -156.60967 213.79914 -156.60967 213.79914 L -159.26828 207.90893 C -159.26828 207.90893 -164.88607 203.43169 -165.64682 203.48749 C -166.40722 203.54679 -174.25762 202.81849 -174.25762 202.81849 L -174.25762 202.81774 z " /></g></g></g></g></svg>
