<?xml version="1.0" encoding="UTF-8" standalone="no"?>
<!-- Created with Inkscape (http://www.inkscape.org/) -->

<svg
   width="3.4944682mm"
   height="4.4873695mm"
   viewBox="0 0 3.4944682 4.4873694"
   version="1.1"
   id="svg18"
   inkscape:version="1.3.2 (091e20ef0f, 2023-11-25, custom)"
   sodipodi:docname="horiz_scroll.svg"
   xmlns:inkscape="http://www.inkscape.org/namespaces/inkscape"
   xmlns:sodipodi="http://sodipodi.sourceforge.net/DTD/sodipodi-0.dtd"
   xmlns="http://www.w3.org/2000/svg"
   xmlns:svg="http://www.w3.org/2000/svg"
   xmlns:rdf="http://www.w3.org/1999/02/22-rdf-syntax-ns#"
   xmlns:cc="http://creativecommons.org/ns#"
   xmlns:dc="http://purl.org/dc/elements/1.1/">
  <defs
     id="defs12" />
  <sodipodi:namedview
     id="base"
     pagecolor="#ffffff"
     bordercolor="#666666"
     borderopacity="1.0"
     inkscape:pageopacity="0.0"
     inkscape:pageshadow="2"
     inkscape:zoom="32"
     inkscape:cx="1.203125"
     inkscape:cy="8.125"
     inkscape:document-units="mm"
     inkscape:current-layer="layer1"
     showgrid="false"
     inkscape:pagecheckerboard="true"
     inkscape:window-width="1920"
     inkscape:window-height="1020"
     inkscape:window-x="2160"
     inkscape:window-y="1434"
     inkscape:window-maximized="0"
     inkscape:showpageshadow="2"
     inkscape:deskcolor="#d1d1d1" />
  <metadata
     id="metadata15">
    <rdf:RDF>
      <cc:Work
         rdf:about="">
        <dc:format>image/svg+xml</dc:format>
        <dc:type
           rdf:resource="http://purl.org/dc/dcmitype/StillImage" />
      </cc:Work>
    </rdf:RDF>
  </metadata>
  <g
     inkscape:label="Layer 1"
     inkscape:groupmode="layer"
     id="layer1"
     transform="translate(-29.936774,-143.55634)">
    <path
       id="path1-9"
       style="fill:#f9f9f9;fill-rule:evenodd;stroke:#f2f2f2;stroke-width:0.364539;stroke-linecap:square;paint-order:markers stroke fill"
       d="m 30.621667,143.73861 -0.0013,0.003 -0.001,0.003 c -0.44184,0.73008 -0.527339,1.39852 -0.494153,2.2296 1.99e-4,0.2813 0.01573,0.5603 0.0783,0.84006 0.03788,0.37811 0.26082,0.70468 0.418308,1.04717 h 1.022091 0.08018 1.022098 c 0.157489,-0.34249 0.380432,-0.66906 0.41831,-1.04717 0.06256,-0.27976 0.07808,-0.55876 0.0783,-0.84006 0.03319,-0.83108 -0.05231,-1.49952 -0.494152,-2.2296 l -9.51e-4,-0.003 -0.0013,-0.003 h -1.022241 -0.08018 z" />
    <path
       style="fill:#cccccc;fill-rule:evenodd;stroke:#808080;stroke-width:0.0335681;stroke-linecap:square;paint-order:markers stroke fill"
       d="m 30.726254,143.8961 h 0.774231 v 0.67161 c -0.06008,0.007 -0.195881,0.0817 -0.277618,0.12788 v 0.61365 c 0.08419,0.0785 0.21535,0.17207 0.277618,0.16984 l -0.0083,0.64597 c -0.531998,0.044 -0.910642,-0.19353 -1.207718,-0.5806 0.0044,-0.63428 0.102711,-1.09303 0.441706,-1.64839 z"
       id="path1"
       sodipodi:nodetypes="cccccccccc" />
    <path
       style="fill:#cccccc;fill-rule:evenodd;stroke:#808080;stroke-width:0.0335681;stroke-linecap:square;paint-order:markers stroke fill"
       d="m 32.641443,143.8961 h -0.77423 v 0.67161 c 0.06008,0.007 0.195882,0.0817 0.277618,0.12788 v 0.61365 c -0.08419,0.0785 -0.21535,0.17207 -0.277618,0.16984 l 0.0083,0.64597 c 0.532,0.044 0.910642,-0.19353 1.207718,-0.5806 -0.0044,-0.63428 -0.102711,-1.09303 -0.441706,-1.64839 z"
       id="path1-0"
       sodipodi:nodetypes="cccccccccc" />
    <path
       id="path1-3"
       style="fill:#cccccc;fill-rule:evenodd;stroke:#808080;stroke-width:0.0335681;stroke-linecap:square;paint-order:markers stroke fill"
       d="m 30.345504,145.94718 -0.05976,0.10774 c -0.02609,0.29257 0.03353,0.58515 0.09299,0.87772 0.06592,0.27234 0.222844,0.51675 0.34872,0.77068 h 0.774234 0.150252 0.06382 0.150251 0.774234 c 0.125871,-0.25393 0.282802,-0.49834 0.348721,-0.77068 0.05945,-0.29257 0.119084,-0.58515 0.09299,-0.87772 l -0.05976,-0.10774 c -0.425861,0.36677 -0.784607,0.45936 -1.306437,0.45805 v -4e-4 c -0.0108,1.3e-4 -0.02119,7e-5 -0.03191,1.3e-4 -0.01067,-10e-5 -0.02105,0 -0.03191,-1.3e-4 v 4e-4 c -0.521824,0.001 -0.88058,-0.0913 -1.306438,-0.45805 z" />
    <path
       id="path2"
       style="fill:#1a1a1a;fill-rule:evenodd;stroke:#000000;stroke-width:0.111164;stroke-linecap:square;paint-order:markers stroke fill"
       d="m 31.565161,144.73239 c -0.05552,0.0295 -0.09583,0.0412 -0.139846,0.0744 -0.01669,0.14286 -0.0087,0.28354 0,0.4261 l 0.139846,0.0744 h 0.09818 0.04102 0.09818 l 0.139845,-0.0744 c 0.0087,-0.14256 0.01669,-0.28324 0,-0.4261 -0.04401,-0.0331 -0.08432,-0.0449 -0.139845,-0.0744 h -0.09818 -0.04102 z"
       sodipodi:nodetypes="ccccccccccccc" />
    <path
       style="fill:#1a1a1a;fill-rule:evenodd;stroke:#000000;stroke-width:0.29063322;stroke-linecap:square;stroke-dasharray:none;paint-order:markers stroke fill"
       d="m 32.293125,145.00687 h 0.697159"
       id="path3"
       sodipodi:nodetypes="cc" />
    <path
       style="fill:#1a1a1a;fill-rule:evenodd;stroke:#000000;stroke-width:0.29063322;stroke-linecap:square;stroke-dasharray:none;paint-order:markers stroke fill"
       d="M 31.068114,145.00687 H 30.443418"
       id="path3-5"
       sodipodi:nodetypes="cc" />
    <path
       style="fill:none;fill-rule:evenodd;stroke:#000000;stroke-width:0.29063322;stroke-linecap:square;stroke-dasharray:none;paint-order:markers stroke fill"
       d="m 32.569416,144.36274 0.458536,0.64413 -0.443264,0.62253"
       id="path5" />
    <path
       style="fill:none;fill-rule:evenodd;stroke:#000000;stroke-width:0.29063322;stroke-linecap:square;stroke-dasharray:none;paint-order:markers stroke fill"
       d="m 30.798601,144.36274 -0.458536,0.64413 0.443264,0.62253"
       id="path5-3"
       sodipodi:nodetypes="ccc" />
  </g>
</svg>
