<?xml version="1.0" encoding="UTF-8" standalone="no"?>
<!-- Created with Inkscape (http://www.inkscape.org/) -->

<svg
   width="3.4944704mm"
   height="4.4873695mm"
   viewBox="0 0 3.4944703 4.4873694"
   version="1.1"
   id="svg18"
   inkscape:version="1.3.2 (091e20ef0f, 2023-11-25, custom)"
   sodipodi:docname="v_scroll.svg"
   xmlns:inkscape="http://www.inkscape.org/namespaces/inkscape"
   xmlns:sodipodi="http://sodipodi.sourceforge.net/DTD/sodipodi-0.dtd"
   xmlns="http://www.w3.org/2000/svg"
   xmlns:svg="http://www.w3.org/2000/svg"
   xmlns:rdf="http://www.w3.org/1999/02/22-rdf-syntax-ns#"
   xmlns:cc="http://creativecommons.org/ns#"
   xmlns:dc="http://purl.org/dc/elements/1.1/">
  <defs
     id="defs12" />
  <sodipodi:namedview
     id="base"
     pagecolor="#ffffff"
     bordercolor="#666666"
     borderopacity="1.0"
     inkscape:pageopacity="0.0"
     inkscape:pageshadow="2"
     inkscape:zoom="32.000001"
     inkscape:cx="0.17187499"
     inkscape:cy="10.3125"
     inkscape:document-units="mm"
     inkscape:current-layer="layer1"
     showgrid="false"
     inkscape:pagecheckerboard="true"
     inkscape:window-width="1920"
     inkscape:window-height="1020"
     inkscape:window-x="2160"
     inkscape:window-y="1434"
     inkscape:window-maximized="0"
     inkscape:showpageshadow="2"
     inkscape:deskcolor="#d1d1d1" />
  <metadata
     id="metadata15">
    <rdf:RDF>
      <cc:Work
         rdf:about="">
        <dc:format>image/svg+xml</dc:format>
        <dc:type
           rdf:resource="http://purl.org/dc/dcmitype/StillImage" />
      </cc:Work>
    </rdf:RDF>
  </metadata>
  <g
     inkscape:label="Layer 1"
     inkscape:groupmode="layer"
     id="layer1"
     transform="translate(-29.936774,-143.55634)">
    <path
       id="path1-9"
       style="fill:#f9f9f9;fill-rule:evenodd;stroke:#f2f2f2;stroke-width:0.364539;stroke-linecap:square;paint-order:markers stroke fill"
       d="m 30.621667,143.73861 -0.0013,0.003 -0.001,0.003 c -0.441841,0.73009 -0.527339,1.39852 -0.494153,2.2296 1.98e-4,0.2813 0.01573,0.56031 0.0783,0.84006 0.03789,0.37811 0.260821,0.70468 0.418309,1.04717 h 1.022091 0.08018 1.022098 c 0.157489,-0.34249 0.380432,-0.66906 0.418311,-1.04717 0.06255,-0.27975 0.07808,-0.55876 0.0783,-0.84006 0.03319,-0.83108 -0.05231,-1.49951 -0.494152,-2.2296 l -9.51e-4,-0.003 -0.0013,-0.003 h -1.022237 -0.08019 z" />
    <path
       style="fill:#cccccc;fill-rule:evenodd;stroke:#808080;stroke-width:0.0335681;stroke-linecap:square;paint-order:markers stroke fill"
       d="m 30.726254,143.90779 h 0.774231 v 1.20078 c -0.06008,0.007 -0.195881,0.0817 -0.277618,0.12788 v 0.61365 c 0.08419,0.0785 0.21535,0.17207 0.277618,0.16984 l -0.0083,0.64597 c -0.531998,0.044 -0.910642,-0.19353 -1.207718,-0.5806 0.0044,-0.63428 0.102711,-1.6222 0.441706,-2.17756 z"
       id="path1"
       sodipodi:nodetypes="cccccccccc" />
    <path
       style="fill:#cccccc;fill-rule:evenodd;stroke:#808080;stroke-width:0.0335681;stroke-linecap:square;paint-order:markers stroke fill"
       d="m 32.641443,143.90779 h -0.77423 v 1.20078 c 0.06008,0.007 0.195882,0.0817 0.277618,0.12788 v 0.61365 c -0.08419,0.0785 -0.21535,0.17207 -0.277618,0.16984 l 0.0083,0.64597 c 0.532,0.044 0.910642,-0.19353 1.207718,-0.5806 -0.0044,-0.63428 -0.102711,-1.6222 -0.441706,-2.17756 z"
       id="path1-0"
       sodipodi:nodetypes="cccccccccc" />
    <path
       id="path1-3"
       style="fill:#cccccc;fill-rule:evenodd;stroke:#808080;stroke-width:0.0269265;stroke-linecap:square;paint-order:markers stroke fill"
       d="m 30.341917,146.57934 -0.05992,0.0691 c -0.02616,0.18775 0.03362,0.3755 0.09324,0.56325 0.0661,0.17476 0.223441,0.33161 0.349655,0.49456 h 0.776309 0.150654 0.06399 0.150653 0.776309 c 0.126209,-0.16295 0.28356,-0.3198 0.349656,-0.49456 0.05961,-0.18775 0.119403,-0.3755 0.09324,-0.56325 l -0.05992,-0.0691 c -0.427002,0.23536 -0.78671,0.29478 -1.309938,0.29394 v -2.6e-4 c -0.01083,9e-5 -0.02125,5e-5 -0.032,9e-5 -0.0107,-7e-5 -0.02111,0 -0.032,-9e-5 v 2.6e-4 c -0.523222,6.4e-4 -0.88294,-0.0586 -1.309939,-0.29394 z" />
    <path
       id="path2"
       style="fill:#1a1a1a;fill-rule:evenodd;stroke:#000000;stroke-width:0.111164;stroke-linecap:square;paint-order:markers stroke fill"
       d="m 31.565161,145.27325 c -0.05552,0.0295 -0.09583,0.0412 -0.139846,0.0744 -0.01669,0.14286 -0.0087,0.28354 0,0.4261 l 0.139846,0.0744 h 0.09818 0.04102 0.09818 l 0.139845,-0.0744 c 0.0087,-0.14256 0.01669,-0.28324 0,-0.4261 -0.04401,-0.0331 -0.08432,-0.0449 -0.139845,-0.0744 h -0.09818 -0.04102 z"
       sodipodi:nodetypes="ccccccccccccc" />
    <path
       style="fill:#1a1a1a;fill-rule:evenodd;stroke:#000000;stroke-width:0.36552755;stroke-linecap:square;stroke-dasharray:none;paint-order:markers stroke fill"
       d="m 31.683855,146.15987 v 1.16311"
       id="path3-5"
       sodipodi:nodetypes="cc" />
    <path
       style="fill:none;fill-rule:evenodd;stroke:#000000;stroke-width:0.36552755;stroke-linecap:square;paint-order:markers stroke fill"
       d="m 31.040695,146.68345 0.64316,0.76237 v 0 l 0.64318,-0.76237"
       id="path7"
       sodipodi:nodetypes="cccc" />
    <path
       style="fill:#1a1a1a;fill-rule:evenodd;stroke:#000000;stroke-width:0.36552755;stroke-linecap:square;stroke-dasharray:none;paint-order:markers stroke fill"
       d="m 31.683855,145.02004 v -0.81022"
       id="path3-5-5"
       sodipodi:nodetypes="cc" />
    <path
       style="fill:none;fill-rule:evenodd;stroke:#000000;stroke-width:0.36552755;stroke-linecap:square;paint-order:markers stroke fill"
       d="m 31.040695,144.75089 0.64316,-0.76237 v 0 l 0.64318,0.76237"
       id="path7-3"
       sodipodi:nodetypes="cccc" />
  </g>
</svg>
