<?xml version="1.0" encoding="UTF-8" standalone="no"?>
<!-- Created with Inkscape (http://www.inkscape.org/) -->

<svg
   width="127.99998mm"
   height="127.99998mm"
   viewBox="0 0 127.99999 127.99998"
   version="1.1"
   id="svg18"
   inkscape:version="1.3.2 (091e20ef0f, 2023-11-25, custom)"
   sodipodi:docname="clear_all.svg"
   xml:space="preserve"
   xmlns:inkscape="http://www.inkscape.org/namespaces/inkscape"
   xmlns:sodipodi="http://sodipodi.sourceforge.net/DTD/sodipodi-0.dtd"
   xmlns="http://www.w3.org/2000/svg"
   xmlns:svg="http://www.w3.org/2000/svg"
   xmlns:rdf="http://www.w3.org/1999/02/22-rdf-syntax-ns#"
   xmlns:cc="http://creativecommons.org/ns#"
   xmlns:dc="http://purl.org/dc/elements/1.1/"><defs
     id="defs12" /><sodipodi:namedview
     id="base"
     pagecolor="#ffffff"
     bordercolor="#666666"
     borderopacity="1.0"
     inkscape:pageopacity="0.0"
     inkscape:pageshadow="2"
     inkscape:zoom="1.03"
     inkscape:cx="77.184466"
     inkscape:cy="356.31068"
     inkscape:document-units="mm"
     inkscape:current-layer="layer1"
     showgrid="false"
     inkscape:pagecheckerboard="true"
     inkscape:window-width="1920"
     inkscape:window-height="1020"
     inkscape:window-x="2160"
     inkscape:window-y="1434"
     inkscape:window-maximized="0"
     inkscape:showpageshadow="2"
     inkscape:deskcolor="#d1d1d1" /><metadata
     id="metadata15"><rdf:RDF><cc:Work
         rdf:about=""><dc:format>image/svg+xml</dc:format><dc:type
           rdf:resource="http://purl.org/dc/dcmitype/StillImage" /></cc:Work></rdf:RDF></metadata><g
     inkscape:label="Layer 1"
     inkscape:groupmode="layer"
     id="layer1"
     transform="translate(-50.693984,-64.301116)"><rect
       style="fill:#f9f9f9;fill-rule:evenodd;stroke:#000000;stroke-width:2.18474;stroke-dasharray:none;stroke-dashoffset:0;-inkscape-stroke:none"
       id="rect2"
       width="125.81525"
       height="125.81525"
       x="51.786354"
       y="65.393486"
       ry="31.20808" /><path
       id="rect5"
       style="opacity:0.99;fill:none;fill-opacity:0.58805;fill-rule:evenodd;stroke:#000000;stroke-width:12.14536186;stroke-linejoin:bevel;stroke-dasharray:36.79500103, 12.26500034;stroke-dashoffset:0"
       d="m 141.2793,80.964844 c -20.44144,0.04686 -40.8916,-0.162603 -61.323868,0.553198 -3.610571,0.407154 -6.781983,2.662699 -9.041575,5.381996 -2.238716,2.738676 -3.426125,6.265553 -3.408875,9.794804 -0.375262,7.468378 -0.01821,14.947048 -0.12761,22.419998 0.04343,14.89031 -0.15878,29.79286 0.644112,44.66836 1.431881,6.69502 7.951083,11.74451 14.73274,11.71282 6.522174,0.28289 13.051396,0.0328 19.576636,0.12237 15.86229,-0.0485 31.74019,0.19916 47.58607,-0.64698 5.87974,-0.99724 10.59201,-6.19528 11.6281,-11.9379 0.74606,-4.02999 0.37497,-8.14939 0.47053,-12.22179 -0.0137,-12.6678 0.0111,-25.33587 -0.0657,-38.00346 -0.0751,-6.65703 -0.17298,-13.323936 -0.61375,-19.965376 -0.95525,-4.974299 -4.89448,-9.077783 -9.57828,-10.805775 -3.35772,-1.202409 -6.9676,-1.089889 -10.47851,-1.072265 z" /><path
       id="rect1"
       style="opacity:1;fill-rule:evenodd;stroke-width:0.265658;stroke-linecap:square;paint-order:markers stroke fill"
       d="m 90.342124,112.06645 16.234656,16.23466 -16.234659,16.23465 8.117197,8.1172 16.234652,-16.23466 16.23466,16.23466 8.1172,-8.1172 -16.23466,-16.23465 16.23466,-16.23466 -8.1172,-8.1172 -16.23466,16.23466 -16.234649,-16.23465 z" /></g></svg>
