<?xml version="1.0" encoding="UTF-8" standalone="no"?>
<!-- Created with Inkscape (http://www.inkscape.org/) -->

<svg
   width="127.99998mm"
   height="127.99998mm"
   viewBox="0 0 127.99999 127.99998"
   version="1.1"
   id="svg18"
   inkscape:version="1.3.2 (091e20ef0f, 2023-11-25, custom)"
   sodipodi:docname="clear_round.svg"
   xml:space="preserve"
   xmlns:inkscape="http://www.inkscape.org/namespaces/inkscape"
   xmlns:sodipodi="http://sodipodi.sourceforge.net/DTD/sodipodi-0.dtd"
   xmlns="http://www.w3.org/2000/svg"
   xmlns:svg="http://www.w3.org/2000/svg"
   xmlns:rdf="http://www.w3.org/1999/02/22-rdf-syntax-ns#"
   xmlns:cc="http://creativecommons.org/ns#"
   xmlns:dc="http://purl.org/dc/elements/1.1/"><defs
     id="defs12" /><sodipodi:namedview
     id="base"
     pagecolor="#ffffff"
     bordercolor="#666666"
     borderopacity="1.0"
     inkscape:pageopacity="0.0"
     inkscape:pageshadow="2"
     inkscape:zoom="0.72831998"
     inkscape:cx="250.57668"
     inkscape:cy="384.44641"
     inkscape:document-units="mm"
     inkscape:current-layer="layer1"
     showgrid="false"
     inkscape:pagecheckerboard="true"
     inkscape:window-width="1920"
     inkscape:window-height="1022"
     inkscape:window-x="2160"
     inkscape:window-y="1434"
     inkscape:window-maximized="1"
     inkscape:showpageshadow="2"
     inkscape:deskcolor="#d1d1d1" /><metadata
     id="metadata15"><rdf:RDF><cc:Work
         rdf:about=""><dc:format>image/svg+xml</dc:format><dc:type
           rdf:resource="http://purl.org/dc/dcmitype/StillImage" /></cc:Work></rdf:RDF></metadata><g
     inkscape:label="Layer 1"
     inkscape:groupmode="layer"
     id="layer1"
     transform="translate(-50.693984,-64.301116)"><rect
       style="fill:#f9f9f9;fill-rule:evenodd;stroke:#000000;stroke-width:2.18474;stroke-dasharray:none;stroke-dashoffset:0;-inkscape-stroke:none"
       id="rect2"
       width="125.81525"
       height="125.81525"
       x="51.786354"
       y="65.393486"
       ry="31.20808" /><path
       id="rect2-3"
       style="fill:#ff8080;fill-rule:evenodd;stroke:none;stroke-width:2.18474;stroke-dasharray:none;stroke-dashoffset:0;-inkscape-stroke:none"
       d="m 145.29297,65.394531 c -21.41081,0.0124 -42.82274,-0.03555 -64.232801,0.06152 -11.156833,0.570548 -21.728782,7.702511 -26.334007,17.896589 -2.326679,4.92865 -3.186319,10.449731 -2.939145,15.870016 0.0098,21.010324 -0.05272,42.022234 0.08323,63.031484 0.681101,11.06149 7.805194,21.48182 17.92197,26.03992 4.909411,2.29909 10.397859,3.17022 15.791771,2.91505 21.020106,-0.0117 42.041776,0.0621 63.060826,-0.0886 11.09572,-0.67646 21.53327,-7.85005 26.08292,-18.00286 2.29246,-4.91156 3.10937,-10.40559 2.86624,-15.79346 -0.006,-20.99277 0.0672,-41.98656 -0.0743,-62.978612 -0.69825,-11.231672 -8.03371,-21.807378 -18.39682,-26.250035 -4.33374,-1.912896 -9.09424,-2.83487 -13.82987,-2.701042 z m -30.59766,12.841797 c 13.62832,-0.03997 27.07449,5.775727 36.43283,15.699629 9.11435,9.616523 14.18413,23.004783 13.63343,36.299273 -0.42305,11.46039 -4.95596,22.70137 -12.55385,31.31125 -10.0946,11.49317 -25.6526,17.91068 -40.92758,16.77105 -12.498334,-0.86214 -24.608546,-6.52536 -33.152607,-15.73772 -7.752364,-8.30902 -12.63066,-19.3109 -13.401218,-30.66812 -0.917557,-12.8594 3.290816,-25.98362 11.64087,-35.821796 8.228786,-9.783349 20.402433,-16.332443 33.143565,-17.550998 1.72203,-0.184203 3.4532,-0.273066 5.18456,-0.302568 z" /><path
       id="rect5-2"
       style="opacity:0.99;fill:none;fill-opacity:0.58805;fill-rule:evenodd;stroke:#000000;stroke-width:7.86816;stroke-linejoin:bevel;stroke-dasharray:24.0421, 8.01407;stroke-dashoffset:0"
       d="M 114.69418,78.236242 A 50.107954,50.107954 0 0 0 64.586088,128.34433 50.107954,50.107954 0 0 0 114.69418,178.45201 50.107954,50.107954 0 0 0 164.80186,128.34433 50.107954,50.107954 0 0 0 114.69418,78.236242 Z" /><path
       id="rect1"
       style="opacity:1;fill-rule:evenodd;stroke-width:0.265658;stroke-linecap:square;paint-order:markers stroke fill"
       d="m 85.99498,122.56138 v 11.47945 h 57.39799 v -11.47945 z"
       sodipodi:nodetypes="ccccc" /></g></svg>
