<?xml version="1.0" encoding="UTF-8" standalone="no"?>
<!-- Created with Inkscape (http://www.inkscape.org/) -->

<svg
   width="127.99998mm"
   height="127.99998mm"
   viewBox="0 0 127.99999 127.99998"
   version="1.1"
   id="svg18"
   inkscape:version="1.3.2 (091e20ef0f, 2023-11-25, custom)"
   sodipodi:docname="fill.svg"
   xml:space="preserve"
   xmlns:inkscape="http://www.inkscape.org/namespaces/inkscape"
   xmlns:sodipodi="http://sodipodi.sourceforge.net/DTD/sodipodi-0.dtd"
   xmlns="http://www.w3.org/2000/svg"
   xmlns:svg="http://www.w3.org/2000/svg"
   xmlns:rdf="http://www.w3.org/1999/02/22-rdf-syntax-ns#"
   xmlns:cc="http://creativecommons.org/ns#"
   xmlns:dc="http://purl.org/dc/elements/1.1/"><defs
     id="defs12" /><sodipodi:namedview
     id="base"
     pagecolor="#ffffff"
     bordercolor="#666666"
     borderopacity="1.0"
     inkscape:pageopacity="0.0"
     inkscape:pageshadow="2"
     inkscape:zoom="1.03"
     inkscape:cx="153.8835"
     inkscape:cy="311.65049"
     inkscape:document-units="mm"
     inkscape:current-layer="layer1"
     showgrid="false"
     inkscape:pagecheckerboard="true"
     inkscape:window-width="1920"
     inkscape:window-height="1020"
     inkscape:window-x="2160"
     inkscape:window-y="1434"
     inkscape:window-maximized="0"
     inkscape:showpageshadow="2"
     inkscape:deskcolor="#d1d1d1" /><metadata
     id="metadata15"><rdf:RDF><cc:Work
         rdf:about=""><dc:format>image/svg+xml</dc:format><dc:type
           rdf:resource="http://purl.org/dc/dcmitype/StillImage" /></cc:Work></rdf:RDF></metadata><g
     inkscape:label="Layer 1"
     inkscape:groupmode="layer"
     id="layer1"
     transform="translate(-50.693984,-64.301116)"><rect
       style="fill:#f9f9f9;fill-rule:evenodd;stroke:#000000;stroke-width:2.18474;stroke-dasharray:none;stroke-dashoffset:0;-inkscape-stroke:none"
       id="rect2"
       width="125.81525"
       height="125.81525"
       x="51.786354"
       y="65.393486"
       ry="31.20808" /><path
       id="rect5"
       style="opacity:0.99;fill:#ff8080;fill-opacity:0.58805;fill-rule:evenodd;stroke:#000000;stroke-width:12.1454;stroke-linejoin:bevel;stroke-dasharray:36.795, 12.265;stroke-dashoffset:0"
       d="m 140.03906,75.177734 c -20.50076,0.01846 -41.009047,-0.07551 -61.499998,0.664063 -9.615103,1.805302 -17.102475,11.180385 -16.822265,20.945312 -0.242579,17.216061 -0.110147,34.434731 0.03616,51.650931 0.0973,5.88696 0.207555,11.79362 0.911229,17.64249 2.422161,9.10218 11.704153,15.6568 21.059245,15.24633 19.389574,0.0519 38.783974,0.21552 58.169234,-0.28168 3.66643,-0.16881 7.37691,-0.15765 10.98377,-0.90712 5.2361,-1.3512 9.5733,-5.25139 12.15638,-9.92078 2.0371,-3.66616 2.94297,-7.91999 2.6693,-12.0993 0.17838,-16.34132 0.085,-32.6844 -0.0576,-49.02554 -0.0845,-6.00673 -0.24357,-12.023427 -0.81807,-18.004176 -1.87861,-8.493876 -9.83272,-15.015324 -18.42935,-15.698441 -2.77634,-0.28483 -5.57154,-0.231676 -8.35805,-0.212089 z" /><path
       id="rect1"
       style="opacity:1;fill-rule:evenodd;stroke-width:0.404593;stroke-linecap:square;paint-order:markers stroke fill"
       d="m 73.551692,87.158263 5.714806,33.101797 7.511772,-7.51177 10.964927,10.96493 12.362873,-12.36288 -10.964914,-10.96493 7.511774,-7.511773 z m 5.714807,49.183847 -5.715358,33.10123 33.101789,-5.7148 -7.511774,-7.51178 10.964934,-10.96492 -12.362879,-12.36287 -10.964928,10.96491 z m 43.468481,-43.468473 7.51179,7.511773 -10.96493,10.96493 12.36287,12.36288 10.96492,-10.96493 7.51177,7.51177 5.71537,-33.101233 z m -3.45316,52.378203 10.96493,10.96492 -7.51177,7.51178 33.10123,5.71536 -5.71481,-33.10179 -7.51177,7.51177 -10.96493,-10.96491 z" /></g></svg>
