<?xml version="1.0" encoding="UTF-8" standalone="no"?>
<!-- Created with Inkscape (http://www.inkscape.org/) -->

<svg
   version="1.1"
   id="svg1"
   width="512"
   height="512"
   viewBox="0 0 512 512"
   sodipodi:docname="hardness.svg"
   xml:space="preserve"
   inkscape:version="1.3.2 (091e20ef0f, 2023-11-25, custom)"
   xmlns:inkscape="http://www.inkscape.org/namespaces/inkscape"
   xmlns:sodipodi="http://sodipodi.sourceforge.net/DTD/sodipodi-0.dtd"
   xmlns="http://www.w3.org/2000/svg"
   xmlns:svg="http://www.w3.org/2000/svg"><defs
     id="defs1" /><sodipodi:namedview
     id="namedview1"
     pagecolor="#ffffff"
     bordercolor="#666666"
     borderopacity="1.0"
     inkscape:showpageshadow="2"
     inkscape:pageopacity="0.0"
     inkscape:pagecheckerboard="0"
     inkscape:deskcolor="#d1d1d1"
     inkscape:zoom="0.48778383"
     inkscape:cx="95.329113"
     inkscape:cy="90.203892"
     inkscape:window-width="1920"
     inkscape:window-height="1020"
     inkscape:window-x="2160"
     inkscape:window-y="1434"
     inkscape:window-maximized="0"
     inkscape:current-layer="g1" /><g
     inkscape:groupmode="layer"
     inkscape:label="Image"
     id="g1"
     transform="translate(310.7236,93.641295)"><rect
       style="fill:#f2f2f2;fill-rule:evenodd;stroke:#000000;stroke-width:8.73895;stroke-dasharray:none;stroke-dashoffset:0;-inkscape-stroke:none"
       id="rect2"
       width="503.26105"
       height="503.26105"
       x="-306.35413"
       y="-413.98923"
       ry="124.83231"
       transform="scale(1,-1)" /><g
       id="g35"
       transform="matrix(1.2567742,1.2567742,-1.2567742,1.2567742,-89.390261,95.037727)"><path
         style="fill:#cacaca;fill-opacity:1"
         d="M 97.220467,85.096564 C 70.501651,76.218156 51.884992,56.513243 45.12356,29.954285 c -1.794006,-7.046868 -1.794006,-26.8098373 0,-33.8567054 6.112429,-24.0096696 23.369462,-44.0324306 45.167497,-52.4063416 12.655493,-4.861723 16.515873,-5.665787 27.117303,-5.648168 30.83165,0.05124 57.55182,17.690661 70.14397,46.305803 l 3.15828,7.1770593 v 21.4999997 21.5 l -3.15828,7.177059 c -8.10403,18.41609 -22.37413,32.672162 -40.6548,40.614862 -7.15821,3.110141 -7.2296,3.118977 -27.17706,3.363885 -11,0.135053 -21.125003,-0.128275 -22.500003,-0.585174 z m 34.792153,-3.598727 c 4.5219,-0.896475 11.42789,-3.349746 16.70785,-5.935268 15.00514,-7.34781 24.68882,-17.03149 32.03663,-32.036637 9.86342,-20.142324 9.86342,-40.857675 0,-61 -7.34781,-15.005146 -17.03149,-24.688826 -32.03663,-32.036636 -20.14233,-9.863414 -40.85768,-9.863414 -61.000003,0 -15.005147,7.34781 -24.688827,17.03149 -32.036637,32.036636 -9.94634,20.3116714 -9.875842,40.753139 0.212102,61.5 3.861554,7.941671 6.030404,10.911129 13.221905,18.10263 7.185488,7.185489 10.167598,9.364556 18.10263,13.227832 15.063123,7.333683 29.082613,9.255892 44.792153,6.141443 z m -142.565893,1.083217 c -21.561631,-6.98213 -40.557138,-26.07029 -48.042736,-48.277071 -2.381855,-7.066014 -2.621873,-9.196987 -2.621873,-23.278051 0,-14.0810631 0.240018,-16.2120359 2.621873,-23.278051 5.283574,-15.674254 16.506944,-30.37379 30.08092,-39.397751 7.47328,-4.968226 16.436525,-9.005238 21.9132265,-9.869634 2.1154502,-0.333885 1.3243831,0.161567 -2.1776709,1.363892 -25.8704416,8.881844 -44.4745476,28.878619 -50.4486856,54.2251821 -1.965121,8.3374475 -1.965121,25.5752769 0,33.9127249 6.275677,26.625907 27.304531,48.108597 53.9281636,55.09202 3.8612871,1.012822 5.89552201,1.846139 4.52052201,1.851815 -1.37500001,0.0057 -5.77318261,-1.049607 -9.77373961,-2.345076 z m 40.27374,1.139674 c 4.401246,-1.126802 4.700623,-1.360246 2.5,-1.94942 C 27.547588,80.520236 14.558511,71.142167 8.4412478,64.602794 0.88299305,56.522996 -5.168915,46.470802 -8.5960087,36.303983 -10.977864,29.237969 -11.217882,27.106996 -11.217882,13.025932 c 0,-14.0810631 0.240018,-16.2120359 2.6218733,-23.278051 6.8422723,-20.29829 23.7044957,-38.616109 42.6271547,-46.306853 l 5.541001,-2.252031 -4.92584,-1.51188 c -2.709212,-0.831535 -4.194917,-1.543225 -3.301567,-1.581533 0.893351,-0.03831 3.411858,0.561045 5.596684,1.331896 3.437793,1.212924 4.834185,1.200203 10.375726,-0.09453 8.405263,-1.963808 28.957662,-1.277638 37.237313,1.243218 4.350819,1.324668 5.437801,1.997964 4.275584,2.648373 -0.979637,0.548233 -3.703391,0.219688 -7.333996,-0.884641 -9.056727,-2.754803 -28.542162,-2.478866 -38.275584,0.54203 -24.834877,7.70783 -42.43616734,25.30912 -50.1439978,50.1439973 -3.3385962,10.7570624 -3.3385962,29.2429377 0,39.9999997 6.30944691,20.329241 19.2068278,35.82059 37.4879078,45.027612 7.572252,3.813664 7.752042,3.985409 5.19129,4.959005 -1.45894,0.554688 -4.5387,1.228967 -6.84391,1.498398 -4.056182,0.474083 -4.030113,0.44861 0.80871,-0.790219 z"
         id="path46" /><path
         style="fill:#bdbdbd;fill-opacity:1"
         d="M -5.3000554,83.074315 C -31.923688,76.090892 -52.952542,54.608202 -59.228219,27.982295 c -1.965121,-8.337448 -1.965121,-25.5752774 0,-33.9127249 4.077161,-17.2982321 15.549744,-34.1953061 29.884347,-44.0143291 10.281944,-7.043004 23.5137812,-12.127993 30.9958398,-11.91169 l 4.0684988,0.117619 -4.73661409,0.797568 c -27.12382851,4.56721 -49.40092051,24.559099 -57.90738351,51.9671943 -3.338596,10.7570624 -3.338596,29.2429377 0,39.9999997 7.714914,24.857701 25.484325,42.608796 50.1439976,50.092313 8.0081924,2.430262 21.9211334,3.111089 35.0000004,1.712718 l 6.5,-0.694969 -5,1.348973 C 22.166757,85.522916 3.1865015,85.300353 -5.3000554,83.074315 Z M 103.72047,81.422239 C 99.870467,80.629885 92.445467,77.900255 87.220467,75.356394 79.285435,71.493118 76.303325,69.314051 69.117837,62.128562 61.926336,54.937061 59.757486,51.967603 55.895932,44.025932 45.807988,23.279071 45.73749,2.8376034 55.68383,-17.474068 c 7.34781,-15.005146 17.03149,-24.688826 32.036637,-32.036636 20.142323,-9.863414 40.857673,-9.863414 61.000003,0 15.00514,7.34781 24.68882,17.03149 32.03663,32.036636 9.86342,20.142325 9.86342,40.857676 0,61 -7.34781,15.005147 -17.03149,24.688827 -32.03663,32.036637 -14.52534,7.112852 -29.46098,9.057696 -45,5.85967 z m 28,-4.895659 c 24.04668,-5.031339 44.96931,-25.95396 50.00064,-50.000648 3.05972,-14.623531 1.21439,-28.5402433 -5.63542,-42.5 -5.85234,-11.926938 -16.93829,-23.012886 -28.86522,-28.865223 -19.25619,-9.448669 -38.74382,-9.448669 -58.000003,0 -11.926939,5.852337 -23.012886,16.938285 -28.865224,28.865223 -9.448669,19.256185 -9.448669,38.743816 0,58 8.174352,16.659154 25.914644,30.589636 43.865227,34.444966 8.57109,1.840853 18.86833,1.861703 27.5,0.05568 z M 30.586262,78.064498 C 12.282458,68.84619 -0.61114162,53.364653 -6.9235308,33.025932 -10.262127,22.26887 -10.262127,3.7829947 -6.9235308,-6.9740677 2.4299717,-37.111353 27.610213,-57.482506 58.153072,-59.621912 c 8.485864,-0.594401 20.309222,0.648691 25.713824,2.703517 4.78026,1.817451 0.769996,2.780178 -5.466625,1.312348 -12.278843,-2.889906 -30.454242,-1.255061 -42.512031,3.823882 -46.483057,19.579441 -57.61166,81.654647 -20.810057,116.078238 8.024069,7.505577 20.967744,14.693984 30.642284,17.017517 1.1,0.264187 -0.08539,0.53254 -2.634205,0.596341 -3.558426,0.08907 -6.460162,-0.803602 -12.5,-3.845433 z m 48.634205,3.578011 c 0,-0.866599 4.968002,-1.25282 6.185354,-0.48086 0.837996,0.531399 -0.04499,0.83921 -2.435354,0.848971 -2.0625,0.0084 -3.75,-0.157228 -3.75,-0.368111 z M 33.291495,-59.071436 c -1.335935,-0.533827 -4.710935,-1.389054 -7.5,-1.900503 l -5.071028,-0.929908 6,0.352243 c 5.701578,0.334723 15.497169,3.389679 11,3.430576 -1.1,0.01 -3.093038,-0.41858 -4.428972,-0.952408 z"
         id="path45" /><path
         style="fill:#afafaf;fill-opacity:1"
         d="M 0.98385251,83.06187 C -26.631018,78.011197 -48.41703,58.434151 -56.923531,31.025932 c -3.338596,-10.757062 -3.338596,-29.2429373 0,-39.9999997 7.709216,-24.8393413 25.343924,-42.4704663 50.1439976,-50.1338103 6.04843907,-1.868998 9.8224975,-2.322046 19.5000004,-2.340835 11.251681,-0.02184 21.826969,1.576642 23.001279,3.476715 0.272311,0.44061 -1.641576,0.100127 -4.253084,-0.756627 -3.333447,-1.093601 -8.770586,-1.563565 -18.248195,-1.577298 -11.8165458,-0.01712 -14.4560344,0.297555 -21.1666516,2.52347 -11.9286744,3.956746 -20.4100274,9.209208 -29.4212764,18.220457 -9.01125,9.01125 -14.263712,17.492603 -18.220458,29.421277 -2.21986,6.6923646 -2.543032,9.38224665 -2.543032,21.166651 0,11.784405 0.323172,14.474287 2.543032,21.166652 3.956746,11.928674 9.209208,20.410027 18.220458,29.421276 9.047793,9.047794 17.577523,14.316901 29.4212764,18.174534 6.216455,2.024764 9.84195,2.519847 19.1666516,2.617323 6.325,0.06612 13.525,-0.200631 16,-0.592776 3.577529,-0.566833 3.987516,-0.500787 2,0.322182 C 25.8699,83.52249 6.9054792,84.144916 0.98385251,83.06187 Z M 45.720467,81.31359 c -4.745003,-1.139607 -15.412502,-5.851524 -20.343516,-8.985889 -42.91503,-27.278643 -42.91503,-91.560415 0,-118.570041 15.061708,-9.479455 34.753712,-13.092719 52.228321,-9.583315 8.752525,1.757758 5.478639,3.297555 -3.821385,1.797301 -21.096594,-3.403247 -43.087859,3.809375 -58.448095,19.169611 -7.9206019,7.920602 -13.2277408,16.55897 -16.8242746,27.3846753 -2.3086165,6.94902455 -2.6577733,9.6421492 -2.6577733,20.4999997 0,10.857851 0.3491568,13.550976 2.6577733,20.5 3.5965338,10.825706 8.9036727,19.464074 16.8242746,27.384675 15.319681,15.319682 37.359145,22.571625 58.320929,19.190126 7.353776,-1.186291 12.834253,-0.436945 7.553664,1.032814 -2.791424,0.776944 -32.379603,0.927047 -35.489918,0.180043 z M 104.22047,76.470898 C 86.269887,72.615568 68.529595,58.685086 60.355243,42.025932 c -9.448669,-19.256184 -9.448669,-38.743815 0,-58 5.852338,-11.926938 16.938285,-23.012886 28.865224,-28.865223 19.256183,-9.448669 38.743813,-9.448669 58.000003,0 16.87955,8.2825 30.65822,26.000826 34.50064,44.36522331 3.05972,14.62353169 1.21439,28.54024369 -5.63542,42.49999969 -5.85234,11.926938 -16.93829,23.012886 -28.86522,28.865224 -13.90826,6.824536 -28.43032,8.708939 -43,5.579742 z m 26.5,-4.949362 c 26.98516,-5.665609 47.46527,-30.905035 47.46527,-58.495604 0,-32.35561 -27.60966,-59.965272 -59.96527,-59.965272 -27.590572,0 -52.829999,20.480108 -58.495607,47.46527231 C 55.451198,20.881301 61.275297,40.262286 76.129705,55.116694 90.992624,69.979614 110.35343,75.79765 130.72047,71.521536 Z"
         id="path44" /><path
         style="fill:#a1a1a1;fill-opacity:1"
         d="M 0.72046661,82.016235 C -13.798663,79.363889 -26.330071,72.651251 -37.367461,61.61386 c -9.01125,-9.011249 -14.263712,-17.492602 -18.220458,-29.421276 -2.21986,-6.692365 -2.543032,-9.382247 -2.543032,-21.166652 0,-11.78440435 0.323172,-14.4742864 2.543032,-21.166651 3.956746,-11.928674 9.209208,-20.410027 18.220458,-29.421277 9.011249,-9.011249 17.492602,-14.263711 29.4212764,-18.220457 6.7192076,-2.228765 9.3349793,-2.53947 21.1666516,-2.514204 9.860853,0.02106 14.713048,0.465237 18,1.647759 l 4.5,1.618931 -4,-0.480067 c -20.23755,-2.428844 -32.30870414,-1.541402 -44.5,3.27153 -52.824501,20.854285 -59.78769,94.090821 -11.843516,124.566205 12.711095,8.07972 25.43396854,11.215919 42.453597,10.464847 7.139527,-0.315065 11.176681,-0.153378 10.598823,0.42448 -1.311886,1.311886 -21.6856782,1.899526 -27.70890439,0.799207 z M 49.720467,79.543857 C 25.001564,74.093028 6.4504523,57.422432 -1.4884826,33.525932 c -2.3086165,-6.949024 -2.6577733,-9.642149 -2.6577733,-20.5 0,-10.8578505 0.3491568,-13.55097515 2.6577733,-20.4999997 C 2.1080512,-18.299773 7.4151901,-26.938141 15.335792,-34.858743 26.994031,-46.516982 42.304951,-53.507496 58.72728,-54.670015 c 8.337154,-0.590178 23.721334,1.318877 21.532012,2.671952 -0.669353,0.413683 -6.334395,0.526322 -12.588982,0.250308 -14.519524,-0.640743 -21.448287,0.696532 -33.36128,6.438842 -13.286446,6.404341 -23.040909,16.165405 -29.4035123,29.423408 -5.34615035,11.1399806 -6.6850511,16.9304442 -6.6850511,28.911437 0,11.980993 1.33890075,17.771457 6.6850511,28.911437 6.3626033,13.258003 16.1170663,23.019067 29.4035123,29.423409 11.912993,5.742309 18.841756,7.079584 33.36128,6.438841 13.112656,-0.578658 16.74613,0.464449 7.329744,2.104241 C 66.71119,81.347304 57.2905,81.213145 49.720467,79.543857 Z M 105.22047,71.465856 C 78.648853,65.738338 58.255194,40.362059 58.255194,13.025932 c 0,-32.35561 27.609662,-59.965272 59.965276,-59.965272 27.59056,0 52.82999,20.480108 58.4956,47.46527231 C 180.98974,20.881301 175.16564,40.262286 160.31123,55.116694 145.42094,70.006979 125.65959,75.871513 105.22047,71.465856 Z m 30.42009,-6.379275 c 16.47453,-5.76034 29.11151,-18.439529 34.75411,-34.870206 3.25796,-9.486872 3.25796,-24.8940135 0,-34.3808856 -5.62404,-16.3766344 -18.01121,-28.8395784 -34.75411,-34.9667254 -8.49088,-3.107276 -26.34931,-3.107276 -34.84019,0 -16.742901,6.127147 -29.130063,18.590091 -34.754103,34.9667254 -3.257969,9.4868721 -3.257969,24.8940136 0,34.3808856 6.463596,18.821337 21.881965,32.450102 41.674203,36.837093 6.37645,1.413354 21.24914,0.365617 27.92009,-1.966887 z"
         id="path43" /><path
         style="fill:#939393;fill-opacity:1"
         d="M -4.4579415,79.034219 C -29.981597,72.344009 -49.183561,52.62161 -55.257177,26.858159 -57.392176,17.801786 -57.203235,3.0025155 -54.834365,-6.2596795 -48.237133,-32.054609 -28.57195,-51.331715 -2.61176,-57.451712 c 7.8022547,-1.839346 24.544791,-1.819336 31.332227,0.03745 l 5,1.367808 -4.5,-0.496777 C 14.558721,-58.161816 8.2610864,-58.164852 0.16059992,-56.557244 -37.403267,-49.102384 -61.770309,-12.64458 -54.227652,24.818091 c 0.921745,4.578099 3.44053,11.565284 6.203193,17.207841 12.025777,24.56186 38.0275194,39.369849 66.219491,37.711992 5.619845,-0.330481 8.705401,-0.210082 7.525435,0.293643 -3.791955,1.618776 -22.564592,0.998371 -30.1784085,-0.997348 z M 47.395422,76.567179 C 44.466648,75.858415 38.18188,73.35169 33.429271,70.996679 20.925853,64.800992 11.048917,54.738608 4.9055177,41.937369 -0.44063265,30.797389 -1.7795334,25.006925 -1.7795334,13.025932 c 0,-11.9809928 1.33890075,-17.7714564 6.6850511,-28.911437 3.6845507,-7.677641 5.9420733,-10.836899 12.2543433,-17.149169 6.312269,-6.312269 9.471528,-8.569792 17.149169,-12.254343 5.17629,-2.484136 11.796086,-5.00451 14.710658,-5.600831 5.664265,-1.158908 22.231506,-1.450708 25.939531,-0.456875 4.97509,1.333435 0.514301,2.372655 -10.184472,2.372655 -19.476533,0 -32.718799,5.249757 -45.511661,18.04262 -12.3861218,12.386121 -18.0426194,26.1670925 -18.0426194,43.95738 0,17.790288 5.6564976,31.571259 18.0426194,43.957381 12.792862,12.792862 26.035128,18.042619 45.511661,18.042619 10.698773,0 15.159562,1.039221 10.184472,2.372656 -3.922404,1.051291 -22.042564,0.504732 -27.563797,-0.831409 z M 107.72047,67.053468 C 87.928232,62.666477 72.509863,49.037712 66.046267,30.216375 c -3.257969,-9.486872 -3.257969,-24.8940135 0,-34.3808856 5.62404,-16.3766344 18.011202,-28.8395784 34.754103,-34.9667254 8.49088,-3.107276 26.34931,-3.107276 34.84019,0 16.7429,6.127147 29.13007,18.590091 34.75411,34.9667254 3.25796,9.4868721 3.25796,24.8940136 0,34.3808856 -5.6426,16.430677 -18.27958,29.109866 -34.75411,34.870206 -6.67095,2.332504 -21.54364,3.380241 -27.92009,1.966887 z m 25.40904,-6.922096 c 7.77035,-2.418404 14.55471,-6.786394 20.78776,-13.383835 9.5542,-10.112745 13.3032,-19.615895 13.3032,-33.721605 0,-14.105709 -3.749,-23.608859 -13.3032,-33.721604 -10.1204,-10.712046 -20.82538,-15.278396 -35.81744,-15.278396 -14.64055,0 -25.633033,4.724419 -35.548816,15.278396 -9.648622,10.269621 -13.330547,19.5836005 -13.330547,33.721604 0,13.933044 3.668448,23.373593 12.968121,33.372747 10.04271,10.798077 20.961682,15.572244 35.692782,15.606161 6.23395,0.01435 11.10581,-0.584229 15.24814,-1.873468 z"
         id="path42" /><path
         style="fill:#858585;fill-opacity:1"
         d="m -1.2795334,78.398475 c -3.85,-0.805424 -11.2749996,-3.560175 -16.4999996,-6.121668 -27.532809,-13.49763 -42.595526,-44.510257 -36.448119,-75.043033 0.921745,-4.5780992 3.44053,-11.565284 6.203193,-17.207842 3.798002,-7.757168 6.127547,-10.976234 12.698119,-17.546806 6.564632,-6.564632 9.796651,-8.90465 17.546807,-12.704081 12.132064,-5.947616 23.0231221,-8.257473 34.964842,-7.415604 4.694337,0.330942 9.885158,1.049906 11.535158,1.597698 2.392195,0.794197 1.986992,0.85141 -2,0.282389 -2.75,-0.392478 -9.725,-0.660265 -15.5,-0.595082 -17.9442291,0.202537 -32.97867,6.590806 -45.884675,19.496811 -7.920602,7.920602 -13.227741,16.55897 -16.824275,27.3846753 -2.308616,6.9490245 -2.657773,9.64214917 -2.657773,20.4999997 0,10.857851 0.349157,13.550976 2.657773,20.5 3.596534,10.825706 8.903673,19.464074 16.824275,27.384675 7.920601,7.920602 16.558969,13.227741 27.3846746,16.824275 6.93953227,2.305462 9.7157445,2.666606 20.9433034,2.724412 7.118817,0.03665 11.618817,0.350897 10,0.698324 -5.237569,1.124075 -17.7636519,0.742847 -24.9433034,-0.759143 z M 45.06803,72.653542 C 34.9813,69.66773 27.256666,64.976894 19.263086,56.983313 6.8769642,44.597191 1.2204666,30.81622 1.2204666,13.025932 c 0,-17.7902875 5.6564976,-31.571259 18.0426194,-43.95738 12.60413,-12.60413 26.099114,-18.04262 44.770678,-18.04262 8.387505,0 10.330748,0.255955 9.354566,1.232137 -0.799968,0.799968 -3.588413,1.125473 -7.95,0.928032 -33.012145,-1.494397 -62.1831361,26.577317 -62.1831361,59.839831 0,33.262515 29.1709911,61.334228 62.1831361,59.839831 4.361587,-0.19744 7.150032,0.128065 7.95,0.928032 2.366349,2.36635 -19.440284,1.488355 -28.3203,-1.140253 z M 102.1139,59.651564 C 94.148149,56.839576 88.251336,52.917439 82.188588,46.398679 72.888915,36.399525 69.220467,26.958976 69.220467,13.025932 c 0,-14.1380035 3.681925,-23.451983 13.330547,-33.721604 9.915783,-10.553977 20.908266,-15.278396 35.548816,-15.278396 14.99206,0 25.69704,4.56635 35.81744,15.278396 9.5542,10.112745 13.3032,19.615895 13.3032,33.721604 0,14.10571 -3.749,23.60886 -13.3032,33.721605 -10.19272,10.788587 -20.82997,15.292313 -36.0359,15.257303 -7.00062,-0.01612 -10.71883,-0.571056 -15.76747,-2.353276 z m 35.27228,-6.862967 c 9.27535,-4.584128 16.69376,-12.132874 21.13284,-21.504137 3.02454,-6.385064 3.20145,-7.393997 3.20145,-18.258528 0,-10.8645307 -0.17691,-11.8734636 -3.20145,-18.258527 -4.44667,-9.387282 -11.85536,-16.918955 -21.17205,-21.523516 -7.37475,-3.644797 -7.75111,-3.717957 -19.1265,-3.717957 -11.3754,0 -11.75176,0.07316 -19.126504,3.717957 -9.316696,4.604561 -16.725381,12.136234 -21.172048,21.523516 -3.024545,6.3850634 -3.201451,7.3939963 -3.201451,18.258527 0,10.852236 0.179401,11.878707 3.18498,18.22333 5.400285,11.399724 14.657412,19.700393 26.801963,24.03275 3.84004,1.369869 7.37428,1.720094 15.10413,1.496742 9.32636,-0.269482 10.65819,-0.571862 17.57464,-3.990157 z"
         id="path41" /><path
         style="fill:#787878;fill-opacity:1"
         d="M -0.27953339,77.543857 C -24.998436,72.093028 -43.549548,55.422432 -51.488483,31.525932 c -2.308616,-6.949024 -2.657773,-9.642149 -2.657773,-20.5 0,-10.85785053 0.349157,-13.5509752 2.657773,-20.4999997 3.596534,-10.8257053 8.903673,-19.4640733 16.824275,-27.3846753 7.920601,-7.920601 16.558969,-13.22774 27.3846746,-16.824274 6.8793137,-2.285457 9.7510724,-2.666878 20.5000004,-2.722769 8.254956,-0.04292 13.179207,0.353131 14.5,1.166225 1.72964,1.064785 1.526871,1.132152 -1.5,0.498357 -1.925,-0.403075 -8.225,-0.720416 -14,-0.705202 -18.4212817,0.04853 -32.791618,6.093933 -46.085012,19.387327 -13.599153,13.599152 -19.409378,27.6941187 -19.409378,47.085011 0,19.390893 5.810225,33.485859 19.409378,47.085012 13.504989,13.504989 27.6659194,19.37642 46.791406,19.400739 6.163516,0.0078 10.438516,0.320121 9.5,0.693964 -2.85191,1.136013 -16.3357414,0.743019 -22.70639439,-0.66179 z M 50.220467,71.465856 C 23.648853,65.738338 3.2551939,40.362059 3.2551939,13.025932 c 0,-27.590568 20.4801081,-52.829995 47.4652731,-58.495603 8.049399,-1.689994 19.5,-1.98618 19.5,-0.504397 0,0.558148 -2.761576,1.007672 -6.25,1.017364 -16.373227,0.04549 -29.40065,5.547529 -41.292879,17.439758 C 7.8585671,-12.697926 2.4363505,5.2230804 6.6933134,25.312791 9.0567043,36.466245 13.591688,44.482912 22.677588,53.568811 34.569817,65.46104 47.59724,70.963081 63.970467,71.008569 c 3.488424,0.0097 6.25,0.459215 6.25,1.017363 0,1.441505 -12.313879,1.096669 -20,-0.560076 z M 104.70741,55.282012 C 92.562859,50.949655 83.305732,42.648986 77.905447,31.249262 c -3.005579,-6.344623 -3.18498,-7.371094 -3.18498,-18.22333 0,-10.8645307 0.176906,-11.8734636 3.201451,-18.258527 4.446667,-9.387282 11.855352,-16.918955 21.172048,-21.523516 7.374744,-3.644797 7.751104,-3.717957 19.126504,-3.717957 11.37539,0 11.75175,0.07316 19.1265,3.717957 9.31669,4.604561 16.72538,12.136234 21.17205,21.523516 3.02454,6.3850634 3.20145,7.3939963 3.20145,18.258527 0,10.864531 -0.17691,11.873464 -3.20145,18.258528 -4.43908,9.371263 -11.85749,16.920009 -21.13284,21.504137 -6.91645,3.418295 -8.24828,3.720675 -17.57464,3.990157 -7.72985,0.223352 -11.26409,-0.126873 -15.10413,-1.496742 z m 29.9419,-6.075988 c 9.02356,-4.222631 14.86119,-9.964637 19.33644,-19.019673 3.52913,-7.140727 3.73472,-8.08534 3.73472,-17.160419 0,-9.0750781 -0.20559,-10.0196917 -3.73472,-17.160418 -4.49813,-9.101342 -10.28876,-14.770568 -19.58567,-19.175061 -6.0408,-2.861878 -7.58816,-3.164521 -16.17961,-3.164521 -8.59146,0 -10.13882,0.302643 -16.17961,3.164521 -9.296921,4.404493 -15.087546,10.073719 -19.585673,19.175061 -3.524883,7.1321152 -3.73472,8.0933698 -3.73472,17.108555 0,8.649682 0.298891,10.182758 3.16452,16.231473 4.018442,8.482048 9.739633,14.691162 17.201124,18.668096 7.876919,4.198352 12.187549,5.147879 21.383589,4.710276 6.00217,-0.285619 9.19898,-1.047168 14.17961,-3.37789 z"
         id="path40" /><path
         style="fill:#6a6a6a;fill-opacity:1"
         d="M -0.41421606,76.53276 C -24.649067,71.262159 -43.539706,53.875908 -50.945161,30.025932 c -1.868566,-6.017895 -2.328762,-9.772561 -2.328762,-19 0,-19.3908923 5.810225,-33.485859 19.409378,-47.085011 14.736774,-14.736775 34.07045711,-21.648814 54.44952,-19.466402 10.255607,1.098283 7.84345,2.146651 -3.935891,1.710613 -13.6494933,-0.505266 -20.7637347,0.925929 -32.340054,6.505955 -13.286446,6.404341 -23.040909,16.165405 -29.403512,29.423408 -5.346151,11.1399806 -6.685051,16.93044418 -6.685051,28.911437 0,11.980993 1.3389,17.771457 6.685051,28.911437 3.68455,7.677641 5.942073,10.8369 12.254343,17.149169 6.312269,6.31227 9.471528,8.569792 17.149169,12.254343 11.1625189,5.356967 16.927706,6.685051 29.019675,6.685051 5.751886,0 8.786317,0.361597 8.391762,1 C 20.849359,78.435414 6.905928,78.124747 -0.41421606,76.53276 Z M 50.470963,69.509339 C 39.772705,67.185332 31.615854,62.507077 22.677588,53.568811 13.591688,44.482912 9.0567043,36.466245 6.6933134,25.312791 2.4363505,5.2230804 7.8585671,-12.697926 22.677588,-27.516946 c 9.085899,-9.0859 17.102566,-13.620884 28.25602,-15.984275 9.101504,-1.928587 18.966935,-1.997215 17.409907,-0.121111 -0.668947,0.806032 -4.250812,1.596549 -8.872445,1.958147 -22.479888,1.758835 -41.103495,16.180767 -48.424803,37.4996744 -3.2579685,9.4868721 -3.2579685,24.8940136 0,34.3808856 7.321308,21.318908 25.944915,35.740839 48.424803,37.499675 4.621633,0.361598 8.203498,1.152115 8.872445,1.958146 0.923521,1.112775 -0.0047,1.337682 -5.250604,1.272236 -3.504844,-0.04372 -9.184721,-0.690417 -12.621948,-1.437093 z M 108.83821,51.977448 C 102.51036,50.387898 93.504815,45.058076 89.132893,40.3151 86.887031,37.878628 83.625474,32.879327 81.884987,29.205542 c -2.865629,-6.048715 -3.16452,-7.581791 -3.16452,-16.231473 0,-9.0151852 0.209837,-9.9764398 3.73472,-17.108555 4.498127,-9.101342 10.288752,-14.770568 19.585673,-19.175061 6.04079,-2.861878 7.58815,-3.164521 16.17961,-3.164521 8.59145,0 10.13881,0.302643 16.17961,3.164521 9.29691,4.404493 15.08754,10.073719 19.58567,19.175061 3.52913,7.1407263 3.73472,8.0853399 3.73472,17.160418 0,9.075079 -0.20559,10.019692 -3.73472,17.160419 -6.75758,13.673029 -18.76253,21.695501 -33.51605,22.397563 -4.26208,0.202815 -9.49625,-0.07009 -11.63149,-0.606466 z m 23.43695,-8.133122 c 6.92502,-3.188317 13.53235,-9.782869 16.85098,-16.818394 2.15759,-4.574106 2.59433,-6.930927 2.59433,-14 0,-10.2690027 -2.70999,-17.0213336 -9.59433,-23.905673 -6.88434,-6.88434 -13.63667,-9.594327 -23.90567,-9.594327 -7.2717,0 -9.31843,0.401915 -14.16366,2.781306 -19.300026,9.477844 -25.652348,32.96675 -13.527527,50.02057 9.575497,13.468138 27.041467,18.286509 41.745877,11.516518 z"
         id="path39" /><path
         style="fill:#5c5c5c;fill-opacity:1"
         d="m -2.6045777,74.567179 c -2.9287744,-0.708764 -9.2135423,-3.215489 -13.9661513,-5.5705 -12.503418,-6.195687 -22.380354,-16.258071 -28.523753,-29.05931 -5.346151,-11.13998 -6.685051,-16.930444 -6.685051,-28.911437 0,-11.98099282 1.3389,-17.7714564 6.685051,-28.911437 6.372203,-13.278007 16.125504,-23.031308 29.403512,-29.403512 5.17629,-2.484136 11.7960861,-5.00451 14.71065772,-5.600831 6.42936908,-1.315448 24.13998128,-1.408379 26.14927828,-0.13721 0.904939,0.572503 -2.097122,0.71709 -8,0.3853 -18.8925563,-1.061916 -35.673977,5.321009 -48.984579,18.63161 -24.940012,24.9400121 -25.155609,64.71317 -0.485841,89.627657 11.894251,12.012241 25.4840051,18.057577 43.521921,19.360515 l 10.5,0.75845 -9.5,0.05968 C 6.9954666,75.828984 0.32419667,75.275944 -2.6045777,74.567179 Z M 52.720467,66.98683 C 33.341282,63.014238 17.51379,49.049145 11.046267,30.216375 c -3.2579685,-9.486872 -3.2579685,-24.8940135 0,-34.3808856 7.282405,-21.2056254 25.803283,-35.6251854 48.1742,-37.5063634 6.916846,-0.58164 7.393287,-0.501315 6.127555,1.033065 -0.924423,1.120629 -2.905427,1.663741 -6.068499,1.663741 -10.461839,0 -24.336318,6.303245 -33.046065,15.012992 -9.893496,9.893496 -15.012991,22.5062261 -15.012991,36.987008 0,14.480783 5.119495,27.093512 15.012991,36.987009 8.709747,8.709747 22.584226,15.012991 33.046065,15.012991 2.95432,0 5.157775,0.55634 5.940944,1.5 1.079205,1.300363 0.596407,1.485418 -3.627556,1.390435 -2.679844,-0.06026 -6.672444,-0.478553 -8.872444,-0.929537 z M 107.63968,45.264908 c -29.108534,-10.410274 -31.323694,-49.3347243 -3.58287,-62.95767 4.84523,-2.379391 6.89196,-2.781306 14.16366,-2.781306 10.269,0 17.02133,2.709987 23.90567,9.594327 6.88434,6.8843394 9.59433,13.6366703 9.59433,23.905673 0,10.269003 -2.70999,17.021334 -9.59433,23.905674 -8.86299,8.86299 -23.2707,12.344467 -34.48646,8.333302 z m 22.86639,-6.135188 c 5.66441,-2.742093 11.07591,-8.17534 13.94787,-14.003931 3.18853,-6.471033 3.18853,-17.7286807 0,-24.19971304 -2.88879,-5.86273686 -8.27088,-11.24482896 -14.13362,-14.13362096 -6.47103,-3.188522 -17.72868,-3.188522 -24.19971,0 -13.176463,6.4925418 -19.513896,20.7306621 -15.44981,34.710627 2.229104,7.667846 10.77131,16.583826 18.14402,18.937939 6.42842,2.052596 15.92876,1.478272 21.69125,-1.311301 z"
         id="path38" /><path
         style="fill:#4e4e4e;fill-opacity:1"
         d="M -0.67553257,73.479457 C -4.1933321,72.716345 -10.943332,70.180856 -15.675533,67.845036 -36.665922,57.484157 -50.744806,34.673602 -50.744806,11.025932 c 0,-35.014524 29.415109,-64.177338 64.465273,-63.912351 3.85,0.02911 7.767877,0.358793 8.706394,0.732637 0.938516,0.373843 -3.336484,0.68723 -9.5,0.696415 -8.9673594,0.01337 -12.60499282,0.476356 -18.2063944,2.317275 -19.7075676,6.476957 -35.1557786,21.920904 -41.6775296,41.6660243 -3.302721,9.9992525 -3.302721,27.0007477 0,36.9999997 8.427912,25.516175 30.002751,42.205159 57.475861,44.459831 9.110796,0.747707 9.132539,0.755787 2.201669,0.818167 -3.8500004,0.03465 -9.8782,-0.561362 -13.39599957,-1.324473 z M 47.220467,62.750116 C 29.842124,56.803559 17.909984,44.437527 12.815846,27.094431 c -2.071704,-7.053158 -2.071704,-21.0838393 0,-28.1369975 5.214582,-17.7531505 18.582972,-31.1215395 36.336122,-36.3361215 5.697482,-1.673506 15.156811,-2.203014 13.518499,-0.75673 -0.5225,0.461257 -4.1,1.392609 -7.95,2.069671 -23.64168,4.157635 -41.5,25.282814 -41.5,49.091679 0,23.808865 17.85832,44.934045 41.5,49.091679 3.85,0.677063 7.4275,1.608415 7.95,2.069672 1.96988,1.738989 -9.206062,0.699396 -15.45,-1.437167 z M 108.81482,40.441021 C 101.44211,38.086908 92.899904,29.170928 90.6708,21.503082 86.606714,7.5231171 92.944147,-6.7150032 106.12061,-13.207545 c 6.47103,-3.188522 17.72868,-3.188522 24.19971,0 5.86274,2.888792 11.24483,8.2708841 14.13362,14.13362096 3.18853,6.47103234 3.18853,17.72868004 0,24.19971304 -6.51467,13.221385 -21.72538,19.757897 -35.63912,15.315232 z m 18.96125,-5.788789 c 14.8249,-6.903272 18.96906,-24.643701 8.58945,-36.7699449 -7.1572,-8.3615691 -18.18725,-10.9442461 -27.64505,-6.473064 -19.107206,9.03294141 -19.107206,34.2004769 0,43.2334179 6.43899,3.044036 12.53249,3.047103 19.0556,0.0096 z"
         id="path37" /><path
         style="fill:#404040;fill-opacity:1"
         d="M 3.2204666,73.339345 C -19.462795,69.580973 -39.508197,52.07797 -46.957063,29.525932 c -3.302721,-9.999252 -3.302721,-27.0007472 0,-36.9999997 6.452895,-19.5366543 21.928954,-35.1349043 41.1775296,-41.5026443 7.6323835,-2.524916 26.2771534,-3.975963 27.4157604,-2.133658 0.504829,0.81683 -1.87438,1.136302 -8.462399,1.136302 -17.3835081,0 -30.723444,5.539562 -43.068622,17.88474 -12.357974,12.357974 -17.884739,25.6815072 -17.884739,43.11526 0,17.433753 5.526765,30.757287 17.884739,43.115261 11.621801,11.621802 25.7869237,17.884739 40.450588,17.884739 3.600651,0 6.824754,0.45 7.164673,1 0.61097,0.988572 -9.1515941,1.199586 -14.5000004,0.313413 z M 51.568344,61.606124 C 33.41918,57.203798 18.124096,41.441921 14.32555,23.226711 8.4486711,-4.9547556 27.814317,-32.255187 56.717944,-36.535335 c 4.399791,-0.651536 4.846982,-0.558707 3.739125,0.776179 -0.692094,0.833922 -3.344725,1.802191 -5.894737,2.151709 -13.118342,1.798069 -27.498528,12.975271 -34.120189,26.5203989 -3.691053,7.5503387 -3.721676,7.71583387 -3.721676,20.1129801 0,12.397147 0.03062,12.562642 3.721676,20.112981 6.621661,13.545128 21.001847,24.72233 34.120189,26.520399 5.053742,0.692692 8.841325,3.436103 4.530579,3.281575 -1.304844,-0.04677 -4.6909,-0.647418 -7.524567,-1.334763 z M 108.72047,34.642641 c -19.107206,-9.032941 -19.107206,-34.20047649 0,-43.2334179 6.43899,-3.0440361 12.53249,-3.0471021 19.0556,-0.00959 14.8249,6.9032711 18.96906,24.6437009 8.58945,36.7699439 -7.1572,8.36157 -18.18725,10.944247 -27.64505,6.473064 z m 16.26847,-4.164437 c 16.01021,-6.689493 16.01021,-28.21505 0,-34.9045439 -4.6974,-1.9626967 -8.83955,-1.9626967 -13.53694,0 C 95.757448,2.1312609 95.315201,23.0259 110.72047,30.135889 c 4.91275,2.26738 9.4033,2.375113 14.26847,0.342315 z"
         id="path36" /><path
         style="fill:#333333;fill-opacity:1"
         d="M -48.658759,87.898657 C -74.979212,83.526929 -98.55988,63.486841 -107.44434,37.939591 c -13.67973,-39.3360684 7.2012,-82.429117 46.858955,-96.705207 6.314065,-2.272951 9.274261,-2.682964 21.805852,-3.020299 9.092768,-0.244766 16.506959,0.05803 19.88185,0.811986 l 5.381851,1.202308 -4.260387,1.907432 c -18.193233,8.145353 -34.231113,26.066095 -40.81979,45.61207 -2.381855,7.0660151 -2.621873,9.1969879 -2.621873,23.278051 0,14.081064 0.240018,16.212037 2.621873,23.278051 7.13852,21.177138 25.170699,40.020287 45.284454,47.321052 l 6.0320216,2.189465 -5.6051626,1.63457 c -12.095188,3.52718 -24.268008,4.3607 -35.774063,2.449587 z M -3.2795334,70.13254 C -24.048182,64.071878 -40.872623,46.891881 -46.20981,26.295005 c -2.019866,-7.794919 -2.019866,-22.7432267 0,-30.5381449 5.43938,-20.9912501 23.169954,-38.7218251 44.1612044,-44.1612041 3.3317687,-0.863348 9.9707152,-1.569724 14.7532146,-1.569724 h 8.695453 l -4.841754,3.827187 c -11.2446581,8.88839 -20.5054144,22.103325 -25.1543167,35.894762 -2.3818553,7.0660151 -2.6218733,9.1969879 -2.6218733,23.278051 0,14.081064 0.240018,16.212037 2.6218733,23.278051 3.4984881,10.378618 9.58520802,20.379252 17.5281452,28.799184 L 15.462723,72.025932 9.0915946,71.95469 C 5.5874742,71.915506 0.02046661,71.095539 -3.2795334,70.13254 Z M 48.382815,58.033511 C 35.645284,53.451066 26.295628,45.110432 20.416282,33.085146 16.755463,25.597512 16.720467,25.407567 16.720467,13.025932 c 0,-12.39714623 0.03062,-12.5626414 3.721676,-20.1129801 6.629503,-13.5611699 21.00194,-24.7223429 34.157333,-26.5254899 l 4.673528,-0.640579 -3.664624,5.389525 C 38.873462,-4.2517222 38.834729,30.251897 55.514487,54.775932 l 3.570731,5.25 -2.682376,-0.03607 c -1.475306,-0.01984 -5.084319,-0.900198 -8.020027,-1.956346 z M 110.72047,30.135889 C 95.315201,23.0259 95.757448,2.1312609 111.452,-4.4263399 c 4.69739,-1.9626967 8.83954,-1.9626967 13.53694,0 16.01021,6.6894939 16.01021,28.2150509 0,34.9045439 -4.86517,2.032798 -9.35572,1.925065 -14.26847,-0.342315 z"
         id="path35" /></g></g></svg>
