<?xml version="1.0" encoding="UTF-8" standalone="no"?>
<!-- Created with Inkscape (http://www.inkscape.org/) -->

<svg
   version="1.1"
   id="svg1"
   width="512"
   height="512"
   viewBox="0 0 512 512"
   sodipodi:docname="opacity.svg"
   xml:space="preserve"
   inkscape:version="1.3.2 (091e20ef0f, 2023-11-25, custom)"
   xmlns:inkscape="http://www.inkscape.org/namespaces/inkscape"
   xmlns:sodipodi="http://sodipodi.sourceforge.net/DTD/sodipodi-0.dtd"
   xmlns="http://www.w3.org/2000/svg"
   xmlns:svg="http://www.w3.org/2000/svg"><defs
     id="defs1" /><sodipodi:namedview
     id="namedview1"
     pagecolor="#ffffff"
     bordercolor="#666666"
     borderopacity="1.0"
     inkscape:showpageshadow="2"
     inkscape:pageopacity="0.0"
     inkscape:pagecheckerboard="0"
     inkscape:deskcolor="#d1d1d1"
     inkscape:zoom="0.48778383"
     inkscape:cx="-488.9461"
     inkscape:cy="-28.701238"
     inkscape:window-width="1920"
     inkscape:window-height="1020"
     inkscape:window-x="2160"
     inkscape:window-y="1434"
     inkscape:window-maximized="0"
     inkscape:current-layer="g1" /><g
     inkscape:groupmode="layer"
     inkscape:label="Image"
     id="g1"
     transform="translate(310.7236,93.641295)"><rect
       style="fill:#f2f2f2;fill-rule:evenodd;stroke:#000000;stroke-width:8.73895;stroke-dasharray:none;stroke-dashoffset:0;-inkscape-stroke:none"
       id="rect2"
       width="503.26105"
       height="503.26105"
       x="-306.35413"
       y="-413.98923"
       ry="124.83231"
       transform="scale(1,-1)" /><g
       id="g62"
       transform="matrix(1.2888848,1.2458687,-1.2888848,1.2458687,-351.94996,708.95566)"><path
         style="fill:#b3b3b3"
         d="m -45.5411,-260.53498 -5.93818,-1.59652 5.27856,-2.32958 c 32.10778,-14.17005 50.58128,-49.90004 43.50716,-84.14808 -5.03888,-24.39477 -21.27168,-44.76477 -43.48532,-54.56826 l -5.25671,-2.31994 6.87397,-1.72669 c 42.86592,-10.76757 85.05512,15.57093 93.87845,58.60782 7.53849,36.76991 -13.53746,73.55511 -49.6139,86.5943 -6.60433,2.38702 -8.84221,2.66184 -23.30585,2.86203 -12.07496,0.16712 -17.45673,-0.1702 -21.93818,-1.37508 z"
         id="path60" /><path
         style="fill:#7f7f7f"
         d="m -95.10292,-259.95731 c -1.925,-0.52407 -4.13741,-1.17311 -4.91646,-1.4423 -0.80412,-0.27785 1.84001,-2.12539 6.11647,-4.27376 4.1431,-2.08137 9.8343,-5.47369 12.64711,-7.53848 5.44962,-4.00039 5.436,-4.00112 11.23273,0.60467 1.96892,1.5644 7.02816,4.5767 11.24275,6.69399 l 7.66289,3.84962 -6.44826,1.61975 c -7.23357,1.81701 -31.49509,2.13146 -37.53723,0.48651 z m 13.66484,-134.55602 c -2.65934,-1.99568 -8.19477,-5.31629 -12.30096,-7.37912 -4.10619,-2.06283 -7.10537,-3.95699 -6.66484,-4.20924 6.15368,-3.52366 30.50133,-4.30854 42.06218,-1.35594 l 7.26122,1.8545 -7.57506,3.80549 c -4.16629,2.09303 -9.64519,5.41831 -12.17534,7.38953 -2.53014,1.97122 -4.86391,3.57037 -5.18615,3.55367 -0.32224,-0.0167 -2.76172,-1.6632 -5.42105,-3.65889 z"
         id="path59" /><path
         style="fill:#575757"
         d="m -145.10292,-259.95731 c -6.63949,-1.80757 -6.68307,-1.97461 -1.15962,-4.44491 2.93721,-1.31364 8.39773,-4.42095 12.13448,-6.90514 3.73676,-2.48419 7.09747,-4.51671 7.46826,-4.51671 0.37078,0 2.3712,1.36378 4.44537,3.03063 2.07417,1.66685 7.29768,4.80223 11.60781,6.96751 4.37649,2.19863 7.21119,4.14792 6.42015,4.41485 -5.93045,2.00118 -11.2291,2.5649 -23.41645,2.49124 -7.7,-0.0465 -15.575,-0.51339 -17.5,-1.03747 z m 85.58716,-6.28511 c -3.77546,-1.9679 -9.02889,-5.22861 -11.67428,-7.24601 l -4.80981,-3.66801 4.87854,-5.33789 c 26.46124,-28.95281 26.45259,-73.71613 -0.0198,-102.68119 l -4.89837,-5.35959 5.591,-4.14223 c 3.07505,-2.27822 8.42424,-5.53702 11.88708,-7.24177 7.60924,-3.74601 9.22048,-3.53222 19.72585,2.61738 18.7373,10.96839 31.75,29.21211 36.15242,50.6855 6.45803,31.49987 -8.51519,64.48007 -36.55658,80.51996 -10.4901,6.00041 -12.04756,6.14281 -20.27601,1.85385 z m -72.51717,-128.76156 c -2.37821,-1.74896 -7.66479,-4.85823 -11.74796,-6.9095 -4.08317,-2.05126 -7.06352,-3.93596 -6.62299,-4.18821 0.44053,-0.25225 3.27596,-1.07572 6.30096,-1.82994 9.91645,-2.47246 34.75711,-1.34452 40.30095,1.82994 0.44053,0.25225 -2.67354,2.20412 -6.92014,4.3375 -4.24661,2.13337 -9.41815,5.24264 -11.49232,6.90949 -2.07417,1.66684 -4.15895,3.03063 -4.63285,3.03063 -0.4739,0 -2.80744,-1.43096 -5.18565,-3.17991 z"
         id="path58" /><path
         style="fill:#262626"
         d="m -110.37439,-265.70926 c -4.25353,-2.13685 -9.70362,-5.39745 -12.11129,-7.24577 l -4.3776,-3.36058 5.27031,-5.69256 c 20.27028,-21.89432 25.97204,-53.64748 14.54172,-80.98298 -3.41466,-8.16613 -10.53661,-19.00291 -15.92749,-24.23528 l -4.02057,-3.90236 4.19819,-3.34706 c 2.30901,-1.84088 7.8943,-5.18661 12.41176,-7.43494 l 8.21357,-4.08788 7.28643,3.51371 c 4.00754,1.93253 9.88243,5.37767 13.05532,7.65585 l 5.76888,4.14215 -5.0974,5.68145 c -6.49176,7.23556 -12.36993,17.06617 -15.77115,26.37559 -2.51228,6.87632 -2.66921,8.33473 -2.66921,24.80585 0,16.47112 0.15693,17.92953 2.66921,24.80585 3.39858,9.30219 9.27844,19.13901 15.75473,26.35717 l 5.08098,5.66302 -5.13599,3.77017 c -4.45622,3.27117 -19.33892,11.40379 -20.86893,11.40379 -0.29577,0 -4.01793,-1.74834 -8.27147,-3.88519 z"
         id="path57" /><path
         style="fill:#1b1b1b"
         d="m -81.5907,-283.07407 c -6.13939,-6.94223 -12.05555,-16.94611 -15.34301,-25.94415 -2.51228,-6.87632 -2.66921,-8.33473 -2.66921,-24.80585 0,-16.47112 0.15693,-17.92953 2.66921,-24.80585 3.40549,-9.32109 9.30636,-19.19464 15.65479,-26.19415 l 4.98839,-5.5 3.66928,3.5 c 2.01811,1.925 5.71968,6.57482 8.22573,10.33292 16.92656,25.38337 17.62118,56.61041 1.83724,82.59359 -3.72352,6.12957 -12.11231,16.07349 -13.55977,16.07349 -0.45638,0 -2.91907,-2.3625 -5.47265,-5.25 z"
         id="path56" /><path
         style="fill:#000000"
         d="m -197.97462,-260.74493 c -20.3688,-5.95589 -37.75762,-20.57252 -47.08572,-39.57914 -6.14674,-12.52439 -7.27488,-18.45391 -6.84441,-35.97431 0.32326,-13.15699 0.69694,-15.9343 3.00471,-22.33154 12.18026,-33.76425 45.89785,-54.8674 80.65492,-50.48025 27.6517,3.49029 50.60092,20.78607 61.19387,46.11902 16.81103,40.20342 -3.68824,85.94896 -45.24582,100.96922 -6.58487,2.37999 -8.88483,2.66522 -23.30585,2.89033 -13.18581,0.20583 -17.1207,-0.0779 -22.3717,-1.61333 z"
         id="path55" /></g></g></svg>
