<?xml version="1.0" encoding="UTF-8" standalone="no"?>
<!-- Created with Inkscape (http://www.inkscape.org/) -->

<svg
   version="1.1"
   id="svg1"
   width="32"
   height="32"
   viewBox="0 0 32.000001 32.000001"
   sodipodi:docname="pen.svg"
   inkscape:version="1.3.2 (091e20ef0f, 2023-11-25, custom)"
   xmlns:inkscape="http://www.inkscape.org/namespaces/inkscape"
   xmlns:sodipodi="http://sodipodi.sourceforge.net/DTD/sodipodi-0.dtd"
   xmlns="http://www.w3.org/2000/svg"
   xmlns:svg="http://www.w3.org/2000/svg">
  <defs
     id="defs1" />
  <sodipodi:namedview
     id="namedview1"
     pagecolor="#ffffff"
     bordercolor="#666666"
     borderopacity="1.0"
     inkscape:showpageshadow="2"
     inkscape:pageopacity="0.0"
     inkscape:pagecheckerboard="0"
     inkscape:deskcolor="#d1d1d1"
     inkscape:zoom="12.402344"
     inkscape:cx="8.6677164"
     inkscape:cy="23.584251"
     inkscape:window-width="1728"
     inkscape:window-height="899"
     inkscape:window-x="2160"
     inkscape:window-y="1434"
     inkscape:window-maximized="1"
     inkscape:current-layer="g1" />
  <g
     inkscape:groupmode="layer"
     inkscape:label="Image"
     id="g1">
    <g
       id="g2"
       transform="scale(3.1249286)">
      <path
         id="path5"
         style="opacity:1;fill:#000000;fill-opacity:0.868664;fill-rule:evenodd;stroke-width:15.1181;stroke-linejoin:bevel"
         d="M 7.4375,0 1.0106556,6.5838025 0,9.6191406 V 10.240234 H 0.5 L 3.9164322,8.8054215 7.3164062,5.3613281 7.7597656,5.6445312 10.240234,3.2246094 V 0 Z M 9.03125,0.30273438 9.3535156,0.66601562 9.5957031,0.90625 9.6347656,3.2851562 7.6992188,5.1191406 7.1367188,4.65625 9.1113281,2.640625 9.1523438,2.1972656 3.3066406,8.40625 1.4511719,9.4941406 0.640625,9.8066406 0.88671875,9.0097656 1.734375,6.9941406 7.7402344,0.54492188 Z"
         sodipodi:nodetypes="cccccccccccccccccccccccccc" />
      <path
         style="opacity:0.66;fill:#800000;fill-opacity:0.868664;fill-rule:evenodd;stroke-width:15.1181;stroke-linejoin:bevel"
         d="M 2.4995275,7.7606297 9.3530707,0.66519684 9.5949604,0.90708659 9.6352754,3.2856692 7.7001573,5.1199999 7.1357479,4.6563778 9.1111809,2.6406299 9.1514959,2.1971653 3.3058267,8.4056691 Z"
         id="path1" />
      <path
         style="fill:#ff5555;fill-opacity:0.868664;fill-rule:evenodd;stroke-width:15.1181;stroke-linejoin:bevel"
         d="M 9.3530707,0.66519684 9.030551,0.3023622 7.7404723,0.54425196 1.7335433,6.9946455 2.4995275,7.7606297 Z"
         id="path2" />
      <path
         style="fill:#999999;fill-opacity:0.868664;fill-rule:evenodd;stroke-width:15.1181;stroke-linejoin:bevel"
         d="M 1.7335433,6.9946455 2.4995275,7.7606297 3.3058267,8.4056691 1.4513385,9.494173 0.88692911,9.0103935 Z"
         id="path3" />
      <path
         style="fill:#ff0000;fill-opacity:0.868664;fill-rule:evenodd;stroke-width:15.1181;stroke-linejoin:bevel"
         d="M 0.88692911,9.0103935 0.64140709,9.8064016 1.4513385,9.494173 Z"
         id="path4"
         sodipodi:nodetypes="cccc" />
    </g>
  </g>
</svg>
