<?xml version="1.0" encoding="UTF-8" standalone="no"?>
<!-- Created with Inkscape (http://www.inkscape.org/) -->

<svg
   version="1.1"
   id="svg1"
   width="512"
   height="512"
   viewBox="0 0 512 512"
   sodipodi:docname="size_active.svg"
   xml:space="preserve"
   inkscape:version="1.3.2 (091e20ef0f, 2023-11-25, custom)"
   xmlns:inkscape="http://www.inkscape.org/namespaces/inkscape"
   xmlns:sodipodi="http://sodipodi.sourceforge.net/DTD/sodipodi-0.dtd"
   xmlns="http://www.w3.org/2000/svg"
   xmlns:svg="http://www.w3.org/2000/svg"><defs
     id="defs1" /><sodipodi:namedview
     id="namedview1"
     pagecolor="#ffffff"
     bordercolor="#666666"
     borderopacity="1.0"
     inkscape:showpageshadow="2"
     inkscape:pageopacity="0.0"
     inkscape:pagecheckerboard="0"
     inkscape:deskcolor="#d1d1d1"
     inkscape:zoom="0.97556766"
     inkscape:cx="52.789778"
     inkscape:cy="142.48115"
     inkscape:window-width="1920"
     inkscape:window-height="1022"
     inkscape:window-x="2160"
     inkscape:window-y="1434"
     inkscape:window-maximized="1"
     inkscape:current-layer="g1"
     showgrid="false" /><g
     inkscape:groupmode="layer"
     inkscape:label="Image"
     id="g1"
     transform="translate(310.7236,93.641295)"><rect
       style="fill:#1a1a1a;fill-rule:evenodd;stroke:#000000;stroke-width:8.73895;stroke-dasharray:none;stroke-dashoffset:0;-inkscape-stroke:none"
       id="rect2"
       width="503.26105"
       height="503.26105"
       x="-306.35413"
       y="-413.98923"
       ry="124.83231"
       transform="scale(1,-1)" /><path
       id="path62-2"
       style="fill:#00ff00;fill-rule:evenodd;stroke:#00ff00;stroke-width:1.61185;stroke-linecap:square;paint-order:markers stroke fill"
       d="m -137.69336,-79.003906 c -42.24922,0.397013 -84.16111,17.594558 -114.27642,47.273269 -23.34613,22.79266 -39.8835,52.536892 -46.60145,84.487776 -6.89169,32.347688 -3.94062,66.759641 8.60908,97.378501 12.01706,29.50464 32.63227,55.48869 58.80672,73.68148 27.66903,19.31595 61.30458,30.13837 95.08782,29.96705 0.61875,-0.17456 0.96304,0.16238 1.20433,0.70216 18.05642,26.10177 46.73747,44.66174 78.017577,50.17578 6.312133,1.09971 12.70318,1.7968 19.113281,1.89844 10.332666,23.58918 31.552045,42.24319 56.453177,49.0039 7.792327,2.21171 15.899154,3.32356 23.999948,3.24805 8.657696,17.81696 25.776366,31.36363 45.22177,35.34094 19.439267,4.24003 40.766017,-0.94305 55.908387,-13.9017 14.83214,-12.35427 23.8303,-31.52764 23.47979,-50.86657 -0.11421,-17.93861 -7.88643,-35.77353 -21.24682,-47.80195 -4.76404,-4.39409 -10.17993,-8.08728 -16.0311,-10.87814 -0.009,-26.41152 -12.77272,-52.56253 -33.780671,-68.61964 C 92.92167,199.45297 89.365215,197.08321 85.65625,194.98633 88.452575,161.40472 76.547555,126.77595 53.288476,102.32499 46.525919,95.052226 38.845452,88.636802 30.496094,83.261719 29.975107,57.756983 23.221106,32.462597 11.37822,9.8941942 -1.8530297,-15.233684 -21.572156,-36.953165 -45.492424,-52.293123 c -26.589889,-17.234153 -58.184326,-26.641215 -89.874326,-26.708888 -0.7755,-0.0082 -1.55108,-6.58e-4 -2.32661,-0.0019 z" /><path
       id="path62"
       style="fill:#000000;fill-rule:evenodd;stroke:#000000;stroke-width:1.61185;stroke-linecap:square;paint-order:markers stroke fill"
       d="m -142.37695,-47 c -4.3099,0.09788 -8.72014,0.390028 -12.99678,0.923493 -3.70814,0.439743 -7.57766,1.08032 -11.23914,1.848383 -17.68555,3.68052 -34.55275,11.139507 -49.23401,21.656517 -11.19591,8.01447 -21.08578,17.8389773 -29.22148,28.9446539 -5.80749,7.9322321 -10.79865,16.6329201 -14.67878,25.7243291 -5.43876,12.702792 -8.8881,26.413598 -10.04444,40.215249 -0.4992,5.844706 -0.60123,11.695478 -0.3178,17.574094 0.23569,4.81336 0.74621,9.723402 1.5284,14.486991 1.25705,7.74363 3.22769,15.38143 5.84673,22.7454 2.06796,5.84008 4.65484,11.75101 7.55847,17.23831 2.77453,5.2323 5.90079,10.29312 9.31959,15.05097 9.08001,12.68786 20.57025,23.8262 33.55346,32.48223 6.91021,4.6159 14.39856,8.6415 22.04256,11.83411 9.8311,4.13713 20.20899,7.04258 30.71127,8.64322 7.77633,1.17658 15.53536,1.73468 23.40478,1.36791 4.13989,-0.20354 8.26035,-0.7313 12.39078,-1.00788 3.54125,0.10711 6.60424,2.7718 7.80919,6.00871 4.85837,9.6864 11.37622,18.58474 19.47568,25.81344 11.310599,10.21755 25.369654,17.39125 40.329317,20.37005 7.24233,1.47151 14.789859,2.00018 22.094231,1.52709 5.743408,-0.36328 11.324223,-1.49204 17.03125,-2.18946 1.941116,0.0305 3.239339,2.00253 3.216462,3.80781 1.167669,7.69851 2.464664,15.56784 6.1565697,22.52508 3.41998,6.69926 8.31299238,12.63958 14.2246247,17.29016 0.8109533,0.62984 1.8416682,1.40087 2.7769187,2.03033 10.4772709,7.15224 23.7079509,10.39577 36.2735059,8.33113 6.574237,-1.1469 12.857582,-3.47135 19.29991,-5.15176 0.736597,-0.20777 1.473363,-0.41494 2.210212,-0.62181 0.512505,5.09222 0.488208,10.20282 0.891609,15.26962 0.195485,2.48411 0.620146,4.91006 1.344057,7.24143 2.329805,7.41478 7.770676,13.77564 14.654452,17.35615 6.583496,3.38182 14.319834,4.23694 21.473581,2.25454 7.85972,-2.1371 14.72664,-7.64987 18.47423,-14.88701 2.67883,-5.08947 3.78585,-10.9685 3.23824,-16.68786 -0.0647,-0.54995 -0.16702,-1.43772 -0.28594,-2.11125 -0.49805,-2.91945 -1.44475,-5.75908 -2.77851,-8.40242 -0.51065,-1.00057 -1.19363,-2.19142 -1.87695,-3.20507 -0.85533,-1.26541 -1.83646,-2.50021 -2.81688,-3.54186 -2.58631,-2.83804 -5.80205,-5.14001 -9.2188,-6.72727 -2.73584,-1.29284 -5.86545,-2.19254 -8.82956,-2.58244 -2.941284,-0.4651 -6.148542,0.13629 -8.839841,-1.41601 -4.442674,-2.38957 -6.761765,-8.18651 -4.930735,-12.93359 1.953506,-5.83077 2.684773,-12.04383 2.340891,-18.17579 -0.04922,-0.55403 -0.08267,-1.30111 -0.149293,-1.88229 -0.309454,-3.33054 -0.973742,-6.60387 -1.935625,-9.752 -2.803363,-9.31022 -8.240139,-17.68953 -15.584884,-24.0643 -6.112795,-5.38338 -13.570849,-9.12627 -21.428856,-11.19331 -3.468425,-0.99242 -6.948043,-1.94432 -10.395483,-3.00849 2.044576,-8.38547 4.560228,-16.72451 5.251954,-25.36719 0.324667,-3.74101 0.400133,-7.64952 0.219533,-11.43003 -0.51626,-11.35309 -3.388285,-22.77115 -8.324194,-33.0071 -5.836288,-12.1417 -14.557848,-22.84401 -25.309438,-30.99561 -3.257222,-2.47395 -6.685621,-4.7192 -10.2929328,-6.72741 -1.9504292,-1.08132 -4.0631999,-2.15618 -6.1435266,-3.1023 -2.6061917,-1.14101 -4.8337358,-3.30274 -5.6450117,-6.075415 -0.6024219,-1.824549 -0.4752029,-3.77029 -0.1906694,-5.63815 C -9.3216142,85.592014 -9.2314309,79.28775 -9.7858103,73.125701 -10.486804,64.551386 -11.99444,56.067535 -14.332031,47.84375 -20.176035,27.256301 -31.071741,8.1785877 -46.009607,-7.1852459 c -9.602,-9.9413691 -20.809332,-18.3866781 -33.104661,-24.8504101 -8.77075,-4.624444 -18.228208,-8.252228 -27.822152,-10.759848 -5.53453,-1.446766 -11.12437,-2.502092 -16.81553,-3.224027 -6.0983,-0.751472 -12.41834,-1.078578 -18.625,-0.980469 z" /></g></svg>
