<?xml version="1.0" encoding="UTF-8" standalone="no"?>
<!-- Created with Inkscape (http://www.inkscape.org/) -->

<svg
   version="1.1"
   id="svg1"
   width="127.99998"
   height="127.99998"
   viewBox="0 0 127.99998 127.99998"
   sodipodi:docname="rgba_icon.svg"
   xml:space="preserve"
   inkscape:version="1.3.2 (091e20ef0f, 2023-11-25, custom)"
   xmlns:inkscape="http://www.inkscape.org/namespaces/inkscape"
   xmlns:sodipodi="http://sodipodi.sourceforge.net/DTD/sodipodi-0.dtd"
   xmlns="http://www.w3.org/2000/svg"
   xmlns:svg="http://www.w3.org/2000/svg"><defs
     id="defs1" /><sodipodi:namedview
     id="namedview1"
     pagecolor="#ffffff"
     bordercolor="#666666"
     borderopacity="1.0"
     inkscape:showpageshadow="2"
     inkscape:pageopacity="0.0"
     inkscape:pagecheckerboard="0"
     inkscape:deskcolor="#d1d1d1"
     inkscape:zoom="2.5173001"
     inkscape:cx="151.94851"
     inkscape:cy="80.244703"
     inkscape:window-width="1920"
     inkscape:window-height="1020"
     inkscape:window-x="2160"
     inkscape:window-y="1434"
     inkscape:window-maximized="0"
     inkscape:current-layer="g1"
     showgrid="false" /><g
     inkscape:groupmode="layer"
     inkscape:label="Image"
     id="g1"
     transform="translate(-122.80129,-415.45664)"><rect
       style="fill:#f2f2f2;fill-rule:evenodd;stroke:#000000;stroke-width:2.18474;stroke-dasharray:none;stroke-dashoffset:0;-inkscape-stroke:none"
       id="rect2-5"
       width="125.81525"
       height="125.81525"
       x="123.89365"
       y="-542.36426"
       ry="31.208075"
       transform="scale(1,-1)" /><g
       id="g11"
       transform="matrix(0.98921449,0,0,1.0021677,-208.96226,54.489002)"><path
         id="rect2"
         style="fill:#008000;fill-rule:evenodd;stroke:#000000;stroke-width:2.18474;stroke-dasharray:none;stroke-dashoffset:0;-inkscape-stroke:none"
         d="m 368.42923,361.27686 c -0.13441,0 -0.26639,0.008 -0.40039,0.01 v 125.79492 c 0.134,0.002 0.26598,0.01 0.40039,0.01 h 31.99609 V 361.27686 Z" /><path
         id="rect2-6"
         style="fill:#0000ff;fill-rule:evenodd;stroke:#000000;stroke-width:2.18474;stroke-dasharray:none;stroke-dashoffset:0;-inkscape-stroke:none"
         d="m 432.42141,361.27686 c 0.13441,0 0.26639,0.008 0.40039,0.01 v 125.79492 c -0.134,0.002 -0.26598,0.01 -0.40039,0.01 H 400.42532 V 361.27686 Z" /><path
         id="rect2-0"
         style="fill:#ff0000;fill-rule:evenodd;stroke:#000000;stroke-width:2.18474;stroke-dasharray:none;stroke-dashoffset:0;-inkscape-stroke:none"
         d="m 368.02884,361.28686 c -17.1022,0.21411 -30.8086,14.04439 -30.8086,31.19921 v 63.39844 c 0,17.15483 13.7064,30.98318 30.8086,31.19727 z" /><g
         id="g10"
         transform="translate(108.10792,-207.34333)"><path
           id="rect2-0-3"
           style="fill:#f2f2f2;fill-rule:evenodd;stroke:#000000;stroke-width:2.18474;stroke-dasharray:none;stroke-dashoffset:0;-inkscape-stroke:none"
           d="m 324.71388,568.63019 c 17.1022,0.21411 30.8086,14.04439 30.8086,31.19921 v 63.39844 c 0,17.15483 -13.7064,30.98318 -30.8086,31.19727 z" /><path
           id="rect1"
           style="mix-blend-mode:normal;fill:#000000;fill-opacity:1;fill-rule:evenodd;stroke:#000000;stroke-width:0.0953619;stroke-linejoin:bevel;stroke-dasharray:none"
           d="m 324.74318,569.83722 v 8.50195 h 9.86133 v -6.78125 c -3.09328,-1.07018 -6.40571,-1.67744 -9.86133,-1.7207 z m 9.86133,8.50195 v 10.67578 h -9.86133 v 10.81445 h 9.86133 v -10.67773 h 10.11914 v 10.67773 h -10.11914 v 10.8125 h 10.11914 v 10.81446 h -10.11914 v 10.67578 h -9.86133 v 10.81445 h 9.86133 v -10.67578 h 10.11914 v 10.67578 h -10.11914 v 10.67578 h -9.86133 v 10.8125 h 9.86133 v -10.67578 h 10.11914 v 10.67578 h -10.11914 v 10.67578 h -9.86133 v 10.81446 h 9.86133 v -10.67578 h 10.11914 v 10.67578 h -10.11914 v 7.98632 c 4.0577,-1.40371 7.73425,-3.61038 10.83008,-6.44335 v -1.54297 h 1.56055 c 2.91911,-3.07482 5.22083,-6.74173 6.69531,-10.81446 h -8.25586 v -10.67578 h 10.11719 v -10.67578 -0.13672 h -10.11719 v -10.67578 h 10.11719 v -10.67578 -0.13867 h -10.11719 v -10.67578 h 10.11719 V 610.6419 h -10.11719 v -10.8125 h 10.08789 c -0.14436,-3.82404 -0.96492,-7.46908 -2.35547,-10.81445 h -7.73242 v -10.67578 h 0.35547 c -0.34752,-0.3282 -0.704,-0.64694 -1.06641,-0.95899 v 0.95899 z m 0,43.11719 V 610.6419 h -9.86133 v 10.81446 z" /></g></g></g></svg>
